<svg width="20" height="20" viewBox="0 0 20 20" fill="none" xmlns="http://www.w3.org/2000/svg">
<path d="M9.07804 0.9375C9.07804 0.419733 9.49778 0 10.0155 0C10.5333 0 10.953 0.419733 10.953 0.9375V19.0625C10.953 19.5803 10.5333 20 10.0155 20C9.49778 20 9.07804 19.5803 9.07804 19.0625V0.9375Z" fill="#5B5B5B"/>
<path d="M19.0625 9.09424C19.5803 9.09424 20 9.51397 20 10.0317C20 10.5495 19.5803 10.9692 19.0625 10.9692L0.9375 10.9692C0.419733 10.9692 -6.36117e-08 10.5495 -4.09794e-08 10.0317C-1.83471e-08 9.51397 0.419733 9.09424 0.9375 9.09424L19.0625 9.09424Z" fill="#5B5B5B"/>
</svg>
