<svg width="30" height="23" viewBox="0 0 30 23" fill="none" xmlns="http://www.w3.org/2000/svg">
<g clip-path="url(#clip0_223_6703)">
<path d="M0 0.5V23H30V0.5H0Z" fill="#006233"/>
<path fill-rule="evenodd" clip-rule="evenodd" d="M12.1729 12.1543C11.7316 12.7575 12.0502 13.1498 12.5052 13.1777C12.8052 13.1979 13.4289 12.7916 13.4272 12.314L13.2568 12.2272C13.3522 12.4722 13.2534 12.5497 13.0506 12.7172C12.6501 13.0475 11.8321 13.0707 12.1729 12.1543Z" fill="white" stroke="white" stroke-width="0.0173394"/>
<path fill-rule="evenodd" clip-rule="evenodd" d="M15.6716 13.7359C18.1562 13.7995 18.947 11.6116 17.4132 9.7384L17.2616 9.94464C17.3604 10.8176 17.5036 11.6782 17.5172 12.5729C17.2173 12.8939 16.781 12.7745 16.6941 12.4179C16.6992 11.9341 16.5254 11.5247 16.3055 11.134L16.1828 11.3402C16.326 11.6612 16.4811 12.0225 16.5135 12.4179C15.8045 13.1916 15.0206 13.3483 15.312 12.3311C14.7514 13.2227 15.6 13.8507 16.5612 12.4784C16.7674 13.4149 17.5649 12.8335 17.6126 12.6319C17.6995 12.0178 17.6552 11.0285 17.4797 10.247C18.1716 11.3371 18.1954 12.1233 17.8273 12.6489C17.4183 13.2335 16.5288 13.5064 15.6716 13.7359Z" fill="white" stroke="white" stroke-width="0.0433486"/>
<path fill-rule="evenodd" clip-rule="evenodd" d="M17.0808 11.2627C16.5491 11.2983 16.2765 11.1991 16.5645 10.8409C16.8491 10.4904 17.1149 10.7696 17.1865 11.2378C17.2529 11.6767 16.2526 12.2365 15.9067 12.2365C15.3835 12.2365 15.1415 11.624 15.6238 11.0735C15.0035 12.6799 16.9632 11.748 17.0808 11.2627ZM16.7127 10.8905C16.648 10.8874 16.6003 10.9913 16.6326 11.0115C16.7264 11.0704 16.8746 11.0347 16.89 11.0053C16.9223 10.9401 16.803 10.8936 16.7127 10.8905Z" fill="white" stroke="white" stroke-width="0.0433486"/>
<path fill-rule="evenodd" clip-rule="evenodd" d="M14.1941 12.0209C13.6828 12.9358 14.1924 13.3142 14.8485 13.2087C15.2302 13.1452 15.7142 12.8986 15.9937 12.5621C15.9988 11.8209 15.9868 11.0859 15.9153 10.368C16.1709 10.0904 15.8931 10.092 15.796 9.79425C15.7517 9.96792 15.6443 10.1555 15.7483 10.2905C15.8215 11.0146 15.8624 11.748 15.8607 12.4954C15.3461 12.8722 14.9592 13.0118 14.6832 13.0087C14.1123 13.004 13.9896 12.5668 14.1941 12.0209Z" fill="white" stroke="white" stroke-width="0.0433486"/>
<path fill-rule="evenodd" clip-rule="evenodd" d="M15.2387 12.2628C15.2302 11.5728 15.2182 10.7897 15.1501 10.3075C15.4159 10.0392 15.1364 10.033 15.0495 9.73218C14.9984 9.90275 14.8859 10.0888 14.9848 10.2268C15.0291 10.9649 15.0717 11.703 15.0802 12.4411C15.1415 12.4055 15.2114 12.3915 15.2387 12.2628Z" fill="white" stroke="white" stroke-width="0.0433486"/>
<path fill-rule="evenodd" clip-rule="evenodd" d="M13.2551 12.2303C13.1903 12.1558 13.1443 12.0721 13.0915 11.9992C13.0829 11.8953 13.1596 11.7992 13.1699 11.7465C13.2568 11.869 13.3079 11.962 13.3778 12.0225M13.4698 12.0706C13.5976 12.1171 13.7544 12.1171 13.8992 12.1202C14.4582 12.1295 15.0461 12.0457 14.9831 12.7342C14.9646 12.9921 14.84 13.2342 14.634 13.4121C14.4281 13.59 14.1559 13.6907 13.872 13.6941C13.1613 13.6879 12.5547 12.9746 13.6504 11.6612C13.7561 11.6457 13.8941 11.672 14.0083 11.6813C14.2043 11.6953 14.4054 11.6782 14.6354 11.5108C14.6081 11.0782 14.6081 10.6688 14.5502 10.278C14.4514 10.14 14.5638 9.95551 14.615 9.78339C14.7019 10.0842 14.9796 10.0904 14.7155 10.3602C14.7786 10.7944 14.7854 11.2363 14.7854 11.4999C14.6525 11.6845 14.5485 11.8798 14.16 11.9543C13.7629 11.9015 13.584 11.396 13.1699 11.5635C13.284 11.1076 14.3355 11.0037 14.4411 11.3635C14.3713 11.7387 13.3897 11.5883 13.129 12.8009C13.0489 13.1746 13.4817 13.5188 13.9265 13.4909C14.361 13.4646 14.8246 13.1901 14.8706 12.728C14.9064 12.3419 14.3082 12.3869 14.0577 12.3915C13.693 12.3993 13.463 12.3481 13.3249 12.2752M13.6981 11.4395C13.7629 11.3836 13.9895 11.3449 14.0713 11.4348C14.01 11.472 13.9503 11.5123 13.9009 11.5604C13.8157 11.5201 13.7595 11.4798 13.6981 11.4395Z" fill="white"/>
<path d="M13.2551 12.2303C13.1903 12.1558 13.1443 12.0721 13.0915 11.9992C13.0829 11.8953 13.1596 11.7992 13.1699 11.7465C13.2568 11.869 13.3079 11.962 13.3778 12.0225M13.4698 12.0706C13.5976 12.1171 13.7544 12.1171 13.8992 12.1202C14.4582 12.1295 15.0461 12.0457 14.9831 12.7342C14.9646 12.9921 14.84 13.2342 14.634 13.4121C14.4281 13.59 14.1559 13.6907 13.872 13.6941C13.1613 13.6879 12.5547 12.9746 13.6504 11.6612C13.7561 11.6457 13.8941 11.672 14.0083 11.6813C14.2043 11.6953 14.4054 11.6782 14.6354 11.5108C14.6081 11.0782 14.6081 10.6688 14.5502 10.278C14.4514 10.14 14.5638 9.95551 14.615 9.78339C14.7019 10.0842 14.9796 10.0904 14.7155 10.3602C14.7786 10.7944 14.7854 11.2363 14.7854 11.4999C14.6525 11.6845 14.5485 11.8798 14.16 11.9543C13.7629 11.9015 13.584 11.396 13.1699 11.5635C13.284 11.1076 14.3355 11.0037 14.4411 11.3635C14.3713 11.7387 13.3897 11.5883 13.129 12.8009C13.0489 13.1746 13.4817 13.5188 13.9265 13.4909C14.361 13.4646 14.8246 13.1901 14.8706 12.728C14.9064 12.3419 14.3082 12.3869 14.0577 12.3915C13.693 12.3993 13.463 12.3481 13.3249 12.2752M13.6981 11.4395C13.7629 11.3836 13.9895 11.3449 14.0713 11.4348C14.01 11.472 13.9503 11.5123 13.9009 11.5604C13.8157 11.5201 13.7595 11.4798 13.6981 11.4395Z" stroke="white" stroke-width="0.0173394"/>
<path fill-rule="evenodd" clip-rule="evenodd" d="M14.2537 10.157C14.3101 10.2581 14.341 10.3694 14.344 10.4827C14.3065 10.6439 14.1549 10.7944 13.9981 10.799C13.9009 10.8021 13.7919 10.7773 13.7152 10.6393C13.7067 10.6222 13.6658 10.5819 13.6266 10.6005C13.4545 10.8579 13.3267 10.9665 13.1716 10.9649C12.8614 10.9603 12.9534 10.7091 12.6672 10.6315C12.5479 10.6284 12.3519 10.7385 12.2513 10.9541C11.8696 11.9387 11.522 10.951 11.6702 10.492C11.6924 10.9308 11.8083 11.1913 11.9276 11.1836C12.0145 11.1758 12.0912 10.9928 12.2019 10.8006C12.2871 10.6532 12.4916 10.3881 12.7081 10.3881C12.9057 10.3927 12.7813 10.723 13.1767 10.7184C13.3676 10.7153 13.5431 10.5819 13.7203 10.3152C13.7595 10.309 13.7697 10.3726 13.7782 10.3943C13.8055 10.4858 13.9793 10.737 14.2145 10.5075C14.2026 10.4579 14.2077 10.3757 14.148 10.3586L14.2537 10.157Z" fill="white" stroke="white" stroke-width="0.0433486"/>
<path fill-rule="evenodd" clip-rule="evenodd" d="M15.496 9.34145C15.2864 9.43604 15.133 9.3492 15.0461 9.26546C15.1978 9.23755 15.3154 9.18793 15.3495 9.07939C15.2813 8.93983 15.1194 8.87936 14.8911 8.87781C14.586 8.88556 14.4292 8.99721 14.4105 9.15072C14.5519 9.15537 14.6797 9.11971 14.7343 9.24376C14.4838 9.3554 14.1889 9.39572 13.8686 9.39417C13.3437 9.41898 13.267 9.20344 13.129 9.01426C13.1187 9.00186 13.0727 8.9817 13.0489 8.9848C12.887 8.9848 12.7677 9.49961 12.5854 9.49806C12.403 9.47635 12.4439 9.16623 12.3911 8.98946C12.3468 9.26702 12.4473 10.2997 13.0114 9.17863C13.0284 9.14142 13.0523 9.15227 13.0676 9.18328C13.2193 9.49651 13.5277 9.60505 13.86 9.62056C14.1378 9.63452 14.4923 9.52442 14.8723 9.32904C14.9729 9.42983 15.0529 9.54458 15.2643 9.56629C15.5114 9.57714 15.7755 9.41433 15.8351 9.21274C15.8658 9.10885 15.8709 8.90417 15.7499 8.90107C15.5812 8.89642 15.4585 9.26857 15.4977 9.6035C15.5011 9.59885 15.5199 9.51977 15.5199 9.51977M14.7735 9.07319C14.8842 9.02667 14.9916 9.00496 15.0768 9.1073C15.0256 9.1204 14.9771 9.14138 14.9337 9.16933C14.8859 9.13521 14.8212 9.11816 14.7735 9.07319ZM15.588 9.30423C15.6153 9.19414 15.6307 9.10575 15.7295 9.04838C15.7499 9.16467 15.7533 9.2298 15.588 9.30423ZM16.2527 9.4748C16.2203 9.38021 16.1879 9.29803 16.1777 9.19569C16.1538 8.9879 16.3498 8.87006 16.527 8.88711C16.7094 8.90417 16.8304 8.9662 17.0042 9.02047C17.1405 9.06234 17.3246 9.0949 17.5001 9.13987C17.5989 9.18018 17.5001 9.28563 17.4745 9.29958C17.0349 9.45619 16.723 9.70429 16.4435 9.71515C16.2765 9.7229 16.1283 9.62366 15.9936 9.42053C15.9851 9.02667 15.9698 8.56458 15.9272 8.27462C15.9919 8.21569 16.0056 8.17228 16.0362 8.12421C16.0703 8.50721 16.084 8.91037 16.0925 9.31664C16.1283 9.38641 16.1726 9.44534 16.2527 9.4748ZM16.5338 9.50581C16.2987 9.56629 16.3276 9.38486 16.3055 9.27322C16.2799 9.14296 16.297 8.99566 16.4793 9.03287C16.7162 9.09024 16.9326 9.16623 17.1422 9.24686L16.5338 9.50581Z" fill="white"/>
<path d="M15.496 9.34145C15.2864 9.43604 15.133 9.3492 15.0461 9.26546C15.1978 9.23755 15.3154 9.18793 15.3495 9.07939C15.2813 8.93983 15.1194 8.87936 14.8911 8.87781C14.586 8.88556 14.4292 8.99721 14.4105 9.15072C14.5519 9.15537 14.6797 9.11971 14.7343 9.24376C14.4838 9.3554 14.1889 9.39572 13.8686 9.39417C13.3437 9.41898 13.267 9.20344 13.129 9.01426C13.1187 9.00186 13.0727 8.9817 13.0489 8.9848C12.887 8.9848 12.7677 9.49961 12.5854 9.49806C12.403 9.47635 12.4439 9.16623 12.3911 8.98946C12.3468 9.26702 12.4473 10.2997 13.0114 9.17863C13.0284 9.14142 13.0523 9.15227 13.0676 9.18328C13.2193 9.49651 13.5277 9.60505 13.86 9.62056C14.1378 9.63452 14.4923 9.52442 14.8723 9.32904C14.9729 9.42983 15.0529 9.54458 15.2643 9.56629C15.5114 9.57714 15.7755 9.41433 15.8351 9.21274C15.8658 9.10885 15.8709 8.90417 15.7499 8.90107C15.5812 8.89642 15.4585 9.26857 15.4977 9.6035C15.5011 9.59885 15.5199 9.51977 15.5199 9.51977M14.7735 9.07319C14.8842 9.02667 14.9916 9.00496 15.0768 9.1073C15.0256 9.1204 14.9771 9.14138 14.9337 9.16933C14.8859 9.13521 14.8212 9.11816 14.7735 9.07319ZM15.588 9.30423C15.6153 9.19414 15.6307 9.10575 15.7295 9.04838C15.7499 9.16467 15.7533 9.2298 15.588 9.30423ZM16.2527 9.4748C16.2203 9.38021 16.1879 9.29803 16.1777 9.19569C16.1538 8.9879 16.3498 8.87006 16.527 8.88711C16.7094 8.90417 16.8304 8.9662 17.0042 9.02047C17.1405 9.06234 17.3246 9.0949 17.5001 9.13987C17.5989 9.18018 17.5001 9.28563 17.4745 9.29958C17.0349 9.45619 16.723 9.70429 16.4435 9.71515C16.2765 9.7229 16.1283 9.62366 15.9936 9.42053C15.9851 9.02667 15.9698 8.56458 15.9272 8.27462C15.9919 8.21569 16.0056 8.17228 16.0362 8.12421C16.0703 8.50721 16.084 8.91037 16.0925 9.31664C16.1283 9.38641 16.1726 9.44534 16.2527 9.4748ZM16.5338 9.50581C16.2987 9.56629 16.3276 9.38486 16.3055 9.27322C16.2799 9.14296 16.297 8.99566 16.4793 9.03287C16.7162 9.09024 16.9326 9.16623 17.1422 9.24686L16.5338 9.50581Z" stroke="white" stroke-width="0.0173394"/>
<path fill-rule="evenodd" clip-rule="evenodd" d="M16.3038 9.69812L16.3362 9.84233H16.3618L16.3515 9.70742" fill="white"/>
<path d="M16.3038 9.69812L16.3362 9.84233H16.3618L16.3515 9.70742" stroke="white" stroke-width="0.0173394"/>
<path fill-rule="evenodd" clip-rule="evenodd" d="M12.553 11.2053L12.6723 11.0937L12.8104 11.2007L12.6825 11.3046L12.553 11.2053ZM12.8564 11.1681L12.9774 11.0565L13.1154 11.1635L12.9876 11.2673L12.8564 11.1681ZM12.0128 10.0113L12.1338 9.8997L12.2718 10.0067L12.144 10.1106L12.0128 10.0113ZM12.0673 10.3401L12.1883 10.2284L12.3247 10.3354L12.1969 10.4393L12.0673 10.3401ZM14.2572 10.8905L14.3679 10.8084L14.4702 10.9092L14.3543 10.9836L14.2572 10.8905ZM12.795 8.78635L12.8734 8.71347L12.9637 8.78325L12.8802 8.85148L12.795 8.78635ZM12.9944 8.76309L13.0728 8.68866L13.1631 8.75999L13.0796 8.82667L12.9944 8.76309ZM17.1798 9.59578L17.1048 9.65315L17.0332 9.58647L17.1116 9.53375L17.1798 9.59578Z" fill="white" stroke="white" stroke-width="0.173394" stroke-linecap="round" stroke-linejoin="round"/>
<path fill-rule="evenodd" clip-rule="evenodd" d="M13.6522 11.6534L13.6437 11.7759L13.8584 11.7946L14.0305 11.6767L13.6522 11.6534Z" fill="white" stroke="white" stroke-width="0.0173394"/>
<path fill-rule="evenodd" clip-rule="evenodd" d="M15.467 9.3647L15.5301 9.35229L15.5233 9.51201L15.4841 9.52596L15.467 9.3647Z" fill="white" stroke="white" stroke-width="0.0433486"/>
<path d="M15 15.7953C17.4188 15.7953 19.3875 14.0047 19.3875 11.8016C19.3804 11.2151 19.2389 10.6381 18.974 10.1148C18.7091 9.59148 18.3278 9.13584 17.8594 8.78282C18.4347 9.39103 18.7566 10.1956 18.7594 11.0328C18.7594 12.9453 17.0766 14.4969 15 14.4969C12.9235 14.4969 11.2407 12.9453 11.2407 11.0281C11.2407 10.1703 11.5782 9.38282 12.1407 8.77814C11.6708 9.13187 11.2886 9.58896 11.0236 10.114C10.7586 10.6391 10.618 11.2181 10.6125 11.8063C10.6125 14.0047 12.5813 15.7953 15 15.7953Z" fill="white"/>
<path d="M14.4063 18.0185C13.4386 18.4588 12.2291 18.3387 11.2065 17.7384C11.1625 17.7184 11.1405 17.7484 11.1845 17.8585C11.2944 18.1486 11.3824 18.3787 11.0525 18.809C10.9096 18.9991 11.0745 19.0291 11.3164 19.0091C12.548 18.899 13.7575 18.6489 14.3403 18.4388L14.4063 18.0185ZM14.3843 18.5388C13.9994 18.6789 13.3397 18.849 12.6029 18.9691C12.3061 19.0091 12.317 19.1792 12.8449 19.2392C13.3837 19.2892 14.0764 18.939 14.4942 18.6289L14.3843 18.5388Z" fill="white" stroke="black" stroke-width="0.223766"/>
<path d="M15 17.5783C15.132 17.5783 15.3739 17.5283 15.6158 17.4983C16.0666 17.4282 15.7368 18.0586 15 18.0586V18.2687C15.7478 18.2687 16.5285 17.5283 16.3635 17.1981C16.1326 16.7178 15.4948 17.1281 15 17.1281C14.5052 17.1281 13.8674 16.7178 13.6365 17.1981C13.4716 17.5283 14.2523 18.2687 15 18.2687V18.0586C14.2633 18.0586 13.9334 17.4282 14.3843 17.4983C14.6262 17.5283 14.8681 17.5783 15 17.5783Z" fill="white"/>
<path d="M15 18.0586C15.7368 18.0586 16.0666 17.4282 15.6158 17.4983C15.3739 17.5283 15.132 17.5783 15 17.5783C14.8681 17.5783 14.6262 17.5283 14.3843 17.4983C13.9334 17.4282 14.2633 18.0586 15 18.0586ZM15 18.0586V18.2687M15 18.2687C15.7478 18.2687 16.5285 17.5283 16.3635 17.1981C16.1326 16.7178 15.4948 17.1281 15 17.1281C14.5052 17.1281 13.8674 16.7178 13.6365 17.1981C13.4716 17.5283 14.2523 18.2687 15 18.2687Z" stroke="black" stroke-width="0.223766"/>
<path d="M15.5938 18.0185C16.5615 18.4588 17.771 18.3387 18.7936 17.7384C18.8376 17.7184 18.8596 17.7484 18.8156 17.8585C18.7057 18.1486 18.6177 18.3787 18.9476 18.809C19.0905 18.9991 18.9256 19.0291 18.6837 19.0091C17.4521 18.899 16.2426 18.6489 15.6598 18.4388L15.5938 18.0185ZM15.6158 18.5388C16.0007 18.6789 16.6494 18.849 17.3972 18.9691C17.6941 19.0091 17.6831 19.1792 17.1552 19.2392C16.6164 19.2892 15.9237 18.939 15.5059 18.6289L15.6158 18.5388Z" fill="white" stroke="black" stroke-width="0.223766"/>
<path d="M15.033 18.4388C15.055 18.6089 15.088 18.9791 15.3409 18.819C15.6818 18.6089 15.7588 18.4488 15.7588 18.1486C15.7588 17.9585 15.5059 17.6783 15.0001 17.6783C14.4942 17.6783 14.2413 17.9585 14.2413 18.1486C14.2413 18.4488 14.3183 18.6089 14.6592 18.819C14.9121 18.9791 14.9341 18.6089 14.9671 18.4388C14.9781 18.3787 15.033 18.3987 15.033 18.4388Z" fill="white" stroke="black" stroke-width="0.223766"/>
<path d="M14.6812 5.6218C14.5382 4.8814 13.3397 4.83137 13.1527 4.71131C12.9328 4.58124 12.9658 4.71131 13.0428 4.91142C13.2627 5.4317 14.0104 5.64182 14.3513 5.70185C14.6262 5.74187 14.7142 5.76188 14.6812 5.6218Z" fill="white" stroke="black" stroke-width="0.223766"/>
<path d="M15.044 5.64182C15.165 4.88141 13.9774 4.52121 13.8344 4.35112C13.6695 4.17102 13.6475 4.28108 13.7245 4.4912C13.8674 4.94144 14.3842 5.47173 14.6921 5.61181C14.945 5.73187 15.022 5.7819 15.044 5.64182Z" fill="white" stroke="black" stroke-width="0.223766"/>
<path d="M16.0226 6.08208C16.1326 5.17158 15.165 5.03151 14.912 4.74135C14.7471 4.56125 14.7361 4.6613 14.7911 4.87142C14.9011 5.33167 15.3849 5.87196 15.6818 6.04206C15.9127 6.17213 16.0116 6.22216 16.0226 6.08208Z" fill="white" stroke="black" stroke-width="0.223766"/>
<path d="M15.7258 5.88193C14.7251 5.29161 14.0214 5.62179 13.7355 5.59177C13.4606 5.56176 13.3726 5.72184 13.8454 5.96198C14.4282 6.25213 15.2419 6.21211 15.5608 6.10205C15.8907 5.98199 15.7917 5.92195 15.7258 5.88193ZM17.2322 6.28215C16.9243 5.30161 16.2096 5.4617 16.0007 5.34164C15.7917 5.22157 15.7697 5.25159 15.8137 5.47171C15.9017 5.86192 16.6384 6.29216 17.0013 6.42223C17.1332 6.46225 17.2982 6.52228 17.2322 6.28215Z" fill="white" stroke="black" stroke-width="0.223766"/>
<path d="M17.0893 6.45224C16.2316 5.8219 15.5609 6.29216 15.297 6.22212C15.099 6.17209 15.187 6.29216 15.264 6.34218C15.8138 6.69238 16.4955 6.88248 17.0233 6.66236C17.2323 6.58232 17.2432 6.5623 17.0893 6.45224ZM18.9476 7.09259C18.9586 6.47226 17.5511 6.21211 17.2542 5.83191C17.0783 5.60178 16.9244 5.72185 17.0123 6.09205C17.1443 6.57231 18.1119 7.1026 18.6397 7.20265C18.9586 7.26269 18.9476 7.16263 18.9476 7.09259Z" fill="white" stroke="black" stroke-width="0.223766"/>
<path d="M18.9036 7.20268C18.0129 6.47229 17.2652 6.71242 16.9903 6.64238C16.7154 6.58235 16.6054 6.73243 17.0343 7.03259C17.5621 7.39279 18.3758 7.46283 18.7167 7.39279C19.0575 7.32275 18.9696 7.25271 18.9036 7.20268ZM20.498 8.27327C20.2451 7.21269 19.4424 6.99257 19.2445 6.79246C19.0575 6.59235 18.8596 6.65238 19.0245 7.13265C19.2225 7.70296 19.8712 8.20323 20.2121 8.3233C20.542 8.45337 20.52 8.35331 20.498 8.27327Z" fill="white" stroke="black" stroke-width="0.223766"/>
<path d="M20.487 8.41333C19.8383 7.46281 18.9916 7.49283 18.7277 7.36276C18.4748 7.22268 18.2988 7.34275 18.6397 7.75297C19.0356 8.25325 19.8493 8.5334 20.2231 8.55341C20.597 8.57342 20.531 8.48337 20.487 8.41333Z" fill="white" stroke="black" stroke-width="0.223766"/>
<path d="M21.3227 9.54396C21.6966 8.46337 20.8389 8.06315 20.7509 7.88306C20.6519 7.70296 20.553 7.70296 20.498 7.89306C20.2561 8.66348 21.0368 9.41389 21.1578 9.56397C21.2787 9.70405 21.3007 9.63401 21.3227 9.54396Z" fill="white" stroke="black" stroke-width="0.223766"/>
<path d="M21.1468 9.84415C20.8499 8.63349 20.0692 8.70353 19.8933 8.53343C19.7063 8.36334 19.6843 8.48341 19.7173 8.70353C19.8053 9.29385 20.586 9.69407 20.9379 9.89418C21.0478 9.95421 21.1798 10.0242 21.1468 9.84415ZM21.8945 11.2649C22.4333 10.1243 21.7956 9.35388 21.5976 9.18379C21.3997 9.0237 21.2787 8.95366 21.3447 9.18379C21.4327 9.53398 21.1248 10.4345 21.5976 11.0948C21.7516 11.315 21.7736 11.5251 21.8945 11.2649Z" fill="white" stroke="black" stroke-width="0.223766"/>
<path d="M21.6086 11.495C21.7296 10.7946 21.2897 10.1543 20.8169 9.90416C20.542 9.75408 20.531 9.7941 20.531 10.0042C20.553 10.6546 21.2237 11.1949 21.4217 11.495C21.6086 11.7752 21.5976 11.5651 21.6086 11.495Z" fill="white" stroke="black" stroke-width="0.223766"/>
<path d="M21.4877 13.316C21.0919 11.9953 21.9166 11.2349 22.1695 11.0848C22.4114 10.9247 22.5653 10.8646 22.4554 11.1148C22.2904 11.485 22.4664 12.5156 21.8396 13.1659C21.6417 13.386 21.5647 13.6162 21.4877 13.316Z" fill="white" stroke="black" stroke-width="0.223766"/>
<path d="M21.5756 13.0258C21.9055 11.8752 21.1908 11.2249 20.9709 11.0948C20.7619 10.9647 20.63 10.9147 20.7289 11.1248C20.8609 11.445 20.718 12.3455 21.2678 12.9058C21.4437 13.0959 21.5097 13.286 21.5756 13.0258Z" fill="white" stroke="black" stroke-width="0.223766"/>
<path d="M21.1688 12.4855C20.575 13.0659 20.564 13.9163 20.8279 14.4166C20.9929 14.7068 21.0149 14.6868 21.1688 14.4766C21.5866 13.8663 21.3337 12.9858 21.3557 12.5956C21.3667 12.2254 21.2348 12.4255 21.1688 12.4855Z" fill="white" stroke="black" stroke-width="0.223766"/>
<path d="M22.1475 13.4061C22.1475 14.2065 21.6087 14.8569 21.0369 15.057C20.707 15.1671 20.707 15.137 20.751 14.8969C20.9049 13.9964 21.6636 13.6662 21.9385 13.3761C22.2024 13.0959 22.1475 13.326 22.1475 13.4061Z" fill="white" stroke="black" stroke-width="0.223766"/>
<path d="M20.1021 15.7873C21.0698 14.9869 20.553 14.4266 20.597 13.9063C20.6189 13.6262 20.498 13.6962 20.388 13.7963C19.7723 14.3466 19.7393 15.3271 19.8712 15.7073C19.9262 15.8774 20.0142 15.8574 20.1021 15.7873Z" fill="white" stroke="black" stroke-width="0.223766"/>
<path d="M21.3997 15.2671C21.0808 16.1476 20.2342 16.6879 19.5194 16.7179C19.1016 16.7379 19.1126 16.7079 19.2555 16.4477C19.7943 15.5072 20.751 15.3972 21.1798 15.157C21.5757 14.9369 21.4327 15.177 21.3997 15.2671Z" fill="white" stroke="black" stroke-width="0.223766"/>
<path d="M18.7717 16.918C20.0252 16.3477 19.7723 15.3971 20.0032 15.157C20.1682 14.9869 19.9703 15.0069 19.8713 15.067C19.1346 15.4572 18.5408 16.0775 18.5298 16.7379C18.5298 16.988 18.5518 17.018 18.7717 16.918Z" fill="white" stroke="black" stroke-width="0.223766"/>
<path d="M17.0563 17.9786C18.6397 18.2087 19.3765 17.1181 19.8383 17.0181C20.0802 16.968 19.9043 16.878 19.7833 16.868C18.7277 16.7579 17.3862 17.2082 16.9793 17.7085C16.8144 17.9086 16.8144 17.9486 17.0563 17.9786Z" fill="white" stroke="black" stroke-width="0.223766"/>
<path d="M18.6617 16.2676C18.3428 17.2181 17.1553 17.9986 16.2646 18.0586C15.8468 18.0886 15.8468 18.0486 16.0007 17.7985C16.7155 16.6178 17.958 16.4177 18.3978 16.1175C18.7717 15.8574 18.6947 16.1776 18.6617 16.2676ZM15.319 5.6218C15.4619 4.8814 16.6605 4.83137 16.8474 4.71131C17.0673 4.58124 17.0343 4.71131 16.9574 4.91142C16.7374 5.4317 15.9897 5.64182 15.6488 5.70185C15.3739 5.74187 15.286 5.76188 15.319 5.6218Z" fill="white" stroke="black" stroke-width="0.223766"/>
<path d="M14.956 5.64182C14.8351 4.88141 16.0226 4.52121 16.1656 4.35112C16.3305 4.17102 16.3525 4.28108 16.2755 4.4912C16.1326 4.94144 15.6158 5.47173 15.3079 5.61181C15.055 5.73187 14.978 5.7819 14.956 5.64182Z" fill="white" stroke="black" stroke-width="0.223766"/>
<path d="M13.9774 6.08208C13.8675 5.17158 14.8351 5.03151 15.088 4.74135C15.2529 4.56125 15.2639 4.6613 15.209 4.87142C15.099 5.33167 14.6152 5.87196 14.3183 6.04206C14.0874 6.17213 13.9884 6.22216 13.9774 6.08208Z" fill="white" stroke="black" stroke-width="0.223766"/>
<path d="M14.2743 5.88193C15.2749 5.29161 15.9786 5.62179 16.2645 5.59177C16.5394 5.56176 16.6274 5.72184 16.1546 5.96198C15.5718 6.25213 14.7581 6.21211 14.4392 6.10205C14.1093 5.98199 14.2083 5.92195 14.2743 5.88193ZM12.7678 6.28215C13.0757 5.30161 13.7905 5.4617 13.9994 5.34164C14.2083 5.22157 14.2303 5.25159 14.1863 5.47171C14.0983 5.86192 13.3616 6.29216 12.9987 6.42223C12.8668 6.46225 12.7019 6.52228 12.7678 6.28215Z" fill="white" stroke="black" stroke-width="0.223766"/>
<path d="M12.9109 6.45224C13.7686 5.8219 14.4393 6.29216 14.7032 6.22212C14.9011 6.17209 14.8132 6.29216 14.7362 6.34218C14.1864 6.69238 13.5046 6.88248 12.9768 6.66236C12.7679 6.58232 12.7569 6.5623 12.9109 6.45224ZM11.0526 7.09259C11.0416 6.47226 12.449 6.21211 12.7459 5.83191C12.9219 5.60178 13.0758 5.72185 12.9878 6.09205C12.8559 6.57231 11.8882 7.1026 11.3604 7.20265C11.0416 7.26269 11.0526 7.16263 11.0526 7.09259Z" fill="white" stroke="black" stroke-width="0.223766"/>
<path d="M11.0965 7.20268C11.9872 6.47229 12.7349 6.71242 13.0098 6.64238C13.2847 6.58235 13.3946 6.73243 12.9658 7.03259C12.438 7.39279 11.6243 7.46283 11.2834 7.39279C10.9426 7.32275 11.0305 7.25271 11.0965 7.20268ZM9.50208 8.27327C9.75499 7.21269 10.5577 6.99257 10.7556 6.79246C10.9426 6.59235 11.1405 6.65238 10.9755 7.13265C10.7776 7.70296 10.1289 8.20323 9.78798 8.3233C9.4581 8.45337 9.48009 8.35331 9.50208 8.27327Z" fill="white" stroke="black" stroke-width="0.223766"/>
<path d="M9.51314 8.41333C10.1619 7.46281 11.0086 7.49283 11.2725 7.36276C11.5254 7.22268 11.7013 7.34275 11.3605 7.75297C10.9646 8.25325 10.1509 8.5334 9.77705 8.55341C9.40318 8.57342 9.46916 8.48337 9.51314 8.41333Z" fill="white" stroke="black" stroke-width="0.223766"/>
<path d="M8.67737 9.54396C8.3035 8.46337 9.16119 8.06315 9.24915 7.88306C9.34812 7.70296 9.44708 7.70296 9.50206 7.89306C9.74397 8.66348 8.96326 9.41389 8.8423 9.56397C8.72135 9.70405 8.69936 9.63401 8.67737 9.54396Z" fill="white" stroke="black" stroke-width="0.223766"/>
<path d="M8.85328 9.84415C9.15017 8.63349 9.93088 8.70353 10.1068 8.53343C10.2938 8.36334 10.3157 8.48341 10.2828 8.70353C10.1948 9.29385 9.41408 9.69407 9.06221 9.89418C8.95225 9.95421 8.82029 10.0242 8.85328 9.84415ZM8.10556 11.2649C7.56676 10.1243 8.20452 9.35388 8.40245 9.18379C8.60038 9.0237 8.72133 8.95366 8.65536 9.18379C8.56739 9.53398 8.87527 10.4345 8.40245 11.0948C8.24851 11.315 8.22651 11.5251 8.10556 11.2649Z" fill="white" stroke="black" stroke-width="0.223766"/>
<path d="M8.3915 11.495C8.27055 10.7946 8.71038 10.1543 9.18321 9.90416C9.45811 9.75408 9.4691 9.7941 9.4691 10.0042C9.44711 10.6546 8.77636 11.1949 8.57843 11.495C8.3915 11.7752 8.4025 11.5651 8.3915 11.495Z" fill="white" stroke="black" stroke-width="0.223766"/>
<path d="M8.51246 13.316C8.90831 11.9953 8.08361 11.2349 7.83071 11.0848C7.5888 10.9247 7.43485 10.8646 7.54481 11.1148C7.70975 11.485 7.53382 12.5156 8.16059 13.1659C8.35851 13.386 8.42449 13.6162 8.51246 13.316Z" fill="white" stroke="black" stroke-width="0.223766"/>
<path d="M8.42446 13.0258C8.09458 11.8752 8.80931 11.2249 9.02923 11.0948C9.23816 10.9647 9.37011 10.9147 9.27114 11.1248C9.13919 11.445 9.28214 12.3455 8.73234 12.9058C8.55641 13.0959 8.49043 13.286 8.42446 13.0258Z" fill="white" stroke="black" stroke-width="0.223766"/>
<path d="M8.83138 12.4855C9.42516 13.0659 9.43616 13.9163 9.17226 14.4166C9.00732 14.7068 8.98533 14.6868 8.83138 14.4766C8.41354 13.8663 8.66644 12.9858 8.64445 12.5956C8.63346 12.2254 8.76541 12.4255 8.83138 12.4855Z" fill="white" stroke="black" stroke-width="0.223766"/>
<path d="M7.85266 13.4061C7.85266 14.2065 8.39146 14.8569 8.96325 15.057C9.29312 15.1671 9.29312 15.137 9.24914 14.8969C9.0952 13.9964 8.33648 13.6662 8.06158 13.3761C7.79768 13.0959 7.85266 13.326 7.85266 13.4061Z" fill="white" stroke="black" stroke-width="0.223766"/>
<path d="M9.89791 15.7873C8.93026 14.9869 9.44707 14.4266 9.40309 13.9063C9.3811 13.6262 9.50205 13.6962 9.61201 13.7963C10.2278 14.3466 10.2608 15.3271 10.1288 15.7073C10.0738 15.8774 9.98587 15.8574 9.89791 15.7873Z" fill="white" stroke="black" stroke-width="0.223766"/>
<path d="M8.60043 15.2671C8.91932 16.1476 9.766 16.6879 10.4807 16.7179C10.8986 16.7379 10.8876 16.7079 10.7446 16.4477C10.2058 15.5072 9.2492 15.3972 8.82035 15.157C8.4245 14.9369 8.56745 15.177 8.60043 15.2671Z" fill="white" stroke="black" stroke-width="0.223766"/>
<path d="M11.2285 16.918C9.97496 16.3477 10.2279 15.3971 9.99695 15.157C9.83201 14.9869 10.0299 15.0069 10.1289 15.067C10.8656 15.4572 11.4594 16.0775 11.4704 16.7379C11.4704 16.988 11.4484 17.018 11.2285 16.918Z" fill="white" stroke="black" stroke-width="0.223766"/>
<path d="M12.9439 17.9786C11.3605 18.2087 10.6237 17.1181 10.1619 17.0181C9.91999 16.968 10.0959 16.878 10.2169 16.868C11.2725 16.7579 12.614 17.2082 13.0208 17.7085C13.1858 17.9086 13.1858 17.9486 12.9439 17.9786Z" fill="white" stroke="black" stroke-width="0.223766"/>
<path d="M11.3384 16.2676C11.6572 17.2181 12.8448 17.9986 13.7355 18.0586C14.1533 18.0886 14.1533 18.0486 13.9994 17.7984C13.2846 16.6178 12.0421 16.4177 11.6023 16.1175C11.2284 15.8574 11.3054 16.1776 11.3384 16.2676Z" fill="white" stroke="black" stroke-width="0.223766"/>
<path d="M16.8562 6.54217C16.65 6.40155 15.8812 6.48124 15.7359 6.38749C16.0125 6.59843 16.6265 6.44842 16.8609 6.54217H16.8562ZM18.7172 6.89843C18.5531 6.63124 17.5734 6.44843 17.4281 6.20936C17.6859 6.66874 18.4406 6.6078 18.7172 6.89843ZM18.5765 7.2078C18.2109 6.88905 17.3672 7.0203 17.1094 6.8328C17.7047 7.3203 18.0328 6.94061 18.5719 7.2078H18.5765ZM16.4531 5.78749C16.6828 5.89999 16.9687 6.0078 17.1094 6.2703C16.9453 6.06874 16.65 5.98905 16.4062 5.8203C16.4203 5.8203 16.439 5.80155 16.4531 5.78749ZM20.0625 7.84999C19.9172 7.54999 19.4062 7.22186 19.364 7.10936C19.5047 7.49843 19.9265 7.59218 20.0578 7.84999H20.0625ZM20.189 8.37968C19.7484 7.75155 19.0594 7.81718 18.7828 7.5828C18.9937 7.81249 19.7859 7.9578 20.189 8.37968ZM21.2109 9.34999C21.2437 8.67968 20.6953 8.43124 20.6765 8.05155C20.6625 8.50155 21.239 9.11093 21.2109 9.34999ZM20.939 9.71093C20.8265 9.12968 20.0812 9.09218 19.95 8.74999C19.95 9.06874 20.8265 9.40155 20.9344 9.71093H20.939ZM21.5531 9.3828C21.9515 9.82343 21.675 10.4937 21.839 10.9812C21.6422 10.6203 21.7406 9.7203 21.5578 9.3828H21.5531ZM20.9062 11.2578C21.4969 11.8437 21.2578 12.4906 21.4969 12.7719C21.2015 12.3828 21.2437 11.6234 20.9062 11.2625V11.2578ZM22.139 11.3422C21.6281 11.8531 21.9375 12.6219 21.6703 12.9828C21.9703 12.6734 21.9281 11.7172 22.139 11.3422ZM21.4969 11.3422C21.4312 10.7516 20.8265 10.4422 20.775 10.1234C20.7047 10.4422 21.3562 10.9437 21.4969 11.3422ZM21.1922 12.7484C21.2859 13.1609 20.925 14.0422 21.0375 14.3141C20.7937 13.8453 21.2437 12.9547 21.1922 12.7531V12.7484ZM21.9703 13.6906C21.7312 14.4219 21.2437 14.375 21.0937 14.8156C21.2015 14.3937 21.8437 14.0141 21.9703 13.6906ZM20.4 14.0328C20.0812 14.525 20.3437 15.0828 20.0812 15.4344C20.4562 15.0828 20.2547 14.4312 20.4 14.0328ZM21.1687 15.3734C20.7844 16.025 19.9922 15.9641 19.6734 16.4328C19.9922 15.8422 20.9719 15.7437 21.1734 15.3734H21.1687ZM19.7718 15.2937C19.0922 15.725 19.3031 16.175 18.7828 16.6531C19.4297 16.175 19.3781 15.6453 19.7718 15.2937ZM19.4531 17.0375C18.7969 17.014 17.85 17.7969 17.2781 17.7359C17.85 17.8484 18.9047 17.1453 19.4531 17.0328V17.0375ZM18.389 16.3344C18.3422 16.9437 16.6265 17.3375 16.4437 17.7453C16.65 17.2062 18.1593 16.8078 18.389 16.3391V16.3344ZM14.5078 5.08436C14.2875 4.91093 14.0203 4.7703 13.9453 4.60155C14.0015 4.82186 14.2172 4.97655 14.4375 5.13124C14.4609 5.12186 14.4844 5.08905 14.5078 5.07968V5.08436ZM14.1328 5.2578C13.7906 5.1078 13.3969 5.11718 13.2187 4.91093C13.3312 5.11718 13.7015 5.19686 14.0203 5.30936C14.0531 5.29061 14.1 5.26718 14.1328 5.26249V5.2578ZM13.1437 6.53749C13.35 6.39686 14.1187 6.48124 14.264 6.38749C13.9875 6.59843 13.3734 6.44843 13.139 6.53749H13.1437ZM11.2828 6.89843C11.4469 6.63124 12.4265 6.44843 12.5719 6.20936C12.3187 6.66874 11.5594 6.6078 11.2828 6.89843ZM11.4234 7.2078C11.789 6.88905 12.6375 7.0203 12.8906 6.8328C12.2953 7.3203 11.9672 6.94061 11.4281 7.2078H11.4234ZM12.8906 6.2703C13.0969 5.86718 13.6875 5.8203 13.8469 5.57655C13.6125 5.93749 13.1109 5.99843 12.8906 6.2703ZM14.5781 5.91874C15.1875 5.66093 15.7828 5.88124 16.0687 5.75936C15.7172 5.92811 14.8781 5.84843 14.5828 5.91874H14.5781ZM9.94216 7.84999C10.0828 7.54999 10.589 7.21718 10.6359 7.10936C10.4953 7.49843 10.0734 7.59218 9.94216 7.84999ZM9.81091 8.37968C10.2515 7.75155 10.9406 7.81718 11.2172 7.5828C11.0109 7.81249 10.2187 7.9578 9.81091 8.37968ZM8.78904 9.34999C8.75623 8.67968 9.30466 8.43124 9.3281 8.05155C9.33748 8.50155 8.7656 9.11093 8.78904 9.34999ZM9.06091 9.71093C9.17341 9.12968 9.91873 9.09218 10.05 8.74999C10.05 9.06874 9.17341 9.40155 9.0656 9.71093H9.06091ZM8.44685 9.3828C8.0531 9.82343 8.32498 10.4891 8.1656 10.9812C8.35779 10.6203 8.25935 9.7203 8.44685 9.3828ZM9.09373 11.2578C8.5031 11.8437 8.74216 12.4906 8.5031 12.7719C8.79841 12.3828 8.75623 11.6234 9.09373 11.2625V11.2578ZM7.8656 11.3422C8.37185 11.8531 8.06248 12.6219 8.32498 12.9828C8.02966 12.6734 8.07185 11.7172 7.8656 11.3422ZM8.5031 11.3422C8.56873 10.7516 9.17341 10.4422 9.22498 10.1234C9.29529 10.4422 8.64373 10.9437 8.5031 11.3422ZM8.80779 12.7484C8.71404 13.1609 9.07498 14.0422 8.96248 14.3141C9.20623 13.8453 8.75623 12.9547 8.80779 12.7531V12.7484ZM8.02966 13.6906C8.27341 14.4219 8.75623 14.375 8.91091 14.8156C8.79841 14.3937 8.16091 14.0141 8.02966 13.6906ZM9.59998 14.0328C9.91873 14.525 9.65623 15.0828 9.91873 15.4344C9.54373 15.0828 9.74529 14.4312 9.59998 14.0328ZM8.83123 15.3734C9.2156 16.025 10.0078 15.9641 10.3312 16.4328C10.0078 15.8422 9.0281 15.7437 8.83123 15.3734ZM10.2281 15.2937C10.9078 15.725 10.7015 16.175 11.2172 16.6531C10.5703 16.175 10.6265 15.6453 10.2281 15.2937ZM10.5469 17.0328C11.2031 17.0141 12.1547 17.7969 12.7219 17.7359C12.1547 17.8437 11.0953 17.1453 10.5469 17.0328ZM11.6156 16.3297C11.6578 16.9437 13.3734 17.3328 13.5609 17.7453C13.35 17.2062 11.8453 16.8078 11.6109 16.3344L11.6156 16.3297ZM14.1094 5.93749C14.2406 5.39843 14.9062 5.29999 14.9906 4.97655C14.9578 5.31874 14.175 5.69843 14.1094 5.93749ZM16.0547 4.59686C15.9609 5.00936 15.2437 5.23905 15.1453 5.54843C15.1781 5.12655 15.914 4.89218 16.0547 4.59686ZM15.4922 5.57186C15.8344 5.0703 16.5375 5.19686 16.7812 4.91093C16.6031 5.24843 15.7359 5.2578 15.4922 5.56718V5.57186Z" fill="#006233"/>
<path d="M20.1469 11.75C20.1469 14.3516 17.836 16.4563 14.9766 16.4563C12.1219 16.4563 9.80627 14.3516 9.80627 11.7547C9.80627 9.15315 12.1219 7.04846 14.9766 7.04846C17.836 7.04846 20.1469 9.15784 20.1469 11.7547V11.75Z" stroke="#F7C608" stroke-width="0.225" stroke-linecap="round" stroke-linejoin="round"/>
<path d="M13.9688 16.461L13.9453 16.5172C13.9313 16.5547 13.8938 16.5781 13.8469 16.5735L13.4719 16.4844L13.5938 16.1235L13.9688 16.2031C14.011 16.2125 14.0344 16.25 14.0157 16.2875L14.0063 16.3344M13.1157 16.1094L13.1344 16.0531C13.1438 16.011 13.186 15.9922 13.2282 16.0063C13.3483 16.0506 13.4703 16.0897 13.5938 16.1235L13.4766 16.4844C13.3453 16.4516 13.2235 16.4188 13.1063 16.3766C13.0688 16.3578 13.0594 16.2828 13.0735 16.2406" fill="#F7C608"/>
<path d="M13.8938 16.4281L13.8797 16.4703C13.8703 16.4984 13.8328 16.5125 13.8 16.5078L13.4906 16.4328L13.575 16.1703C13.6875 16.2031 13.8047 16.2265 13.8844 16.2406C13.9219 16.25 13.9406 16.2781 13.9313 16.3062L13.9219 16.339M13.1813 16.1515L13.1953 16.1047C13.2047 16.0812 13.2375 16.0672 13.2703 16.0765C13.3594 16.1047 13.4578 16.1422 13.575 16.1703L13.4906 16.4328C13.3881 16.4066 13.2865 16.3769 13.1859 16.3437C13.1531 16.325 13.1391 16.2734 13.1531 16.2453" fill="#006233"/>
<path d="M12.5484 16.0063L12.5156 16.0531C12.4922 16.0906 12.4453 16.1 12.4031 16.0859C12.3094 16.0297 12.1828 15.9688 12.075 15.9031L12.3 15.5844C12.408 15.6477 12.5191 15.7056 12.6328 15.7578C12.6703 15.7766 12.6797 15.8188 12.6563 15.8516L12.6281 15.8984M11.8453 15.4484L11.8781 15.4016C11.9016 15.3641 11.9484 15.3547 11.9859 15.3781C12.0703 15.4391 12.1781 15.5141 12.3 15.5844L12.0703 15.9031C11.9628 15.8421 11.858 15.7764 11.7563 15.7063C11.7234 15.6734 11.7375 15.5984 11.7563 15.5656" fill="#F7C608"/>
<path d="M12.4922 15.9547L12.464 15.9922C12.45 16.0156 12.4125 16.0203 12.375 16.0062C12.3 15.9594 12.1969 15.9125 12.1031 15.8562L12.2672 15.6265C12.3609 15.6875 12.4687 15.739 12.5437 15.7719C12.5719 15.7906 12.5859 15.8187 12.5672 15.8469L12.5437 15.875M11.8969 15.5047L11.9203 15.4672C11.939 15.4437 11.9719 15.439 12.0047 15.4578C12.09 15.5173 12.1776 15.5736 12.2672 15.6265L12.1031 15.8562C12.0094 15.8 11.9156 15.7484 11.8406 15.6922C11.8125 15.6687 11.8172 15.6125 11.8359 15.589" fill="#006233"/>
<path d="M11.3344 15.2047L11.2875 15.2422C11.25 15.2703 11.2031 15.2657 11.1656 15.2422C11.0953 15.1672 10.9922 15.0782 10.9078 14.9844L11.2219 14.736C11.3156 14.8344 11.4187 14.9235 11.4891 14.9891C11.5219 15.0172 11.5172 15.0594 11.4844 15.0828L11.4422 15.1203M10.8328 14.4922L10.8797 14.45C10.9125 14.4266 10.9594 14.4266 10.9875 14.4594C11.0605 14.5573 11.1388 14.6511 11.2219 14.7406L10.9078 14.9844C10.8187 14.8907 10.7344 14.8016 10.6641 14.7125C10.6406 14.675 10.6781 14.6094 10.7109 14.5813" fill="#F7C608"/>
<path d="M11.2921 15.1438L11.2546 15.1719C11.2312 15.1906 11.1984 15.1859 11.1656 15.1625L10.95 14.9469L11.1796 14.7688C11.2501 14.8421 11.3236 14.9125 11.4 14.9797C11.4234 15.0078 11.4234 15.0406 11.4 15.0594L11.3671 15.0828M10.8609 14.5578L10.8937 14.5297C10.9218 14.5109 10.9546 14.5156 10.9781 14.5391C11.0343 14.6094 11.1 14.6891 11.1796 14.7734L10.95 14.9469L10.7484 14.7219C10.7296 14.6938 10.7531 14.6422 10.7765 14.6234" fill="#006233"/>
<path d="M10.4156 14.1266L10.3546 14.15C10.3171 14.1688 10.2703 14.15 10.2421 14.1219L10.0734 13.8031L10.4531 13.6484C10.514 13.7656 10.5796 13.8828 10.6312 13.9578C10.65 13.9953 10.6312 14.0328 10.5937 14.0516L10.5468 14.0703M10.1531 13.3109L10.2093 13.2828C10.2515 13.2688 10.2937 13.2828 10.3125 13.3203C10.3534 13.4321 10.4003 13.5417 10.4531 13.6484L10.0781 13.8031C10.0199 13.7002 9.96823 13.5938 9.9234 13.4844C9.91402 13.4375 9.97027 13.3859 10.0125 13.3672" fill="#F7C608"/>
<path d="M10.3922 14.0563L10.3501 14.0703C10.3219 14.0844 10.2891 14.0703 10.2657 14.0422L10.1251 13.7797L10.3969 13.6672C10.4429 13.7554 10.4929 13.8415 10.5469 13.925C10.561 13.9578 10.5516 13.9906 10.5235 14L10.486 14.0141M10.1579 13.3813L10.2047 13.3672C10.2329 13.3531 10.2657 13.3672 10.2797 13.3953C10.3151 13.4875 10.3542 13.5782 10.3969 13.6672L10.1297 13.7797C10.0827 13.693 10.0405 13.6038 10.0032 13.5125C9.9938 13.4797 10.0313 13.4375 10.0594 13.4235" fill="#006233"/>
<path d="M9.86714 12.8516L9.80151 12.861C9.78197 12.8626 9.76241 12.858 9.74559 12.8479C9.72877 12.8378 9.71554 12.8227 9.70776 12.8047L9.63745 12.4578L10.05 12.4063C10.0698 12.5218 10.0964 12.6361 10.1296 12.7485C10.1343 12.7906 10.1062 12.8235 10.064 12.8281L10.0078 12.8375M9.86714 12.0078L9.93276 11.9985C9.97495 11.9891 10.0125 12.0172 10.0171 12.0547C10.0218 12.1578 10.0312 12.275 10.05 12.4063L9.63745 12.4578C9.61608 12.3431 9.60043 12.2273 9.59058 12.111C9.59995 12.0688 9.67026 12.0313 9.71245 12.0266" fill="#F7C608"/>
<path d="M9.86714 12.7812L9.82026 12.7859C9.79214 12.7906 9.76401 12.7719 9.74995 12.739L9.69839 12.4484L9.9937 12.4109C10.0094 12.5072 10.0297 12.6026 10.0546 12.6969C10.0593 12.7297 10.0406 12.7578 10.0078 12.7625L9.97026 12.7672M9.85308 12.0781L9.89995 12.0687C9.93276 12.0687 9.96089 12.0875 9.96089 12.1203C9.97026 12.2047 9.97495 12.3078 9.9937 12.4109L9.69839 12.4484C9.67964 12.3547 9.66558 12.2515 9.66089 12.1625C9.66089 12.1297 9.71245 12.0969 9.74526 12.0922" fill="#006233"/>
<path d="M9.73596 11.4922L9.67034 11.4828C9.62346 11.4828 9.60002 11.4453 9.59534 11.4031C9.6094 11.3094 9.61877 11.1781 9.64221 11.0562L10.05 11.1125C10.0324 11.2274 10.0215 11.3432 10.0172 11.4594C10.0125 11.5015 9.97502 11.525 9.93284 11.5203L9.87659 11.5109M9.99846 10.6812L10.0641 10.6859C10.1063 10.6953 10.1344 10.7281 10.1297 10.7656C10.0968 10.8797 10.0702 10.9955 10.05 11.1125L9.63752 11.0562C9.65627 10.939 9.67502 10.8219 9.70315 10.7094C9.7219 10.6719 9.80159 10.6531 9.84377 10.6625" fill="#F7C608"/>
<path d="M9.75933 11.4219H9.71245C9.67964 11.4125 9.66558 11.3844 9.66089 11.3516L9.69839 11.0656L9.9937 11.1031C9.97969 11.1995 9.9703 11.2965 9.96558 11.3938C9.96089 11.4266 9.93276 11.4453 9.89995 11.4406H9.86245M9.96089 10.7422L10.0078 10.7516C10.0406 10.7516 10.0593 10.7844 10.0546 10.8172C10.0359 10.8969 10.0078 10.9953 9.9937 11.0985L9.69839 11.0656L9.74995 10.775C9.76401 10.7422 9.82026 10.7281 9.85308 10.7281" fill="#006233"/>
<path d="M10.0312 10.1562L9.97031 10.1281C9.92812 10.114 9.91406 10.0765 9.92343 10.0343C9.97031 9.9406 10.0172 9.81872 10.0734 9.71091L10.4484 9.87029C10.3956 9.97702 10.3487 10.0866 10.3078 10.1984C10.2937 10.2312 10.2516 10.2453 10.2141 10.2312L10.1578 10.2078M10.5328 9.43904L10.5937 9.46716C10.6312 9.48122 10.65 9.52341 10.6312 9.56091C10.5665 9.66084 10.507 9.76411 10.4531 9.87029L10.0734 9.71091C10.125 9.6031 10.1812 9.4906 10.2422 9.39685C10.2703 9.36404 10.3547 9.36404 10.3922 9.38279" fill="#F7C608"/>
<path d="M10.0781 10.0953L10.0313 10.0766C10.0031 10.0672 9.99377 10.0297 10.0031 10.0016L10.125 9.73436L10.3969 9.84686C10.3535 9.93558 10.3144 10.0263 10.2797 10.1187C10.2656 10.1469 10.2328 10.1609 10.2047 10.1469L10.1672 10.1328M10.4813 9.4953L10.5235 9.51405C10.5516 9.52343 10.561 9.55624 10.5469 9.58905C10.4931 9.67271 10.443 9.75874 10.3969 9.84686L10.1297 9.73436C10.1766 9.64061 10.2188 9.54686 10.2703 9.47186C10.2891 9.44374 10.35 9.43905 10.3781 9.45311" fill="#006233"/>
<path d="M10.7297 8.94685L10.6782 8.90467C10.6453 8.88123 10.6407 8.83904 10.6594 8.80154C10.7344 8.72654 10.8188 8.61873 10.9032 8.52967L11.2219 8.7781C11.1387 8.86754 11.0605 8.96143 10.9875 9.05935C10.9726 9.07424 10.9524 9.0826 10.9313 9.0826C10.9102 9.0826 10.89 9.07424 10.875 9.05935L10.8328 9.03123M11.4328 8.38904L11.4797 8.42654C11.5172 8.45467 11.5172 8.49685 11.4891 8.52967C11.396 8.608 11.3068 8.69092 11.2219 8.7781L10.9032 8.52967C10.9922 8.43592 11.0766 8.34685 11.1657 8.27185C11.2032 8.24842 11.2828 8.27185 11.3157 8.29529" fill="#F7C608"/>
<path d="M10.7906 8.90001L10.7531 8.87188C10.7296 8.85313 10.7296 8.82032 10.7484 8.7922L10.95 8.56251L11.175 8.74063C11.1058 8.81571 11.0401 8.89392 10.9781 8.97501C10.9546 8.99845 10.9218 9.00313 10.8937 8.98438L10.8656 8.96095M11.3625 8.42657L11.4 8.4547C11.4234 8.47345 11.4234 8.50626 11.4 8.5297C11.322 8.59842 11.2469 8.67036 11.175 8.74532L10.95 8.5672C11.025 8.48751 11.0906 8.41251 11.1656 8.35157C11.1984 8.32813 11.2593 8.3422 11.2781 8.36095" fill="#006233"/>
<path d="M11.7657 7.96252L11.7329 7.91565C11.7094 7.87815 11.7188 7.84065 11.7516 7.80783C11.8454 7.75627 11.9579 7.67658 12.0704 7.61096L12.2954 7.92971C12.1872 7.99303 12.0824 8.06187 11.9813 8.13596C11.9648 8.14583 11.9452 8.14937 11.9262 8.14593C11.9073 8.14248 11.8902 8.13228 11.8782 8.11721L11.8454 8.07033M12.6188 7.61096L12.6516 7.65783C12.6797 7.69533 12.6657 7.73752 12.6329 7.75627C12.5297 7.80315 12.4172 7.8594 12.2954 7.92971L12.0704 7.61096C12.1782 7.54533 12.2907 7.47971 12.3985 7.42815C12.4454 7.41877 12.511 7.46096 12.5344 7.49377" fill="#F7C608"/>
<path d="M11.8453 7.93438L11.8172 7.90157C11.8031 7.87344 11.8125 7.84532 11.8359 7.82188C11.9156 7.77501 12.0093 7.70938 12.1031 7.65782L12.2625 7.88282C12.1746 7.93768 12.0886 7.99552 12.0047 8.05626C11.9718 8.07501 11.939 8.07032 11.9203 8.04219L11.8968 8.01407M12.539 7.6297L12.5672 7.66719C12.5812 7.69063 12.5718 7.72344 12.5437 7.73751C12.448 7.78212 12.3542 7.8306 12.2625 7.88282L12.1031 7.65782L12.375 7.50313C12.4125 7.49376 12.464 7.52188 12.4828 7.54532" fill="#006233"/>
<path d="M13.0781 7.29216L13.0546 7.23123C13.0453 7.19373 13.064 7.15623 13.1015 7.13748L13.4718 7.02966L13.589 7.3906C13.4652 7.42512 13.3432 7.4658 13.2234 7.51248C13.1812 7.52185 13.1437 7.5031 13.1296 7.4656L13.1156 7.41873M13.9968 7.1656L14.0156 7.22654C14.0296 7.26404 14.0062 7.30154 13.9687 7.31091C13.841 7.33157 13.7143 7.35816 13.589 7.3906L13.4718 7.02966C13.5952 6.99236 13.7204 6.96108 13.8468 6.93591C13.889 6.93591 13.9406 6.99685 13.9546 7.02966" fill="#F7C608"/>
<path d="M13.1531 7.28284L13.139 7.23597C13.1343 7.21253 13.1531 7.18909 13.1859 7.17034L13.4906 7.07659L13.575 7.33909C13.4721 7.36607 13.3705 7.39735 13.2703 7.43284C13.2375 7.4469 13.2046 7.43284 13.1953 7.40472L13.1812 7.37191M13.9171 7.16565L13.9312 7.20784C13.9406 7.23597 13.9218 7.26409 13.8843 7.27347C13.7953 7.28753 13.6875 7.31097 13.575 7.33909L13.4906 7.08128C13.5927 7.0524 13.6959 7.02738 13.8 7.00628C13.8375 7.00159 13.875 7.04378 13.8843 7.0719" fill="#006233"/>
<path d="M14.5312 6.97812V6.91719C14.5312 6.87969 14.5688 6.84687 14.6109 6.8375L14.9953 6.82812V7.20781C14.867 7.20779 14.7387 7.21405 14.6109 7.22656C14.5641 7.22656 14.5359 7.19844 14.5359 7.15625V7.10938M15.4594 7.1V7.15625C15.4594 7.19844 15.4266 7.22656 15.3797 7.22656C15.2519 7.21447 15.1237 7.20821 14.9953 7.20781V6.82812C15.1266 6.82812 15.2625 6.82812 15.3797 6.8375C15.4266 6.84687 15.4594 6.91719 15.4594 6.95938" fill="#F7C608"/>
<path d="M14.6156 6.99221V6.94534C14.6156 6.91721 14.639 6.89846 14.6765 6.88909L15 6.8844V7.15627C14.8781 7.15627 14.7609 7.16096 14.6765 7.17034C14.6437 7.17034 14.6156 7.1469 14.6156 7.12346V7.08127M15.3797 7.07659V7.11877C15.3797 7.1469 15.3562 7.16565 15.3187 7.16565C15.2126 7.15814 15.1063 7.15501 15 7.15627V6.8844L15.3187 6.88909C15.3562 6.89846 15.3797 6.94534 15.3797 6.97815" fill="#006233"/>
<path d="M15.9375 7.04377L15.9516 6.98752C15.9657 6.95002 16.0032 6.93127 16.05 6.93127L16.425 7.01565L16.3078 7.38127C16.1841 7.35025 16.059 7.32522 15.9328 7.30627C15.8907 7.29221 15.8672 7.2594 15.8813 7.21721L15.8953 7.17034M16.786 7.39065L16.7672 7.4469C16.7578 7.48909 16.7157 7.50784 16.6735 7.49377C16.5534 7.45061 16.4314 7.41307 16.3078 7.38127L16.425 7.01565C16.5516 7.04846 16.6782 7.08127 16.7907 7.12346C16.8282 7.14221 16.8375 7.21721 16.8282 7.25471" fill="#F7C608"/>
<path d="M16.0079 7.07655L16.0172 7.03436C16.0266 7.00623 16.0641 6.99217 16.0969 6.99686L16.4063 7.06717L16.3266 7.32967C16.2229 7.30351 16.1181 7.28162 16.0126 7.26405C15.9797 7.25467 15.961 7.22655 15.9657 7.19842L15.9797 7.16561M16.7204 7.35311L16.7063 7.39061C16.6969 7.41873 16.6641 7.43748 16.6313 7.42342C16.531 7.38819 16.4294 7.35692 16.3266 7.32967L16.4063 7.06717C16.5141 7.0953 16.6219 7.12342 16.7157 7.15623C16.7485 7.1703 16.7626 7.22655 16.7485 7.24998" fill="#006233"/>
<path d="M17.3531 7.48909L17.3859 7.44222C17.4093 7.40472 17.4562 7.39534 17.4984 7.40941C17.5922 7.46097 17.7187 7.52191 17.8312 7.58753L17.6109 7.91097C17.4998 7.84899 17.3856 7.79267 17.2687 7.74222C17.2359 7.71878 17.2218 7.67659 17.2453 7.64378L17.2781 7.59691M18.0656 8.04222L18.0281 8.08909C18.0167 8.10493 18 8.11606 17.981 8.12038C17.962 8.1247 17.9421 8.12191 17.925 8.11253C17.8236 8.04032 17.7188 7.97305 17.6109 7.91097L17.8312 7.58753C17.9437 7.65316 18.0562 7.71409 18.15 7.78441C18.1828 7.81253 18.1687 7.88753 18.1453 7.92503" fill="#F7C608"/>
<path d="M17.4141 7.54064L17.4375 7.50314C17.4563 7.4797 17.4891 7.47501 17.5266 7.48439C17.6016 7.53126 17.7047 7.57814 17.7985 7.63439L17.6391 7.86876C17.5475 7.81635 17.4536 7.76787 17.3579 7.72345C17.3297 7.7047 17.3204 7.67657 17.3391 7.64845L17.3579 7.61564M18.0141 7.98595L17.986 8.02345C17.9672 8.04689 17.9391 8.05157 17.9016 8.03282C17.8164 7.97302 17.7289 7.91672 17.6391 7.86407L17.7985 7.63439L18.0657 7.79376C18.0938 7.82189 18.0891 7.87345 18.0704 7.90157" fill="#006233"/>
<path d="M18.5766 8.28126L18.6235 8.23907C18.6563 8.21564 18.7032 8.21564 18.7407 8.23907L19.0032 8.49689L18.6938 8.74532C18.6076 8.6578 18.5168 8.57487 18.4219 8.49689C18.3938 8.46876 18.3938 8.42657 18.4266 8.40314L18.4688 8.36564M19.0875 8.98907L19.0407 9.03126C19.0327 9.03805 19.0234 9.04319 19.0134 9.0464C19.0034 9.0496 18.9929 9.0508 18.9825 9.04993C18.972 9.04906 18.9618 9.04613 18.9525 9.04132C18.9432 9.03651 18.9349 9.02991 18.9282 9.02189C18.855 8.92557 18.7768 8.83325 18.6938 8.74532L19.0078 8.49689C19.0922 8.59064 19.1813 8.67501 19.2516 8.76407C19.2703 8.80157 19.2375 8.87189 19.2047 8.89532" fill="#F7C608"/>
<path d="M18.6188 8.34219L18.6516 8.31406C18.675 8.29531 18.7125 8.3 18.7454 8.31875C18.8016 8.38437 18.886 8.45937 18.961 8.53437L18.736 8.7125C18.6642 8.63887 18.5891 8.56848 18.511 8.50156C18.4875 8.47812 18.4875 8.44531 18.511 8.42656L18.5438 8.40312M19.0594 8.91875L19.0219 8.95156C18.9985 8.97031 18.961 8.96562 18.9375 8.94219C18.8737 8.86274 18.8065 8.78611 18.736 8.7125L18.961 8.53437L19.1672 8.75469C19.186 8.7875 19.1625 8.83906 19.1391 8.85781" fill="#006233"/>
<path d="M19.5046 9.35466L19.5656 9.32654C19.6031 9.31247 19.65 9.32654 19.6781 9.35935L19.8515 9.66872L19.4718 9.83279C19.4109 9.71091 19.3406 9.59841 19.2843 9.52341C19.2703 9.48591 19.2843 9.44841 19.3265 9.42966L19.3734 9.40622M19.7765 10.1656L19.7156 10.189C19.6781 10.2078 19.6312 10.189 19.6171 10.1562C19.5747 10.0443 19.5262 9.93477 19.4718 9.8281L19.8468 9.66872C19.9034 9.77404 19.9551 9.88198 20.0015 9.99216C20.0109 10.0343 19.9546 10.0859 19.9171 10.1047" fill="#F7C608"/>
<path d="M19.5281 9.42502L19.5703 9.40627C19.5984 9.39221 19.6312 9.40627 19.6547 9.4344L19.7953 9.69221L19.5234 9.8094C19.4771 9.72136 19.4271 9.63535 19.3734 9.55159C19.3593 9.52346 19.3687 9.49065 19.3968 9.47659L19.4343 9.46252M19.7625 10.0953L19.725 10.1094C19.6922 10.1235 19.664 10.1094 19.6453 10.0813C19.6125 10.0016 19.575 9.90784 19.5234 9.8094L19.7953 9.69221L19.9265 9.9594C19.9312 9.9969 19.8937 10.0391 19.8656 10.0531" fill="#006233"/>
<path d="M20.0625 10.6203L20.1281 10.611C20.1484 10.6083 20.169 10.6124 20.1868 10.6225C20.2046 10.6327 20.2185 10.6484 20.2265 10.6672L20.2969 11.0094L19.8844 11.0703C19.8644 10.9548 19.8377 10.8406 19.8047 10.7281C19.8 10.686 19.8234 10.6531 19.8703 10.6485L19.9219 10.6391M20.0719 11.4688L20.0062 11.4781C19.964 11.4828 19.9265 11.4594 19.9219 11.4172C19.9154 11.301 19.9029 11.1852 19.8844 11.0703L20.2969 11.0094C20.3156 11.1313 20.3344 11.2485 20.3437 11.361C20.3437 11.4031 20.2687 11.4406 20.2265 11.4453" fill="#F7C608"/>
<path d="M20.0625 10.6907L20.1093 10.686C20.1422 10.6813 20.1703 10.7047 20.1797 10.7328C20.1937 10.8172 20.2218 10.9203 20.2359 11.0188L19.9406 11.0657C19.9251 10.9678 19.9047 10.8708 19.8797 10.775C19.875 10.7422 19.889 10.7141 19.9265 10.7141L19.964 10.7047M20.0859 11.3938L20.039 11.4032C20.0062 11.4032 19.9781 11.3844 19.9734 11.3563C19.9671 11.2574 19.9562 11.1588 19.9406 11.061L20.2359 11.0188C20.2547 11.1219 20.2734 11.2203 20.2781 11.3094C20.2781 11.3422 20.2265 11.375 20.1937 11.3797" fill="#006233"/>
<path d="M20.2078 11.9797L20.2735 11.9843C20.3203 11.989 20.3485 12.0265 20.3532 12.0687L20.311 12.4156L19.8985 12.364C19.9172 12.2375 19.9266 12.1062 19.9266 12.0125C19.9313 11.975 19.9735 11.9468 20.0157 11.9562L20.0672 11.9609M19.9547 12.7953L19.8891 12.7859C19.8422 12.7859 19.8188 12.7484 19.8235 12.7062C19.8516 12.6125 19.8797 12.4906 19.8985 12.364L20.311 12.4109C20.2922 12.5328 20.2735 12.6547 20.25 12.7578C20.2313 12.8 20.1516 12.8187 20.1094 12.814" fill="#F7C608"/>
<path d="M20.1844 12.05H20.2312C20.264 12.0594 20.2828 12.0875 20.2875 12.1203L20.25 12.4109L19.9547 12.3734L19.9828 12.0828C19.9828 12.05 20.0109 12.0265 20.0437 12.0312H20.0859M19.9922 12.7297L19.9453 12.725C19.9125 12.7203 19.8937 12.6922 19.8984 12.6594C19.9172 12.575 19.9406 12.4812 19.9547 12.3734L20.25 12.4109C20.2381 12.5053 20.2224 12.5991 20.2031 12.6922C20.189 12.7297 20.1281 12.7484 20.1 12.739" fill="#006233"/>
<path d="M19.9266 13.3203L19.9875 13.3438C20.0297 13.3625 20.0437 13.4 20.0344 13.4375L19.8937 13.7657L19.5094 13.611C19.5625 13.5044 19.6095 13.3948 19.65 13.2828C19.6641 13.2453 19.7062 13.2313 19.7437 13.2453L19.8 13.2641M19.4297 14.0375L19.3734 14.0141C19.3312 13.9953 19.3125 13.9578 19.3312 13.9203C19.3875 13.836 19.4531 13.7282 19.5094 13.611L19.8891 13.7657C19.8395 13.8729 19.7847 13.9777 19.725 14.0797C19.6969 14.1125 19.6125 14.1125 19.5703 14.0938" fill="#F7C608"/>
<path d="M19.8843 13.3812L19.9312 13.3953C19.9547 13.4094 19.964 13.4422 19.9593 13.475L19.8375 13.7422L19.5609 13.6344C19.6043 13.5457 19.6434 13.4549 19.6781 13.3625C19.6922 13.3297 19.725 13.3156 19.7531 13.325L19.7906 13.3437M19.4859 13.9812L19.439 13.9672C19.4109 13.9531 19.4015 13.9203 19.4203 13.8922C19.4709 13.8083 19.5178 13.7223 19.5609 13.6344L19.8375 13.7422C19.7941 13.8315 19.7471 13.9191 19.6968 14.0047C19.6734 14.0328 19.6125 14.0375 19.5843 14.0234" fill="#006233"/>
<path d="M19.2422 14.5344L19.2937 14.5719C19.3266 14.6 19.3312 14.6422 19.3125 14.6797C19.2375 14.7547 19.1531 14.8578 19.0687 14.9516L18.75 14.7031C18.8437 14.6094 18.9281 14.5016 18.9844 14.4219C19.0125 14.3937 19.0594 14.3937 19.0922 14.4172L19.1344 14.45M18.5437 15.0969L18.4969 15.0594C18.4594 15.0312 18.4547 14.9891 18.4828 14.9609C18.5625 14.8906 18.6562 14.8062 18.75 14.7031L19.0687 14.9516C18.9867 15.0428 18.9007 15.1304 18.8109 15.2141C18.7734 15.2375 18.6937 15.2141 18.6609 15.1859" fill="#F7C608"/>
<path d="M19.1812 14.5812L19.2187 14.6094C19.2422 14.6281 19.2422 14.6562 19.2234 14.689L19.0219 14.914L18.7922 14.7406C18.8719 14.6562 18.9422 14.5719 18.989 14.5062C19.0125 14.4828 19.05 14.4781 19.0734 14.4969L19.1015 14.5203M18.614 15.0594L18.5765 15.0312C18.5531 15.0125 18.5531 14.9797 18.5765 14.9515C18.6513 14.8843 18.7233 14.8139 18.7922 14.7406L19.0265 14.914C18.9515 14.9937 18.8812 15.0687 18.8062 15.1344C18.7781 15.1531 18.7219 15.139 18.6937 15.1203" fill="#006233"/>
<path d="M18.211 15.5234L18.2438 15.5703C18.2672 15.6078 18.2578 15.65 18.2297 15.6781L17.9156 15.8797L17.6813 15.5609C17.7894 15.4976 17.8943 15.4288 17.9953 15.3547C18.0119 15.3448 18.0315 15.3413 18.0504 15.3447C18.0694 15.3482 18.0864 15.3584 18.0985 15.3734L18.1313 15.4156M17.3625 15.8844L17.3297 15.8375C17.3016 15.8 17.311 15.7578 17.3485 15.7344C17.4637 15.682 17.5763 15.6241 17.686 15.5609L17.911 15.8797L17.5828 16.0672C17.5406 16.0766 17.475 16.0344 17.4469 16.0016" fill="#F7C608"/>
<path d="M18.1359 15.5515L18.1594 15.589C18.1781 15.6125 18.1687 15.6453 18.1406 15.6687L17.8781 15.8328L17.7141 15.6078L17.9766 15.4344C18.0047 15.4156 18.0422 15.4203 18.0562 15.4437L18.0797 15.4765M17.4422 15.8656L17.4141 15.8281C17.4 15.8047 17.4094 15.7719 17.4375 15.7531C17.5332 15.7085 17.627 15.66 17.7187 15.6078L17.8781 15.8328C17.7844 15.889 17.6906 15.9453 17.6062 15.9875C17.5734 16.0015 17.5172 15.9734 17.5031 15.95" fill="#006233"/>
<path d="M16.9125 16.2078L16.9312 16.2641C16.9453 16.3016 16.9219 16.3437 16.8844 16.3578L16.5187 16.475L16.3969 16.1094C16.5193 16.0753 16.6398 16.0346 16.7578 15.9875C16.8 15.9781 16.8422 15.9969 16.8516 16.0344L16.8703 16.0812M15.9891 16.3391L15.9703 16.2781C15.9562 16.2406 15.9797 16.2031 16.0172 16.1937C16.1297 16.175 16.2562 16.1469 16.3922 16.1094L16.5187 16.475C16.3922 16.5078 16.2656 16.5453 16.1437 16.5687C16.0969 16.5687 16.05 16.5078 16.0359 16.475" fill="#F7C608"/>
<path d="M16.8281 16.2172L16.8468 16.2594C16.8562 16.2875 16.8328 16.3156 16.7999 16.3297L16.4999 16.4234L16.4109 16.1609C16.5121 16.1338 16.6122 16.1025 16.7109 16.0672C16.7484 16.0531 16.7812 16.0672 16.7906 16.0953L16.7999 16.1281M16.0687 16.339L16.0546 16.2968C16.0453 16.2687 16.064 16.2406 16.1015 16.2312C16.2056 16.212 16.3088 16.1886 16.4109 16.1609L16.4999 16.4234C16.3977 16.4519 16.2945 16.4769 16.1906 16.4984C16.1531 16.4984 16.1109 16.4609 16.0968 16.4328" fill="#006233"/>
<path d="M15.4547 16.5313V16.5922C15.4547 16.6344 15.4219 16.6625 15.3797 16.6719C15.2672 16.6719 15.1266 16.686 14.9953 16.686L14.9906 16.3063C15.1191 16.3049 15.2473 16.2971 15.375 16.2828C15.4219 16.2828 15.45 16.311 15.45 16.3531V16.4M14.5312 16.4188V16.3625C14.5312 16.3203 14.5594 16.2922 14.6063 16.2922C14.7141 16.2969 14.8453 16.3063 14.9906 16.3063V16.686L14.6063 16.6813C14.5641 16.6719 14.5312 16.6016 14.5312 16.5594" fill="#F7C608"/>
<path d="M15.375 16.5219V16.5641C15.375 16.5922 15.3468 16.6109 15.3093 16.6203L14.9906 16.6297V16.3625C15.1078 16.3625 15.225 16.3484 15.3093 16.3438C15.3468 16.3438 15.3703 16.3625 15.375 16.3906V16.4281M14.6062 16.4422V16.3953C14.6062 16.3719 14.6296 16.3484 14.6671 16.3484C14.7609 16.3531 14.8687 16.3625 14.9906 16.3578V16.6297H14.6718C14.6343 16.6203 14.6062 16.5688 14.6062 16.5406" fill="#006233"/>
</g>
<defs>
<clipPath id="clip0_223_6703">
<rect width="30" height="22.5" fill="white" transform="translate(0 0.5)"/>
</clipPath>
</defs>
</svg>
