<svg width="9" height="15" viewBox="0 0 9 15" fill="none" xmlns="http://www.w3.org/2000/svg">
<path d="M0.355103 7.53805L6.97028 0.932495C7.1478 0.751334 7.38971 0.647655 7.64333 0.644043C7.89834 0.644043 8.1429 0.745345 8.32322 0.925662C8.50354 1.10598 8.60484 1.35054 8.60484 1.60555C8.60557 1.73209 8.58132 1.85753 8.53347 1.97468C8.48562 2.09183 8.41511 2.19838 8.326 2.28822L3.07617 7.53805L8.326 12.7879C8.41511 12.8777 8.48562 12.9843 8.53347 13.1014C8.58132 13.2186 8.60557 13.344 8.60484 13.4706C8.60484 13.7256 8.50354 13.9701 8.32322 14.1504C8.1429 14.3308 7.89834 14.4321 7.64333 14.4321C7.38971 14.4284 7.1478 14.3248 6.97028 14.1436L0.355103 7.53805Z" fill="white"/>
</svg>
