<svg width="17" height="19" viewBox="0 0 17 19" fill="none" xmlns="http://www.w3.org/2000/svg">
<path d="M0.990001 18.1599V18.2326L1.05789 18.2066L8.54 15.3405L16.0221 18.2066L16.09 18.2326V18.1599V2.68035C16.09 2.15317 15.8909 1.71154 15.4946 1.35877C15.0993 1.00552 14.607 0.829883 14.0213 0.829883H3.05875C2.47298 0.829883 1.98069 1.00551 1.58547 1.35874C1.18909 1.71151 0.990001 2.15315 0.990001 2.68035V18.1599ZM8.5579 13.9883L8.54 13.9814L8.5221 13.9883L2.34 16.3592V2.68035C2.34 2.52714 2.41101 2.38263 2.5633 2.24607C2.71615 2.1105 2.88087 2.04472 3.05875 2.04472H14.0213C14.1991 2.04472 14.3639 2.1105 14.5167 2.24608C14.669 2.38263 14.74 2.52714 14.74 2.68035V16.3592L8.5579 13.9883Z" fill="#323232" stroke="#323232" stroke-width="0.1"/>
</svg>
