<svg width="42" height="37" viewBox="0 0 42 37" fill="none" xmlns="http://www.w3.org/2000/svg">
<path d="M37.1538 5.45542H31.5565L28.8043 1.45629C28.6569 1.24215 28.4572 1.06655 28.223 0.945059C27.9887 0.823564 27.7272 0.75992 27.4615 0.759766H14.5385C14.2728 0.75992 14.0113 0.823564 13.777 0.945059C13.5428 1.06655 13.3431 1.24215 13.1957 1.45629L10.4414 5.45542H4.84615C3.56087 5.45542 2.32824 5.95014 1.41941 6.83074C0.510576 7.71135 0 8.90571 0 10.1511V32.0641C0 33.3095 0.510576 34.5038 1.41941 35.3844C2.32824 36.265 3.56087 36.7598 4.84615 36.7598H37.1538C38.4391 36.7598 39.6718 36.265 40.5806 35.3844C41.4894 34.5038 42 33.3095 42 32.0641V10.1511C42 8.90571 41.4894 7.71135 40.5806 6.83074C39.6718 5.95014 38.4391 5.45542 37.1538 5.45542ZM28.2692 20.325C28.2692 21.7181 27.8429 23.0798 27.0441 24.2381C26.2454 25.3964 25.1101 26.2992 23.7818 26.8323C22.4535 27.3654 20.9919 27.5049 19.5818 27.2331C18.1717 26.9613 16.8765 26.2905 15.8599 25.3055C14.8433 24.3204 14.1509 23.0654 13.8704 21.6991C13.59 20.3328 13.7339 18.9166 14.2841 17.6296C14.8343 16.3425 15.766 15.2425 16.9614 14.4685C18.1569 13.6946 19.5623 13.2815 21 13.2815C22.9279 13.2815 24.7769 14.0236 26.1401 15.3445C27.5034 16.6654 28.2692 18.4569 28.2692 20.325Z" fill="white"/>
</svg>
