<svg width="15" height="14" viewBox="0 0 15 14" fill="none" xmlns="http://www.w3.org/2000/svg">
<path d="M13.2999 1.74955H11.3249L10.3538 0.293201C10.3017 0.215219 10.2313 0.151273 10.1486 0.107029C10.066 0.0627841 9.97369 0.0396071 9.87994 0.0395508H5.31994C5.2262 0.0396071 5.13391 0.0627841 5.05126 0.107029C4.96862 0.151273 4.89816 0.215219 4.84613 0.293201L3.87428 1.74955H1.89994C1.44642 1.74955 1.01148 1.92971 0.690789 2.2504C0.370102 2.57109 0.189941 3.00603 0.189941 3.45955V11.4396C0.189941 11.8931 0.370102 12.328 0.690789 12.6487C1.01148 12.9694 1.44642 13.1496 1.89994 13.1496H13.2999C13.7535 13.1496 14.1884 12.9694 14.5091 12.6487C14.8298 12.328 15.0099 11.8931 15.0099 11.4396V3.45955C15.0099 3.00603 14.8298 2.57109 14.5091 2.2504C14.1884 1.92971 13.7535 1.74955 13.2999 1.74955ZM13.8699 11.4396C13.8699 11.5907 13.8099 11.7357 13.703 11.8426C13.5961 11.9495 13.4511 12.0096 13.2999 12.0096H1.89994C1.74877 12.0096 1.60379 11.9495 1.49689 11.8426C1.38999 11.7357 1.32994 11.5907 1.32994 11.4396V3.45955C1.32994 3.30838 1.38999 3.1634 1.49689 3.0565C1.60379 2.9496 1.74877 2.88955 1.89994 2.88955H4.17994C4.27381 2.88961 4.36624 2.86649 4.44902 2.82224C4.5318 2.77799 4.60237 2.71398 4.65447 2.6359L5.62489 1.17955H9.57428L10.5454 2.6359C10.5975 2.71398 10.6681 2.77799 10.7509 2.82224C10.8336 2.86649 10.9261 2.88961 11.0199 2.88955H13.2999C13.4511 2.88955 13.5961 2.9496 13.703 3.0565C13.8099 3.1634 13.8699 3.30838 13.8699 3.45955V11.4396ZM7.59994 4.02955C6.9799 4.02955 6.37378 4.21342 5.85823 4.55789C5.34268 4.90237 4.94086 5.39199 4.70358 5.96484C4.4663 6.53768 4.40421 7.16803 4.52518 7.77616C4.64614 8.38429 4.94472 8.94289 5.38316 9.38133C5.8216 9.81977 6.3802 10.1183 6.98833 10.2393C7.59646 10.3603 8.22681 10.2982 8.79965 10.0609C9.3725 9.82363 9.86212 9.42181 10.2066 8.90626C10.5511 8.39071 10.7349 7.7846 10.7349 7.16455C10.734 6.33339 10.4034 5.53653 9.81568 4.94881C9.22796 4.36109 8.43111 4.03049 7.59994 4.02955ZM7.59994 9.15955C7.20537 9.15955 6.81965 9.04255 6.49158 8.82333C6.1635 8.60412 5.9078 8.29254 5.7568 7.928C5.6058 7.56347 5.5663 7.16234 5.64327 6.77535C5.72025 6.38835 5.91026 6.03288 6.18926 5.75387C6.46827 5.47487 6.82374 5.28486 7.21074 5.20788C7.59773 5.13091 7.99886 5.17041 8.36339 5.32141C8.72793 5.47241 9.03951 5.72811 9.25872 6.05619C9.47794 6.38426 9.59494 6.76998 9.59494 7.16455C9.59494 7.69366 9.38476 8.20109 9.01062 8.57523C8.63649 8.94936 8.12905 9.15955 7.59994 9.15955Z" fill="white"/>
</svg>
