<svg width="20" height="20" viewBox="0 0 20 20" fill="none" xmlns="http://www.w3.org/2000/svg">
<path d="M17.0588 3.4H14.5185L13.2647 1.267C13.2163 1.18474 13.1507 1.11732 13.0737 1.07073C12.9967 1.02415 12.9108 0.999854 12.8235 1H7.17647C7.08921 0.999854 7.00328 1.02415 6.92631 1.07073C6.84934 1.11732 6.78372 1.18474 6.73529 1.267L5.48059 3.4H2.94118C2.42634 3.4 1.9326 3.63179 1.56856 4.04437C1.20452 4.45695 1 5.01652 1 5.6V16.8C1 17.3835 1.20452 17.9431 1.56856 18.3556C1.9326 18.7682 2.42634 19 2.94118 19H17.0588C17.5737 19 18.0674 18.7682 18.4314 18.3556C18.7955 17.9431 19 17.3835 19 16.8V5.6C19 5.01652 18.7955 4.45695 18.4314 4.04437C18.0674 3.63179 17.5737 3.4 17.0588 3.4ZM17.9412 16.8C17.9412 17.0652 17.8482 17.3196 17.6827 17.5071C17.5173 17.6946 17.2928 17.8 17.0588 17.8H2.94118C2.70716 17.8 2.48273 17.6946 2.31726 17.5071C2.15179 17.3196 2.05882 17.0652 2.05882 16.8V5.6C2.05882 5.33478 2.15179 5.08043 2.31726 4.89289C2.48273 4.70536 2.70716 4.6 2.94118 4.6H5.76471C5.85196 4.60015 5.9379 4.57585 6.01487 4.52927C6.09184 4.48268 6.15746 4.41526 6.20588 4.333L7.45971 2.2H12.5394L13.7941 4.333C13.8425 4.41526 13.9082 4.48268 13.9851 4.52927C14.0621 4.57585 14.148 4.60015 14.2353 4.6H17.0588C17.2928 4.6 17.5173 4.70536 17.6827 4.89289C17.8482 5.08043 17.9412 5.33478 17.9412 5.6V16.8ZM10 6.6C9.26705 6.6 8.55055 6.84633 7.94112 7.30783C7.33169 7.76933 6.8567 8.42528 6.57621 9.19273C6.29572 9.96018 6.22233 10.8047 6.36532 11.6194C6.50832 12.4341 6.86127 13.1825 7.37955 13.7698C7.89782 14.3572 8.55815 14.7572 9.27702 14.9193C9.99589 15.0814 10.741 14.9982 11.4182 14.6803C12.0953 14.3624 12.6741 13.8241 13.0813 13.1334C13.4885 12.4427 13.7059 11.6307 13.7059 10.8C13.7059 9.68609 13.3154 8.61781 12.6205 7.83015C11.9255 7.0425 10.9829 6.6 10 6.6ZM10 13.8C9.47646 13.8 8.96468 13.6241 8.52937 13.2944C8.09407 12.9648 7.75479 12.4962 7.55444 11.9481C7.35409 11.3999 7.30167 10.7967 7.4038 10.2147C7.50594 9.63279 7.75805 9.09824 8.12825 8.67868C8.49844 8.25912 8.97011 7.9734 9.48359 7.85764C9.99706 7.74189 10.5293 7.8013 11.013 8.02836C11.4967 8.25542 11.9101 8.63994 12.2009 9.13329C12.4918 9.62664 12.6471 10.2067 12.6471 10.8C12.6471 11.5957 12.3682 12.3587 11.8718 12.9213C11.3753 13.4839 10.702 13.8 10 13.8Z" fill="#323232" fill-opacity="0.52" stroke="#157EFE" stroke-width="0.4"/>
</svg>
