<svg width="24" height="23" viewBox="0 0 24 23" fill="none" xmlns="http://www.w3.org/2000/svg">
<path fill-rule="evenodd" clip-rule="evenodd" d="M12.1999 0.283691C18.5623 0.283691 23.7199 4.58176 23.7199 9.88369C23.7199 19.5985 14.4973 15.1915 13.2302 17.6625C12.4496 19.2507 16.4105 22.9494 12.1999 22.9494C3.54038 22.9494 0.679932 15.1856 0.679932 9.88369C0.679932 4.58176 5.83761 0.283691 12.1999 0.283691ZM5.47997 7.48381C4.41958 7.48381 3.55997 8.34342 3.55997 9.40381C3.55997 10.4642 4.41958 11.3238 5.47997 11.3238C6.54036 11.3238 7.39997 10.4642 7.39997 9.40381C7.39997 8.34342 6.54036 7.48381 5.47997 7.48381ZM18.92 7.48381C17.8596 7.48381 17 8.34342 17 9.40381C17 10.4642 17.8596 11.3238 18.92 11.3238C19.9804 11.3238 20.84 10.4642 20.84 9.40381C20.84 8.34342 19.9804 7.48381 18.92 7.48381ZM9.31996 2.68381C8.25957 2.68381 7.39996 3.54343 7.39996 4.60381C7.39996 5.6642 8.25957 6.52381 9.31996 6.52381C10.3803 6.52381 11.24 5.6642 11.24 4.60381C11.24 3.54343 10.3803 2.68381 9.31996 2.68381ZM15.08 2.68381C14.0196 2.68381 13.16 3.54343 13.16 4.60381C13.16 5.6642 14.0196 6.52381 15.08 6.52381C16.1403 6.52381 17 5.6642 17 4.60381C17 3.54343 16.1403 2.68381 15.08 2.68381Z" fill="white"/>
</svg>
