<svg width="37" height="31" viewBox="0 0 37 31" fill="none" xmlns="http://www.w3.org/2000/svg">
<mask id="path-1-outside-1_284_6793" maskUnits="userSpaceOnUse" x="0.832031" y="0.0307617" width="36" height="31" fill="black">
<rect fill="white" x="0.832031" y="0.0307617" width="36" height="31"/>
<path fill-rule="evenodd" clip-rule="evenodd" d="M23.9323 2.03673C23.2245 1.38961 22.3002 1.03076 21.3412 1.03076H15.9229C14.9638 1.03076 14.0395 1.38961 13.3318 2.03673L11.3323 3.86479C10.6245 4.51191 9.70022 4.87076 8.7412 4.87076H7.59203C4.41087 4.87076 1.83203 7.4496 1.83203 10.6308V23.8308C1.83203 27.0119 4.41087 29.5908 7.59203 29.5908H29.672C32.8532 29.5908 35.432 27.0119 35.432 23.8308V10.6308C35.432 7.4496 32.8532 4.87076 29.672 4.87076H28.5229C27.5638 4.87076 26.6395 4.51191 25.9318 3.86479L23.9323 2.03673ZM15.9229 2.9507H21.3412C21.8207 2.9507 22.2829 3.13013 22.6368 3.45369L24.6362 5.28175C25.6979 6.25243 27.0843 6.7907 28.5229 6.7907H29.672C31.7928 6.7907 33.512 8.50993 33.512 10.6307V23.8307C33.512 25.9515 31.7928 27.6707 29.672 27.6707H7.59204C5.47126 27.6707 3.75204 25.9515 3.75204 23.8307V10.6307C3.75204 8.50993 5.47126 6.7907 7.59204 6.7907H8.7412C10.1797 6.7907 11.5662 6.25243 12.6279 5.28175L14.6273 3.45369C14.9812 3.13013 15.4434 2.9507 15.9229 2.9507ZM12.6766 12.5812C12.7277 12.6157 12.7718 12.6597 12.8063 12.7109L14.5649 15.3199C14.7131 15.5397 14.655 15.8381 14.4352 15.9862C14.3559 16.0397 14.2625 16.0682 14.1669 16.0682L13.1306 16.0687C13.3634 19.077 15.754 21.4307 18.6532 21.4307C19.7088 21.4307 20.7196 21.1195 21.5945 20.5402C21.9261 20.3206 22.3728 20.4114 22.5923 20.743C22.8119 21.0745 22.7211 21.5213 22.3895 21.7408C21.2814 22.4746 19.9948 22.8707 18.6532 22.8707C14.9456 22.8707 11.9247 19.8603 11.6871 16.0682L10.6496 16.0682C10.3845 16.0682 10.1696 15.8533 10.1696 15.5882C10.1696 15.4926 10.1982 15.3992 10.2516 15.3199L12.0102 12.7109C12.1584 12.4911 12.4567 12.433 12.6766 12.5812ZM25.5002 15.6113C25.2626 11.8193 22.2417 8.80885 18.5341 8.80885C17.1925 8.80885 15.9058 9.20502 14.7977 9.93876C14.4662 10.1583 14.3754 10.605 14.5949 10.9366C14.8145 11.2681 15.2612 11.3589 15.5928 11.1394C16.4676 10.5601 17.4785 10.2489 18.5341 10.2489C21.4333 10.2489 23.8239 12.6026 24.0567 15.6109L23.0204 15.6114C22.9248 15.6114 22.8313 15.6399 22.7521 15.6933C22.5323 15.8415 22.4742 16.1398 22.6223 16.3597L24.381 18.9687C24.4155 19.0198 24.4595 19.0639 24.5107 19.0984C24.7305 19.2466 25.0289 19.1885 25.177 18.9687L26.9357 16.3597C26.9891 16.2804 27.0176 16.187 27.0176 16.0914C27.0176 15.8263 26.8027 15.6114 26.5376 15.6114L25.5002 15.6113Z"/>
</mask>
<path fill-rule="evenodd" clip-rule="evenodd" d="M23.9323 2.03673C23.2245 1.38961 22.3002 1.03076 21.3412 1.03076H15.9229C14.9638 1.03076 14.0395 1.38961 13.3318 2.03673L11.3323 3.86479C10.6245 4.51191 9.70022 4.87076 8.7412 4.87076H7.59203C4.41087 4.87076 1.83203 7.4496 1.83203 10.6308V23.8308C1.83203 27.0119 4.41087 29.5908 7.59203 29.5908H29.672C32.8532 29.5908 35.432 27.0119 35.432 23.8308V10.6308C35.432 7.4496 32.8532 4.87076 29.672 4.87076H28.5229C27.5638 4.87076 26.6395 4.51191 25.9318 3.86479L23.9323 2.03673ZM15.9229 2.9507H21.3412C21.8207 2.9507 22.2829 3.13013 22.6368 3.45369L24.6362 5.28175C25.6979 6.25243 27.0843 6.7907 28.5229 6.7907H29.672C31.7928 6.7907 33.512 8.50993 33.512 10.6307V23.8307C33.512 25.9515 31.7928 27.6707 29.672 27.6707H7.59204C5.47126 27.6707 3.75204 25.9515 3.75204 23.8307V10.6307C3.75204 8.50993 5.47126 6.7907 7.59204 6.7907H8.7412C10.1797 6.7907 11.5662 6.25243 12.6279 5.28175L14.6273 3.45369C14.9812 3.13013 15.4434 2.9507 15.9229 2.9507ZM12.6766 12.5812C12.7277 12.6157 12.7718 12.6597 12.8063 12.7109L14.5649 15.3199C14.7131 15.5397 14.655 15.8381 14.4352 15.9862C14.3559 16.0397 14.2625 16.0682 14.1669 16.0682L13.1306 16.0687C13.3634 19.077 15.754 21.4307 18.6532 21.4307C19.7088 21.4307 20.7196 21.1195 21.5945 20.5402C21.9261 20.3206 22.3728 20.4114 22.5923 20.743C22.8119 21.0745 22.7211 21.5213 22.3895 21.7408C21.2814 22.4746 19.9948 22.8707 18.6532 22.8707C14.9456 22.8707 11.9247 19.8603 11.6871 16.0682L10.6496 16.0682C10.3845 16.0682 10.1696 15.8533 10.1696 15.5882C10.1696 15.4926 10.1982 15.3992 10.2516 15.3199L12.0102 12.7109C12.1584 12.4911 12.4567 12.433 12.6766 12.5812ZM25.5002 15.6113C25.2626 11.8193 22.2417 8.80885 18.5341 8.80885C17.1925 8.80885 15.9058 9.20502 14.7977 9.93876C14.4662 10.1583 14.3754 10.605 14.5949 10.9366C14.8145 11.2681 15.2612 11.3589 15.5928 11.1394C16.4676 10.5601 17.4785 10.2489 18.5341 10.2489C21.4333 10.2489 23.8239 12.6026 24.0567 15.6109L23.0204 15.6114C22.9248 15.6114 22.8313 15.6399 22.7521 15.6933C22.5323 15.8415 22.4742 16.1398 22.6223 16.3597L24.381 18.9687C24.4155 19.0198 24.4595 19.0639 24.5107 19.0984C24.7305 19.2466 25.0289 19.1885 25.177 18.9687L26.9357 16.3597C26.9891 16.2804 27.0176 16.187 27.0176 16.0914C27.0176 15.8263 26.8027 15.6114 26.5376 15.6114L25.5002 15.6113Z" fill="white"/>
<path d="M23.9323 2.03673L24.5801 1.32822L24.5801 1.32822L23.9323 2.03673ZM13.3318 2.03673L12.684 1.32822V1.32822L13.3318 2.03673ZM11.3323 3.86479L11.9801 4.5733V4.5733L11.3323 3.86479ZM25.9318 3.86479L25.284 4.5733L25.284 4.5733L25.9318 3.86479ZM22.6368 3.45369L23.2845 2.74518L23.2845 2.74518L22.6368 3.45369ZM24.6362 5.28175L23.9884 5.99026H23.9884L24.6362 5.28175ZM12.6279 5.28175L11.9801 4.57324L12.6279 5.28175ZM14.6273 3.45369L13.9795 2.74518V2.74518L14.6273 3.45369ZM12.8063 12.7109L12.0102 13.2475L12.0102 13.2475L12.8063 12.7109ZM12.6766 12.5812L12.14 13.3772L12.14 13.3772L12.6766 12.5812ZM14.5649 15.3199L15.361 14.7833V14.7833L14.5649 15.3199ZM14.4352 15.9862L13.8986 15.1902L13.8986 15.1902L14.4352 15.9862ZM14.1669 16.0682V15.1082H14.1665L14.1669 16.0682ZM13.1306 16.0687L13.1302 15.1087L12.0935 15.1092L12.1735 16.1428L13.1306 16.0687ZM21.5945 20.5402L22.1245 21.3406L21.5945 20.5402ZM22.5923 20.743L23.3928 20.213L23.3928 20.213L22.5923 20.743ZM22.3895 21.7408L21.8595 20.9404L21.8595 20.9404L22.3895 21.7408ZM11.6871 16.0682L12.6452 16.0082L12.5888 15.1083L11.6871 15.1082L11.6871 16.0682ZM10.6496 16.0682L10.6497 15.1082H10.6496V16.0682ZM10.2516 15.3199L11.0476 15.8565H11.0476L10.2516 15.3199ZM12.0102 12.7109L12.8063 13.2475V13.2475L12.0102 12.7109ZM25.5002 15.6113L24.5421 15.6714L24.5985 16.5713L25.5002 16.5713L25.5002 15.6113ZM14.7977 9.93876L14.2677 9.13834H14.2677L14.7977 9.93876ZM15.5928 11.1394L16.1228 11.9398L16.1228 11.9398L15.5928 11.1394ZM24.0567 15.6109L24.0571 16.5709L25.0938 16.5704L25.0138 15.5368L24.0567 15.6109ZM23.0204 15.6114V16.5714H23.0208L23.0204 15.6114ZM22.7521 15.6933L23.2887 16.4894L23.2887 16.4894L22.7521 15.6933ZM22.6223 16.3597L23.4184 15.8231L23.4184 15.8231L22.6223 16.3597ZM24.381 18.9687L25.177 18.4321L25.177 18.4321L24.381 18.9687ZM24.5107 19.0984L23.9741 19.8944L23.9741 19.8944L24.5107 19.0984ZM25.177 18.9687L25.9731 19.5052L25.177 18.9687ZM26.9357 16.3597L26.1396 15.8231V15.8231L26.9357 16.3597ZM26.5376 15.6114L26.5376 16.5714H26.5376V15.6114ZM21.3412 1.99076C22.0605 1.99076 22.7537 2.2599 23.2845 2.74524L24.5801 1.32822C23.6954 0.519327 22.54 0.0707617 21.3412 0.0707617V1.99076ZM15.9229 1.99076H21.3412V0.0707617H15.9229V1.99076ZM13.9795 2.74524C14.5104 2.2599 15.2036 1.99076 15.9229 1.99076V0.0707617C14.7241 0.0707617 13.5687 0.519327 12.684 1.32822L13.9795 2.74524ZM11.9801 4.5733L13.9795 2.74524L12.684 1.32822L10.6845 3.15628L11.9801 4.5733ZM8.7412 5.83076C9.93997 5.83076 11.0954 5.3822 11.9801 4.5733L10.6845 3.15628C10.1537 3.64162 9.46046 3.91076 8.7412 3.91076V5.83076ZM7.59203 5.83076H8.7412V3.91076H7.59203V5.83076ZM2.79203 10.6308C2.79203 7.97979 4.94106 5.83076 7.59203 5.83076V3.91076C3.88068 3.91076 0.872031 6.91941 0.872031 10.6308H2.79203ZM2.79203 23.8308V10.6308H0.872031V23.8308H2.79203ZM7.59203 28.6308C4.94106 28.6308 2.79203 26.4817 2.79203 23.8308H0.872031C0.872031 27.5421 3.88068 30.5508 7.59203 30.5508V28.6308ZM29.672 28.6308H7.59203V30.5508H29.672V28.6308ZM34.472 23.8308C34.472 26.4817 32.323 28.6308 29.672 28.6308V30.5508C33.3834 30.5508 36.392 27.5421 36.392 23.8308H34.472ZM34.472 10.6308V23.8308H36.392V10.6308H34.472ZM29.672 5.83076C32.323 5.83076 34.472 7.97979 34.472 10.6308H36.392C36.392 6.91941 33.3834 3.91076 29.672 3.91076V5.83076ZM28.5229 5.83076H29.672V3.91076H28.5229V5.83076ZM25.284 4.5733C26.1687 5.3822 27.3241 5.83076 28.5229 5.83076V3.91076C27.8036 3.91076 27.1104 3.64162 26.5795 3.15628L25.284 4.5733ZM23.2845 2.74524L25.284 4.5733L26.5795 3.15628L24.5801 1.32822L23.2845 2.74524ZM21.3412 1.9907H15.9229V3.9107H21.3412V1.9907ZM23.2845 2.74518C22.7537 2.25984 22.0605 1.9907 21.3412 1.9907V3.9107C21.581 3.9107 21.812 4.00042 21.989 4.1622L23.2845 2.74518ZM25.284 4.57324L23.2845 2.74518L21.989 4.1622L23.9884 5.99026L25.284 4.57324ZM28.5229 5.8307C27.3241 5.8307 26.1687 5.38214 25.284 4.57324L23.9884 5.99026C25.227 7.12271 26.8446 7.7507 28.5229 7.7507V5.8307ZM29.672 5.8307H28.5229V7.7507H29.672V5.8307ZM34.472 10.6307C34.472 7.97974 32.323 5.8307 29.672 5.8307V7.7507C31.2626 7.7507 32.552 9.04012 32.552 10.6307H34.472ZM34.472 23.8307V10.6307H32.552V23.8307H34.472ZM29.672 28.6307C32.323 28.6307 34.472 26.4817 34.472 23.8307H32.552C32.552 25.4213 31.2626 26.7107 29.672 26.7107V28.6307ZM7.59204 28.6307H29.672V26.7107H7.59204V28.6307ZM2.79204 23.8307C2.79204 26.4817 4.94107 28.6307 7.59204 28.6307V26.7107C6.00146 26.7107 4.71204 25.4213 4.71204 23.8307H2.79204ZM2.79204 10.6307V23.8307H4.71204V10.6307H2.79204ZM7.59204 5.8307C4.94107 5.8307 2.79204 7.97974 2.79204 10.6307H4.71204C4.71204 9.04012 6.00146 7.7507 7.59204 7.7507V5.8307ZM8.7412 5.8307H7.59204V7.7507H8.7412V5.8307ZM11.9801 4.57324C11.0954 5.38214 9.93998 5.8307 8.7412 5.8307V7.7507C10.4195 7.7507 12.037 7.12271 13.2757 5.99026L11.9801 4.57324ZM13.9795 2.74518L11.9801 4.57324L13.2757 5.99026L15.2751 4.1622L13.9795 2.74518ZM15.9229 1.9907C15.2036 1.9907 14.5104 2.25984 13.9795 2.74518L15.2751 4.1622C15.452 4.00042 15.6831 3.9107 15.9229 3.9107V1.9907ZM13.6023 12.1743C13.4988 12.0208 13.3667 11.8887 13.2131 11.7852L12.14 13.3772C12.0888 13.3427 12.0447 13.2987 12.0102 13.2475L13.6023 12.1743ZM15.361 14.7833L13.6023 12.1743L12.0102 13.2475L13.7689 15.8565L15.361 14.7833ZM14.9718 16.7823C15.6312 16.3377 15.8055 15.4428 15.361 14.7833L13.7689 15.8565C13.6207 15.6367 13.6788 15.3384 13.8986 15.1902L14.9718 16.7823ZM14.1669 17.0282C14.4537 17.0282 14.734 16.9426 14.9718 16.7823L13.8986 15.1902C13.9779 15.1368 14.0713 15.1082 14.1669 15.1082V17.0282ZM13.1311 17.0287L14.1674 17.0282L14.1665 15.1082L13.1302 15.1087L13.1311 17.0287ZM18.6532 20.4707C16.3002 20.4707 14.2854 18.5488 14.0877 15.9946L12.1735 16.1428C12.4414 19.6052 15.2079 22.3907 18.6532 22.3907V20.4707ZM21.0645 19.7397C20.3437 20.217 19.5166 20.4707 18.6532 20.4707V22.3907C19.901 22.3907 21.0956 22.0219 22.1245 21.3406L21.0645 19.7397ZM23.3928 20.213C22.8805 19.4394 21.8381 19.2275 21.0645 19.7397L22.1245 21.3406C22.014 21.4138 21.8651 21.3835 21.7919 21.273L23.3928 20.213ZM22.9195 22.5412C23.6932 22.029 23.905 20.9866 23.3928 20.213L21.7919 21.273C21.7187 21.1625 21.749 21.0136 21.8595 20.9404L22.9195 22.5412ZM18.6532 23.8307C20.1866 23.8307 21.6571 23.3772 22.9195 22.5412L21.8595 20.9404C20.9058 21.5719 19.8029 21.9107 18.6532 21.9107V23.8307ZM10.729 16.1283C10.9958 20.3863 14.3997 23.8307 18.6532 23.8307V21.9107C15.4915 21.9107 12.8536 19.3342 12.6452 16.0082L10.729 16.1283ZM10.6496 17.0282L11.687 17.0282L11.6871 15.1082L10.6497 15.1082L10.6496 17.0282ZM9.20963 15.5882C9.20963 16.3835 9.85433 17.0282 10.6496 17.0282V15.1082C10.9147 15.1082 11.1296 15.3231 11.1296 15.5882H9.20963ZM9.45557 14.7833C9.29527 15.0211 9.20963 15.3014 9.20963 15.5882H11.1296C11.1296 15.6838 11.1011 15.7772 11.0476 15.8565L9.45557 14.7833ZM11.2142 12.1743L9.45557 14.7833L11.0476 15.8565L12.8063 13.2475L11.2142 12.1743ZM13.2131 11.7852C12.5537 11.3406 11.6587 11.5149 11.2142 12.1743L12.8063 13.2475C12.6581 13.4673 12.3598 13.5254 12.14 13.3772L13.2131 11.7852ZM18.5341 9.76885C21.6958 9.76885 24.3337 12.3454 24.5421 15.6714L26.4583 15.5513C26.1915 11.2933 22.7876 7.84885 18.5341 7.84885V9.76885ZM15.3278 10.7392C16.2815 10.1077 17.3844 9.76885 18.5341 9.76885V7.84885C17.0007 7.84885 15.5302 8.30238 14.2677 9.13834L15.3278 10.7392ZM15.3954 10.4066C15.4685 10.5171 15.4383 10.666 15.3278 10.7392L14.2677 9.13834C13.4941 9.6506 13.2822 10.693 13.7945 11.4666L15.3954 10.4066ZM15.0628 10.339C15.1733 10.2658 15.3222 10.2961 15.3954 10.4066L13.7945 11.4666C14.3068 12.2402 15.3492 12.4521 16.1228 11.9398L15.0628 10.339ZM18.5341 9.28885C17.2863 9.28885 16.0917 9.65763 15.0627 10.339L16.1228 11.9398C16.8436 11.4625 17.6707 11.2089 18.5341 11.2089V9.28885ZM25.0138 15.5368C24.7458 12.0744 21.9794 9.28885 18.5341 9.28885V11.2089C20.8871 11.2089 22.9019 13.1308 23.0995 15.685L25.0138 15.5368ZM23.0208 16.5714L24.0571 16.5709L24.0562 14.6509L23.0199 14.6514L23.0208 16.5714ZM23.2887 16.4894C23.2094 16.5428 23.116 16.5714 23.0204 16.5714V14.6514C22.7336 14.6514 22.4533 14.737 22.2155 14.8973L23.2887 16.4894ZM23.4184 15.8231C23.5666 16.0429 23.5085 16.3412 23.2887 16.4894L22.2155 14.8973C21.556 15.3418 21.3818 16.2368 21.8263 16.8962L23.4184 15.8231ZM25.177 18.4321L23.4184 15.8231L21.8263 16.8962L23.5849 19.5052L25.177 18.4321ZM25.0473 18.3024C25.0985 18.3368 25.1425 18.3809 25.177 18.4321L23.5849 19.5052C23.6885 19.6588 23.8206 19.7909 23.9741 19.8944L25.0473 18.3024ZM24.381 18.4321C24.5292 18.2123 24.8275 18.1542 25.0473 18.3023L23.9741 19.8944C24.6336 20.3389 25.5285 20.1647 25.9731 19.5052L24.381 18.4321ZM26.1396 15.8231L24.381 18.4321L25.9731 19.5052L27.7317 16.8962L26.1396 15.8231ZM26.0576 16.0914C26.0576 15.9958 26.0862 15.9023 26.1396 15.8231L27.7317 16.8962C27.892 16.6584 27.9776 16.3782 27.9776 16.0914H26.0576ZM26.5376 16.5714C26.2725 16.5714 26.0576 16.3565 26.0576 16.0914H27.9776C27.9776 15.2961 27.3329 14.6514 26.5376 14.6514V16.5714ZM25.5002 16.5713L26.5376 16.5714L26.5377 14.6514L25.5002 14.6513L25.5002 16.5713Z" fill="black" fill-opacity="0.2" mask="url(#path-1-outside-1_284_6793)"/>
</svg>
