<svg width="21" height="17" viewBox="0 0 21 17" fill="none" xmlns="http://www.w3.org/2000/svg">
<path d="M0.916382 8.4985C0.916382 4.88518 0.916382 3.07804 2.03938 1.956C3.16141 0.833008 4.96855 0.833008 8.58188 0.833008H12.4146C16.0279 0.833008 17.8351 0.833008 18.9571 1.956C20.0801 3.07804 20.0801 4.88518 20.0801 8.4985C20.0801 12.1118 20.0801 13.919 18.9571 15.041C17.8351 16.164 16.0279 16.164 12.4146 16.164H8.58188C4.96855 16.164 3.16141 16.164 2.03938 15.041C0.916382 13.919 0.916382 12.1118 0.916382 8.4985Z" stroke="#323232" stroke-width="0.958187"/>
<path d="M10.4984 6.58203V10.4148M8.83879 7.54022L12.1579 9.45659M12.1579 7.54022L8.83879 9.45659M5.4516 6.58203V10.4148M3.79106 7.54022L7.11022 9.45659M7.11022 7.54022L3.79106 9.45659M15.5461 6.58203V10.4148M13.8865 7.54022L17.2057 9.45659M17.2057 7.54022L13.8856 9.45659" stroke="#323232" stroke-width="0.958187" stroke-linecap="round"/>
</svg>
