<svg width="21" height="20" viewBox="0 0 21 20" fill="none" xmlns="http://www.w3.org/2000/svg">
<path fill-rule="evenodd" clip-rule="evenodd" d="M9.63995 7.32999e-08H11.7601C13.167 -4.45578e-06 14.27 -7.99846e-06 15.1565 0.068788C16.0592 0.138841 16.805 0.283852 17.48 0.610525C18.5896 1.14756 19.4918 2.00447 20.0572 3.05846C20.4012 3.69959 20.5538 4.40792 20.6276 5.26533C20.7 6.10735 20.7 7.155 20.7 8.49128V11.1768C20.7 11.4267 20.7 11.5788 20.6934 11.7114C20.5496 14.5968 18.1193 16.9051 15.0815 17.0417C14.9419 17.048 14.7655 17.048 14.4732 17.048H14.444L14.3668 17.0481C13.4774 17.0535 12.6109 17.3172 11.8839 17.8038L11.8335 17.8379L9.15582 19.6545C7.61273 20.7014 5.58502 19.1896 6.28929 17.5172C6.38394 17.2925 6.20966 17.048 5.95479 17.048H5.33761C2.77634 17.048 0.700012 15.0759 0.700012 12.6431L0.700012 8.4913C0.700008 7.15501 0.700004 6.10735 0.772435 5.26533C0.846189 4.40792 0.998862 3.69959 1.34279 3.05846C1.9082 2.00447 2.81039 1.14756 3.92007 0.610525C4.59507 0.283852 5.34083 0.138841 6.24354 0.0687881C7.13005 -7.99846e-06 8.23306 -4.45578e-06 9.63995 7.32999e-08ZM6.36882 1.52519C5.56125 1.58786 5.04049 1.70829 4.61852 1.91251C3.79832 2.30945 3.13148 2.94282 2.71357 3.72186C2.49857 4.12266 2.37177 4.61728 2.30579 5.38432C2.23907 6.15989 2.23847 7.14797 2.23847 8.52399V12.6431C2.23847 14.2688 3.626 15.5867 5.33761 15.5867H5.95479C7.29807 15.5867 8.21659 16.8753 7.71771 18.0599C7.58409 18.3772 7.96882 18.6641 8.2616 18.4655L10.9393 16.6488L10.9977 16.6093C11.9814 15.951 13.1536 15.5942 14.3569 15.5868L14.444 15.5867C14.774 15.5867 14.9105 15.5865 15.0087 15.5821C17.2541 15.4811 19.0504 13.775 19.1567 11.6423C19.1613 11.5488 19.1616 11.4339 19.1616 11.1531V8.52399C19.1616 7.14797 19.161 6.15989 19.0942 5.38432C19.0283 4.61728 18.9015 4.12266 18.6865 3.72186C18.2685 2.94282 17.6017 2.30945 16.7815 1.91251C16.3595 1.70829 15.8388 1.58786 15.0312 1.52519C14.2147 1.46182 13.1744 1.46126 11.7257 1.46126H9.67437C8.22565 1.46126 7.18537 1.46182 6.36882 1.52519Z" fill="#010101"/>
<path d="M7.62309 8.52399C7.62309 9.06201 7.16389 9.49816 6.59745 9.49816C6.031 9.49816 5.57181 9.06201 5.57181 8.52399C5.57181 7.98597 6.031 7.54982 6.59745 7.54982C7.16389 7.54982 7.62309 7.98597 7.62309 8.52399Z" fill="#010101"/>
<path d="M11.7257 8.52399C11.7257 9.06201 11.2665 9.49816 10.7 9.49816C10.1336 9.49816 9.67437 9.06201 9.67437 8.52399C9.67437 7.98597 10.1336 7.54982 10.7 7.54982C11.2665 7.54982 11.7257 7.98597 11.7257 8.52399Z" fill="#010101"/>
<path d="M15.8282 8.52399C15.8282 9.06201 15.369 9.49816 14.8026 9.49816C14.2361 9.49816 13.7769 9.06201 13.7769 8.52399C13.7769 7.98597 14.2361 7.54982 14.8026 7.54982C15.369 7.54982 15.8282 7.98597 15.8282 8.52399Z" fill="#010101"/>
</svg>
