<svg width="20" height="20" viewBox="0 0 20 20" fill="none" xmlns="http://www.w3.org/2000/svg">
<path fill-rule="evenodd" clip-rule="evenodd" d="M8.93994 7.32999e-08H11.0601C12.467 -4.45578e-06 13.57 -7.99846e-06 14.4565 0.068788C15.3592 0.138841 16.1049 0.283852 16.7799 0.610525C17.8896 1.14756 18.7918 2.00447 19.3572 3.05846C19.7012 3.69959 19.8538 4.40792 19.9276 5.26533C20 6.10735 20 7.155 20 8.49128V11.1768C20 11.4267 20 11.5788 19.9934 11.7114C19.8496 14.5968 17.4193 16.9051 14.3814 17.0417C14.2418 17.048 14.0655 17.048 13.7732 17.048H13.744L13.6668 17.0481C12.7773 17.0535 11.9109 17.3172 11.1839 17.8038L11.1335 17.8379L8.4558 19.6545C6.91272 20.7014 4.88501 19.1896 5.58927 17.5172C5.68393 17.2925 5.50965 17.048 5.25478 17.048H4.6376C2.07632 17.048 1.99439e-07 15.0759 1.99439e-07 12.6431L7.71727e-08 8.4913C-4.6912e-06 7.15501 -8.42107e-06 6.10735 0.0724225 5.26533C0.146177 4.40792 0.29885 3.69959 0.642782 3.05846C1.20819 2.00447 2.11038 1.14756 3.22006 0.610525C3.89506 0.283852 4.64082 0.138841 5.54352 0.0687881C6.43004 -7.99846e-06 7.53305 -4.45578e-06 8.93994 7.32999e-08ZM5.6688 1.52519C4.86124 1.58786 4.34048 1.70829 3.9185 1.91251C3.09831 2.30945 2.43147 2.94282 2.01356 3.72186C1.79855 4.12266 1.67176 4.61728 1.60577 5.38432C1.53906 6.15989 1.53846 7.14797 1.53846 8.52399V12.6431C1.53846 14.2688 2.92599 15.5867 4.6376 15.5867H5.25478C6.59806 15.5867 7.51658 16.8753 7.0177 18.0599C6.88407 18.3772 7.26881 18.6641 7.56159 18.4655L10.2393 16.6488L10.2977 16.6093C11.2814 15.951 12.4536 15.5942 13.6569 15.5868L13.744 15.5867C14.0739 15.5867 14.2105 15.5865 14.3087 15.5821C16.5541 15.4811 18.3504 13.775 18.4567 11.6423C18.4613 11.5488 18.4615 11.4339 18.4615 11.1531V8.52399C18.4615 7.14797 18.4609 6.15989 18.3942 5.38432C18.3282 4.61728 18.2014 4.12266 17.9864 3.72186C17.5685 2.94282 16.9017 2.30945 16.0815 1.91251C15.6595 1.70829 15.1388 1.58786 14.3312 1.52519C13.5146 1.46182 12.4744 1.46126 11.0256 1.46126H8.97436C7.52563 1.46126 6.48535 1.46182 5.6688 1.52519Z" fill="#157EFE"/>
<path d="M6.92308 8.52399C6.92308 9.06201 6.46388 9.49816 5.89744 9.49816C5.33099 9.49816 4.8718 9.06201 4.8718 8.52399C4.8718 7.98597 5.33099 7.54982 5.89744 7.54982C6.46388 7.54982 6.92308 7.98597 6.92308 8.52399Z" fill="#157EFE"/>
<path d="M11.0256 8.52399C11.0256 9.06201 10.5664 9.49816 10 9.49816C9.43355 9.49816 8.97436 9.06201 8.97436 8.52399C8.97436 7.98597 9.43355 7.54982 10 7.54982C10.5664 7.54982 11.0256 7.98597 11.0256 8.52399Z" fill="#157EFE"/>
<path d="M15.1282 8.52399C15.1282 9.06201 14.669 9.49816 14.1026 9.49816C13.5361 9.49816 13.0769 9.06201 13.0769 8.52399C13.0769 7.98597 13.5361 7.54982 14.1026 7.54982C14.669 7.54982 15.1282 7.98597 15.1282 8.52399Z" fill="#157EFE"/>
</svg>
