<svg width="23" height="24" viewBox="0 0 23 24" fill="none" xmlns="http://www.w3.org/2000/svg">
<path fill-rule="evenodd" clip-rule="evenodd" d="M20 2.625H2.5C2.15482 2.625 1.875 2.90482 1.875 3.25V20.75C1.875 21.0952 2.15482 21.375 2.5 21.375H20C20.3452 21.375 20.625 21.0952 20.625 20.75V3.25C20.625 2.90482 20.3452 2.625 20 2.625ZM2.5 0.75C1.11929 0.75 0 1.86929 0 3.25V20.75C0 22.1307 1.11929 23.25 2.5 23.25H20C21.3807 23.25 22.5 22.1307 22.5 20.75V3.25C22.5 1.86929 21.3807 0.75 20 0.75H2.5ZM8.75 7.625C8.75 8.66053 7.91053 9.5 6.875 9.5C5.83947 9.5 5 8.66053 5 7.625C5 6.58947 5.83947 5.75 6.875 5.75C7.91053 5.75 8.75 6.58947 8.75 7.625ZM14.375 11.3765L18.3025 16.043C18.5761 16.2723 18.75 16.6166 18.75 17.0015C18.75 17.6918 18.1904 18.2515 17.5 18.2515H6.25C5.55964 18.2515 5 17.6918 5 17.0015C5 16.6281 5.16367 16.293 5.42318 16.064H5.41867L8.125 13.2515L10.0927 15.2964L14.375 11.3765Z" fill="#5B5B5B"/>
</svg>
