<svg width="18" height="20" viewBox="0 0 18 20" fill="none" xmlns="http://www.w3.org/2000/svg">
<path fill-rule="evenodd" clip-rule="evenodd" d="M8.65376 0.905273C8.61658 0.905273 8.57948 0.905496 8.54246 0.905938C8.50587 0.905495 8.46924 0.905273 8.43255 0.905273V0.907905C3.79478 1.01851 0.478638 4.60004 0.478638 8.75556C0.478638 12.8275 3.63576 15.8743 7.99959 16.1517V18.5684C7.99959 18.9297 8.29248 19.2226 8.65378 19.2226C8.73078 19.2226 8.80466 19.2093 8.87327 19.1849C13.7033 17.5921 17.0501 13.798 17.0501 9.21828C17.0501 4.6754 13.2879 1.021 8.65376 0.907969V0.905273ZM9.30797 17.6331C13.2636 16.0351 15.7417 12.8381 15.7417 9.21828C15.7417 5.40831 12.552 2.27086 8.54252 2.21443C4.55916 2.26989 1.78702 5.30119 1.78702 8.75556C1.78702 12.1905 4.55663 14.8639 8.65376 14.8639V14.8647C8.65377 14.8647 8.65377 14.8647 8.65378 14.8647C9.01508 14.8647 9.30797 15.1576 9.30797 15.5189V17.6331Z" fill="#5B5B5B"/>
</svg>
