<svg width="16" height="16" viewBox="0 0 16 16" fill="none" xmlns="http://www.w3.org/2000/svg">
<path d="M13.5128 0.923174C13.8789 0.557058 14.4725 0.557058 14.8386 0.923174C15.2047 1.28929 15.2047 1.88288 14.8386 2.249L2.02227 15.0653C1.65615 15.4314 1.06256 15.4314 0.696444 15.0653C0.330328 14.6992 0.330328 14.1056 0.696444 13.7395L13.5128 0.923174Z" fill="#157EFE"/>
<path d="M14.8051 13.7511C15.1712 14.1173 15.1712 14.7109 14.8051 15.077C14.439 15.4431 13.8454 15.4431 13.4793 15.077L0.662971 2.26066C0.296854 1.89455 0.296854 1.30095 0.662971 0.934838C1.02909 0.568722 1.62268 0.568722 1.9888 0.934839L14.8051 13.7511Z" fill="#157EFE"/>
</svg>
