<svg width="15" height="15" viewBox="0 0 15 15" fill="none" xmlns="http://www.w3.org/2000/svg">
<path d="M3.04004 11.7955L6.39392 11.7841L13.7142 4.53373C14.0015 4.24645 14.1596 3.86493 14.1596 3.45909C14.1596 3.05325 14.0015 2.67173 13.7142 2.38445L12.5089 1.17909C11.9343 0.604528 10.9319 0.607568 10.3619 1.17681L3.04004 8.42873V11.7955ZM11.4342 2.25373L12.6419 3.45681L11.4282 4.65913L10.2228 3.45453L11.4342 2.25373ZM4.56004 9.06257L9.14284 4.52309L10.3482 5.72845L5.76616 10.2664L4.56004 10.2702V9.06257Z" fill="black" fill-opacity="0.42"/>
<path d="M1.52 14.8255H12.16C12.9983 14.8255 13.68 14.1438 13.68 13.3055V6.71783L12.16 8.23783V13.3055H3.92008C3.90032 13.3055 3.8798 13.3131 3.86004 13.3131C3.83496 13.3131 3.80988 13.3063 3.78404 13.3055H1.52V2.66551H6.72372L8.24372 1.14551H1.52C0.68172 1.14551 0 1.82723 0 2.66551V13.3055C0 14.1438 0.68172 14.8255 1.52 14.8255Z" fill="black" fill-opacity="0.42"/>
</svg>
