<svg width="17" height="17" viewBox="0 0 17 17" fill="none" xmlns="http://www.w3.org/2000/svg">
<path d="M5.23416 6.67184C5.27736 6.38864 5.5596 6.11984 5.958 6.11984C6.3564 6.11984 6.63864 6.38864 6.68184 6.67184C6.68917 6.73595 6.70935 6.79792 6.74117 6.85405C6.77299 6.91018 6.8158 6.95931 6.86705 6.99852C6.91829 7.03773 6.97691 7.06621 7.03941 7.08225C7.1019 7.09829 7.16699 7.10157 7.23078 7.09188C7.29458 7.0822 7.35576 7.05975 7.41068 7.02588C7.4656 6.99202 7.51313 6.94742 7.55042 6.89477C7.58772 6.84212 7.61402 6.78249 7.62774 6.71945C7.64147 6.6564 7.64235 6.59124 7.63032 6.52784C7.5084 5.72624 6.77976 5.15984 5.958 5.15984C5.13624 5.15984 4.4076 5.72624 4.28568 6.52784C4.27365 6.59124 4.27453 6.6564 4.28826 6.71945C4.30199 6.78249 4.32829 6.84212 4.36558 6.89477C4.40288 6.94742 4.45041 6.99202 4.50532 7.02588C4.56024 7.05975 4.62143 7.0822 4.68522 7.09188C4.74901 7.10157 4.8141 7.09829 4.8766 7.08225C4.93909 7.06621 4.99772 7.03773 5.04896 6.99852C5.1002 6.95931 5.14301 6.91018 5.17483 6.85405C5.20665 6.79792 5.22683 6.73595 5.23416 6.67184ZM11.238 6.11984C10.8396 6.11984 10.5583 6.38864 10.5142 6.67184C10.491 6.79391 10.4214 6.90224 10.32 6.97406C10.2186 7.04587 10.0934 7.07558 9.97053 7.05693C9.84769 7.03828 9.73687 6.97273 9.66137 6.87406C9.58587 6.77539 9.55157 6.65128 9.56568 6.52784C9.6876 5.72624 10.4162 5.15984 11.238 5.15984C12.0598 5.15984 12.7884 5.72624 12.9103 6.52784C12.9244 6.65128 12.8901 6.77539 12.8146 6.87406C12.7391 6.97273 12.6283 7.03828 12.5055 7.05693C12.3826 7.07558 12.2574 7.04587 12.156 6.97406C12.0546 6.90224 11.985 6.79391 11.9618 6.67184C11.9177 6.38864 11.6364 6.11984 11.238 6.11984ZM4.27512 8.51984C4.20817 8.51992 4.14197 8.53401 4.08079 8.5612C4.0196 8.58838 3.96478 8.62807 3.91985 8.6777C3.87491 8.72734 3.84086 8.78583 3.81988 8.84941C3.79889 8.91299 3.79144 8.98025 3.798 9.04688C4.02648 11.3922 5.86776 13.3198 8.59512 13.3198C11.3225 13.3198 13.1647 11.3922 13.3932 9.04688C13.3998 8.98017 13.3923 8.91282 13.3713 8.84918C13.3502 8.78553 13.3161 8.727 13.271 8.67735C13.226 8.6277 13.1711 8.58803 13.1098 8.5609C13.0485 8.53378 12.9822 8.51979 12.9151 8.51984H4.27512ZM8.59512 12.3598C6.59736 12.3598 5.21976 11.109 4.8396 9.47984H12.3516C11.9705 11.109 10.5938 12.3598 8.59512 12.3598ZM8.59992 0.839844C6.56306 0.839844 4.60962 1.64898 3.16934 3.08926C1.72906 4.52954 0.919922 6.48298 0.919922 8.51984C0.919922 10.5567 1.72906 12.5101 3.16934 13.9504C4.60962 15.3907 6.56306 16.1998 8.59992 16.1998C10.6368 16.1998 12.5902 15.3907 14.0305 13.9504C15.4708 12.5101 16.2799 10.5567 16.2799 8.51984C16.2799 6.48298 15.4708 4.52954 14.0305 3.08926C12.5902 1.64898 10.6368 0.839844 8.59992 0.839844ZM1.87992 8.51984C1.87992 7.63736 2.05374 6.76352 2.39145 5.94821C2.72916 5.1329 3.22415 4.3921 3.84816 3.76809C4.47217 3.14408 5.21298 2.64908 6.02829 2.31137C6.8436 1.97366 7.71744 1.79984 8.59992 1.79984C9.48241 1.79984 10.3562 1.97366 11.1716 2.31137C11.9869 2.64908 12.7277 3.14408 13.3517 3.76809C13.9757 4.3921 14.4707 5.1329 14.8084 5.94821C15.1461 6.76352 15.3199 7.63736 15.3199 8.51984C15.3199 10.3021 14.6119 12.0114 13.3517 13.2716C12.0914 14.5318 10.3822 15.2398 8.59992 15.2398C6.81767 15.2398 5.10841 14.5318 3.84816 13.2716C2.58792 12.0114 1.87992 10.3021 1.87992 8.51984Z" fill="black" fill-opacity="0.27"/>
</svg>
