<svg width="19" height="17" viewBox="0 0 19 17" fill="none" xmlns="http://www.w3.org/2000/svg">
<path d="M9.50404 15.6961C9.50404 15.6961 1.32666 11.1168 1.32666 5.5562C1.32683 4.57339 1.66737 3.62097 2.2904 2.86087C2.91343 2.10076 3.78048 1.5799 4.74414 1.38683C5.7078 1.19376 6.70859 1.34041 7.57635 1.80183C8.44411 2.26325 9.12528 3.01097 9.50405 3.91786L9.50403 3.91787C9.8828 3.01097 10.564 2.26325 11.4317 1.80183C12.2995 1.34041 13.3003 1.19376 14.2639 1.38683C15.2276 1.5799 16.0946 2.10076 16.7177 2.86087C17.3407 3.62097 17.6813 4.57339 17.6814 5.5562C17.6814 11.1168 9.50404 15.6961 9.50404 15.6961Z" stroke="#5B5B5B" stroke-width="1.30838" stroke-linecap="round" stroke-linejoin="round"/>
</svg>
