<svg width="17" height="14" viewBox="0 0 17 14" fill="none" xmlns="http://www.w3.org/2000/svg">
<path d="M15.49 2.92348H0.910006C0.695181 2.92348 0.489154 2.80635 0.33725 2.59785C0.185345 2.38936 0.100006 2.10657 0.100006 1.81172C0.100006 1.51686 0.185345 1.23408 0.33725 1.02558C0.489154 0.817083 0.695181 0.699951 0.910006 0.699951H15.49C15.7048 0.699951 15.9109 0.817083 16.0628 1.02558C16.2147 1.23408 16.3 1.51686 16.3 1.81172C16.3 2.10657 16.2147 2.38936 16.0628 2.59785C15.9109 2.80635 15.7048 2.92348 15.49 2.92348ZM12.79 8.11172H3.61001C3.39518 8.11172 3.18915 7.99458 3.03725 7.78609C2.88535 7.57759 2.80001 7.29481 2.80001 6.99995C2.80001 6.70509 2.88535 6.42231 3.03725 6.21381C3.18915 6.00532 3.39518 5.88819 3.61001 5.88819H12.79C13.0048 5.88819 13.2109 6.00532 13.3628 6.21381C13.5147 6.42231 13.6 6.70509 13.6 6.99995C13.6 7.29481 13.5147 7.57759 13.3628 7.78609C13.2109 7.99458 13.0048 8.11172 12.79 8.11172ZM9.55001 13.3H6.85001C6.63518 13.3 6.42915 13.1828 6.27725 12.9743C6.12535 12.7658 6.04001 12.483 6.04001 12.1882C6.04001 11.8933 6.12535 11.6105 6.27725 11.4021C6.42915 11.1936 6.63518 11.0764 6.85001 11.0764H9.55001C9.76483 11.0764 9.97086 11.1936 10.1228 11.4021C10.2747 11.6105 10.36 11.8933 10.36 12.1882C10.36 12.483 10.2747 12.7658 10.1228 12.9743C9.97086 13.1828 9.76483 13.3 9.55001 13.3Z" fill="#157EFE"/>
</svg>
