<svg width="23" height="26" viewBox="0 0 23 26" fill="none" xmlns="http://www.w3.org/2000/svg">
<path fill-rule="evenodd" clip-rule="evenodd" d="M17.3428 15.1484C20.2589 15.1484 22.6228 17.5124 22.6228 20.4284C22.6228 23.3445 20.2589 25.7084 17.3428 25.7084C14.4268 25.7084 12.0628 23.3445 12.0628 20.4284C12.0628 17.5124 14.4268 15.1484 17.3428 15.1484ZM18.1902 17.5483C18.1639 17.4701 18.0907 17.4174 18.0082 17.4174H16.6006C16.5181 17.4174 16.4448 17.4701 16.4186 17.5484L14.7324 22.5756C14.6906 22.7 14.7832 22.8287 14.9144 22.8287H15.8687C15.9539 22.8287 16.029 22.7725 16.053 22.6907L16.3208 21.7779C16.3448 21.6961 16.4198 21.6399 16.505 21.6399H17.9824C18.0683 21.6399 18.1437 21.6969 18.1671 21.7795L18.4254 22.6891C18.4488 22.7717 18.5242 22.8287 18.6101 22.8287H19.6979C19.8292 22.8287 19.9217 22.6999 19.8799 22.5755L18.1902 17.5483ZM10.6285 0.224068C11.0833 0.412548 11.3163 0.910255 11.1847 1.37256L11.1478 1.47846L8.06758 8.908L13.1183 8.90819C13.2994 8.90819 13.4759 8.9594 13.6279 9.05459L13.737 9.13412C14.1112 9.44951 14.184 9.98982 13.9243 10.3899L13.8524 10.4868L4.29595 21.826C4.02639 22.1459 3.58077 22.2544 3.19435 22.0942C2.73953 21.9057 2.50656 21.408 2.63812 20.9457L2.67501 20.8398L5.87495 13.1157L0.952087 13.1164C0.770959 13.1164 0.594494 13.0652 0.442512 12.97L0.333427 12.8904C-0.0408036 12.5751 -0.113618 12.0347 0.146132 11.6346L0.218016 11.5377L9.5269 0.49227C9.79645 0.172427 10.2421 0.0639325 10.6285 0.224068ZM17.2875 18.6363L17.798 20.4048C17.8334 20.5275 17.7413 20.65 17.6135 20.65H16.8804C16.7522 20.65 16.66 20.5268 16.6962 20.4038L17.2162 18.6363H17.2875Z" fill="white"/>
</svg>
