<svg width="20" height="24" viewBox="0 0 20 24" fill="none" xmlns="http://www.w3.org/2000/svg">
<path d="M18.6275 0H1.37255C1.00853 0 0.659413 0.205813 0.40201 0.572164C0.144608 0.938514 0 1.43539 0 1.95349V22.0465C0 22.5646 0.144608 23.0615 0.40201 23.4278C0.659413 23.7942 1.00853 24 1.37255 24H18.6275C18.9915 24 19.3406 23.7942 19.598 23.4278C19.8554 23.0615 20 22.5646 20 22.0465V1.95349C20 1.43539 19.8554 0.938514 19.598 0.572164C19.3406 0.205813 18.9915 0 18.6275 0ZM1.37255 1.67442H18.6275C18.6795 1.67442 18.7293 1.70382 18.7661 1.75616C18.8029 1.80849 18.8235 1.87947 18.8235 1.95349V16.9633L15.9343 12.8512C15.8069 12.6697 15.6555 12.5258 15.489 12.4276C15.3225 12.3295 15.144 12.2789 14.9637 12.2789C14.7835 12.2789 14.605 12.3295 14.4384 12.4276C14.2719 12.5258 14.1206 12.6697 13.9931 12.8512L11.8931 15.84L7.44118 9.50233C7.31372 9.32091 7.16241 9.177 6.99587 9.07881C6.82934 8.98063 6.65085 8.93009 6.47059 8.93009C6.29033 8.93009 6.11184 8.98063 5.9453 9.07881C5.77877 9.177 5.62745 9.32091 5.5 9.50233L1.17647 15.6558V1.95349C1.17647 1.87947 1.19713 1.80849 1.2339 1.75616C1.27067 1.70382 1.32055 1.67442 1.37255 1.67442ZM1.17647 22.0465V18.0237L6.33137 10.687C6.3496 10.6608 6.37129 10.6401 6.39518 10.6259C6.41908 10.6117 6.4447 10.6044 6.47059 10.6044C6.49647 10.6044 6.5221 10.6117 6.546 10.6259C6.56989 10.6401 6.59158 10.6608 6.6098 10.687L14.7873 22.3256H1.37255C1.32055 22.3256 1.27067 22.2962 1.2339 22.2438C1.19713 22.1915 1.17647 22.1205 1.17647 22.0465ZM18.6275 22.3256H16.451L12.7255 17.0233L14.8245 14.0344C14.8427 14.0085 14.8643 13.9879 14.8881 13.9738C14.912 13.9598 14.9375 13.9526 14.9632 13.9526C14.989 13.9526 15.0145 13.9598 15.0383 13.9738C15.0621 13.9879 15.0837 14.0085 15.102 14.0344L18.8274 19.3367V22.0465C18.8275 22.0836 18.8223 22.1204 18.8122 22.1546C18.8021 22.1888 18.7873 22.2199 18.7686 22.2458C18.75 22.2718 18.7279 22.2923 18.7037 22.306C18.6794 22.3197 18.6535 22.3263 18.6275 22.3256ZM11.7647 8.09302C11.7647 7.81705 11.8222 7.54727 11.9299 7.31781C12.0377 7.08835 12.1908 6.9095 12.3699 6.80389C12.5491 6.69828 12.7462 6.67065 12.9364 6.72449C13.1265 6.77833 13.3012 6.91122 13.4383 7.10636C13.5755 7.30151 13.6688 7.55013 13.7067 7.8208C13.7445 8.09148 13.7251 8.37203 13.6509 8.627C13.5767 8.88197 13.451 9.09989 13.2898 9.25321C13.1286 9.40654 12.939 9.48837 12.7451 9.48837C12.4851 9.48837 12.2357 9.34136 12.0519 9.07968C11.868 8.81801 11.7647 8.46309 11.7647 8.09302Z" fill="#5B5B5B"/>
</svg>
