<svg width="35" height="29" viewBox="0 0 35 29" fill="none" xmlns="http://www.w3.org/2000/svg">
<mask id="path-1-outside-1_284_6787" maskUnits="userSpaceOnUse" x="0.552124" y="0.430664" width="34" height="28" fill="black">
<rect fill="white" x="0.552124" y="0.430664" width="34" height="28"/>
<path fill-rule="evenodd" clip-rule="evenodd" d="M28.4321 1.43066C31.0831 1.43066 33.2321 3.5797 33.2321 6.23066V22.5507C33.2321 25.2016 31.0831 27.3507 28.4321 27.3507H6.35212C3.70116 27.3507 1.55212 25.2016 1.55212 22.5507V6.23066C1.55212 3.5797 3.70116 1.43066 6.35212 1.43066H28.4321ZM31.2557 20.9419L26.3959 17.0612C26.0511 16.7859 25.5683 16.7837 25.2227 17.0419L25.1321 17.1188L17.403 24.5372L13.949 21.33C13.6145 21.0194 13.1131 20.9905 12.7476 21.2453L12.6514 21.3219L8.11181 25.4308H28.4321C30.0227 25.4308 31.3121 24.1414 31.3121 22.5508V20.9812L31.2557 20.9419ZM6.35213 3.35073H28.4321C30.0227 3.35073 31.3121 4.64015 31.3121 6.23073V18.5303L27.594 15.5608L27.4441 15.4488C26.3257 14.6679 24.7991 14.7771 23.8026 15.7335L17.3812 21.8968L15.2554 19.9229L15.1156 19.8011C14.0208 18.9072 12.4241 18.9375 11.3628 19.8985L5.42174 25.2771C4.28771 24.8903 3.47213 23.8157 3.47213 22.5507V6.23073C3.47213 4.64015 4.76155 3.35073 6.35213 3.35073Z"/>
</mask>
<path fill-rule="evenodd" clip-rule="evenodd" d="M28.4321 1.43066C31.0831 1.43066 33.2321 3.5797 33.2321 6.23066V22.5507C33.2321 25.2016 31.0831 27.3507 28.4321 27.3507H6.35212C3.70116 27.3507 1.55212 25.2016 1.55212 22.5507V6.23066C1.55212 3.5797 3.70116 1.43066 6.35212 1.43066H28.4321ZM31.2557 20.9419L26.3959 17.0612C26.0511 16.7859 25.5683 16.7837 25.2227 17.0419L25.1321 17.1188L17.403 24.5372L13.949 21.33C13.6145 21.0194 13.1131 20.9905 12.7476 21.2453L12.6514 21.3219L8.11181 25.4308H28.4321C30.0227 25.4308 31.3121 24.1414 31.3121 22.5508V20.9812L31.2557 20.9419ZM6.35213 3.35073H28.4321C30.0227 3.35073 31.3121 4.64015 31.3121 6.23073V18.5303L27.594 15.5608L27.4441 15.4488C26.3257 14.6679 24.7991 14.7771 23.8026 15.7335L17.3812 21.8968L15.2554 19.9229L15.1156 19.8011C14.0208 18.9072 12.4241 18.9375 11.3628 19.8985L5.42174 25.2771C4.28771 24.8903 3.47213 23.8157 3.47213 22.5507V6.23073C3.47213 4.64015 4.76155 3.35073 6.35213 3.35073Z" fill="white"/>
<path d="M26.3959 17.0612L26.9949 16.3111V16.3111L26.3959 17.0612ZM31.2557 20.9419L30.6566 21.6921L30.6812 21.7117L30.707 21.7296L31.2557 20.9419ZM25.2227 17.0419L24.648 16.273L24.6243 16.2907L24.6017 16.3099L25.2227 17.0419ZM25.1321 17.1188L24.5111 16.3868L24.4886 16.4058L24.4673 16.4262L25.1321 17.1188ZM17.403 24.5372L16.7498 25.2407L17.414 25.8574L18.0678 25.2298L17.403 24.5372ZM13.949 21.33L13.2958 22.0335H13.2958L13.949 21.33ZM12.7476 21.2453L12.1986 20.4578L12.1735 20.4753L12.1496 20.4943L12.7476 21.2453ZM12.6514 21.3219L12.0535 20.5708L12.0297 20.5897L12.0072 20.6101L12.6514 21.3219ZM8.11181 25.4308L7.46759 24.7191L5.62063 26.3908H8.11181V25.4308ZM31.3121 20.9812H32.2721V20.48L31.8608 20.1935L31.3121 20.9812ZM31.3121 18.5303L30.713 19.2804L32.2721 20.5255V18.5303H31.3121ZM27.594 15.5608L28.193 14.8107L28.181 14.801L28.1686 14.7918L27.594 15.5608ZM27.4441 15.4488L28.0187 14.6798L28.0063 14.6705L27.9937 14.6617L27.4441 15.4488ZM23.8026 15.7335L23.1378 15.0409L23.8026 15.7335ZM17.3812 21.8968L16.728 22.6003L17.3921 23.217L18.046 22.5894L17.3812 21.8968ZM15.2554 19.9229L15.9087 19.2194L15.8975 19.2091L15.886 19.199L15.2554 19.9229ZM15.1156 19.8011L15.7461 19.0772L15.7346 19.0672L15.7227 19.0575L15.1156 19.8011ZM11.3628 19.8985L12.0071 20.6102L12.0071 20.6101L11.3628 19.8985ZM5.42174 25.2771L5.11177 26.1857L5.64689 26.3683L6.06604 25.9888L5.42174 25.2771ZM34.1921 6.23066C34.1921 3.0495 31.6133 0.470664 28.4321 0.470664V2.39066C30.5529 2.39066 32.2721 4.10989 32.2721 6.23066H34.1921ZM34.1921 22.5507V6.23066H32.2721V22.5507H34.1921ZM28.4321 28.3107C31.6133 28.3107 34.1921 25.7318 34.1921 22.5507H32.2721C32.2721 24.6714 30.5529 26.3907 28.4321 26.3907V28.3107ZM6.35212 28.3107H28.4321V26.3907H6.35212V28.3107ZM0.592124 22.5507C0.592124 25.7318 3.17096 28.3107 6.35212 28.3107V26.3907C4.23135 26.3907 2.51212 24.6714 2.51212 22.5507H0.592124ZM0.592124 6.23066V22.5507H2.51212V6.23066H0.592124ZM6.35212 0.470664C3.17096 0.470664 0.592124 3.0495 0.592124 6.23066H2.51212C2.51212 4.10989 4.23135 2.39066 6.35212 2.39066V0.470664ZM28.4321 0.470664H6.35212V2.39066H28.4321V0.470664ZM25.7969 17.8114L30.6566 21.6921L31.8547 20.1917L26.9949 16.3111L25.7969 17.8114ZM25.7975 17.8109L25.7969 17.8114L26.9949 16.3111C26.305 15.7601 25.3397 15.7561 24.648 16.273L25.7975 17.8109ZM25.7531 17.8509L25.8438 17.774L24.6017 16.3099L24.5111 16.3868L25.7531 17.8509ZM18.0678 25.2298L25.7969 17.8114L24.4673 16.4262L16.7383 23.8446L18.0678 25.2298ZM13.2958 22.0335L16.7498 25.2407L18.0563 23.8337L14.6022 20.6265L13.2958 22.0335ZM13.2965 22.0329L13.2958 22.0335L14.6022 20.6265C13.9328 20.0049 12.9304 19.9477 12.1986 20.4578L13.2965 22.0329ZM13.2494 22.0729L13.3455 21.9963L12.1496 20.4943L12.0535 20.5708L13.2494 22.0729ZM8.75603 26.1426L13.2957 22.0336L12.0072 20.6101L7.46759 24.7191L8.75603 26.1426ZM28.4321 24.4708H8.11181V26.3908H28.4321V24.4708ZM30.3521 22.5508C30.3521 23.6112 29.4925 24.4708 28.4321 24.4708V26.3908C30.5529 26.3908 32.2721 24.6716 32.2721 22.5508H30.3521ZM30.3521 20.9812V22.5508H32.2721V20.9812H30.3521ZM30.707 21.7296L30.7634 21.7689L31.8608 20.1935L31.8044 20.1542L30.707 21.7296ZM28.4321 2.39073H6.35213V4.31073H28.4321V2.39073ZM32.2721 6.23073C32.2721 4.10996 30.5529 2.39073 28.4321 2.39073V4.31073C29.4925 4.31073 30.3521 5.17035 30.3521 6.23073H32.2721ZM32.2721 18.5303V6.23073H30.3521V18.5303H32.2721ZM26.9949 16.3109L30.713 19.2804L31.9112 17.7801L28.193 14.8107L26.9949 16.3109ZM26.8694 16.2178L27.0193 16.3298L28.1686 14.7918L28.0187 14.6798L26.8694 16.2178ZM24.4673 16.4261C25.1315 15.7887 26.1494 15.7157 26.8945 16.2359L27.9937 14.6617C26.502 13.6202 24.4667 13.7655 23.1378 15.0409L24.4673 16.4261ZM18.046 22.5894L24.4673 16.4261L23.1378 15.0409L16.7165 21.2042L18.046 22.5894ZM14.6022 20.6264L16.728 22.6003L18.0344 21.1933L15.9087 19.2194L14.6022 20.6264ZM14.485 20.525L14.6249 20.6468L15.886 19.199L15.7461 19.0772L14.485 20.525ZM12.0071 20.6101C12.7144 19.9697 13.7791 19.9493 14.5084 20.5447L15.7227 19.0575C14.2624 17.8652 12.1337 17.9054 10.7184 19.1869L12.0071 20.6101ZM6.06604 25.9888L12.0071 20.6102L10.7184 19.1868L4.77744 24.5655L6.06604 25.9888ZM2.51213 22.5507C2.51213 24.2389 3.6009 25.6703 5.11177 26.1857L5.73171 24.3686C4.97452 24.1102 4.43213 23.3926 4.43213 22.5507H2.51213ZM2.51213 6.23073V22.5507H4.43213V6.23073H2.51213ZM6.35213 2.39073C4.23135 2.39073 2.51213 4.10996 2.51213 6.23073H4.43213C4.43213 5.17035 5.29174 4.31073 6.35213 4.31073V2.39073Z" fill="black" fill-opacity="0.2" mask="url(#path-1-outside-1_284_6787)"/>
<path fill-rule="evenodd" clip-rule="evenodd" d="M10.6721 13.1906C12.1301 13.1906 13.3121 12.0087 13.3121 10.5506C13.3121 9.09261 12.1301 7.91064 10.6721 7.91064C9.21407 7.91064 8.0321 9.09261 8.0321 10.5506C8.0321 12.0087 9.21407 13.1906 10.6721 13.1906Z" fill="white"/>
<path d="M10.6721 13.6706C12.3952 13.6706 13.7921 12.2738 13.7921 10.5506C13.7921 8.82752 12.3952 7.43064 10.6721 7.43064C8.94898 7.43064 7.5521 8.82752 7.5521 10.5506C7.5521 12.2738 8.94898 13.6706 10.6721 13.6706Z" stroke="black" stroke-opacity="0.2" stroke-width="0.96"/>
</svg>
