<svg width="18" height="18" viewBox="0 0 18 18" fill="none" xmlns="http://www.w3.org/2000/svg">
<path d="M16.6154 0H4.15385C3.78662 0 3.43444 0.172402 3.17478 0.47928C2.91511 0.786157 2.76923 1.20237 2.76923 1.63636V3.27273H1.38462C1.01739 3.27273 0.66521 3.44513 0.405544 3.75201C0.145879 4.05889 0 4.4751 0 4.90909V16.3636C0 16.7976 0.145879 17.2138 0.405544 17.5207C0.66521 17.8276 1.01739 18 1.38462 18H13.8462C14.2134 18 14.5656 17.8276 14.8252 17.5207C15.0849 17.2138 15.2308 16.7976 15.2308 16.3636V14.7273H16.6154C16.9826 14.7273 17.3348 14.5549 17.5945 14.248C17.8541 13.9411 18 13.5249 18 13.0909V1.63636C18 1.20237 17.8541 0.786157 17.5945 0.47928C17.3348 0.172402 16.9826 0 16.6154 0ZM4.15385 1.63636H16.6154V8.05398L15.7439 7.02511C15.6154 6.87312 15.4627 6.75256 15.2947 6.6703C15.1267 6.58804 14.9466 6.5457 14.7648 6.5457C14.5829 6.5457 14.4028 6.58804 14.2348 6.6703C14.0668 6.75256 13.9142 6.87312 13.7856 7.02511L12.0548 9.07057L8.24712 4.57057C7.98748 4.26392 7.63543 4.09167 7.26837 4.09167C6.9013 4.09167 6.54926 4.26392 6.28962 4.57057L4.15385 7.09466V1.63636ZM13.8462 16.3636H1.38462V4.90909H2.76923V13.0909C2.76923 13.5249 2.91511 13.9411 3.17478 14.248C3.43444 14.5549 3.78662 14.7273 4.15385 14.7273H13.8462V16.3636ZM16.6154 13.0909H4.15385V9.40909L7.26923 5.72727L11.5667 10.8061C11.6966 10.9595 11.8726 11.0456 12.0561 11.0456C12.2396 11.0456 12.4157 10.9595 12.5455 10.8061L14.7661 8.18182L16.6154 10.3684V13.0909ZM11.7692 4.5C11.7692 4.25727 11.8301 4.01999 11.9442 3.81816C12.0584 3.61634 12.2205 3.45904 12.4103 3.36615C12.6 3.27326 12.8088 3.24895 13.0103 3.29631C13.2117 3.34366 13.3968 3.46055 13.542 3.63219C13.6872 3.80382 13.7861 4.0225 13.8262 4.26057C13.8663 4.49864 13.8457 4.7454 13.7671 4.96966C13.6885 5.19391 13.5554 5.38559 13.3846 5.52044C13.2139 5.65529 13.0131 5.72727 12.8077 5.72727C12.5323 5.72727 12.2681 5.59797 12.0734 5.36781C11.8786 5.13765 11.7692 4.82549 11.7692 4.5Z" fill="#E17A00"/>
</svg>
