<svg width="12" height="12" viewBox="0 0 12 12" fill="none" xmlns="http://www.w3.org/2000/svg">
<path d="M10 0H2C1.46957 0 0.960859 0.210714 0.585787 0.585787C0.210714 0.960859 0 1.46957 0 2V10C0 10.5304 0.210714 11.0391 0.585787 11.4142C0.960859 11.7893 1.46957 12 2 12H10C10.5304 12 11.0391 11.7893 11.4142 11.4142C11.7893 11.0391 12 10.5304 12 10V2C12 1.46957 11.7893 0.960859 11.4142 0.585787C11.0391 0.210714 10.5304 0 10 0ZM10.6667 10C10.6667 10.1768 10.5964 10.3464 10.4714 10.4714C10.3464 10.5964 10.1768 10.6667 10 10.6667H2C1.82319 10.6667 1.65362 10.5964 1.5286 10.4714C1.40357 10.3464 1.33333 10.1768 1.33333 10V2C1.33333 1.82319 1.40357 1.65362 1.5286 1.5286C1.65362 1.40357 1.82319 1.33333 2 1.33333H10C10.1768 1.33333 10.3464 1.40357 10.4714 1.5286C10.5964 1.65362 10.6667 1.82319 10.6667 2V10ZM4 5C4.19778 5 4.39112 4.94135 4.55557 4.83147C4.72002 4.72159 4.84819 4.56541 4.92388 4.38268C4.99957 4.19996 5.01937 3.99889 4.98079 3.80491C4.9422 3.61093 4.84696 3.43275 4.70711 3.29289C4.56725 3.15304 4.38907 3.0578 4.19509 3.01921C4.00111 2.98063 3.80004 3.00043 3.61732 3.07612C3.43459 3.15181 3.27841 3.27998 3.16853 3.44443C3.05865 3.60888 3 3.80222 3 4C3 4.26522 3.10536 4.51957 3.29289 4.70711C3.48043 4.89464 3.73478 5 4 5ZM7.33333 6.66667L5.33333 8.66667L4 7.33333L2.56667 8.76667C2.53585 8.79701 2.51165 8.83341 2.49558 8.87357C2.47952 8.91372 2.47194 8.95677 2.47333 9C2.47333 9.08841 2.50845 9.17319 2.57096 9.2357C2.63348 9.29821 2.71826 9.33333 2.80667 9.33333H9.19333C9.28174 9.33333 9.36652 9.29821 9.42904 9.2357C9.49155 9.17319 9.52667 9.08841 9.52667 9C9.52806 8.95677 9.52048 8.91372 9.50442 8.87357C9.48835 8.83341 9.46415 8.79701 9.43333 8.76667L7.33333 6.66667Z" fill="#5B5B5B"/>
</svg>
