<svg width="18" height="19" viewBox="0 0 18 19" fill="none" xmlns="http://www.w3.org/2000/svg">
<path fill-rule="evenodd" clip-rule="evenodd" d="M15.7999 2.31988H2.35994C2.09484 2.31988 1.87994 2.53479 1.87994 2.79988V16.2399C1.87994 16.505 2.09484 16.7199 2.35994 16.7199H15.7999C16.065 16.7199 16.2799 16.505 16.2799 16.2399V13.3602H16.2801V13.3598C16.2801 12.9621 16.6024 12.6398 17.0001 12.6398C17.3977 12.6398 17.7201 12.9621 17.7201 13.3598L17.7199 13.3729V16.2399C17.7199 17.3003 16.8603 18.1599 15.7999 18.1599H2.35994C1.29955 18.1599 0.439941 17.3003 0.439941 16.2399V2.79988C0.439941 1.7395 1.29955 0.879883 2.35994 0.879883H15.7999C16.8603 0.879883 17.7199 1.7395 17.7199 2.79988V4.22705L17.7201 4.24023C17.7201 4.63788 17.3977 4.96023 17.0001 4.96023C16.6024 4.96023 16.2801 4.63788 16.2801 4.24023L16.2799 4.24023V2.79988C16.2799 2.53479 16.065 2.31988 15.7999 2.31988ZM13.1603 5.67906H13.1601C12.7624 5.67906 12.4401 6.00142 12.4401 6.39906V9.27906L12.4401 12.6391C12.4401 13.0367 12.7624 13.3591 13.1601 13.3591C13.5577 13.3591 13.8801 13.0367 13.8801 12.6391V9.99906H16.5201C16.9177 9.99906 17.2401 9.67671 17.2401 9.27906C17.2401 8.88142 16.9177 8.55906 16.5201 8.55906H13.8801V7.11906H16.5201C16.9177 7.11906 17.2401 6.79671 17.2401 6.39906C17.2401 6.00142 16.9177 5.67906 16.5201 5.67906H13.1603ZM5.10271 11.9193L5.10272 7.11906H8.08119C8.3911 7.11906 8.66623 6.92075 8.76424 6.62675C8.91965 6.16052 8.57263 5.67906 8.08119 5.67906H4.48818C4.47045 5.67906 4.45286 5.6797 4.43545 5.68096C4.41804 5.6797 4.40045 5.67906 4.38271 5.67906C3.98507 5.67906 3.66271 6.00142 3.66271 6.39906L3.66271 12.6391C3.66271 13.0367 3.98507 13.3591 4.38271 13.3591C4.3999 13.3591 4.41694 13.3585 4.43383 13.3573C4.45177 13.3586 4.4699 13.3593 4.48818 13.3593H8.08119C8.3911 13.3593 8.66623 13.161 8.76424 12.867C8.80401 12.7477 8.81087 12.6274 8.79084 12.5144L8.79084 9.27936C8.79084 9.12359 8.74032 8.97203 8.64688 8.84741C8.48267 8.62843 8.24558 8.542 8.01897 8.56036C8.00363 8.5595 7.98807 8.55906 7.97227 8.55906H6.92006C6.52241 8.55906 6.20006 8.88142 6.20006 9.27906C6.20006 9.67671 6.52241 9.99906 6.92006 9.99906H7.35084L7.35084 11.9193H5.10271ZM10.7601 5.67906C10.3624 5.67906 10.0401 6.00142 10.0401 6.39906V12.6391C10.0401 13.0367 10.3624 13.3591 10.7601 13.3591C11.1577 13.3591 11.4801 13.0367 11.4801 12.6391V6.39906C11.4801 6.00142 11.1577 5.67906 10.7601 5.67906Z" fill="#979797"/>
</svg>
