<svg width="19" height="18" viewBox="0 0 19 18" fill="none" xmlns="http://www.w3.org/2000/svg">
<path fill-rule="evenodd" clip-rule="evenodd" d="M16.5 1.5H2.5C2.22386 1.5 2 1.72386 2 2V16C2 16.2761 2.22386 16.5 2.5 16.5H16.5C16.7761 16.5 17 16.2761 17 16V13.0002V12.9998C17 12.5855 17.3358 12.2498 17.75 12.2498C18.1634 12.2498 18.4987 12.5842 18.5 12.9973V3.50266C18.4987 3.91576 18.1634 4.25024 17.75 4.25024C17.3358 4.25024 17 3.91446 17 3.50024V2C17 1.72386 16.7761 1.5 16.5 1.5ZM18.5 12.9998V3.50024V2C18.5 0.895431 17.6046 0 16.5 0H2.5C1.39543 0 0.5 0.89543 0.5 2V16C0.5 17.1046 1.39543 18 2.5 18H16.5C17.6046 18 18.5 17.1046 18.5 16V12.9998ZM4.60683 4.99902C4.62531 4.99902 4.64363 4.99969 4.66178 5.00101C4.67992 4.99969 4.69824 4.99902 4.71672 4.99902H8.45943C8.97135 4.99902 9.33283 5.50055 9.17095 5.98619C9.06886 6.29245 8.78226 6.49902 8.45943 6.49902H5.35683L5.35683 11.4993H7.6987L7.6987 9.49902H7.25C6.83579 9.49902 6.5 9.16324 6.5 8.74902C6.5 8.33481 6.83579 7.99902 7.25 7.99902H8.34606C8.36251 7.99902 8.37872 7.99948 8.39468 8.00037C8.63074 7.98126 8.87769 8.07128 9.04874 8.29938C9.14608 8.4292 9.1987 8.58708 9.1987 8.74933V12.1194C9.21952 12.237 9.21235 12.3622 9.17095 12.4864C9.06886 12.7927 8.78226 12.9993 8.45943 12.9993H4.71672C4.69767 12.9993 4.67879 12.9986 4.66009 12.9972C4.6425 12.9984 4.62473 12.999 4.60683 12.999C4.19261 12.999 3.85683 12.6632 3.85683 12.249V5.74902C3.85683 5.33481 4.19261 4.99902 4.60683 4.99902ZM11.25 4.99902C10.8358 4.99902 10.5 5.33481 10.5 5.74902V12.249C10.5 12.6632 10.8358 12.999 11.25 12.999C11.6642 12.999 12 12.6632 12 12.249V5.74902C12 5.33481 11.6642 4.99902 11.25 4.99902ZM13.75 4.99902C13.3358 4.99902 13 5.33481 13 5.74902V8.74902V12.249C13 12.6632 13.3358 12.999 13.75 12.999C14.1642 12.999 14.5 12.6632 14.5 12.249V9.49902H17.25C17.6642 9.49902 18 9.16324 18 8.74902C18 8.33481 17.6642 7.99902 17.25 7.99902H14.5V6.49902H17.25C17.6642 6.49902 18 6.16324 18 5.74902C18 5.33481 17.6642 4.99902 17.25 4.99902H13.75Z" fill="#157EFE"/>
</svg>
