<svg width="25" height="16" viewBox="0 0 25 16" fill="none" xmlns="http://www.w3.org/2000/svg">
<path d="M17.0455 6.85714C18.9318 6.85714 20.4432 5.32571 20.4432 3.42857C20.4432 1.53143 18.9318 0 17.0455 0C15.1591 0 13.6364 1.53143 13.6364 3.42857C13.6364 5.32571 15.1591 6.85714 17.0455 6.85714ZM7.95455 6.85714C9.84091 6.85714 11.3523 5.32571 11.3523 3.42857C11.3523 1.53143 9.84091 0 7.95455 0C6.06818 0 4.54545 1.53143 4.54545 3.42857C4.54545 5.32571 6.06818 6.85714 7.95455 6.85714ZM7.95455 9.14286C5.30682 9.14286 0 10.48 0 13.1429V16H15.9091V13.1429C15.9091 10.48 10.6023 9.14286 7.95455 9.14286ZM17.0455 9.14286C16.7159 9.14286 16.3409 9.16572 15.9432 9.2C17.2614 10.16 18.1818 11.4514 18.1818 13.1429V16H25V13.1429C25 10.48 19.6932 9.14286 17.0455 9.14286Z" fill="white"/>
</svg>
