<svg width="18" height="18" viewBox="0 0 18 18" fill="none" xmlns="http://www.w3.org/2000/svg">
<path d="M17.49 7.80002C17.4893 7.69348 17.4669 7.58841 17.4243 7.49238C17.3818 7.39634 17.3201 7.31172 17.2437 7.2446L9.25579 0.161148C9.1372 0.0568965 8.98914 0 8.83643 0C8.68372 0 8.53566 0.0568965 8.41706 0.161148L0.429155 7.2446C0.352795 7.31172 0.291106 7.39634 0.24852 7.49238C0.205935 7.58841 0.183512 7.69348 0.182861 7.80002C0.182861 7.99133 0.252993 8.1748 0.377828 8.31008C0.502664 8.44535 0.671977 8.52135 0.84852 8.52135C1.00238 8.52381 1.15168 8.46474 1.26789 8.35544L2.17984 7.54756V15.2874C2.18159 15.8225 2.37852 16.3351 2.72768 16.7135C3.07684 17.0918 3.5499 17.3052 4.04368 17.3071H5.9741C6.46788 17.3052 6.94094 17.0918 7.29009 16.7135C7.63925 16.3351 7.83619 15.8225 7.83794 15.2874V14.2776C7.83794 14.1245 7.89405 13.9777 7.99391 13.8695C8.09378 13.7613 8.22923 13.7005 8.37047 13.7005H9.30239C9.44363 13.7005 9.57908 13.7613 9.67894 13.8695C9.77881 13.9777 9.83492 14.1245 9.83492 14.2776V15.2874C9.83667 15.8225 10.0336 16.3351 10.3828 16.7135C10.7319 17.0918 11.205 17.3052 11.6988 17.3071H13.6292C14.123 17.3052 14.596 17.0918 14.9452 16.7135C15.2943 16.3351 15.4913 15.8225 15.493 15.2874V7.54756L16.405 8.35544C16.5212 8.46474 16.6705 8.52381 16.8243 8.52135C17.0009 8.52135 17.1702 8.44535 17.295 8.31008C17.4199 8.1748 17.49 7.99133 17.49 7.80002ZM14.1617 15.2874C14.1617 15.4405 14.1056 15.5872 14.0057 15.6955C13.9059 15.8037 13.7704 15.8645 13.6292 15.8645H11.6988C11.5575 15.8645 11.4221 15.8037 11.3222 15.6955C11.2223 15.5872 11.1662 15.4405 11.1662 15.2874V14.2776C11.1645 13.7425 10.9676 13.2299 10.6184 12.8515C10.2692 12.4731 9.79617 12.2597 9.30239 12.2578H8.37047C7.87669 12.2597 7.40363 12.4731 7.05447 12.8515C6.70531 13.2299 6.50838 13.7425 6.50662 14.2776V15.2874C6.50662 15.4405 6.45052 15.5872 6.35065 15.6955C6.25078 15.8037 6.11533 15.8645 5.9741 15.8645H4.04368C3.90245 15.8645 3.767 15.8037 3.66713 15.6955C3.56726 15.5872 3.51116 15.4405 3.51116 15.2874V6.37179L8.83643 1.64709L14.1617 6.37179V15.2874Z" fill="white"/>
</svg>
