<svg width="22" height="22" viewBox="0 0 22 22" fill="none" xmlns="http://www.w3.org/2000/svg">
<path d="M2.39804 14.4643L3.09441 14.2429L2.39804 14.4643ZM1.33938 8.45481L2.04327 8.65099L1.33938 8.45481ZM5.76009 3.8893L5.32448 3.30263H5.32448L5.76009 3.8893ZM1.44738 8.11512L2.13532 8.36146L1.44738 8.11512ZM5.28055 20.172L4.86689 20.7743H4.8669L5.28055 20.172ZM4.99781 19.962L4.54086 20.5322L4.99781 19.962ZM20.002 14.4643L19.3056 14.2429L20.002 14.4643ZM17.4022 19.962L17.8592 20.5322L17.4022 19.962ZM17.1195 20.172L17.5331 20.7743L17.1195 20.172ZM16.6399 3.8893L17.0755 3.30263L16.6399 3.8893ZM20.9526 8.11512L20.2647 8.36146L20.9526 8.11512ZM21.0606 8.45481L20.3568 8.65099L21.0606 8.45481ZM11.3748 1.00327L11.3474 1.73348L11.3748 1.00327ZM11.0253 1.00327L11.0526 1.73348L11.0253 1.00327ZM9.29339 15.6822C8.88983 15.6822 8.56267 16.0093 8.56267 16.4129C8.56267 16.8164 8.88983 17.1436 9.29339 17.1436V15.6822ZM13.1066 17.1436C13.5102 17.1436 13.8373 16.8164 13.8373 16.4129C13.8373 16.0093 13.5102 15.6822 13.1066 15.6822V17.1436ZM3.09441 14.2429C2.60416 12.7009 2.25462 11.5983 2.07117 10.7029C1.89107 9.82391 1.88683 9.21231 2.04327 8.65099L0.635497 8.25863C0.393986 9.12517 0.433536 9.99111 0.639482 10.9963C0.842079 11.9851 1.22085 13.1733 1.70167 14.6857L3.09441 14.2429ZM5.32448 3.30263C4.06608 4.23703 3.07496 4.97171 2.34117 5.65108C1.59434 6.34252 1.06287 7.02142 0.759443 7.86878L2.13532 8.36146C2.33114 7.8146 2.68488 7.32446 3.33402 6.72347C3.99619 6.11042 4.9118 5.42931 6.19571 4.47597L5.32448 3.30263ZM2.04327 8.65099C2.07049 8.55334 2.10119 8.45677 2.13532 8.36146L0.759443 7.86878C0.71347 7.99716 0.672128 8.1272 0.635497 8.25863L2.04327 8.65099ZM11.2 20.2693C9.61256 20.2693 8.48127 20.2683 7.59431 20.1702C6.72526 20.0741 6.16202 19.8909 5.69421 19.5696L4.8669 20.7743C5.60485 21.2811 6.43011 21.5118 7.43373 21.6228C8.41944 21.7317 9.645 21.7307 11.2 21.7307V20.2693ZM1.70167 14.6857C2.18246 16.198 2.55946 17.3869 2.96436 18.3089C3.37578 19.2456 3.84297 19.973 4.54086 20.5322L5.45476 19.3918C5.0095 19.035 4.66233 18.5407 4.30243 17.7212C3.936 16.8869 3.58469 15.785 3.09441 14.2429L1.70167 14.6857ZM5.69421 19.5696C5.61233 19.5134 5.53246 19.4541 5.45476 19.3918L4.54086 20.5322C4.64657 20.6169 4.75533 20.6977 4.86689 20.7743L5.69421 19.5696ZM19.3056 14.2429C18.8153 15.785 18.464 16.8869 18.0976 17.7212C17.7377 18.5407 17.3905 19.035 16.9453 19.3918L17.8592 20.5322C18.5571 19.973 19.0242 19.2456 19.4357 18.3089C19.8406 17.3869 20.2176 16.198 20.6984 14.6857L19.3056 14.2429ZM11.2 21.7307C12.755 21.7307 13.9806 21.7317 14.9663 21.6228C15.9699 21.5118 16.7952 21.2811 17.5331 20.7743L16.7058 19.5696C16.238 19.8909 15.6748 20.0741 14.8057 20.1702C13.9188 20.2683 12.7875 20.2693 11.2 20.2693V21.7307ZM16.9453 19.3918C16.8676 19.4541 16.7877 19.5134 16.7058 19.5696L17.5331 20.7743C17.6447 20.6977 17.7535 20.6169 17.8592 20.5322L16.9453 19.3918ZM16.2043 4.47597C17.4882 5.42931 18.4038 6.11042 19.066 6.72347C19.7151 7.32446 20.0689 7.8146 20.2647 8.36146L21.6406 7.86878C21.3372 7.02142 20.8057 6.34252 20.0589 5.65108C19.3251 4.97171 18.3339 4.23703 17.0755 3.30263L16.2043 4.47597ZM20.6984 14.6857C21.1792 13.1733 21.5579 11.9851 21.7605 10.9963C21.9665 9.99111 22.006 9.12517 21.7645 8.25863L20.3568 8.65099C20.5132 9.21231 20.509 9.82391 20.3289 10.7029C20.1454 11.5983 19.7959 12.7009 19.3056 14.2429L20.6984 14.6857ZM20.2647 8.36146C20.2988 8.45676 20.3295 8.55334 20.3568 8.65099L21.7645 8.25863C21.7279 8.1272 21.6866 7.99716 21.6406 7.86878L20.2647 8.36146ZM17.0755 3.30263C15.8173 2.36835 14.8271 1.63187 13.9678 1.12834C13.0937 0.616201 12.2932 0.306481 11.4021 0.273073L11.3474 1.73348C11.908 1.7545 12.4689 1.94392 13.229 2.38926C14.0037 2.8432 14.9202 3.52252 16.2043 4.47597L17.0755 3.30263ZM6.19571 4.47597C7.47977 3.52252 8.39634 2.8432 9.17106 2.38926C9.9311 1.94392 10.492 1.7545 11.0526 1.73348L10.9979 0.273073C10.1068 0.306481 9.30629 0.616201 8.43224 1.12834C7.57288 1.63187 6.58272 2.36835 5.32448 3.30263L6.19571 4.47597ZM11.4021 0.273073C11.2674 0.268023 11.1326 0.268023 10.9979 0.273073L11.0526 1.73348C11.1509 1.72979 11.2492 1.72979 11.3474 1.73348L11.4021 0.273073ZM9.29339 17.1436H13.1066V15.6822H9.29339V17.1436Z" fill="#6293FF"/>
</svg>
