<svg width="20" height="20" viewBox="0 0 20 20" fill="none" xmlns="http://www.w3.org/2000/svg">
<g clip-path="url(#clip0_615_2836)">
<path d="M19.1637 12.9692C19.1637 10.1759 17.2816 7.73541 14.6275 6.99999C14.4607 3.11189 11.2459 0 7.3174 0C3.28251 0 0 3.28251 0 7.3174C0 8.6324 0.350021 9.91274 1.01468 11.0368L0.0269022 14.6078L3.59803 13.6201C4.63128 14.2311 5.79684 14.5753 6.99984 14.6272C7.73512 17.2815 10.1758 19.1637 12.9692 19.1637C14.0842 19.1637 15.1685 18.8668 16.1212 18.3026L19.1367 19.1367L18.3026 16.1212C18.8668 15.1685 19.1637 14.0842 19.1637 12.9692ZM3.77523 12.406L1.63738 12.9974L2.22879 10.8596L2.09399 10.6487C1.45871 9.65483 1.12288 8.50286 1.12288 7.3174C1.12288 3.9017 3.9017 1.12288 7.3174 1.12288C10.7331 1.12288 13.5119 3.9017 13.5119 7.3174C13.5119 10.7331 10.7331 13.5119 7.3174 13.5119C6.13195 13.5119 4.98013 13.1761 3.98606 12.5408L3.77523 12.406ZM17.5264 17.5264L15.94 17.0874L15.7281 17.2253C14.9069 17.7588 13.9527 18.0409 12.9692 18.0409C10.7738 18.0409 8.84454 16.6213 8.16102 14.5858C11.5229 14.1982 14.1982 11.5229 14.586 8.16088C16.6213 8.84454 18.0409 10.7738 18.0409 12.9692C18.0409 13.9527 17.7588 14.9069 17.2253 15.7281L17.0874 15.94L17.5264 17.5264Z" fill="#202020"/>
</g>
<defs>
<clipPath id="clip0_615_2836">
<rect width="19.1637" height="19.1637" fill="white"/>
</clipPath>
</defs>
</svg>
