<svg width="10" height="14" viewBox="0 0 10 14" fill="none" xmlns="http://www.w3.org/2000/svg">
<path d="M5 13.3367L5.30769 13.0242C5.5 12.8506 10 8.05901 10 5.17712C10 2.67718 7.76923 0.66333 5 0.66333C2.23077 0.66333 2.92063e-06 2.67718 2.92063e-06 5.17712C2.92063e-06 8.05901 4.5 12.8506 4.69231 13.0589L5 13.3367ZM5 1.35776C7.34615 1.35776 9.23077 3.05911 9.23077 5.17712C9.23077 7.3993 6 11.1492 5 12.2603C4 11.1492 0.769233 7.3993 0.769233 5.17712C0.769233 3.05911 2.65385 1.35776 5 1.35776Z" fill="#5B5B5B"/>
<path d="M4.99965 6.91331C6.07658 6.91331 6.92273 6.14944 6.92273 5.17724C6.92273 4.20503 6.07658 3.44116 4.99965 3.44116C3.92273 3.44116 3.07658 4.20503 3.07658 5.17724C3.07658 6.14944 3.92273 6.91331 4.99965 6.91331ZM4.99965 4.13559C5.6535 4.13559 6.1535 4.58697 6.1535 5.17724C6.1535 5.7675 5.6535 6.21888 4.99965 6.21888C4.34581 6.21888 3.84581 5.7675 3.84581 5.17724C3.84581 4.58697 4.34581 4.13559 4.99965 4.13559Z" fill="#5B5B5B"/>
</svg>
