<svg width="92" height="160" viewBox="0 0 92 160" fill="none" xmlns="http://www.w3.org/2000/svg">
<path d="M14.0084 0.292823C14.0573 0.303392 14.1062 0.313961 14.1565 0.32485C15.8518 0.709366 17.4349 1.47144 18.7375 2.62308C18.8019 2.67918 18.8663 2.73528 18.9326 2.79308C19.4519 3.25623 19.924 3.75641 20.394 4.26887C20.6056 4.49855 20.8196 4.72582 21.0335 4.95333C21.4049 5.34921 21.7756 5.74582 22.1459 6.14282C22.4371 6.455 22.7289 6.7666 23.021 7.07797C23.5528 7.64483 24.083 8.21303 24.6131 8.78142C25.1073 9.31132 25.6022 9.8406 26.098 10.3691C26.4261 10.7189 26.7534 11.0694 27.0805 11.4202C27.3718 11.7323 27.6636 12.0439 27.9557 12.3553C28.3271 12.7512 28.6978 13.1478 29.0681 13.5448C29.3593 13.857 29.6512 14.1686 29.9433 14.48C30.3147 14.8759 30.6854 15.2724 31.0557 15.6694C31.3469 15.9816 31.6388 16.2932 31.9309 16.6046C32.4626 17.1714 32.9929 17.7397 33.5229 18.308C34.0172 18.8379 34.512 19.3672 35.0078 19.8957C35.3359 20.2455 35.6632 20.596 35.9903 20.9468C36.2816 21.259 36.5734 21.5706 36.8655 21.8819C37.2369 22.2779 37.6077 22.6744 37.9779 23.0714C38.2692 23.3836 38.561 23.6952 38.8531 24.0066C39.2245 24.4025 39.5952 24.7991 39.9655 25.1961C40.2567 25.5082 40.5486 25.8199 40.8407 26.1312C41.2121 26.5271 41.5828 26.9237 41.9531 27.3207C42.2443 27.6329 42.5362 27.9445 42.8283 28.2559C43.36 28.8227 43.8903 29.3909 44.4203 29.9593C44.9146 30.4892 45.4094 31.0185 45.9052 31.547C46.2333 31.8968 46.5606 32.2473 46.8877 32.598C47.179 32.9102 47.4708 33.2218 47.7629 33.5332C48.1343 33.9291 48.5051 34.3257 48.8753 34.7227C49.1666 35.0349 49.4584 35.3465 49.7505 35.6578C50.1219 36.0538 50.4926 36.4503 50.8629 36.8473C51.1541 37.1595 51.446 37.4711 51.7381 37.7825C52.2698 38.3493 52.8001 38.9175 53.3302 39.4859C53.8244 40.0158 54.3193 40.5451 54.815 41.0736C55.1431 41.4234 55.4705 41.7739 55.7976 42.1247C56.0888 42.4369 56.3807 42.7485 56.6728 43.0598C57.0442 43.4558 57.4149 43.8523 57.7851 44.2493C58.0764 44.5615 58.3682 44.8731 58.6603 45.1845C59.0318 45.5804 59.4025 45.977 59.7727 46.374C60.064 46.6861 60.3558 46.9977 60.6479 47.3091C61.1796 47.876 61.7099 48.4442 62.24 49.0126C62.4786 49.2684 62.7172 49.5241 62.956 49.7797C63.0421 49.8719 63.1282 49.9642 63.2143 50.0565C63.8632 50.7538 63.8632 50.7538 64.5325 51.4314C64.6522 51.5532 64.7632 51.6788 64.8739 51.8087C65.1524 52.1289 65.449 52.4286 65.7496 52.7278C65.8017 52.7802 65.8538 52.8325 65.9075 52.8864C66.1951 53.1736 66.4881 53.4496 66.7975 53.7133C66.9235 53.8241 67.0415 53.9402 67.1589 54.06C67.41 54.3144 67.6759 54.5471 67.9471 54.7796C68.0186 54.8418 68.0901 54.904 68.1616 54.9662C72.0242 58.3187 76.6093 60.7926 81.865 60.4365C85.0912 60.1832 88.9062 59.0475 91.2326 56.6433C91.3183 56.5616 91.3183 56.5616 91.4553 56.5616C91.4601 60.1553 91.4637 63.749 91.4658 67.3427C91.4661 67.7674 91.4664 68.192 91.4666 68.6166C91.4667 68.7012 91.4667 68.7857 91.4668 68.8728C91.4677 70.2401 91.4693 71.6074 91.4712 72.9747C91.4731 74.3785 91.4743 75.7823 91.4747 77.1862C91.475 78.0518 91.4759 78.9175 91.4775 79.7832C91.4786 80.3774 91.4789 80.9717 91.4787 81.566C91.4785 81.9084 91.4787 82.2509 91.4799 82.5933C91.4809 82.9077 91.4809 83.222 91.4802 83.5363C91.4801 83.6492 91.4804 83.7622 91.481 83.8751C91.4947 86.3907 90.6099 88.6772 88.8504 90.4881C88.7823 90.5566 88.7139 90.6249 88.6453 90.693C88.6121 90.726 88.5789 90.759 88.5447 90.793C86.7853 92.5201 84.4945 93.5713 82.0658 93.9142C82.0221 93.9207 81.9785 93.9273 81.9336 93.9341C81.4036 94.0043 80.8689 93.9994 80.3352 93.9999C80.2834 93.9999 80.2317 94 80.1784 94C77.1849 93.9958 74.396 92.9888 72.2395 90.8738C71.6192 90.2499 71.0292 89.5959 70.4367 88.9458C70.2651 88.7607 70.0878 88.583 69.9077 88.4063C69.7869 88.2832 69.6745 88.155 69.562 88.0243C69.3962 87.8318 69.2247 87.6499 69.0437 87.4717C68.8655 87.2963 68.6967 87.1175 68.534 86.9277C68.3579 86.7227 68.1738 86.5306 67.9814 86.3409C67.7479 86.1105 67.5308 85.8723 67.3174 85.6234C67.1296 85.4129 66.9273 85.2177 66.7266 85.0197C66.5475 84.8381 66.3822 84.6472 66.2163 84.4537C66.09 84.3116 65.9579 84.1782 65.8225 84.0449C65.6443 83.8694 65.4755 83.6907 65.3127 83.5009C65.1366 83.2959 64.9525 83.1038 64.7601 82.914C64.5266 82.6837 64.3095 82.4454 64.0962 82.1965C63.9084 81.986 63.7061 81.7908 63.5053 81.5928C63.3263 81.4112 63.161 81.2204 62.995 81.0268C62.8688 80.8848 62.7366 80.7514 62.6012 80.618C62.423 80.4426 62.2542 80.2638 62.0915 80.074C61.9154 79.8691 61.7313 79.6769 61.5389 79.4872C61.3054 79.2568 61.0883 79.0186 60.8749 78.7697C60.6871 78.5592 60.4848 78.364 60.2841 78.166C60.105 77.9844 59.9397 77.7935 59.7738 77.6C59.6475 77.4579 59.5154 77.3245 59.38 77.1912C59.2018 77.0157 59.033 76.837 58.8702 76.6472C58.6941 76.4422 58.51 76.2501 58.3176 76.0603C58.0841 75.83 57.867 75.5917 57.6537 75.3428C57.515 75.1874 57.3693 75.0415 57.2211 74.8952C56.9875 74.6648 56.7705 74.4266 56.5571 74.1777C56.3693 73.9672 56.167 73.772 55.9662 73.574C55.7872 73.3924 55.6219 73.2015 55.456 73.008C55.3297 72.866 55.1976 72.7326 55.0621 72.5992C54.884 72.4238 54.7152 72.245 54.5524 72.0552C54.3763 71.8503 54.1922 71.6581 53.9998 71.4684C53.7663 71.238 53.5492 70.9998 53.3359 70.7509C53.148 70.5404 52.9457 70.3452 52.745 70.1472C52.5659 69.9656 52.4006 69.7747 52.2347 69.5812C52.1084 69.4391 51.9763 69.3057 51.8409 69.1724C51.6627 68.9969 51.4939 68.8182 51.3311 68.6284C51.1551 68.4234 50.9709 68.2313 50.7786 68.0415C50.545 67.8112 50.328 67.5729 50.1146 67.324C49.9268 67.1135 49.7245 66.9183 49.5238 66.7203C49.3447 66.5387 49.1794 66.3479 49.0135 66.1544C48.8872 66.0123 48.7551 65.8789 48.6196 65.7455C48.4415 65.5701 48.2727 65.3913 48.1099 65.2015C47.9338 64.9966 47.7497 64.8045 47.5573 64.6147C47.3238 64.3843 47.1067 64.1461 46.8934 63.8972C46.7056 63.6867 46.5033 63.4915 46.3025 63.2935C46.1235 63.1119 45.9581 62.921 45.7922 62.7275C45.666 62.5854 45.5338 62.452 45.3984 62.3187C45.2202 62.1432 45.0514 61.9645 44.8887 61.7747C44.7126 61.5697 44.5285 61.3776 44.3361 61.1878C44.1026 60.9575 43.8855 60.7192 43.6721 60.4703C43.4843 60.2599 43.282 60.0647 43.0813 59.8666C42.9022 59.685 42.7369 59.4942 42.571 59.3007C42.4447 59.1586 42.3126 59.0252 42.1772 58.8918C41.999 58.7164 41.8302 58.5377 41.6674 58.3478C41.4913 58.1429 41.3072 57.9508 41.1148 57.761C40.8813 57.5306 40.6642 57.2924 40.4509 57.0435C40.2631 56.833 40.0608 56.6378 39.86 56.4398C39.681 56.2582 39.5157 56.0673 39.3497 55.8738C39.2235 55.7317 39.0913 55.5984 38.9559 55.465C38.7777 55.2896 38.6089 55.1108 38.4462 54.921C38.2701 54.716 38.086 54.5239 37.8936 54.3341C37.6601 54.1038 37.443 53.8656 37.2296 53.6167C37.091 53.4612 36.9453 53.3153 36.797 53.169C36.5635 52.9387 36.3464 52.7004 36.133 52.4515C35.9452 52.2411 35.7429 52.0458 35.5422 51.8478C35.3631 51.6662 35.1978 51.4754 35.0319 51.2818C34.9056 51.1398 34.7735 51.0064 34.6381 50.873C34.4599 50.6976 34.2911 50.5189 34.1283 50.329C33.9523 50.1241 33.7681 49.9319 33.5758 49.7422C33.3422 49.5118 33.1252 49.2736 32.9118 49.0247C32.724 48.8142 32.5217 48.619 32.3209 48.421C32.1419 48.2394 31.9766 48.0485 31.8107 47.855C31.6844 47.7129 31.5523 47.5795 31.4168 47.4462C31.2387 47.2707 31.0699 47.092 30.9071 46.9022C30.731 46.6972 30.5469 46.5051 30.3545 46.3153C30.1195 46.0835 29.9008 45.8438 29.686 45.5933C29.5216 45.4083 29.3459 45.2363 29.168 45.0645C29.0377 44.9306 28.9151 44.7938 28.7926 44.6528C28.5463 44.3692 28.291 44.0952 28.0328 43.8223C27.6994 43.4683 27.3694 43.112 27.0455 42.7493C26.7599 42.4315 26.469 42.1186 26.1784 41.8055C26.0767 41.6953 25.9758 41.5846 25.875 41.4736C25.2983 40.8427 24.6956 40.2378 24.0919 39.633C24.0484 39.5892 24.0048 39.5455 23.9599 39.5004C23.5107 39.0498 23.0626 38.6039 22.5756 38.1937C22.5037 38.1303 22.4319 38.0668 22.3603 38.0031C21.3395 37.1061 20.2446 36.2905 19.0802 35.5893C19.0029 35.5427 19.0029 35.5427 18.9241 35.4952C17.2753 34.5147 15.4259 33.8326 13.5286 33.5332C13.4842 33.5261 13.4397 33.5191 13.3938 33.5118C11.2167 33.1839 8.94425 33.3815 6.81201 33.8759C6.73273 33.8943 6.73273 33.8943 6.65185 33.913C4.43231 34.4491 2.2547 35.6127 0.616597 37.1995C0.498678 37.3102 0.37725 37.4154 0.254171 37.5203C0.211455 37.5567 0.168739 37.5932 0.124729 37.6307C0.0924257 37.6582 0.0601225 37.6857 0.0268405 37.714C0.0221294 34.1138 0.0185086 30.5137 0.0163407 26.9136C0.0160835 26.4881 0.0158176 26.0627 0.0155459 25.6372C0.015492 25.5525 0.0154383 25.4678 0.0153827 25.3805C0.0144892 24.0108 0.0128683 22.6412 0.0109768 21.2715C0.00905085 19.8651 0.00791099 18.4586 0.00749433 17.0522C0.00721287 16.185 0.00632614 15.3179 0.00465186 14.4507C0.00356106 13.8553 0.00323745 13.2598 0.00350358 12.6644C0.00363466 12.3214 0.00343989 11.9783 0.0023302 11.6353C-0.00722009 8.53031 -0.00721981 8.53031 0.416645 7.19791C0.434017 7.14194 0.451388 7.08598 0.469286 7.02831C1.28915 4.50037 3.35422 2.55512 5.64688 1.32088C8.20862 0.0210006 11.2014 -0.314798 14.0084 0.292823Z" fill="url(#paint0_linear_469_2575)"/>
<path d="M10.4201 42.3605C10.4756 42.3602 10.531 42.3598 10.5882 42.3594C10.7053 42.3587 10.8224 42.3583 10.9395 42.358C11.1139 42.3573 11.2883 42.3552 11.4628 42.353C12.5426 42.346 13.5852 42.4813 14.621 42.7943C14.6897 42.8148 14.7584 42.8354 14.8293 42.8566C16.3715 43.3348 17.7457 44.1043 18.9431 45.1845C19.0387 45.2645 19.1344 45.3444 19.2301 45.4244C21.0179 47.014 22.1462 49.3847 22.3014 51.764C22.3117 52.1985 22.3112 52.6329 22.311 53.0675C22.3112 53.2007 22.3114 53.334 22.3116 53.4673C22.3122 53.8326 22.3123 54.1979 22.3124 54.5632C22.3125 54.9575 22.313 55.3519 22.3135 55.7463C22.3144 56.6083 22.3148 57.4703 22.3151 58.3322C22.3153 58.8709 22.3156 59.4096 22.3159 59.9482C22.3167 61.4408 22.3174 62.9334 22.3177 64.4261C22.3177 64.5225 22.3177 64.6189 22.3177 64.7154C22.3177 64.812 22.3177 64.9087 22.3178 65.0054C22.3178 65.1993 22.3178 65.3932 22.3179 65.5871C22.3179 65.6592 22.3179 65.6592 22.3179 65.7328C22.3181 67.2905 22.3192 68.8482 22.3208 70.4058C22.3225 72.0549 22.3234 73.7039 22.3235 75.3529C22.3236 76.251 22.324 77.149 22.3252 78.0471C22.3263 78.812 22.3266 79.5769 22.3261 80.3418C22.3258 80.7316 22.3259 81.1214 22.3268 81.5113C22.3277 81.8691 22.3276 82.2269 22.3268 82.5847C22.3266 82.7132 22.3269 82.8417 22.3275 82.9702C22.3324 84.0947 22.2583 85.2504 21.9116 86.328C21.8943 86.3837 21.8769 86.4393 21.8591 86.4967C21.6764 87.0581 21.4224 87.5736 21.1363 88.0886C21.0757 88.2007 21.0757 88.2007 21.0139 88.315C20.6029 89.051 20.0635 89.667 19.4914 90.2817C19.446 90.3317 19.4005 90.3816 19.3538 90.433C17.4144 92.4792 14.4187 93.5791 11.6345 93.654C8.57181 93.6936 5.52689 92.8132 3.24808 90.693C3.20609 90.654 3.1641 90.615 3.12084 90.5748C2.51176 90.0027 1.98193 89.4121 1.53465 88.7054C1.48703 88.6303 1.43941 88.5552 1.39035 88.4778C0.811205 87.5122 0.364081 86.4583 0.163907 85.3471C0.152477 85.2842 0.141046 85.2213 0.129269 85.1566C0.014223 84.4477 0.00739599 83.7537 0.00896549 83.0372C0.00875814 82.9022 0.00849116 82.7672 0.00817069 82.6321C0.00746889 82.2633 0.00761528 81.8945 0.00790924 81.5256C0.00807884 81.1269 0.00745986 80.7283 0.00694711 80.3296C0.0060747 79.5494 0.00594988 78.7692 0.00611047 77.989C0.00623284 77.3545 0.00611333 76.7201 0.00582183 76.0856C0.00578104 75.9952 0.00573941 75.9048 0.00569739 75.8116C0.0056352 75.674 0.00557299 75.5363 0.00551019 75.3987C0.00493288 74.1197 0.00463518 72.8408 0.00492141 71.5619C0.00493212 71.5137 0.00494278 71.4655 0.00495383 71.4159C0.00500905 71.1719 0.00506732 70.9278 0.00512638 70.6837C0.00513811 70.6352 0.00514986 70.5868 0.00516194 70.5368C0.0051857 70.4388 0.00520904 70.3408 0.00523305 70.2428C0.00560007 68.7183 0.00505741 67.1938 0.00379195 65.6693C0.00236995 63.9543 0.00163763 62.2392 0.00191266 60.5241C0.00193975 60.341 0.00196462 60.1579 0.00198796 59.9748C0.00199946 59.8847 0.00201062 59.7946 0.00202247 59.7018C0.00205241 59.0687 0.00158086 58.4355 0.000903469 57.8024C8.53638e-05 57.03 -7.3021e-06 56.2576 0.000820852 55.4852C0.00122336 55.0915 0.00130266 54.6978 0.000477831 54.3041C-0.000270069 53.9429 -4.87102e-05 53.5818 0.000907652 53.2206C0.00108806 53.0907 0.000930056 52.9608 0.000377435 52.831C-0.00391915 51.7449 0.089068 50.6683 0.416638 49.6265C0.434009 49.5702 0.451381 49.5139 0.469279 49.4558C0.651136 48.8917 0.900001 48.3721 1.19196 47.8574C1.22619 47.7969 1.22619 47.7969 1.2611 47.7351C1.56027 47.2132 1.89721 46.7373 2.28856 46.2811C2.33565 46.2256 2.38274 46.1701 2.43125 46.1129C4.3981 43.859 7.40638 42.3776 10.4201 42.3605Z" fill="url(#paint1_linear_469_2575)"/>
<path d="M88.5082 3.23989C88.5635 3.29078 88.6187 3.34167 88.6756 3.3941C89.8704 4.53092 90.7215 6.05822 91.1683 7.6391C91.1817 7.68621 91.1951 7.73332 91.2088 7.78186C91.448 8.68222 91.4752 9.56507 91.4732 10.4896C91.4734 10.6261 91.4737 10.7625 91.474 10.8989C91.4747 11.272 91.4746 11.645 91.4743 12.018C91.4741 12.4211 91.4747 12.8242 91.4752 13.2272C91.4761 14.0162 91.4762 14.8051 91.4761 15.5941C91.4759 16.2356 91.4761 16.8771 91.4764 17.5186C91.4764 17.6109 91.4764 17.7033 91.4765 17.7956C91.4765 17.9347 91.4766 18.0738 91.4767 18.213C91.4772 19.5059 91.4775 20.7988 91.4773 22.0917C91.4772 22.1404 91.4772 22.1891 91.4772 22.2393C91.4772 22.4861 91.4771 22.7329 91.477 22.9796C91.477 23.0532 91.477 23.0532 91.477 23.1281C91.477 23.2273 91.477 23.3264 91.4769 23.4255C91.4766 24.967 91.4771 26.5085 91.4784 28.05C91.4798 29.7839 91.4805 31.5178 91.4803 33.2516C91.4802 33.4368 91.4802 33.6219 91.4802 33.807C91.4802 33.8525 91.4802 33.8981 91.4802 33.9451C91.4801 34.6312 91.4805 35.3174 91.4813 36.0036C91.4821 36.7846 91.4822 37.5656 91.4814 38.3466C91.4809 38.7447 91.4809 39.1428 91.4817 39.5409C91.4824 39.9061 91.4822 40.2712 91.4813 40.6364C91.4811 40.7678 91.4812 40.8992 91.4818 41.0306C91.486 42.104 91.3982 43.1557 91.0441 44.1778C91.024 44.2367 91.0039 44.2957 90.9832 44.3564C90.4476 45.8542 89.5744 47.0945 88.4397 48.2001C88.4062 48.2374 88.3727 48.2748 88.3382 48.3133C86.5079 50.2892 83.5238 51.226 80.9071 51.3632C77.5228 51.4794 74.542 50.3086 72.0454 48.0643C70.2689 46.3708 69.2444 43.9157 69.1769 41.4788C69.1704 41.09 69.1713 40.7011 69.1716 40.3123C69.1715 40.181 69.1713 40.0497 69.1711 39.9184C69.1707 39.5595 69.1707 39.2007 69.1708 38.8419C69.1708 38.4541 69.1705 38.0663 69.1701 37.6785C69.1696 36.9195 69.1694 36.1605 69.1693 35.4015C69.1693 34.7842 69.1692 34.167 69.1689 33.5498C69.1684 32.0828 69.168 30.6159 69.1681 29.149C69.1681 29.1021 69.1681 29.0553 69.1681 29.007C69.1681 28.7695 69.1681 28.532 69.1681 28.2946C69.1681 28.2474 69.1681 28.2003 69.1681 28.1517C69.1681 28.0563 69.1681 27.9609 69.1681 27.8656C69.1681 26.3825 69.1676 24.8994 69.1667 23.4164C69.1656 21.748 69.165 20.0796 69.1651 18.4112C69.1651 17.5286 69.1649 16.646 69.1642 15.7635C69.1636 15.012 69.1634 14.2605 69.1639 13.509C69.1641 13.126 69.1641 12.743 69.1635 12.3601C69.163 12.0086 69.1631 11.6572 69.1637 11.3058C69.1638 11.1795 69.1637 11.0532 69.1633 10.9268C69.1603 9.87856 69.1794 8.79473 69.4721 7.78046C69.4868 7.72717 69.5016 7.67388 69.5168 7.61899C70.2987 4.88786 72.192 2.79291 74.6314 1.41563C75.979 0.68182 77.4626 0.265388 78.9816 0.0871916C79.0639 0.0773849 79.1463 0.0675783 79.2311 0.0574744C82.6422 -0.252276 86.0335 0.870951 88.5082 3.23989Z" fill="url(#paint2_linear_469_2575)"/>
<path d="M32.4158 124.818V151H27.6345L16.2439 134.521H16.0521V151H10.5166V124.818H15.3746L26.6757 141.284H26.9058V124.818H32.4158ZM52.4412 124.818H57.9767V141.821C57.9767 143.73 57.5207 145.401 56.6088 146.832C55.7054 148.264 54.4397 149.381 52.8119 150.182C51.1841 150.974 49.2878 151.371 47.123 151.371C44.9497 151.371 43.0491 150.974 41.4213 150.182C39.7934 149.381 38.5278 148.264 37.6244 146.832C36.721 145.401 36.2693 143.73 36.2693 141.821V124.818H41.8048V141.348C41.8048 142.345 42.0221 143.232 42.4568 144.007C42.9 144.783 43.5221 145.392 44.3233 145.835C45.1244 146.278 46.0576 146.5 47.123 146.5C48.1968 146.5 49.1301 146.278 49.9227 145.835C50.7238 145.392 51.3417 144.783 51.7764 144.007C52.2196 143.232 52.4412 142.345 52.4412 141.348V124.818ZM61.811 151V124.818H72.1405C74.1178 124.818 75.8053 125.172 77.203 125.879C78.6093 126.578 79.6789 127.571 80.4119 128.858C81.1533 130.136 81.5241 131.641 81.5241 133.371C81.5241 135.109 81.1491 136.605 80.3991 137.858C79.6491 139.102 78.5624 140.057 77.1391 140.722C75.7244 141.386 74.0113 141.719 71.9999 141.719H65.0837V137.27H71.105C72.1619 137.27 73.0397 137.125 73.7386 136.835C74.4374 136.545 74.9573 136.111 75.2982 135.531C75.6477 134.952 75.8224 134.232 75.8224 133.371C75.8224 132.501 75.6477 131.768 75.2982 131.172C74.9573 130.575 74.4332 130.124 73.7258 129.817C73.0269 129.501 72.1448 129.344 71.0795 129.344H67.3465V151H61.811ZM75.9502 139.085L82.4573 151H76.3465L69.98 139.085H75.9502Z" fill="url(#paint3_linear_469_2575)"/>
<defs>
<linearGradient id="paint0_linear_469_2575" x1="45.7406" y1="0" x2="45.7406" y2="94" gradientUnits="userSpaceOnUse">
<stop stop-color="#157EFE"/>
<stop offset="1" stop-color="#010101"/>
</linearGradient>
<linearGradient id="paint1_linear_469_2575" x1="11.1639" y1="42.3528" x2="11.1639" y2="93.6552" gradientUnits="userSpaceOnUse">
<stop stop-color="#157EFE"/>
<stop offset="1" stop-color="#010101"/>
</linearGradient>
<linearGradient id="paint2_linear_469_2575" x1="80.3226" y1="0.00701904" x2="80.3226" y2="51.3711" gradientUnits="userSpaceOnUse">
<stop stop-color="#157EFE"/>
<stop offset="1" stop-color="#010101"/>
</linearGradient>
<linearGradient id="paint3_linear_469_2575" x1="45.7411" y1="116" x2="45.7411" y2="160" gradientUnits="userSpaceOnUse">
<stop stop-color="#157EFE"/>
<stop offset="1"/>
</linearGradient>
</defs>
</svg>
