<svg width="68" height="37" viewBox="0 0 68 37" fill="none" xmlns="http://www.w3.org/2000/svg">
<path d="M4.90007 0.11526C4.91717 0.11942 4.93427 0.12358 4.95188 0.127866C5.54487 0.279218 6.09863 0.579184 6.55427 1.03249C6.5768 1.05457 6.59933 1.07665 6.62254 1.0994C6.80418 1.28171 6.96932 1.47859 7.13373 1.6803C7.20772 1.77071 7.2826 1.86016 7.3574 1.94972C7.48734 2.10554 7.617 2.26165 7.74651 2.41792C7.84838 2.5408 7.95047 2.66345 8.05265 2.78601C8.23864 3.00913 8.42413 3.23279 8.60955 3.45652C8.78242 3.66509 8.95553 3.87343 9.12894 4.08144C9.24371 4.21914 9.35821 4.35711 9.47263 4.49517C9.57451 4.61805 9.67659 4.7407 9.77877 4.86326C9.90869 5.0191 10.0384 5.1752 10.1679 5.33146C10.2698 5.45434 10.3718 5.577 10.474 5.69956C10.6039 5.8554 10.7336 6.01149 10.8631 6.16776C10.965 6.29064 11.0671 6.41329 11.1693 6.53585C11.3553 6.75898 11.5407 6.98263 11.7262 7.20636C11.899 7.41494 12.0721 7.62327 12.2456 7.83128C12.3603 7.96898 12.4748 8.10695 12.5892 8.24501C12.6911 8.36789 12.7932 8.49054 12.8954 8.6131C13.0253 8.76894 13.155 8.92504 13.2845 9.08131C13.3864 9.20419 13.4885 9.32684 13.5906 9.4494C13.7205 9.60524 13.8502 9.76134 13.9797 9.9176C14.0816 10.0405 14.1837 10.1631 14.2859 10.2857C14.4158 10.4415 14.5455 10.5976 14.675 10.7539C14.7769 10.8768 14.8789 10.9994 14.9811 11.122C15.1671 11.3451 15.3526 11.5688 15.538 11.7925C15.7109 12.0011 15.884 12.2094 16.0574 12.4174C16.1722 12.5551 16.2867 12.6931 16.4011 12.8311C16.503 12.954 16.6051 13.0767 16.7072 13.1992C16.8372 13.3551 16.9668 13.5112 17.0963 13.6674C17.1982 13.7903 17.3003 13.913 17.4025 14.0355C17.5324 14.1914 17.6621 14.3475 17.7916 14.5037C17.8935 14.6266 17.9956 14.7493 18.0977 14.8718C18.2837 15.095 18.4692 15.3186 18.6546 15.5423C18.8275 15.7509 19.0006 15.9593 19.174 16.1673C19.2888 16.305 19.4033 16.4429 19.5177 16.581C19.6196 16.7039 19.7217 16.8265 19.8239 16.9491C19.9538 17.1049 20.0834 17.261 20.213 17.4173C20.3148 17.5402 20.4169 17.6628 20.5191 17.7854C20.649 17.9412 20.7787 18.0973 20.9082 18.2536C21.0101 18.3765 21.1122 18.4991 21.2143 18.6217C21.4003 18.8448 21.5858 19.0685 21.7712 19.2922C21.8547 19.3929 21.9382 19.4935 22.0217 19.5941C22.0518 19.6304 22.0819 19.6667 22.112 19.7031C22.339 19.9776 22.339 19.9776 22.5732 20.2443C22.615 20.2922 22.6538 20.3417 22.6926 20.3928C22.79 20.5188 22.8937 20.6368 22.9989 20.7546C23.0171 20.7752 23.0353 20.7958 23.0541 20.817C23.1547 20.93 23.2572 21.0387 23.3654 21.1425C23.4095 21.1861 23.4508 21.2318 23.4919 21.2789C23.5797 21.3791 23.6727 21.4707 23.7676 21.5622C23.7926 21.5867 23.8176 21.6112 23.8426 21.6356C25.1937 22.9553 26.7976 23.929 28.636 23.7888C29.7645 23.6891 31.0989 23.2421 31.9127 22.2957C31.9427 22.2636 31.9427 22.2636 31.9906 22.2636C31.9923 23.6782 31.9935 25.0927 31.9943 26.5072C31.9944 26.6744 31.9945 26.8415 31.9946 27.0087C31.9946 27.0419 31.9946 27.0752 31.9946 27.1095C31.9949 27.6477 31.9955 28.1859 31.9962 28.7241C31.9968 29.2767 31.9972 29.8292 31.9974 30.3818C31.9975 30.7225 31.9978 31.0633 31.9984 31.404C31.9988 31.6379 31.9989 31.8718 31.9988 32.1058C31.9987 32.2406 31.9988 32.3753 31.9992 32.5101C31.9996 32.6339 31.9996 32.7576 31.9993 32.8813C31.9993 32.9258 31.9994 32.9702 31.9996 33.0147C32.0044 34.0049 31.6949 34.9049 31.0794 35.6177C31.0556 35.6446 31.0317 35.6715 31.0077 35.6983C30.9961 35.7113 30.9845 35.7243 30.9725 35.7377C30.3571 36.4175 29.5558 36.8313 28.7062 36.9662C28.6909 36.9688 28.6757 36.9714 28.66 36.974C28.4746 37.0017 28.2875 36.9998 28.1009 36.9999C28.0828 37 28.0647 37 28.046 37C26.9989 36.9983 26.0234 36.602 25.269 35.7695C25.052 35.5239 24.8457 35.2665 24.6384 35.0106C24.5784 34.9377 24.5164 34.8678 24.4534 34.7982C24.4111 34.7498 24.3718 34.6993 24.3324 34.6479C24.2745 34.5721 24.2145 34.5005 24.1511 34.4304C24.0888 34.3613 24.0298 34.2909 23.9728 34.2162C23.9112 34.1356 23.8468 34.0599 23.7796 33.9852C23.6979 33.8946 23.6219 33.8008 23.5473 33.7028C23.4816 33.62 23.4108 33.5431 23.3406 33.4652C23.278 33.3937 23.2202 33.3186 23.1621 33.2424C23.118 33.1865 23.0717 33.134 23.0244 33.0815C22.962 33.0124 22.903 32.9421 22.8461 32.8674C22.7845 32.7867 22.7201 32.7111 22.6528 32.6364C22.5711 32.5457 22.4952 32.4519 22.4205 32.354C22.3548 32.2711 22.2841 32.1943 22.2138 32.1163C22.1512 32.0448 22.0934 31.9697 22.0354 31.8935C21.9912 31.8376 21.945 31.7851 21.8976 31.7326C21.8353 31.6636 21.7762 31.5932 21.7193 31.5185C21.6577 31.4378 21.5933 31.3622 21.526 31.2875C21.4443 31.1968 21.3684 31.1031 21.2938 31.0051C21.2281 30.9222 21.1573 30.8454 21.0871 30.7675C21.0244 30.696 20.9666 30.6208 20.9086 30.5447C20.8644 30.4888 20.8182 30.4363 20.7708 30.3838C20.7085 30.3147 20.6494 30.2444 20.5925 30.1696C20.5309 30.089 20.4665 30.0133 20.3992 29.9386C20.3175 29.848 20.2416 29.7542 20.167 29.6562C20.1185 29.595 20.0675 29.5376 20.0156 29.48C19.934 29.3894 19.858 29.2956 19.7834 29.1976C19.7177 29.1148 19.6469 29.0379 19.5767 28.96C19.5141 28.8885 19.4563 28.8134 19.3982 28.7372C19.3541 28.6813 19.3078 28.6288 19.2605 28.5763C19.1981 28.5072 19.1391 28.4369 19.0822 28.3622C19.0206 28.2815 18.9562 28.2059 18.8889 28.1312C18.8072 28.0405 18.7312 27.9467 18.6566 27.8487C18.5909 27.7659 18.5202 27.6891 18.4499 27.6111C18.3873 27.5396 18.3295 27.4645 18.2714 27.3883C18.2273 27.3324 18.1811 27.2799 18.1337 27.2274C18.0714 27.1584 18.0123 27.088 17.9554 27.0133C17.8938 26.9326 17.8294 26.857 17.7621 26.7823C17.6804 26.6916 17.6045 26.5979 17.5298 26.4999C17.4641 26.417 17.3934 26.3402 17.3232 26.2623C17.2605 26.1908 17.2027 26.1156 17.1447 26.0395C17.1005 25.9836 17.0543 25.9311 17.0069 25.8786C16.9446 25.8095 16.8855 25.7391 16.8286 25.6644C16.767 25.5838 16.7026 25.5081 16.6353 25.4334C16.5536 25.3428 16.4777 25.249 16.4031 25.151C16.3374 25.0682 16.2666 24.9913 16.1964 24.9134C16.1338 24.8419 16.0759 24.7668 16.0179 24.6906C15.9737 24.6347 15.9275 24.5822 15.8801 24.5297C15.8178 24.4606 15.7588 24.3903 15.7018 24.3156C15.6402 24.2349 15.5758 24.1593 15.5085 24.0846C15.4269 23.9939 15.3509 23.9001 15.2763 23.8022C15.2106 23.7193 15.1398 23.6425 15.0696 23.5645C15.007 23.493 14.9492 23.4179 14.8911 23.3418C14.847 23.2858 14.8007 23.2333 14.7534 23.1808C14.691 23.1118 14.632 23.0414 14.5751 22.9667C14.5135 22.886 14.4491 22.8104 14.3818 22.7357C14.3001 22.645 14.2241 22.5513 14.1495 22.4533C14.0838 22.3704 14.0131 22.2936 13.9428 22.2157C13.8802 22.1442 13.8224 22.0691 13.7643 21.9929C13.7202 21.937 13.674 21.8845 13.6266 21.832C13.5643 21.7629 13.5052 21.6926 13.4483 21.6178C13.3867 21.5372 13.3223 21.4615 13.255 21.3868C13.1733 21.2962 13.0974 21.2024 13.0227 21.1044C12.9742 21.0433 12.9233 20.9858 12.8714 20.9282C12.7897 20.8376 12.7138 20.7438 12.6392 20.6458C12.5735 20.563 12.5027 20.4861 12.4325 20.4082C12.3698 20.3367 12.312 20.2616 12.254 20.1854C12.2098 20.1295 12.1636 20.077 12.1162 20.0245C12.0539 19.9554 11.9949 19.8851 11.9379 19.8104C11.8763 19.7297 11.8119 19.6541 11.7446 19.5794C11.6629 19.4887 11.587 19.3949 11.5124 19.2969C11.4467 19.2141 11.3759 19.1373 11.3057 19.0593C11.2431 18.9878 11.1852 18.9127 11.1272 18.8365C11.083 18.7806 11.0368 18.7281 10.9895 18.6756C10.9271 18.6066 10.8681 18.5362 10.8111 18.4615C10.7496 18.3808 10.6851 18.3052 10.6179 18.2305C10.5357 18.1393 10.4591 18.0449 10.384 17.9463C10.3265 17.8735 10.2651 17.8058 10.2028 17.7382C10.1573 17.6854 10.1143 17.6316 10.0715 17.5761C9.98535 17.4645 9.89604 17.3566 9.80574 17.2492C9.68911 17.1099 9.5737 16.9696 9.46037 16.8268C9.36047 16.7018 9.25874 16.5786 9.15709 16.4553C9.1215 16.412 9.08619 16.3684 9.05094 16.3247C8.84922 16.0764 8.63841 15.8383 8.42724 15.6002C8.412 15.583 8.39676 15.5658 8.38105 15.548C8.22392 15.3706 8.06717 15.1952 7.89682 15.0337C7.87167 15.0088 7.84657 14.9837 7.82152 14.9587C7.46446 14.6056 7.08146 14.2846 6.67414 14.0086C6.64712 13.9902 6.64712 13.9902 6.61955 13.9715C6.0428 13.5856 5.39592 13.3171 4.73225 13.1992C4.71669 13.1965 4.70113 13.1937 4.68509 13.1908C3.92353 13.0618 3.12865 13.1395 2.38281 13.3341C2.35508 13.3414 2.35508 13.3414 2.32678 13.3487C1.5504 13.5598 0.788684 14.0178 0.215683 14.6424C0.174435 14.6859 0.13196 14.7274 0.0889077 14.7686C0.0739659 14.783 0.0590241 14.7973 0.0436295 14.8121C0.03233 14.8229 0.0210306 14.8337 0.00938866 14.8449C0.00774076 13.4278 0.00647422 12.0107 0.00571589 10.5937C0.00562595 10.4262 0.00553291 10.2587 0.00543788 10.0912C0.00541901 10.0579 0.00540025 10.0245 0.00538081 9.9902C0.00506826 9.45108 0.00450125 8.91196 0.00383964 8.37284C0.00316594 7.81923 0.00276722 7.26563 0.00262148 6.71203C0.00252303 6.3707 0.00221285 6.02938 0.0016272 5.68806C0.00124564 5.45368 0.00113244 5.2193 0.00122554 4.98492C0.00127139 4.8499 0.00120326 4.71488 0.000815094 4.57986C-0.00252555 3.35768 -0.00252545 3.35768 0.14574 2.83322C0.151817 2.81119 0.157893 2.78916 0.164154 2.76646C0.450937 1.77142 1.17329 1.00574 1.97525 0.519919C2.87133 0.00826621 3.91819 -0.12391 4.90007 0.11526Z" fill="url(#paint0_linear_469_2956)"/>
<path d="M3.64495 16.674C3.66435 16.6738 3.68376 16.6736 3.70374 16.6735C3.7447 16.6732 3.78566 16.6731 3.82662 16.673C3.88765 16.6727 3.94865 16.6719 4.00967 16.671C4.38737 16.6682 4.75207 16.7215 5.11439 16.8447C5.13843 16.8528 5.16248 16.8609 5.18726 16.8692C5.72673 17.0574 6.2074 17.3603 6.62624 17.7855C6.65969 17.817 6.69316 17.8485 6.72663 17.8799C7.35202 18.5056 7.74669 19.4388 7.80097 20.3753C7.80457 20.5463 7.80441 20.7173 7.80433 20.8884C7.80439 20.9408 7.80447 20.9933 7.80455 21.0458C7.80474 21.1895 7.80479 21.3333 7.8048 21.4771C7.80485 21.6323 7.80503 21.7876 7.80519 21.9428C7.80551 22.2821 7.80566 22.6214 7.80577 22.9607C7.80583 23.1727 7.80593 23.3847 7.80604 23.5968C7.80633 24.1843 7.80658 24.7718 7.80666 25.3593C7.80667 25.3973 7.80667 25.4352 7.80668 25.4732C7.80668 25.5112 7.80669 25.5493 7.80669 25.5873C7.8067 25.6637 7.80671 25.74 7.80673 25.8163C7.80673 25.8447 7.80673 25.8447 7.80673 25.8737C7.80682 26.4868 7.8072 27.0999 7.80776 27.7131C7.80835 28.3621 7.80868 29.0112 7.80871 29.6603C7.80873 30.0138 7.80887 30.3673 7.8093 30.7208C7.80967 31.0219 7.80979 31.3229 7.8096 31.624C7.8095 31.7775 7.80952 31.9309 7.80986 32.0843C7.81017 32.2252 7.81014 32.366 7.80985 32.5069C7.8098 32.5574 7.80987 32.608 7.81008 32.6586C7.81181 33.1012 7.78589 33.5561 7.66461 33.9803C7.65856 34.0022 7.6525 34.0241 7.64625 34.0467C7.58235 34.2677 7.49349 34.4706 7.39341 34.6733C7.37222 34.7174 7.37222 34.7174 7.35061 34.7624C7.20683 35.0521 7.01817 35.2946 6.81803 35.5366C6.80215 35.5562 6.78627 35.5758 6.7699 35.5961C6.09154 36.4015 5.04364 36.8345 4.06974 36.8639C2.99843 36.8795 1.93333 36.533 1.13621 35.6984C1.12152 35.6831 1.10684 35.6677 1.09171 35.6519C0.878652 35.4267 0.693318 35.1942 0.536863 34.9161C0.520206 34.8865 0.503549 34.857 0.486387 34.8265C0.283806 34.4464 0.127404 34.0316 0.0573842 33.5942C0.0533859 33.5694 0.0493877 33.5447 0.0452681 33.5192C0.00502548 33.2402 0.00263744 32.967 0.00318644 32.685C0.00311391 32.6318 0.00302052 32.5787 0.00290843 32.5255C0.00266294 32.3804 0.00271415 32.2352 0.00281697 32.09C0.0028763 31.9331 0.00265978 31.7761 0.00248042 31.6192C0.00217526 31.3121 0.0021316 31.005 0.00218777 30.6979C0.00223058 30.4482 0.00218877 30.1984 0.00208681 29.9487C0.00207254 29.9131 0.00205798 29.8775 0.00204328 29.8409C0.00202153 29.7867 0.00199977 29.7325 0.0019778 29.6783C0.00177586 29.1749 0.00167172 28.6715 0.00177184 28.1681C0.00177559 28.1491 0.00177932 28.1302 0.00178318 28.1106C0.0018025 28.0146 0.00182288 27.9185 0.00184354 27.8224C0.00184765 27.8034 0.00185176 27.7843 0.00185598 27.7646C0.00186429 27.726 0.00187246 27.6875 0.00188086 27.6489C0.00200924 27.0488 0.00181942 26.4488 0.00137677 25.8487C0.000879357 25.1736 0.000623196 24.4985 0.000719399 23.8234C0.000728876 23.7514 0.000737574 23.6793 0.000745738 23.6072C0.000749761 23.5718 0.000753664 23.5363 0.00075781 23.4998C0.000768283 23.2506 0.000603338 23.0013 0.000366389 22.7521C8.02201e-05 22.4481 4.7806e-05 22.1441 0.00033749 21.84C0.000478286 21.6851 0.000506024 21.5301 0.000217503 21.3752C-4.41087e-05 21.233 3.33217e-05 21.0908 0.000367853 20.9487C0.000430959 20.8975 0.000375689 20.8464 0.000182385 20.7953C-0.00132054 20.3678 0.0312059 19.944 0.145788 19.534C0.151865 19.5118 0.157941 19.4896 0.164202 19.4668C0.227814 19.2447 0.314866 19.0402 0.416993 18.8376C0.428965 18.8138 0.428965 18.8138 0.441178 18.7895C0.545826 18.5841 0.663685 18.3967 0.800576 18.2171C0.817048 18.1953 0.83352 18.1735 0.850491 18.151C1.53848 17.2638 2.59076 16.6807 3.64495 16.674Z" fill="url(#paint1_linear_469_2956)"/>
<path d="M30.9597 1.27544C30.979 1.29547 30.9984 1.3155 31.0183 1.33614C31.4362 1.78362 31.7339 2.38479 31.8902 3.00705C31.8949 3.02559 31.8996 3.04413 31.9044 3.06324C31.9881 3.41763 31.9976 3.76514 31.9969 4.12906C31.9969 4.18277 31.997 4.23647 31.9971 4.29017C31.9974 4.43701 31.9973 4.58384 31.9972 4.73067C31.9972 4.88932 31.9974 5.04797 31.9976 5.20662C31.9979 5.51716 31.9979 5.82771 31.9979 6.13825C31.9978 6.39076 31.9979 6.64328 31.998 6.89579C31.998 6.93213 31.998 6.96847 31.998 7.00481C31.998 7.05957 31.998 7.11434 31.9981 7.16911C31.9983 7.67802 31.9984 8.18693 31.9983 8.69584C31.9983 8.71501 31.9983 8.73418 31.9983 8.75393C31.9982 8.85107 31.9982 8.9482 31.9982 9.04534C31.9982 9.07428 31.9982 9.07428 31.9982 9.1038C31.9982 9.14281 31.9982 9.18182 31.9982 9.22083C31.998 9.82759 31.9982 10.4344 31.9987 11.0411C31.9992 11.7236 31.9994 12.4061 31.9993 13.0886C31.9993 13.1614 31.9993 13.2343 31.9993 13.3072C31.9993 13.3251 31.9993 13.343 31.9993 13.3615C31.9993 13.6316 31.9994 13.9017 31.9997 14.1718C32 14.4792 32 14.7866 31.9997 15.094C31.9996 15.2507 31.9995 15.4074 31.9998 15.5641C32.0001 15.7079 32 15.8516 31.9997 15.9953C31.9996 16.0471 31.9997 16.0988 31.9999 16.1505C32.0013 16.573 31.9706 16.987 31.8468 17.3893C31.8397 17.4125 31.8327 17.4357 31.8255 17.4596C31.6381 18.0492 31.3327 18.5374 30.9358 18.9725C30.924 18.9872 30.9123 19.002 30.9003 19.0171C30.26 19.7948 29.2162 20.1636 28.3009 20.2176C27.1171 20.2633 26.0744 19.8025 25.2011 18.9191C24.5797 18.2525 24.2213 17.2861 24.1977 16.3269C24.1954 16.1739 24.1957 16.0208 24.1959 15.8678C24.1958 15.8161 24.1958 15.7644 24.1957 15.7127C24.1956 15.5715 24.1956 15.4302 24.1956 15.289C24.1956 15.1363 24.1955 14.9837 24.1954 14.8311C24.1952 14.5323 24.1951 14.2336 24.1951 13.9348C24.1951 13.6918 24.195 13.4489 24.1949 13.2059C24.1948 12.6285 24.1946 12.0511 24.1946 11.4737C24.1946 11.4553 24.1946 11.4368 24.1946 11.4178C24.1946 11.3243 24.1946 11.2309 24.1946 11.1374C24.1946 11.1188 24.1946 11.1003 24.1946 11.0811C24.1946 11.0436 24.1946 11.0061 24.1946 10.9685C24.1947 10.3848 24.1945 9.80101 24.1941 9.21725C24.1938 8.56053 24.1936 7.90382 24.1936 7.24711C24.1936 6.89972 24.1935 6.55233 24.1933 6.20494C24.1931 5.90914 24.193 5.61335 24.1932 5.31755C24.1933 5.1668 24.1933 5.01605 24.193 4.86529C24.1929 4.72697 24.1929 4.58865 24.1931 4.45033C24.1931 4.4006 24.1931 4.35088 24.193 4.30116C24.1919 3.88854 24.1986 3.46192 24.301 3.06269C24.3061 3.04171 24.3113 3.02074 24.3166 2.99913C24.5901 1.92411 25.2524 1.0995 26.1057 0.557382C26.5771 0.268543 27.096 0.104628 27.6274 0.034487C27.6562 0.0306269 27.685 0.0267668 27.7146 0.0227898C28.9078 -0.0991333 30.0941 0.342988 30.9597 1.27544Z" fill="url(#paint2_linear_469_2956)"/>
<path d="M48.8575 13.4071V23H47.1057L42.9322 16.9623H42.8619V23H40.8338V13.4071H42.6137L46.7544 19.4401H46.8387V13.4071H48.8575ZM56.1947 13.4071H58.2229V19.6369C58.2229 20.3363 58.0558 20.9484 57.7217 21.473C57.3907 21.9976 56.927 22.4067 56.3305 22.7002C55.7341 22.9906 55.0393 23.1358 54.2461 23.1358C53.4499 23.1358 52.7535 22.9906 52.1571 22.7002C51.5606 22.4067 51.0969 21.9976 50.7659 21.473C50.4349 20.9484 50.2694 20.3363 50.2694 19.6369V13.4071H52.2976V19.4636C52.2976 19.8289 52.3772 20.1537 52.5365 20.4378C52.6989 20.722 52.9268 20.9453 53.2203 21.1077C53.5139 21.27 53.8558 21.3512 54.2461 21.3512C54.6396 21.3512 54.9815 21.27 55.2719 21.1077C55.5655 20.9453 55.7919 20.722 55.9511 20.4378C56.1135 20.1537 56.1947 19.8289 56.1947 19.4636V13.4071ZM59.6278 23V13.4071H63.4125C64.1369 13.4071 64.7552 13.5367 65.2673 13.7959C65.7826 14.0519 66.1745 14.4157 66.443 14.8873C66.7147 15.3557 66.8505 15.9068 66.8505 16.5407C66.8505 17.1778 66.7131 17.7258 66.4383 18.1848C66.1635 18.6407 65.7654 18.9905 65.2439 19.234C64.7255 19.4776 64.0979 19.5994 63.3609 19.5994H60.8269V17.9694H63.0331C63.4203 17.9694 63.7419 17.9163 63.998 17.8101C64.254 17.7039 64.4445 17.5447 64.5694 17.3323C64.6974 17.12 64.7615 16.8561 64.7615 16.5407C64.7615 16.2222 64.6974 15.9537 64.5694 15.7351C64.4445 15.5165 64.2525 15.351 63.9933 15.2386C63.7372 15.123 63.414 15.0653 63.0237 15.0653H61.6559V23H59.6278ZM64.8083 18.6345L67.1925 23H64.9535L62.6209 18.6345H64.8083Z" fill="url(#paint3_linear_469_2956)"/>
<defs>
<linearGradient id="paint0_linear_469_2956" x1="15.9998" y1="0" x2="15.9998" y2="37" gradientUnits="userSpaceOnUse">
<stop stop-color="#157EFE"/>
<stop offset="1" stop-color="#010101"/>
</linearGradient>
<linearGradient id="paint1_linear_469_2956" x1="3.90511" y1="16.6709" x2="3.90511" y2="36.8644" gradientUnits="userSpaceOnUse">
<stop stop-color="#157EFE"/>
<stop offset="1" stop-color="#010101"/>
</linearGradient>
<linearGradient id="paint2_linear_469_2956" x1="28.0964" y1="0.00292969" x2="28.0964" y2="20.2207" gradientUnits="userSpaceOnUse">
<stop stop-color="#157EFE"/>
<stop offset="1" stop-color="#010101"/>
</linearGradient>
<linearGradient id="paint3_linear_469_2956" x1="54" y1="10" x2="54" y2="27" gradientUnits="userSpaceOnUse">
<stop stop-color="#157EFE"/>
<stop offset="1"/>
</linearGradient>
</defs>
</svg>
