<svg width="89" height="113" viewBox="0 0 89 113" fill="none" xmlns="http://www.w3.org/2000/svg">
<path d="M55.6138 31.8201C58.9635 31.8232 62.275 32.5506 65.3322 33.9544C68.3893 35.3585 71.1237 37.4076 73.3568 39.9682L80.348 33.5041C75.873 28.4002 70.002 24.7982 63.5008 23.1683C56.9999 21.5382 50.1708 21.9559 43.9046 24.3668C37.6385 26.7777 32.2263 31.0697 28.3746 36.6828C24.5226 42.2961 22.41 48.9696 22.312 55.833C22.214 62.6962 24.1354 69.4305 27.8254 75.1568C31.5155 80.8833 36.8028 85.3359 42.9975 87.9339C49.192 90.5317 56.0064 91.1542 62.5512 89.7201C69.0959 88.286 75.0673 84.8619 79.686 79.8945L72.8536 73.2401C70.1319 76.1593 66.7473 78.3413 63.0025 79.591C59.2578 80.8408 55.2693 81.1193 51.3939 80.4017C47.5184 79.6842 43.8769 77.9931 40.7945 75.4793C37.7121 72.9655 35.285 69.7076 33.7304 65.9966C32.1756 62.2856 31.5416 58.2374 31.8851 54.2139C32.2287 50.1902 33.5389 46.3165 35.6987 42.9393C37.8586 39.5619 40.8007 36.7861 44.2622 34.86C47.7236 32.9338 51.5964 31.9174 55.5346 31.9015L55.6138 31.8201Z" fill="url(#paint0_linear_223_6490)"/>
<path d="M24.0154 23.7439L17.1179 17.0706C11.7296 22.2176 7.454 28.3357 4.53631 35.0736C1.61879 41.8113 0.11676 49.0361 0.11676 56.3327C0.11676 63.6293 1.61879 70.854 4.53631 77.5917C7.454 84.3296 11.7296 90.4477 17.1179 95.5948L24.0154 88.9214C19.523 84.6601 15.9563 79.5854 13.5219 73.9912C11.0876 68.3972 9.83414 62.3951 9.83414 56.3327C9.83414 50.2703 11.0876 44.2681 13.5219 38.6741C15.9563 33.0799 19.523 28.0052 24.0154 23.7439Z" fill="url(#paint1_linear_223_6490)"/>
<path d="M88.8833 11.0537C79.4786 3.85831 68.1145 -0.014639 56.4493 4.15819e-05V9.68908C66.0745 9.67986 75.4532 12.8628 83.229 18.7776L88.8833 11.0537Z" fill="url(#paint2_linear_223_6490)"/>
<path d="M56.4493 103.107V112.665C67.3611 112.678 78.0396 109.496 87.1762 103.511L81.8091 95.5947C74.259 100.509 65.4492 103.119 56.4493 103.107Z" fill="url(#paint3_linear_223_6490)"/>
<path d="M56.4493 91.3014C49.0575 91.2964 41.8455 89.0858 35.79 84.9686C29.7342 80.8513 25.1272 75.0262 22.5923 68.282L13.7731 72.2599C17.0942 80.6354 22.9494 87.8372 30.5674 92.9167C38.1855 97.9964 47.2089 100.715 56.4493 100.716V91.3014Z" fill="url(#paint4_linear_223_6490)"/>
<path d="M21.4839 54.6256C22.0564 45.6457 25.9885 37.2221 32.4819 31.0639C38.9753 24.9059 47.544 21.4744 56.4494 21.4657V11.9494C45.0451 11.9491 34.0773 16.3792 25.8157 24.3229C17.5541 32.2669 12.6311 43.1162 12.0661 54.6256H21.4839Z" fill="url(#paint5_linear_223_6490)"/>
<defs>
<linearGradient id="paint0_linear_223_6490" x1="51.3282" y1="22.1917" x2="51.3282" y2="90.4736" gradientUnits="userSpaceOnUse">
<stop stop-color="#157EFE"/>
<stop offset="1"/>
</linearGradient>
<linearGradient id="paint1_linear_223_6490" x1="12.0661" y1="17.0706" x2="12.0661" y2="95.5948" gradientUnits="userSpaceOnUse">
<stop stop-color="#157EFE"/>
<stop offset="1"/>
</linearGradient>
<linearGradient id="paint2_linear_223_6490" x1="72.6663" y1="0" x2="72.6663" y2="18.7776" gradientUnits="userSpaceOnUse">
<stop stop-color="#157EFE"/>
<stop offset="1"/>
</linearGradient>
<linearGradient id="paint3_linear_223_6490" x1="71.8128" y1="95.5947" x2="71.8128" y2="112.665" gradientUnits="userSpaceOnUse">
<stop stop-color="#157EFE"/>
<stop offset="1"/>
</linearGradient>
<linearGradient id="paint4_linear_223_6490" x1="35.1112" y1="68.282" x2="35.1112" y2="100.716" gradientUnits="userSpaceOnUse">
<stop stop-color="#157EFE"/>
<stop offset="1"/>
</linearGradient>
<linearGradient id="paint5_linear_223_6490" x1="34.2577" y1="11.9494" x2="34.2577" y2="54.6256" gradientUnits="userSpaceOnUse">
<stop stop-color="#157EFE"/>
<stop offset="1"/>
</linearGradient>
</defs>
</svg>
