<svg width="51" height="45" viewBox="0 0 51 45" fill="none" xmlns="http://www.w3.org/2000/svg">
<path d="M7.7745 0.140181C7.80163 0.145241 7.82875 0.1503 7.8567 0.155513C8.79755 0.33959 9.67614 0.704413 10.3991 1.25573C10.4348 1.28259 10.4706 1.30944 10.5074 1.33711C10.7956 1.55883 11.0576 1.79828 11.3184 2.04361C11.4358 2.15356 11.5546 2.26236 11.6733 2.37128C11.8795 2.56079 12.0852 2.75066 12.2907 2.94071C12.4523 3.09016 12.6143 3.23933 12.7764 3.38839C13.0715 3.65976 13.3658 3.93177 13.66 4.20387C13.9343 4.45755 14.2089 4.71093 14.4841 4.96391C14.6661 5.13139 14.8478 5.29919 15.0294 5.4671C15.191 5.61655 15.353 5.76572 15.5151 5.91478C15.7212 6.10431 15.927 6.29416 16.1324 6.48421C16.2941 6.63366 16.4561 6.78283 16.6182 6.93189C16.8243 7.12143 17.03 7.31128 17.2355 7.50133C17.3972 7.65078 17.5591 7.79995 17.7212 7.94901C18.0163 8.22038 18.3106 8.49239 18.6048 8.76449C18.8791 9.01817 19.1538 9.27154 19.4289 9.52453C19.611 9.692 19.7927 9.85981 19.9742 10.0277C20.1358 10.1772 20.2978 10.3263 20.4599 10.4754C20.6661 10.6649 20.8718 10.8548 21.0773 11.0448C21.2389 11.1943 21.4009 11.3435 21.563 11.4925C21.7691 11.682 21.9749 11.8719 22.1804 12.0619C22.342 12.2114 22.504 12.3606 22.6661 12.5096C22.8722 12.6992 23.078 12.889 23.2835 13.0791C23.4451 13.2285 23.6071 13.3777 23.7692 13.5267C24.0643 13.7981 24.3586 14.0701 24.6528 14.3422C24.927 14.5959 25.2017 14.8493 25.4768 15.1023C25.6589 15.2697 25.8406 15.4375 26.0221 15.6055C26.1838 15.7549 26.3457 15.9041 26.5079 16.0531C26.714 16.2427 26.9197 16.4325 27.1252 16.6226C27.2868 16.772 27.4488 16.9212 27.6109 17.0702C27.8171 17.2598 28.0228 17.4496 28.2283 17.6397C28.3899 17.7891 28.5519 17.9383 28.714 18.0874C29.0091 18.3587 29.3034 18.6307 29.5976 18.9028C29.8719 19.1565 30.1465 19.4099 30.4217 19.6629C30.6038 19.8304 30.7854 19.9982 30.967 20.1661C31.1286 20.3155 31.2906 20.4647 31.4527 20.6138C31.6588 20.8033 31.8646 20.9931 32.0701 21.1832C32.2317 21.3326 32.3937 21.4818 32.5558 21.6309C32.7619 21.8204 32.9677 22.0102 33.1731 22.2003C33.3348 22.3498 33.4967 22.4989 33.6589 22.648C33.954 22.9193 34.2483 23.1914 34.5424 23.4635C34.6748 23.5859 34.8073 23.7083 34.9398 23.8307C34.9876 23.8748 35.0354 23.919 35.0832 23.9632C35.4433 24.297 35.4433 24.297 35.8148 24.6214C35.8812 24.6797 35.9428 24.7399 36.0042 24.802C36.1588 24.9553 36.3234 25.0988 36.4903 25.242C36.5192 25.2671 36.5481 25.2922 36.5778 25.318C36.7375 25.4554 36.9001 25.5876 37.0718 25.7138C37.1418 25.7668 37.2072 25.8225 37.2724 25.8798C37.4117 26.0016 37.5593 26.113 37.7098 26.2243C37.7495 26.2541 37.7892 26.2838 37.8288 26.3136C39.9726 27.9186 42.5173 29.1028 45.4341 28.9324C47.2246 28.8111 49.3419 28.2674 50.633 27.1165C50.6805 27.0774 50.6805 27.0774 50.7566 27.0774C50.7592 28.7978 50.7612 30.5181 50.7624 32.2385C50.7626 32.4418 50.7627 32.6451 50.7629 32.8484C50.7629 32.8889 50.7629 32.9293 50.763 32.971C50.7635 33.6256 50.7644 34.2801 50.7654 34.9347C50.7665 35.6067 50.7671 36.2788 50.7673 36.9508C50.7675 37.3652 50.768 37.7797 50.7689 38.1941C50.7695 38.4786 50.7697 38.7631 50.7696 39.0476C50.7695 39.2115 50.7696 39.3754 50.7702 39.5394C50.7708 39.6898 50.7708 39.8403 50.7704 39.9908C50.7704 40.0448 50.7705 40.0989 50.7709 40.153C50.7784 41.3573 50.2874 42.4518 49.3109 43.3188C49.2731 43.3516 49.2351 43.3843 49.1971 43.4168C49.1787 43.4326 49.1602 43.4484 49.1413 43.4647C48.1648 44.2915 46.8935 44.7948 45.5455 44.9589C45.5213 44.9621 45.4971 44.9652 45.4721 44.9684C45.178 45.0021 44.8812 44.9997 44.5851 44.9999C44.5563 45 44.5276 45 44.498 45C42.8367 44.998 41.2889 44.5159 40.0921 43.5034C39.7478 43.2047 39.4204 42.8917 39.0915 42.5804C38.9963 42.4918 38.8979 42.4068 38.7979 42.3222C38.7309 42.2633 38.6685 42.2019 38.6061 42.1393C38.5141 42.0472 38.4189 41.9601 38.3184 41.8748C38.2195 41.7908 38.1259 41.7052 38.0355 41.6143C37.9378 41.5162 37.8356 41.4242 37.7288 41.3334C37.5992 41.2231 37.4788 41.1091 37.3604 40.9899C37.2561 40.8891 37.1439 40.7957 37.0324 40.7009C36.9331 40.614 36.8413 40.5226 36.7492 40.43C36.6792 40.3619 36.6058 40.2981 36.5307 40.2342C36.4318 40.1503 36.3381 40.0647 36.2478 39.9738C36.15 39.8757 36.0479 39.7837 35.9411 39.6929C35.8115 39.5826 35.691 39.4686 35.5726 39.3494C35.4684 39.2486 35.3561 39.1552 35.2447 39.0604C35.1453 38.9735 35.0536 38.8821 34.9615 38.7894C34.8914 38.7214 34.8181 38.6576 34.7429 38.5937C34.644 38.5098 34.5504 38.4242 34.46 38.3333C34.3623 38.2352 34.2601 38.1432 34.1533 38.0524C34.0237 37.9421 33.9033 37.828 33.7849 37.7089C33.6806 37.6081 33.5684 37.5147 33.4569 37.4199C33.3576 37.3329 33.2658 37.2416 33.1737 37.1489C33.1037 37.0809 33.0303 37.0171 32.9552 36.9532C32.8563 36.8692 32.7626 36.7837 32.6723 36.6928C32.5745 36.5947 32.4724 36.5027 32.3656 36.4119C32.236 36.3016 32.1155 36.1875 31.9971 36.0684C31.9201 35.994 31.8393 35.9241 31.757 35.8541C31.6274 35.7438 31.5069 35.6298 31.3885 35.5106C31.2843 35.4098 31.172 35.3164 31.0606 35.2216C30.9612 35.1347 30.8695 35.0433 30.7774 34.9507C30.7073 34.8826 30.634 34.8188 30.5588 34.7549C30.4599 34.671 30.3663 34.5854 30.2759 34.4945C30.1782 34.3964 30.076 34.3044 29.9692 34.2136C29.8396 34.1033 29.7192 33.9893 29.6008 33.8701C29.4965 33.7693 29.3843 33.6759 29.2728 33.5811C29.1735 33.4942 29.0817 33.4028 28.9896 33.3101C28.9196 33.2421 28.8462 33.1783 28.7711 33.1144C28.6722 33.0304 28.5785 32.9449 28.4882 32.854C28.3904 32.7559 28.2883 32.6639 28.1815 32.5731C28.0519 32.4628 27.9314 32.3487 27.813 32.2296C27.7088 32.1288 27.5965 32.0354 27.4851 31.9406C27.3857 31.8536 27.294 31.7623 27.2019 31.6696C27.1318 31.6016 27.0585 31.5378 26.9833 31.4739C26.8844 31.3899 26.7907 31.3044 26.7004 31.2135C26.6027 31.1154 26.5005 31.0234 26.3937 30.9326C26.2641 30.8223 26.1437 30.7082 26.0253 30.5891C25.921 30.4883 25.8087 30.3949 25.6973 30.3001C25.598 30.2131 25.5062 30.1218 25.4141 30.0291C25.3441 29.9611 25.2707 29.8973 25.1956 29.8334C25.0967 29.7494 25.003 29.6639 24.9127 29.573C24.8149 29.4749 24.7128 29.3829 24.606 29.292C24.4764 29.1818 24.3559 29.0677 24.2375 28.9486C24.1333 28.8478 24.021 28.7544 23.9096 28.6596C23.8102 28.5726 23.7185 28.4813 23.6264 28.3886C23.5563 28.3206 23.483 28.2567 23.4078 28.1929C23.3089 28.1089 23.2152 28.0233 23.1249 27.9325C23.0272 27.8344 22.925 27.7424 22.8182 27.6515C22.6886 27.5413 22.5682 27.4272 22.4498 27.3081C22.3455 27.2073 22.2332 27.1138 22.1218 27.019C22.0225 26.9321 21.9307 26.8407 21.8386 26.7481C21.7686 26.6801 21.6952 26.6162 21.6201 26.5524C21.5212 26.4684 21.4275 26.3828 21.3372 26.292C21.2394 26.1938 21.1373 26.1019 21.0305 26.011C20.9009 25.9007 20.7804 25.7867 20.662 25.6675C20.585 25.5931 20.5042 25.5233 20.4219 25.4533C20.2923 25.343 20.1718 25.2289 20.0534 25.1098C19.9492 25.009 19.8369 24.9156 19.7255 24.8208C19.6261 24.7338 19.5344 24.6425 19.4423 24.5498C19.3722 24.4818 19.2989 24.418 19.2237 24.3541C19.1248 24.2701 19.0311 24.1846 18.9408 24.0937C18.8431 23.9956 18.7409 23.9036 18.6341 23.8127C18.5045 23.7025 18.3841 23.5884 18.2657 23.4693C18.1614 23.3685 18.0491 23.2751 17.9377 23.1803C17.8384 23.0933 17.7466 23.0019 17.6545 22.9093C17.5845 22.8413 17.5111 22.7774 17.436 22.7136C17.3371 22.6296 17.2434 22.544 17.1531 22.4532C17.0553 22.3551 16.9532 22.2631 16.8464 22.1722C16.716 22.0613 16.5946 21.9465 16.4754 21.8266C16.3842 21.738 16.2866 21.6557 16.1879 21.5734C16.1156 21.5093 16.0475 21.4438 15.9796 21.3763C15.8428 21.2406 15.7011 21.1094 15.5579 20.9788C15.3728 20.8093 15.1897 20.6387 15.0099 20.4651C14.8514 20.313 14.69 20.1632 14.5287 20.0133C14.4723 19.9605 14.4162 19.9075 14.3603 19.8544C14.0403 19.5523 13.7058 19.2628 13.3707 18.9732C13.3465 18.9523 13.3224 18.9314 13.2975 18.9098C13.0481 18.694 12.7994 18.4806 12.5292 18.2842C12.4893 18.2539 12.4494 18.2235 12.4097 18.193C11.8432 17.7635 11.2355 17.3731 10.5893 17.0374C10.5464 17.0151 10.5464 17.0151 10.5026 16.9924C9.58756 16.523 8.56121 16.1964 7.50824 16.0531C7.48354 16.0498 7.45885 16.0464 7.43341 16.0429C6.22511 15.8859 4.96395 15.9805 3.78059 16.2172C3.73658 16.226 3.73659 16.226 3.6917 16.2349C2.45988 16.4916 1.25133 17.0486 0.342204 17.8083C0.27676 17.8612 0.209369 17.9116 0.141062 17.9618C0.117355 17.9793 0.0936482 17.9967 0.069223 18.0147C0.0512951 18.0279 0.0333673 18.041 0.0148961 18.0546C0.0122816 16.3311 0.0102721 14.6076 0.00906889 12.8842C0.00892618 12.6805 0.00877856 12.4768 0.00862778 12.2731C0.00859785 12.2326 0.00856808 12.192 0.00853724 12.1502C0.00804134 11.4946 0.00714172 10.8389 0.006092 10.1832C0.00502311 9.50988 0.0043905 8.83658 0.00415926 8.16328C0.00400306 7.74815 0.00351093 7.33303 0.00258173 6.91791C0.00197635 6.63285 0.00179674 6.34779 0.00194445 6.06274C0.00201719 5.89852 0.0019091 5.73432 0.00129323 5.5701C-0.00400706 4.08366 -0.00400691 4.08366 0.231233 3.44581C0.240874 3.41902 0.250515 3.39222 0.260448 3.36462C0.715461 2.15443 1.86155 1.22319 3.13395 0.632334C4.55568 0.0100535 6.21663 -0.150701 7.7745 0.140181Z" fill="url(#paint0_linear_469_2636)"/>
<path d="M5.78302 20.279C5.8138 20.2788 5.84458 20.2786 5.8763 20.2784C5.94128 20.2781 6.00627 20.2779 6.07126 20.2778C6.16808 20.2775 6.26486 20.2764 6.36167 20.2754C6.96095 20.272 7.53958 20.3368 8.11444 20.4866C8.15259 20.4965 8.19074 20.5063 8.23005 20.5164C9.08599 20.7454 9.84862 21.1137 10.5132 21.6309C10.5662 21.6692 10.6193 21.7074 10.6724 21.7457C11.6647 22.5067 12.2909 23.6416 12.377 24.7806C12.3827 24.9886 12.3825 25.1966 12.3823 25.4046C12.3824 25.4684 12.3825 25.5322 12.3827 25.5961C12.383 25.7709 12.383 25.9458 12.3831 26.1207C12.3831 26.3095 12.3834 26.4983 12.3837 26.6871C12.3842 27.0997 12.3844 27.5124 12.3846 27.925C12.3847 28.1829 12.3849 28.4407 12.385 28.6986C12.3855 29.4132 12.3859 30.1277 12.386 30.8423C12.386 30.8884 12.386 30.9346 12.386 30.9808C12.3861 31.027 12.3861 31.0733 12.3861 31.1196C12.3861 31.2124 12.3861 31.3053 12.3861 31.3981C12.3861 31.4326 12.3861 31.4326 12.3861 31.4678C12.3863 32.2135 12.3869 32.9592 12.3878 33.7049C12.3887 34.4944 12.3892 35.2838 12.3893 36.0732C12.3893 36.5031 12.3895 36.933 12.3902 37.363C12.3908 37.7291 12.391 38.0953 12.3907 38.4615C12.3905 38.6481 12.3906 38.8347 12.3911 39.0213C12.3916 39.1926 12.3915 39.3639 12.3911 39.5352C12.391 39.5967 12.3911 39.6583 12.3915 39.7198C12.3942 40.2581 12.3531 40.8114 12.1606 41.3272C12.151 41.3539 12.1414 41.3805 12.1315 41.408C12.0301 41.6768 11.8891 41.9236 11.7304 42.1701C11.6967 42.2237 11.6967 42.2237 11.6624 42.2785C11.4343 42.6308 11.135 42.9257 10.8175 43.22C10.7923 43.2439 10.7671 43.2678 10.7411 43.2924C9.66479 44.272 8.00218 44.7985 6.45699 44.8343C4.75723 44.8533 3.06734 44.4319 1.80263 43.4168C1.77932 43.3982 1.75602 43.3795 1.73201 43.3603C1.39398 43.0864 1.09993 42.8037 0.851695 42.4653C0.825266 42.4294 0.798838 42.3934 0.771609 42.3564C0.450192 41.8941 0.202044 41.3896 0.0909495 40.8576C0.0846057 40.8275 0.0782621 40.7974 0.071726 40.7664C0.00787664 40.4271 0.00408775 40.0949 0.0049588 39.7519C0.00484373 39.6872 0.00469555 39.6226 0.0045177 39.5579C0.00412821 39.3814 0.00420945 39.2048 0.00437259 39.0282C0.00446672 38.8374 0.0041232 38.6465 0.00383862 38.4557C0.00335445 38.0822 0.00328517 37.7087 0.0033743 37.3352C0.00344222 37.0314 0.00337589 36.7277 0.00321411 36.424C0.00319147 36.3807 0.00316837 36.3374 0.00314504 36.2928C0.00311053 36.2269 0.00307601 36.161 0.00304115 36.0951C0.00272075 35.4829 0.00255553 34.8706 0.00271438 34.2583C0.00272033 34.2353 0.00272625 34.2122 0.00273238 34.1885C0.00276302 34.0716 0.00279536 33.9548 0.00282814 33.838C0.00283465 33.8147 0.00284117 33.7915 0.00284788 33.7676C0.00286106 33.7207 0.00287402 33.6738 0.00288734 33.6269C0.00309104 32.8971 0.00278986 32.1673 0.00208755 31.4374C0.00129836 30.6164 0.000891929 29.7954 0.00104457 28.9743C0.0010596 28.8867 0.0010734 28.799 0.00108636 28.7113C0.00109274 28.6682 0.00109893 28.6251 0.00110551 28.5806C0.00112213 28.2776 0.000860422 27.9745 0.000484478 27.6714C3.0439e-05 27.3016 -2.09895e-05 26.9318 0.000438626 26.562C0.000662013 26.3736 0.000706023 26.1851 0.000248254 25.9967C-0.000166822 25.8238 -4.39705e-05 25.6509 0.000486799 25.4779C0.000586924 25.4158 0.000499233 25.3536 0.000192535 25.2914C-0.00219202 24.7715 0.0494147 24.2561 0.231212 23.7574C0.240853 23.7304 0.250494 23.7034 0.260427 23.6757C0.361356 23.4056 0.499473 23.1569 0.661508 22.9105C0.680502 22.8815 0.680502 22.8815 0.69988 22.8519C0.865916 22.6021 1.05291 22.3742 1.2701 22.1558C1.29624 22.1293 1.32237 22.1027 1.3493 22.0753C2.44087 20.9964 4.11043 20.2871 5.78302 20.279Z" fill="url(#paint1_linear_469_2636)"/>
<path d="M49.1211 1.55085C49.1518 1.57522 49.1824 1.59958 49.214 1.62468C49.8771 2.1689 50.3495 2.90006 50.5975 3.65686C50.6049 3.67941 50.6123 3.70197 50.6199 3.7252C50.7527 4.15622 50.7678 4.57887 50.7666 5.02148C50.7668 5.08679 50.7669 5.1521 50.7671 5.21742C50.7675 5.396 50.7674 5.57458 50.7672 5.75316C50.7671 5.94611 50.7675 6.13907 50.7678 6.33202C50.7683 6.70971 50.7683 7.08739 50.7682 7.46508C50.7682 7.77219 50.7682 8.0793 50.7684 8.38641C50.7684 8.43061 50.7684 8.47481 50.7685 8.519C50.7685 8.58561 50.7685 8.65222 50.7686 8.71882C50.7689 9.33777 50.7691 9.95672 50.7689 10.5757C50.7689 10.599 50.7689 10.6223 50.7689 10.6463C50.7688 10.7645 50.7688 10.8826 50.7688 11.0007C50.7688 11.0359 50.7688 11.0359 50.7688 11.0718C50.7687 11.1193 50.7687 11.1667 50.7687 11.2142C50.7685 11.9521 50.7688 12.6901 50.7695 13.428C50.7703 14.2581 50.7707 15.0881 50.7706 15.9182C50.7705 16.0068 50.7705 16.0954 50.7705 16.184C50.7705 16.2058 50.7705 16.2277 50.7705 16.2501C50.7705 16.5786 50.7707 16.9071 50.7711 17.2356C50.7716 17.6095 50.7716 17.9834 50.7712 18.3572C50.7709 18.5478 50.7709 18.7384 50.7714 18.929C50.7718 19.1038 50.7717 19.2786 50.7711 19.4534C50.771 19.5163 50.7711 19.5792 50.7714 19.6421C50.7737 20.156 50.725 20.6595 50.5285 21.1488C50.5173 21.177 50.5062 21.2052 50.4947 21.2343C50.1975 21.9513 49.7128 22.5451 49.0831 23.0743C49.0645 23.0922 49.0459 23.1101 49.0268 23.1286C48.0109 24.0744 46.3548 24.5229 44.9026 24.5886C43.0243 24.6443 41.37 24.0837 39.9845 23.0094C38.9985 22.1986 38.4299 21.0233 38.3924 19.8567C38.3889 19.6706 38.3893 19.4844 38.3895 19.2983C38.3895 19.2354 38.3894 19.1726 38.3893 19.1097C38.389 18.9379 38.389 18.7661 38.3891 18.5943C38.3891 18.4087 38.3889 18.2231 38.3887 18.0374C38.3884 17.6741 38.3883 17.3107 38.3883 16.9474C38.3882 16.6519 38.3882 16.3564 38.388 16.0609C38.3878 15.3586 38.3875 14.6564 38.3876 13.9541C38.3876 13.9317 38.3876 13.9093 38.3876 13.8862C38.3876 13.7725 38.3876 13.6588 38.3876 13.5451C38.3876 13.5225 38.3876 13.5 38.3876 13.4767C38.3876 13.4311 38.3876 13.3854 38.3876 13.3398C38.3876 12.6298 38.3873 11.9198 38.3868 11.2098C38.3862 10.4111 38.3859 9.6124 38.3859 8.8137C38.3859 8.39119 38.3858 7.96869 38.3854 7.54618C38.3851 7.18643 38.385 6.82668 38.3852 6.46693C38.3854 6.28359 38.3854 6.10024 38.385 5.91689C38.3847 5.74866 38.3848 5.58043 38.3851 5.4122C38.3852 5.35173 38.3851 5.29125 38.3849 5.23078C38.3833 4.72894 38.3938 4.21008 38.5563 3.72453C38.5645 3.69902 38.5727 3.67351 38.5811 3.64723C39.015 2.33978 40.0658 1.33688 41.4196 0.677539C42.1676 0.326247 42.9909 0.126892 43.8339 0.0415848C43.8796 0.0368901 43.9253 0.0321955 43.9724 0.0273585C45.8655 -0.120926 47.7477 0.416789 49.1211 1.55085Z" fill="url(#paint2_linear_469_2636)"/>
<defs>
<linearGradient id="paint0_linear_469_2636" x1="25.3855" y1="0" x2="25.3855" y2="45" gradientUnits="userSpaceOnUse">
<stop stop-color="#157EFE"/>
<stop offset="1" stop-color="#010101"/>
</linearGradient>
<linearGradient id="paint1_linear_469_2636" x1="6.19579" y1="20.2753" x2="6.19579" y2="44.835" gradientUnits="userSpaceOnUse">
<stop stop-color="#157EFE"/>
<stop offset="1" stop-color="#010101"/>
</linearGradient>
<linearGradient id="paint2_linear_469_2636" x1="44.5782" y1="0.00320435" x2="44.5782" y2="24.5924" gradientUnits="userSpaceOnUse">
<stop stop-color="#157EFE"/>
<stop offset="1" stop-color="#010101"/>
</linearGradient>
</defs>
</svg>
