<svg width="18" height="14" viewBox="0 0 18 14" fill="none" xmlns="http://www.w3.org/2000/svg">
<path fill-rule="evenodd" clip-rule="evenodd" d="M0 0.75C0 0.335787 0.335786 0 0.75 0H17.25C17.6642 0 18 0.335787 18 0.75C18 1.16421 17.6642 1.5 17.25 1.5H0.75C0.335787 1.5 0 1.16421 0 0.75ZM0 6.79132C0 6.3771 0.335786 6.04132 0.75 6.04132H17.25C17.6642 6.04132 18 6.3771 18 6.79132C18 7.20553 17.6642 7.54132 17.25 7.54132H0.75C0.335787 7.54132 0 7.20553 0 6.79132ZM0.75 12.0331C0.335786 12.0331 0 12.3689 0 12.7831C0 13.1973 0.335787 13.5331 0.75 13.5331H17.25C17.6642 13.5331 18 13.1973 18 12.7831C18 12.3689 17.6642 12.0331 17.25 12.0331H0.75Z" fill="#010101"/>
</svg>
