<svg width="3" height="14" viewBox="0 0 3 14" fill="none" xmlns="http://www.w3.org/2000/svg">
<path d="M1.5 10.8889C1.89783 10.8889 2.27936 11.0528 2.56066 11.3445C2.84197 11.6362 3 12.0319 3 12.4444C3 12.857 2.84197 13.2527 2.56066 13.5444C2.27936 13.8361 1.89783 14 1.5 14C1.10218 14 0.720645 13.8361 0.43934 13.5444C0.158036 13.2527 -4.9962e-08 12.857 -6.79955e-08 12.4444C-8.6029e-08 12.0319 0.158036 11.6362 0.43934 11.3445C0.720645 11.0528 1.10218 10.8889 1.5 10.8889ZM1.5 5.44444C1.89782 5.44444 2.27936 5.60833 2.56066 5.90006C2.84196 6.19178 3 6.58744 3 7C3 7.41256 2.84196 7.80822 2.56066 8.09994C2.27936 8.39167 1.89783 8.55556 1.5 8.55556C1.10218 8.55556 0.720645 8.39167 0.43934 8.09994C0.158035 7.80822 -2.87946e-07 7.41256 -3.0598e-07 7C-3.24013e-07 6.58744 0.158035 6.19178 0.43934 5.90006C0.720644 5.60833 1.10218 5.44444 1.5 5.44444ZM1.5 -6.55671e-08C1.89782 -8.29566e-08 2.27936 0.163889 2.56066 0.455612C2.84196 0.747335 3 1.143 3 1.55556C3 1.96811 2.84196 2.36378 2.56066 2.6555C2.27936 2.94722 1.89782 3.11111 1.5 3.11111C1.10217 3.11111 0.720644 2.94722 0.43934 2.6555C0.158035 2.36378 -5.2593e-07 1.96811 -5.43964e-07 1.55556C-5.61997e-07 1.143 0.158035 0.747335 0.43934 0.455612C0.720644 0.163889 1.10217 -4.81776e-08 1.5 -6.55671e-08Z" fill="#9D9D9D"/>
</svg>
