<svg width="19" height="19" viewBox="0 0 19 19" fill="none" xmlns="http://www.w3.org/2000/svg">
<path d="M17.836 13.8399C17.6885 13.8389 17.5426 13.809 17.4067 13.7516C17.2708 13.6943 17.1475 13.6108 17.0439 13.5058C16.9402 13.4009 16.8583 13.2765 16.8027 13.1399C16.7472 13.0032 16.7191 12.857 16.72 12.7095V8.07988C16.72 6.17032 15.9614 4.33898 14.6112 2.98871C13.2609 1.63845 11.4296 0.879883 9.52 0.879883C7.61044 0.879883 5.77909 1.63845 4.42883 2.98871C3.07857 4.33898 2.32 6.17032 2.32 8.07988V12.7167C2.32001 13.0133 2.20266 13.2979 1.99357 13.5084C1.78449 13.7188 1.50064 13.838 1.204 13.8399C1.01305 13.8399 0.82991 13.9157 0.694884 14.0508C0.559858 14.1858 0.484001 14.3689 0.484001 14.5599C0.484001 14.7508 0.559858 14.934 0.694884 15.069C0.82991 15.204 1.01305 15.2799 1.204 15.2799H5.992C6.15725 16.0937 6.59877 16.8253 7.24174 17.3509C7.8847 17.8764 8.68958 18.1635 9.52 18.1635C10.3504 18.1635 11.1553 17.8764 11.7983 17.3509C12.4412 16.8253 12.8827 16.0937 13.048 15.2799H17.836C18.027 15.2799 18.2101 15.204 18.3451 15.069C18.4801 14.934 18.556 14.7508 18.556 14.5599C18.556 14.3689 18.4801 14.1858 18.3451 14.0508C18.2101 13.9157 18.027 13.8399 17.836 13.8399ZM9.52 16.7199C9.07436 16.7186 8.64002 16.5796 8.27651 16.3218C7.91301 16.064 7.63815 15.7 7.4896 15.2799H11.5504C11.4019 15.7 11.127 16.064 10.7635 16.3218C10.4 16.5796 9.96564 16.7186 9.52 16.7199ZM3.508 13.8399C3.67666 13.4871 3.76284 13.1005 3.76 12.7095V8.07988C3.76 6.55224 4.36686 5.08716 5.44707 4.00695C6.52728 2.92674 7.99235 2.31988 9.52 2.31988C11.0476 2.31988 12.5127 2.92674 13.5929 4.00695C14.6731 5.08716 15.28 6.55224 15.28 8.07988V12.7167C15.2783 13.1053 15.3644 13.4893 15.532 13.8399H3.508Z" fill="#323232"/>
</svg>
