<svg width="253" height="248" viewBox="0 0 253 248" fill="none" xmlns="http://www.w3.org/2000/svg">
<path fill-rule="evenodd" clip-rule="evenodd" d="M117.032 7.67348e-06C52.4236 3.43726e-06 2.69385e-05 54.5869 2.23873e-05 123.999C1.78362e-05 193.41 52.4236 247.997 117.032 247.997C127.105 247.997 135.271 192.481 135.271 123.999C135.271 55.5161 127.105 8.33393e-06 117.032 7.67348e-06ZM63.0536 17.4504C27.3168 37.6316 3.03983 77.3953 3.03983 123.999C3.03982 170.602 27.3168 210.366 63.0537 230.547C32.5287 209.034 12.1592 169.665 12.1592 123.999C12.1592 78.3319 32.5287 38.9629 63.0536 17.4504ZM15.199 123.999C15.199 76.2311 37.9429 35.7855 71.0344 16.0948C43.0497 37.3164 24.3185 77.4608 24.3184 123.999C24.3184 170.536 43.0498 210.681 71.0344 231.902C37.9429 212.212 15.199 171.766 15.199 123.999ZM78.7789 14.6406C48.4807 33.7111 27.3583 74.9043 27.3583 123.999C27.3582 173.093 48.4807 214.286 78.7789 233.357C71.7859 227.602 65.4299 220.315 59.8994 211.796C45.3959 189.455 36.4777 158.527 36.4777 123.999C36.4777 89.4704 45.3959 58.5424 59.8994 36.2013C65.4299 27.6822 71.7859 20.3956 78.7789 14.6406ZM62.3933 38.067C69.2082 27.5694 77.2458 19.0906 86.1245 13.1306C79.5122 19.134 73.5477 26.9979 68.435 36.3054C56.1706 58.6322 48.6369 89.522 48.6369 123.999C48.6369 158.475 56.1706 189.365 68.435 211.692C73.5477 220.999 79.5122 228.863 86.1245 234.867C77.2458 228.907 69.2082 220.428 62.3933 209.93C48.2918 188.208 39.5175 157.953 39.5175 123.999C39.5175 90.0443 48.2918 59.7888 62.3933 38.067ZM92.9171 11.6784C84.723 17.6432 77.2959 26.5988 71.0534 37.9629C59.1136 59.699 51.6767 89.9927 51.6767 123.999C51.6767 158.005 59.1136 188.298 71.0534 210.034C77.2959 221.399 84.723 230.354 92.9171 236.319C86.8903 230.109 81.5085 221.663 76.9732 211.572C66.9507 189.272 60.7961 158.427 60.7961 123.999C60.7961 89.5707 66.9507 58.7253 76.9732 36.4252C81.5085 26.3341 86.8903 17.8884 92.9171 11.6784ZM79.711 37.8431C85.2508 25.517 91.8899 16.1011 99.1716 10.2302C93.977 16.5463 89.3655 25.5511 85.5169 36.5609C77.7357 58.8208 72.9553 89.6165 72.9553 123.999C72.9553 158.381 77.7357 189.176 85.5169 211.436C89.3655 222.446 93.977 231.451 99.1715 237.767C91.8899 231.896 85.2508 222.48 79.711 210.154C69.93 188.391 63.8359 158.053 63.8359 123.999C63.8359 89.944 69.93 59.6059 79.711 37.8431ZM104.827 8.78091C103.74 9.78753 102.663 10.9302 101.601 12.2077C96.6788 18.1259 92.1757 26.8 88.363 37.7073C80.7415 59.5103 75.9951 89.8983 75.9951 123.999C75.9951 158.099 80.7415 188.487 88.3629 210.29C92.1757 221.197 96.6788 229.871 101.601 235.79C102.663 237.067 103.74 238.21 104.827 239.216C104.52 238.744 104.217 238.256 103.919 237.753C100.163 231.432 96.8391 222.377 94.0697 211.286C88.525 189.079 85.1145 158.338 85.1145 123.999C85.1145 89.6593 88.5251 58.9182 94.0697 36.7117C96.8391 25.6204 100.163 16.5649 103.919 10.2438C104.217 9.74132 104.52 9.25337 104.827 8.78091ZM106.482 11.9983C108.195 9.11396 109.918 6.98348 111.621 5.54892C104.19 21.2227 98.7936 68.326 98.7936 123.999C98.7936 179.671 104.19 226.775 111.621 242.448C109.918 241.014 108.195 238.883 106.482 235.999C102.963 230.077 99.7375 221.381 97.0059 210.441C91.5486 188.584 88.1543 158.142 88.1543 123.999C88.1543 89.8554 91.5486 59.413 97.0059 37.5565C99.7375 26.6165 102.963 17.9206 106.482 11.9983ZM118.302 243.485C117.57 244.503 117.138 244.695 117.032 244.729C116.927 244.695 116.495 244.503 115.763 243.485C114.844 242.206 113.826 240.116 112.781 237.112C110.704 231.138 108.777 222.308 107.138 211.17C103.869 188.945 101.833 158.124 101.833 123.999C101.833 89.8733 103.869 59.0519 107.138 36.8273C108.777 25.6893 110.704 16.8588 112.781 10.8856C113.826 7.88081 114.844 5.79129 115.763 4.51264C116.495 3.49466 116.927 3.3021 117.032 3.26845C117.138 3.3021 117.57 3.49467 118.302 4.51264C119.221 5.79129 120.239 7.88081 121.284 10.8856C123.361 16.8588 125.288 25.6893 126.927 36.8273C130.196 59.0519 132.231 89.8733 132.231 123.999C132.231 158.124 130.196 188.945 126.927 211.17C125.288 222.308 123.361 231.138 121.284 237.112C120.239 240.116 119.221 242.206 118.302 243.485Z" fill="url(#paint0_linear_223_6522)"/>
<path fill-rule="evenodd" clip-rule="evenodd" d="M135.5 0.00273891C200.109 0.00274314 252.532 54.5897 252.532 124.001C252.532 193.413 200.109 248 135.5 248C125.427 248 117.261 192.484 117.261 124.001C117.261 55.5188 125.427 0.00273825 135.5 0.00273891ZM189.479 17.4531C225.215 37.6344 249.492 77.398 249.492 124.001C249.492 170.605 225.215 210.368 189.479 230.55C220.003 209.037 240.373 169.668 240.373 124.001C240.373 78.3346 220.004 38.9657 189.479 17.4531ZM237.333 124.001C237.333 76.2338 214.589 35.7882 181.498 16.0976C209.483 37.3192 228.214 77.4635 228.214 124.001C228.214 170.539 209.482 210.684 181.498 231.905C214.589 212.215 237.333 171.769 237.333 124.001ZM173.753 14.6434C204.052 33.7138 225.174 74.907 225.174 124.001C225.174 173.096 204.052 214.289 173.753 233.359C180.746 227.604 187.102 220.318 192.633 211.799C207.136 189.458 216.055 158.53 216.055 124.001C216.055 89.4732 207.136 58.5451 192.633 36.204C187.102 27.6849 180.746 20.3984 173.753 14.6434ZM190.139 38.0697C183.324 27.5722 175.286 19.0933 166.408 13.1333C173.02 19.1367 178.985 27.0006 184.097 36.3082C196.362 58.635 203.895 89.5247 203.895 124.001C203.895 158.478 196.362 189.368 184.097 211.695C178.985 221.002 173.02 228.866 166.408 234.869C175.286 228.909 183.324 220.431 190.139 209.933C204.24 188.211 213.015 157.956 213.015 124.001C213.015 90.047 204.24 59.7916 190.139 38.0697ZM159.615 11.6811C167.809 17.6459 175.236 26.6015 181.479 37.9656C193.419 59.7017 200.856 89.9955 200.856 124.001C200.856 158.007 193.419 188.301 181.479 210.037C175.236 221.401 167.809 230.357 159.615 236.322C165.642 230.112 171.024 221.666 175.559 211.575C185.582 189.275 191.736 158.429 191.736 124.001C191.736 89.5735 185.582 58.728 175.559 36.4279C171.024 26.3368 165.642 17.8912 159.615 11.6811ZM172.821 37.8458C167.281 25.5197 160.642 16.1039 153.361 10.2329C158.555 16.5491 163.167 25.5538 167.015 36.5637C174.797 58.8236 179.577 89.6192 179.577 124.001C179.577 158.384 174.797 189.179 167.015 211.439C163.167 222.449 158.555 231.454 153.361 237.77C160.642 231.899 167.281 222.483 172.821 210.157C182.602 188.394 188.696 158.056 188.696 124.001C188.696 89.9467 182.602 59.6086 172.821 37.8458ZM147.705 8.78364C148.793 9.79026 149.869 10.933 150.931 12.2104C155.853 18.1286 160.357 26.8027 164.169 37.7101C171.791 59.5131 176.537 89.901 176.537 124.001C176.537 158.102 171.791 188.49 164.169 210.293C160.356 221.2 155.853 229.874 150.931 235.792C149.869 237.07 148.793 238.212 147.705 239.219C148.012 238.747 148.315 238.259 148.614 237.756C152.369 231.435 155.693 222.38 158.463 211.288C164.007 189.082 167.418 158.341 167.418 124.001C167.418 89.662 164.007 58.9209 158.463 36.7145C155.693 25.6231 152.369 16.5677 148.614 10.2465C148.315 9.74405 148.012 9.2561 147.705 8.78364ZM146.051 12.0011C144.337 9.11669 142.614 6.98621 140.911 5.55166C148.342 21.2255 153.739 68.3288 153.739 124.001C153.739 179.674 148.342 226.777 140.911 242.451C142.614 241.017 144.337 238.886 146.051 236.002C149.569 230.079 152.795 221.384 155.526 210.443C160.984 188.587 164.378 158.145 164.378 124.001C164.378 89.8582 160.984 59.4157 155.526 37.5593C152.795 26.6192 149.569 17.9234 146.051 12.0011ZM134.231 243.487C134.962 244.505 135.395 244.698 135.5 244.732C135.605 244.698 136.037 244.505 136.769 243.487C137.688 242.209 138.706 240.119 139.751 237.114C141.829 231.141 143.756 222.311 145.394 211.173C148.663 188.948 150.699 158.127 150.699 124.001C150.699 89.8761 148.663 59.0547 145.394 36.83C143.756 25.692 141.829 16.8616 139.751 10.8884C138.706 7.88355 137.688 5.79403 136.769 4.51537C136.037 3.4974 135.605 3.30483 135.5 3.27118C135.395 3.30483 134.962 3.4974 134.231 4.51537C133.312 5.79403 132.293 7.88355 131.248 10.8884C129.171 16.8616 127.244 25.692 125.606 36.83C122.337 59.0547 120.301 89.8761 120.301 124.001C120.301 158.127 122.337 188.948 125.606 211.173C127.244 222.311 129.171 231.141 131.248 237.114C132.293 240.119 133.312 242.209 134.231 243.487Z" fill="url(#paint1_linear_223_6522)"/>
<defs>
<linearGradient id="paint0_linear_223_6522" x1="-6.93459" y1="131.607" x2="141.628" y2="123.545" gradientUnits="userSpaceOnUse">
<stop stop-color="white"/>
<stop offset="1" stop-color="white" stop-opacity="0"/>
</linearGradient>
<linearGradient id="paint1_linear_223_6522" x1="274.063" y1="122.396" x2="110.838" y2="123.782" gradientUnits="userSpaceOnUse">
<stop stop-color="white"/>
<stop offset="1" stop-color="white" stop-opacity="0"/>
</linearGradient>
</defs>
</svg>
