<svg width="249" height="254" viewBox="0 0 249 254" fill="none" xmlns="http://www.w3.org/2000/svg">
<path fill-rule="evenodd" clip-rule="evenodd" d="M0.266121 136.234C0.266117 200.843 54.853 253.266 124.265 253.266C193.676 253.266 248.263 200.843 248.263 136.234C248.263 126.161 192.747 117.995 124.265 117.995C55.7822 117.995 0.266122 126.161 0.266121 136.234ZM17.7165 190.212C37.8977 225.949 77.6614 250.226 124.265 250.226C170.868 250.226 210.632 225.949 230.813 190.212C209.3 220.737 169.931 241.107 124.265 241.107C78.598 241.107 39.2291 220.737 17.7165 190.212ZM124.265 238.067C76.4972 238.067 36.0516 215.323 16.361 182.232C37.5825 210.216 77.7269 228.948 124.265 228.948C170.803 228.948 210.947 210.216 232.169 182.232C212.478 215.323 172.032 238.067 124.265 238.067ZM14.9067 174.487C33.9772 204.785 75.1704 225.908 124.265 225.908C173.359 225.908 214.552 204.785 233.623 174.487C227.868 181.48 220.581 187.836 212.062 193.367C189.721 207.87 158.793 216.788 124.265 216.788C89.7365 216.788 58.8085 207.87 36.4674 193.367C27.9483 187.836 20.6618 181.48 14.9067 174.487ZM38.3331 190.873C27.8355 184.058 19.3567 176.02 13.3967 167.142C19.4001 173.754 27.264 179.718 36.5715 184.831C58.8983 197.096 89.7881 204.629 124.265 204.629C158.741 204.629 189.631 197.096 211.958 184.831C221.265 179.718 229.129 173.754 235.133 167.142C229.173 176.02 220.694 184.058 210.196 190.873C188.475 204.974 158.219 213.749 124.265 213.749C90.3104 213.749 60.0549 204.974 38.3331 190.873ZM11.9445 160.349C17.9093 168.543 26.8649 175.97 38.229 182.213C59.9651 194.153 90.2589 201.589 124.265 201.589C158.271 201.589 188.564 194.153 210.301 182.213C221.665 175.97 230.62 168.543 236.585 160.349C230.375 166.376 221.929 171.758 211.838 176.293C189.538 186.315 158.693 192.47 124.265 192.47C89.8368 192.47 58.9914 186.315 36.6913 176.293C26.6002 171.758 18.1545 166.376 11.9445 160.349ZM38.1092 173.555C25.7831 168.015 16.3673 161.376 10.4963 154.095C16.8124 159.289 25.8172 163.901 36.8271 167.749C59.0869 175.53 89.8826 180.311 124.265 180.311C158.647 180.311 189.443 175.53 211.702 167.749C222.712 163.901 231.717 159.289 238.033 154.095C232.162 161.376 222.746 168.015 210.42 173.555C188.657 183.336 158.319 189.43 124.265 189.43C90.2101 189.43 59.872 183.336 38.1092 173.555ZM9.04702 148.439C10.0536 149.526 11.1963 150.603 12.4738 151.665C18.392 156.587 27.0661 161.09 37.9735 164.903C59.7765 172.525 90.1644 177.271 124.265 177.271C158.365 177.271 188.753 172.525 210.556 164.903C221.463 161.09 230.137 156.587 236.056 151.665C237.333 150.603 238.476 149.526 239.482 148.439C239.01 148.746 238.522 149.049 238.02 149.347C231.698 153.103 222.643 156.427 211.552 159.196C189.345 164.741 158.604 168.152 124.265 168.152C89.9254 168.152 59.1843 164.741 36.9779 159.196C25.8865 156.427 16.831 153.103 10.5099 149.347C10.0074 149.049 9.51948 148.746 9.04702 148.439ZM12.2645 146.784C9.38007 145.071 7.24959 143.348 5.81504 141.645C21.4888 149.076 68.5922 154.473 124.265 154.473C179.937 154.473 227.041 149.076 242.714 141.645C241.28 143.348 239.149 145.071 236.265 146.784C230.343 150.303 221.647 153.529 210.707 156.26C188.85 161.718 158.408 165.112 124.265 165.112C90.1215 165.112 59.6791 161.718 37.8227 156.26C26.8826 153.529 18.1867 150.303 12.2645 146.784ZM243.751 134.965C244.769 135.696 244.961 136.129 244.995 136.234C244.961 136.339 244.769 136.771 243.751 137.503C242.472 138.422 240.383 139.44 237.378 140.485C231.405 142.562 222.574 144.49 211.436 146.128C189.211 149.397 158.39 151.433 124.265 151.433C90.1394 151.433 59.318 149.397 37.0934 146.128C25.9554 144.49 17.125 142.562 11.1518 140.485C8.14693 139.44 6.05741 138.422 4.77876 137.503C3.76078 136.771 3.56821 136.339 3.53456 136.234C3.56821 136.129 3.76078 135.696 4.77876 134.965C6.05741 134.045 8.14693 133.027 11.1518 131.982C17.125 129.905 25.9554 127.978 37.0934 126.339C59.318 123.07 90.1395 121.035 124.265 121.035C158.39 121.035 189.211 123.071 211.436 126.34C222.574 127.978 231.405 129.905 237.378 131.982C240.383 133.027 242.472 134.045 243.751 134.965Z" fill="url(#paint0_linear_223_6563)"/>
<path fill-rule="evenodd" clip-rule="evenodd" d="M0.268852 117.766C0.268856 53.1575 54.8558 0.73389 124.267 0.733895C193.679 0.733899 248.266 53.1575 248.266 117.766C248.266 127.839 192.75 136.005 124.267 136.005C55.7849 136.005 0.268852 127.839 0.268852 117.766ZM17.7192 63.7875C37.9005 28.0506 77.6642 3.7737 124.267 3.7737C170.871 3.7737 210.635 28.0507 230.816 63.7876C209.303 33.2626 169.934 12.8931 124.267 12.8931C78.6008 12.8931 39.2318 33.2625 17.7192 63.7875ZM124.267 15.9329C76.4999 15.9329 36.0543 38.6767 16.3637 71.7683C37.5853 43.7836 77.7296 25.0523 124.267 25.0523C170.805 25.0523 210.95 43.7837 232.171 71.7683C212.481 38.6768 172.035 15.9329 124.267 15.9329ZM14.9095 79.5128C33.9799 49.2145 75.1731 28.0921 124.267 28.0921C173.362 28.0921 214.555 49.2146 233.626 79.5128C227.871 72.5198 220.584 66.1637 212.065 60.6332C189.724 46.1297 158.796 37.2115 124.267 37.2115C89.7393 37.2115 58.8112 46.1297 36.4702 60.6332C27.951 66.1637 20.6645 72.5198 14.9095 79.5128ZM38.3358 63.1272C27.8383 69.942 19.3594 77.9796 13.3994 86.8584C19.4028 80.246 27.2667 74.2816 36.5743 69.1688C58.9011 56.9045 89.7908 49.3707 124.267 49.3707C158.744 49.3707 189.634 56.9045 211.961 69.1688C221.268 74.2816 229.132 80.2461 235.136 86.8584C229.176 77.9797 220.697 69.9421 210.199 63.1272C188.477 49.0257 158.222 40.2513 124.267 40.2513C90.3131 40.2513 60.0577 49.0257 38.3358 63.1272ZM11.9473 93.651C17.912 85.4569 26.8676 78.0297 38.2317 71.7873C59.9678 59.8474 90.2616 52.4105 124.267 52.4105C158.273 52.4106 188.567 59.8474 210.303 71.7873C221.667 78.0298 230.623 85.4569 236.588 93.651C230.378 87.6242 221.932 82.2423 211.841 77.707C189.541 67.6846 158.695 61.53 124.267 61.53C89.8396 61.53 58.9941 67.6846 36.694 77.707C26.6029 82.2423 18.1573 87.6241 11.9473 93.651ZM38.112 80.4448C25.7858 85.9847 16.37 92.6237 10.4991 99.9054C16.8152 94.7108 25.82 90.0994 36.8298 86.2508C59.0897 78.4696 89.8853 73.6892 124.267 73.6892C158.65 73.6892 189.445 78.4696 211.705 86.2508C222.715 90.0994 231.72 94.7108 238.036 99.9054C232.165 92.6238 222.749 85.9847 210.423 80.4449C188.66 70.6639 158.322 64.5698 124.267 64.5698C90.2128 64.5698 59.8748 70.6639 38.112 80.4448ZM9.04976 105.561C10.0564 104.474 11.1991 103.397 12.4765 102.335C18.3948 97.4127 27.0688 92.9096 37.9762 89.0968C59.7792 81.4753 90.1671 76.729 124.267 76.729C158.368 76.729 188.756 81.4753 210.559 89.0968C221.466 92.9096 230.14 97.4127 236.058 102.335C237.336 103.397 238.479 104.474 239.485 105.561C239.013 105.254 238.525 104.951 238.022 104.653C231.701 100.897 222.646 97.573 211.554 94.8036C189.348 89.2589 158.607 85.8484 124.267 85.8484C89.9281 85.8484 59.1871 89.2589 36.9806 94.8036C25.8892 97.5729 16.8338 100.897 10.5126 104.653C10.0102 104.951 9.52221 105.254 9.04976 105.561ZM12.2672 107.216C9.3828 108.929 7.25232 110.652 5.81777 112.355C21.4916 104.924 68.5949 99.5275 124.267 99.5275C179.94 99.5275 227.043 104.924 242.717 112.355C241.283 110.652 239.152 108.929 236.268 107.216C230.346 103.697 221.65 100.471 210.71 97.7398C188.853 92.2825 158.411 88.8882 124.267 88.8882C90.1243 88.8882 59.6818 92.2825 37.8254 97.7397C26.8853 100.471 18.1895 103.697 12.2672 107.216ZM243.753 119.035C244.771 118.304 244.964 117.871 244.998 117.766C244.964 117.661 244.771 117.229 243.753 116.497C242.475 115.578 240.385 114.56 237.38 113.515C231.407 111.438 222.577 109.51 211.439 107.872C189.214 104.603 158.393 102.567 124.267 102.567C90.1422 102.567 59.3208 104.603 37.0961 107.872C25.9581 109.51 17.1277 111.438 11.1545 113.515C8.14966 114.56 6.06014 115.578 4.78149 116.497C3.76351 117.229 3.57094 117.661 3.5373 117.766C3.57094 117.871 3.76351 118.304 4.78149 119.035C6.06014 119.955 8.14966 120.973 11.1545 122.018C17.1277 124.095 25.9581 126.022 37.0961 127.661C59.3208 130.93 90.1422 132.965 124.267 132.965C158.393 132.965 189.214 130.93 211.439 127.661C222.577 126.022 231.407 124.095 237.38 122.018C240.385 120.973 242.475 119.955 243.753 119.035Z" fill="url(#paint1_linear_223_6563)"/>
<defs>
<linearGradient id="paint0_linear_223_6563" x1="131.873" y1="260.201" x2="123.811" y2="111.639" gradientUnits="userSpaceOnUse">
<stop stop-color="white"/>
<stop offset="1" stop-color="white" stop-opacity="0"/>
</linearGradient>
<linearGradient id="paint1_linear_223_6563" x1="122.663" y1="-20.7965" x2="124.048" y2="142.428" gradientUnits="userSpaceOnUse">
<stop stop-color="white"/>
<stop offset="1" stop-color="white" stop-opacity="0"/>
</linearGradient>
</defs>
</svg>
