<svg width="70" height="90" viewBox="0 0 70 90" fill="none" xmlns="http://www.w3.org/2000/svg">
<path d="M43.7641 25.6698C46.4057 25.6722 49.0171 26.2458 51.4279 27.3529C53.8388 28.4601 55.995 30.076 57.7561 32.0952L63.2692 26.9978C59.7403 22.9729 55.1105 20.1324 49.9838 18.8471C44.8572 17.5616 39.4719 17.891 34.5305 19.7922C29.5891 21.6934 25.3212 25.078 22.2837 29.5044C19.2461 33.931 17.5801 39.1936 17.5028 44.606C17.4256 50.0182 18.9408 55.3288 21.8506 59.8445C24.7606 64.3603 28.9301 67.8716 33.8151 69.9203C38.7 71.9689 44.0738 72.4598 49.2349 71.3289C54.3959 70.198 59.1049 67.4977 62.7472 63.5806L57.3592 58.333C55.2129 60.6351 52.5439 62.3557 49.5908 63.3412C46.6378 64.3267 43.4925 64.5464 40.4365 63.9805C37.3803 63.4147 34.5087 62.0811 32.0779 60.0987C29.6472 58.1164 27.7332 55.5473 26.5073 52.6209C25.2812 49.6945 24.7812 46.5021 25.0521 43.3292C25.323 40.1561 26.3562 37.1014 28.0594 34.4382C29.7627 31.7749 32.0828 29.5859 34.8125 28.067C37.5421 26.548 40.5961 25.7465 43.7017 25.734L43.7641 25.6698Z" fill="white"/>
<path d="M18.8462 19.301L13.4069 14.0385C9.15775 18.0974 5.78604 22.922 3.48519 28.2354C1.18448 33.5487 0 39.246 0 45C0 50.754 1.18448 56.4513 3.48519 61.7646C5.78604 67.078 9.15775 71.9026 13.4069 75.9615L18.8462 70.699C15.3035 67.3386 12.4908 63.3368 10.5711 58.9253C8.65146 54.5139 7.66298 49.7807 7.66298 45C7.66298 40.2193 8.65146 35.4861 10.5711 31.0747C12.4908 26.6632 15.3035 22.6614 18.8462 19.301Z" fill="white"/>
<path d="M70 9.29369C62.5836 3.61951 53.622 0.56536 44.4231 0.576937V8.21757C52.0134 8.2103 59.4093 10.7203 65.5411 15.3846L70 9.29369Z" fill="white"/>
<path d="M44.4231 81.8854V89.4231C53.028 89.4328 61.4488 86.924 68.6538 82.2039L64.4214 75.9615C58.4675 79.8371 51.5203 81.8951 44.4231 81.8854Z" fill="white"/>
<path d="M44.4231 72.5759C38.594 72.5719 32.9067 70.8287 28.1314 67.5819C23.3559 64.3351 19.7229 59.7415 17.7239 54.4231L10.7692 57.56C13.3882 64.1648 18.0055 69.8441 24.013 73.8497C30.0204 77.8555 37.1362 79.9996 44.4231 80V72.5759Z" fill="white"/>
<path d="M16.8498 43.6539C17.3013 36.5724 20.402 29.9297 25.5227 25.0734C30.6433 20.2173 37.4005 17.5113 44.4231 17.5044V10C35.4298 9.99973 26.7808 13.4933 20.2658 19.7576C13.7508 26.0221 9.86866 34.5777 9.42308 43.6539H16.8498Z" fill="white"/>
</svg>
