<svg width="71" height="71" viewBox="0 0 71 71" fill="none" xmlns="http://www.w3.org/2000/svg">
<rect x="12.7441" y="12.7446" width="45.5106" height="45.5106" rx="22.7553" fill="#157EFE"/>
<path d="M27.5 35.2254C27.5 34.8457 27.7822 34.5319 28.1482 34.4822L28.25 34.4754L41.434 34.476L36.671 29.7325C36.3775 29.4402 36.3765 28.9653 36.6687 28.6718C36.9344 28.405 37.351 28.3799 37.6451 28.5971L37.7294 28.6695L43.7794 34.6935C43.8181 34.7321 43.8517 34.7737 43.8802 34.8178C43.8883 34.831 43.8965 34.8446 43.9042 34.8584C43.9114 34.8703 43.9178 34.8826 43.9239 34.895C43.9324 34.9131 43.9407 34.9319 43.9482 34.9509C43.9543 34.9657 43.9594 34.98 43.964 34.9944C43.9696 35.0123 43.9749 35.0314 43.9796 35.0507C43.983 35.0642 43.9857 35.0773 43.9881 35.0903C43.9914 35.1097 43.9943 35.1299 43.9963 35.1502C43.998 35.1657 43.9991 35.1811 43.9997 35.1965C43.9998 35.2058 44 35.2156 44 35.2254L43.9996 35.2545C43.999 35.2692 43.998 35.2839 43.9966 35.2986L44 35.2254C44 35.2727 43.9956 35.319 43.9872 35.3639C43.9853 35.3747 43.983 35.3857 43.9804 35.3966C43.9751 35.4192 43.9689 35.4409 43.9618 35.4623C43.9584 35.4728 43.9543 35.4842 43.95 35.4954C43.9412 35.518 43.9317 35.5395 43.9212 35.5604C43.9163 35.5703 43.9109 35.5806 43.9052 35.5908C43.8958 35.6075 43.8861 35.6233 43.8759 35.6387C43.8687 35.6496 43.8607 35.661 43.8524 35.6722L43.8459 35.6808C43.8257 35.7072 43.8038 35.7323 43.7803 35.7557L43.7794 35.7564L37.7294 41.7814C37.4359 42.0737 36.9611 42.0727 36.6688 41.7792C36.4031 41.5124 36.3797 41.0957 36.5982 40.8025L36.671 40.7186L41.432 35.976L28.25 35.9754C27.8358 35.9754 27.5 35.6396 27.5 35.2254Z" fill="white"/>
<ellipse opacity="0.38" cx="35.5" cy="35.5" rx="34.5" ry="34.5" stroke="white" stroke-width="2"/>
<path d="M70 35.5C70 16.4462 54.5538 1 35.5 1" stroke="#157EFE" stroke-width="2" stroke-linecap="round"/>
</svg>
