<svg width="30" height="23" viewBox="0 0 30 23" fill="none" xmlns="http://www.w3.org/2000/svg">
<mask id="mask0_223_6828" style="mask-type:luminance" maskUnits="userSpaceOnUse" x="0" y="0" width="30" height="23">
<path d="M0 0H29.9971V22.5H0V0Z" fill="white"/>
</mask>
<g mask="url(#mask0_223_6828)">
<path fill-rule="evenodd" clip-rule="evenodd" d="M-1.87646 0H31.8735V22.5H-1.87646V0Z" fill="#0C590B"/>
<path fill-rule="evenodd" clip-rule="evenodd" d="M-1.87646 0H6.58301V22.5H-1.87646V0Z" fill="white"/>
<path fill-rule="evenodd" clip-rule="evenodd" d="M20.0391 9.90527L18.668 9.61523L17.9473 10.8149L17.7979 9.42627L16.4355 9.10986L17.71 8.53857L17.5913 7.14551L18.5317 8.18262L19.8193 7.6377L19.1206 8.85059L20.0435 9.90527H20.0391Z" fill="white"/>
<path fill-rule="evenodd" clip-rule="evenodd" d="M20.5532 13.4473C20.2608 14.0854 19.845 14.6595 19.3299 15.1365C18.8148 15.6134 18.2106 15.9838 17.5518 16.2264C16.8931 16.469 16.1929 16.579 15.4915 16.55C14.7901 16.521 14.1013 16.3537 13.4648 16.0576C12.1735 15.4597 11.1725 14.3733 10.6821 13.0374C10.1918 11.7015 10.2522 10.2255 10.8501 8.93408C11.147 8.27025 11.5796 7.6759 12.12 7.18925C12.6603 6.70261 13.2966 6.33443 13.9878 6.1084C13.8068 6.25907 13.6337 6.41895 13.4692 6.5874C12.6118 7.53692 12.1567 8.78228 12.1998 10.0609C12.2428 11.3395 12.7807 12.5514 13.7 13.4411C14.6194 14.3308 15.8482 14.8287 17.1276 14.8298C18.4069 14.831 19.6367 14.3353 20.5576 13.4473H20.5532Z" fill="white"/>
</g>
</svg>
