<svg width="30" height="23" viewBox="0 0 30 23" fill="none" xmlns="http://www.w3.org/2000/svg">
<mask id="mask0_223_6850" style="mask-type:luminance" maskUnits="userSpaceOnUse" x="0" y="0" width="31" height="23">
<path d="M0 0H30.0015V22.5H0V0Z" fill="white"/>
</mask>
<g mask="url(#mask0_223_6850)">
<path fill-rule="evenodd" clip-rule="evenodd" d="M-4.68896 0H34.686V22.5H-4.68896V0Z" fill="white"/>
<path fill-rule="evenodd" clip-rule="evenodd" d="M-4.68896 15.1084H34.686V22.5H-4.68896V15.1084Z" fill="#DA0000"/>
<path fill-rule="evenodd" clip-rule="evenodd" d="M2.79932 15.4248H4.95264V15.5698H2.79932V15.4248ZM3.12012 16.1631H3.26953V16.3081H3.12012V16.1631ZM4.96143 16.1631V16.3081H4.53076V16.1587L4.96143 16.1631ZM5.18994 15.4248H5.33936V16.3037H5.18994V15.4248Z" fill="white"/>
<path fill-rule="evenodd" clip-rule="evenodd" d="M6.05127 16.1587V16.3081H5.23389V16.1587H6.05127ZM4.53076 15.8115H4.67139V16.3081H4.52637L4.53076 15.8115Z" fill="white"/>
<path fill-rule="evenodd" clip-rule="evenodd" d="M5.92822 15.4248H6.07764V16.3037H5.92822V15.4248ZM5.55908 15.4248H5.7041V16.3037H5.55908V15.4248ZM3.59033 15.7764V15.9258H2.79932V15.7764H3.59033ZM5.31738 15.7764V15.9258H4.52637V15.7764H5.31738Z" fill="white"/>
<path fill-rule="evenodd" clip-rule="evenodd" d="M4.53076 15.8159H4.67139V16.3037H4.52637L4.53076 15.8159Z" fill="white"/>
<path fill-rule="evenodd" clip-rule="evenodd" d="M4.53076 15.8159H4.67139V16.3037H4.52637L4.53076 15.8159Z" fill="white"/>
<path fill-rule="evenodd" clip-rule="evenodd" d="M4.53076 15.8159H4.67139V16.3037H4.52637L4.53076 15.8159ZM2.80371 15.8159H2.94873V16.3037H2.80371V15.8159ZM4.06934 15.8159H4.21875V16.3037H4.06934V15.8159ZM3.44092 15.8159H3.59033V16.3037H3.44092V15.8159Z" fill="white"/>
<path fill-rule="evenodd" clip-rule="evenodd" d="M4.17041 16.1587V16.3081H3.50684V16.1587H4.17041ZM4.21436 15.7764V15.9258H3.79248V15.7764H4.21436Z" fill="white"/>
<path fill-rule="evenodd" clip-rule="evenodd" d="M-0.742676 15.4248H1.41064V15.5698H-0.742676V15.4248ZM-0.421875 16.1631H-0.272461V16.3081H-0.42627L-0.421875 16.1631ZM1.41943 16.1631V16.3081H0.988769V16.1587L1.41943 16.1631ZM1.64795 15.4248H1.79736V16.3037H1.64795V15.4248Z" fill="white"/>
<path fill-rule="evenodd" clip-rule="evenodd" d="M2.50928 16.1587V16.3081H1.69189V16.1587H2.50928ZM0.98877 15.8115H1.13379V16.3081H0.98877V15.8115Z" fill="white"/>
<path fill-rule="evenodd" clip-rule="evenodd" d="M2.38623 15.4248H2.53564V16.3037H2.38623V15.4248ZM2.01709 15.4248H2.16211V16.3037H2.01709V15.4248ZM0.0483398 15.7764V15.9258H-0.742676V15.7764H0.0483398ZM1.77539 15.7764V15.9258H0.984375V15.7764H1.77539Z" fill="white"/>
<path fill-rule="evenodd" clip-rule="evenodd" d="M0.98877 15.8159H1.13379V16.3037H0.98877V15.8159Z" fill="white"/>
<path fill-rule="evenodd" clip-rule="evenodd" d="M0.98877 15.8159H1.13379V16.3037H0.98877V15.8159Z" fill="white"/>
<path fill-rule="evenodd" clip-rule="evenodd" d="M0.98877 15.8159H1.13379V16.3037H0.98877V15.8159ZM-0.738281 15.8159H-0.593262V16.3037H-0.738281V15.8159ZM0.527344 15.8159H0.672363V16.3037H0.527344V15.8159ZM-0.101074 15.8159H0.0483399V16.3037H-0.101074V15.8159Z" fill="white"/>
<path fill-rule="evenodd" clip-rule="evenodd" d="M0.628418 16.1587V16.3081H-0.0307617V16.1587H0.628418ZM0.672363 15.7764V15.9258H0.250488V15.7764H0.672363Z" fill="white"/>
<path fill-rule="evenodd" clip-rule="evenodd" d="M6.31055 15.4248H8.46387V15.5698H6.31055V15.4248ZM6.63135 16.1631H6.78076V16.3081H6.63135V16.1631ZM8.47266 16.1631V16.3081H8.04199V16.1587L8.47266 16.1631ZM8.70557 15.4248H8.85498V16.3037H8.70557V15.4248Z" fill="white"/>
<path fill-rule="evenodd" clip-rule="evenodd" d="M9.5625 16.1587V16.3081H8.74512V16.1587H9.5625ZM8.04199 15.8115H8.19141V16.3081H8.04199V15.8115Z" fill="white"/>
<path fill-rule="evenodd" clip-rule="evenodd" d="M9.43945 15.4248H9.58887V16.3037H9.43945V15.4248ZM9.07031 15.4248H9.21973V16.3037H9.06592L9.07031 15.4248ZM7.10156 15.7764V15.9258H6.31055V15.7764H7.10156ZM8.82861 15.7764V15.9258H8.0376V15.7764H8.82861Z" fill="white"/>
<path fill-rule="evenodd" clip-rule="evenodd" d="M8.04199 15.8159H8.19141V16.3037H8.04199V15.8159Z" fill="white"/>
<path fill-rule="evenodd" clip-rule="evenodd" d="M8.04199 15.8159H8.19141V16.3037H8.04199V15.8159Z" fill="white"/>
<path fill-rule="evenodd" clip-rule="evenodd" d="M8.04199 15.8159H8.19141V16.3037H8.04199V15.8159ZM6.31494 15.8159H6.46436V16.3037H6.31494V15.8159ZM7.58057 15.8159H7.72998V16.3037H7.58057V15.8159ZM6.95215 15.8159H7.10156V16.3037H6.95215V15.8159Z" fill="white"/>
<path fill-rule="evenodd" clip-rule="evenodd" d="M7.68604 16.1587V16.3081H7.01807V16.1587H7.68604ZM7.72998 15.7764V15.9258H7.30811V15.7764H7.72998Z" fill="white"/>
<path fill-rule="evenodd" clip-rule="evenodd" d="M9.84375 15.4248H12.0015V15.5698H9.84814L9.84375 15.4248ZM10.1689 16.1631H10.314V16.3081H10.1689V16.1631ZM12.0059 16.1631V16.3081H11.5752V16.1587L12.0059 16.1631ZM12.2388 15.4248H12.3882V16.3037H12.2388V15.4248Z" fill="white"/>
<path fill-rule="evenodd" clip-rule="evenodd" d="M13.1001 16.1587V16.3081H12.2827V16.1587H13.1001ZM11.5752 15.8115H11.7246V16.3081H11.5752V15.8115Z" fill="white"/>
<path fill-rule="evenodd" clip-rule="evenodd" d="M12.9771 15.4248H13.1265V16.3037H12.9771V15.4248ZM12.6035 15.4248H12.7529V16.3037H12.6035V15.4248ZM10.6348 15.7764V15.9258H9.84814V15.7764H10.6348ZM12.3618 15.7764V15.9258H11.5752V15.7764H12.3618Z" fill="white"/>
<path fill-rule="evenodd" clip-rule="evenodd" d="M11.5752 15.8159H11.7246V16.3037H11.5752V15.8159Z" fill="white"/>
<path fill-rule="evenodd" clip-rule="evenodd" d="M11.5752 15.8159H11.7246V16.3037H11.5752V15.8159Z" fill="white"/>
<path fill-rule="evenodd" clip-rule="evenodd" d="M11.5752 15.8159H11.7246V16.3037H11.5752V15.8159ZM9.84814 15.8159H9.99756V16.3037H9.84814V15.8159ZM11.1138 15.8159H11.2632V16.3037H11.1138V15.8159ZM10.4897 15.8159H10.6348V16.3037H10.4897V15.8159Z" fill="white"/>
<path fill-rule="evenodd" clip-rule="evenodd" d="M11.2192 16.1587V16.3081H10.5557V16.1587H11.2192ZM11.2632 15.7764V15.9258H10.8413V15.7764H11.2632Z" fill="white"/>
<path fill-rule="evenodd" clip-rule="evenodd" d="M13.3945 15.4248H15.5479V15.5698H13.3945V15.4248ZM13.7153 16.1631H13.8647V16.3081H13.7153V16.1631ZM15.5566 16.1631V16.3081H15.126V16.1587L15.5566 16.1631ZM15.7896 15.4248H15.9346V16.3037H15.7896V15.4248Z" fill="white"/>
<path fill-rule="evenodd" clip-rule="evenodd" d="M16.6465 16.1587V16.3081H15.8291V16.1587H16.6465ZM15.126 15.8115H15.2754V16.3081H15.126V15.8115Z" fill="white"/>
<path fill-rule="evenodd" clip-rule="evenodd" d="M16.5234 15.4248H16.6729V16.3037H16.5234V15.4248ZM16.1543 15.4248H16.3037V16.3037H16.1543V15.4248ZM14.1855 15.7764V15.9258H13.3945V15.7764H14.1855ZM15.9126 15.7764V15.9258H15.1216V15.7764H15.9126Z" fill="white"/>
<path fill-rule="evenodd" clip-rule="evenodd" d="M15.126 15.8159H15.2754V16.3037H15.126V15.8159Z" fill="white"/>
<path fill-rule="evenodd" clip-rule="evenodd" d="M15.126 15.8159H15.2754V16.3037H15.126V15.8159Z" fill="white"/>
<path fill-rule="evenodd" clip-rule="evenodd" d="M15.126 15.8159H15.2754V16.3037H15.126V15.8159ZM13.3989 15.8159H13.5439V16.3037H13.3989V15.8159ZM14.6646 15.8159H14.814V16.3037H14.6646V15.8159ZM14.0361 15.8159H14.1855V16.3037H14.0317L14.0361 15.8159Z" fill="white"/>
<path fill-rule="evenodd" clip-rule="evenodd" d="M14.77 16.1587V16.3081H14.1021V16.1587H14.77ZM14.814 15.7764V15.9258H14.3833V15.7764H14.814Z" fill="white"/>
<path fill-rule="evenodd" clip-rule="evenodd" d="M-4.68896 0H34.686V7.3916H-4.68896V0Z" fill="#239F40"/>
<path fill-rule="evenodd" clip-rule="evenodd" d="M16.9629 15.4248H19.1162V15.5698H16.9629V15.4248ZM17.2837 16.1631H17.4331V16.3081H17.2837V16.1631ZM19.125 16.1631V16.3081H18.6899V16.1587L19.125 16.1631ZM19.3579 15.4248H19.5029V16.3037H19.3579V15.4248Z" fill="white"/>
<path fill-rule="evenodd" clip-rule="evenodd" d="M20.2148 16.1587V16.3081H19.3975V16.1587H20.2148ZM18.6943 15.8115H18.8438V16.3081H18.6899L18.6943 15.8115Z" fill="white"/>
<path fill-rule="evenodd" clip-rule="evenodd" d="M20.0962 15.4248H20.2412V16.3037H20.0962V15.4248ZM19.7227 15.4248H19.8721V16.3037H19.7227V15.4248ZM17.7539 15.7764V15.9258H16.9629V15.7764H17.7539ZM19.481 15.7764V15.9258H18.6899V15.7764H19.481Z" fill="white"/>
<path fill-rule="evenodd" clip-rule="evenodd" d="M18.6899 15.8159H18.8438V16.3037H18.6899V15.8159Z" fill="white"/>
<path fill-rule="evenodd" clip-rule="evenodd" d="M18.6899 15.8159H18.8438V16.3037H18.6899V15.8159Z" fill="white"/>
<path fill-rule="evenodd" clip-rule="evenodd" d="M18.6899 15.8159H18.8438V16.3037H18.6899V15.8159ZM16.9673 15.8159H17.1167V16.3037H16.9673V15.8159ZM18.2329 15.8159H18.3823V16.3037H18.2329V15.8159ZM17.6045 15.8159H17.7539V16.3037H17.6045V15.8159Z" fill="white"/>
<path fill-rule="evenodd" clip-rule="evenodd" d="M18.3384 16.1587V16.3081H17.6704V16.1587H18.3384ZM18.3823 15.7764V15.9258H17.9604V15.7764H18.3823Z" fill="white"/>
<path fill-rule="evenodd" clip-rule="evenodd" d="M20.5093 15.4248H22.6626V15.5698H20.5093V15.4248ZM20.8301 16.1631H20.9795V16.3081H20.8301V16.1631ZM22.6758 16.1631V16.3081H22.2407V16.1587L22.6758 16.1631ZM22.9043 15.4248H23.0537V16.3037H22.9043V15.4248Z" fill="white"/>
<path fill-rule="evenodd" clip-rule="evenodd" d="M23.7612 16.1587V16.3081H22.9438V16.1587H23.7612ZM22.2407 15.8115H22.3901V16.3081H22.2407V15.8115Z" fill="white"/>
<path fill-rule="evenodd" clip-rule="evenodd" d="M23.6426 15.4248H23.7876V16.3037H23.6426V15.4248ZM23.269 15.4248H23.4185V16.3037H23.269V15.4248ZM21.3003 15.7764V15.9258H20.5137V15.7764H21.3003ZM23.0273 15.7764V15.9258H22.2407V15.7764H23.0273Z" fill="white"/>
<path fill-rule="evenodd" clip-rule="evenodd" d="M22.2407 15.8159H22.3901V16.3037H22.2407V15.8159Z" fill="white"/>
<path fill-rule="evenodd" clip-rule="evenodd" d="M22.2407 15.8159H22.3901V16.3037H22.2407V15.8159Z" fill="white"/>
<path fill-rule="evenodd" clip-rule="evenodd" d="M22.2407 15.8159H22.3901V16.3037H22.2407V15.8159ZM20.5137 15.8159H20.6631V16.3037H20.5137V15.8159ZM21.7793 15.8159H21.9287V16.3037H21.7793V15.8159ZM21.1509 15.8159H21.3003V16.3037H21.1553L21.1509 15.8159Z" fill="white"/>
<path fill-rule="evenodd" clip-rule="evenodd" d="M21.8848 16.1587V16.3081H21.2212V16.1587H21.8848ZM21.9287 15.7764V15.9258H21.5024V15.7764H21.9287Z" fill="white"/>
<path fill-rule="evenodd" clip-rule="evenodd" d="M24.0601 15.4248H26.2134V15.5698H24.0601V15.4248ZM24.3809 16.1631H24.5303V16.3081H24.3809V16.1631ZM26.2222 16.1631V16.3081H25.7915V16.1587L26.2222 16.1631ZM26.4507 15.4248H26.6001V16.3037H26.4507V15.4248Z" fill="white"/>
<path fill-rule="evenodd" clip-rule="evenodd" d="M27.312 16.1587V16.3081H26.4946V16.1587H27.312ZM25.7871 15.8115H25.9365V16.3081H25.7871V15.8115Z" fill="white"/>
<path fill-rule="evenodd" clip-rule="evenodd" d="M27.189 15.4248H27.3384V16.3037H27.189V15.4248ZM26.8198 15.4248H26.9648V16.3037H26.8198V15.4248ZM24.8511 15.7764V15.9258H24.0601V15.7764H24.8511ZM26.5781 15.7764V15.9258H25.7871V15.7764H26.5781Z" fill="white"/>
<path fill-rule="evenodd" clip-rule="evenodd" d="M25.7915 15.8159H25.9365V16.3037H25.7915V15.8159Z" fill="white"/>
<path fill-rule="evenodd" clip-rule="evenodd" d="M25.7915 15.8159H25.9365V16.3037H25.7915V15.8159Z" fill="white"/>
<path fill-rule="evenodd" clip-rule="evenodd" d="M25.7915 15.8159H25.9365V16.3037H25.7915V15.8159ZM24.0601 15.8159H24.2095V16.3037H24.0601V15.8159ZM25.3301 15.8159H25.4751V16.3037H25.3301V15.8159ZM24.7017 15.8159H24.8511V16.3037H24.7017V15.8159Z" fill="white"/>
<path fill-rule="evenodd" clip-rule="evenodd" d="M25.4312 16.1587V16.3081H24.7676V16.1587H25.4312ZM25.4751 15.7764V15.9258H25.0532V15.7764H25.4751Z" fill="white"/>
<path fill-rule="evenodd" clip-rule="evenodd" d="M27.6284 15.4248H29.7817V15.5698H27.6284V15.4248ZM27.9492 16.1631H28.0986V16.3081H27.9492V16.1631ZM29.7905 16.1631V16.3081H29.3599V16.1587L29.7905 16.1631ZM30.019 15.4248H30.1685V16.3037H30.019V15.4248Z" fill="white"/>
<path fill-rule="evenodd" clip-rule="evenodd" d="M30.8804 16.1587V16.3081H30.063V16.1587H30.8804ZM29.3599 15.8115H29.5049V16.3081H29.3599V15.8115Z" fill="white"/>
<path fill-rule="evenodd" clip-rule="evenodd" d="M30.7573 15.4248H30.9067V16.3037H30.7573V15.4248ZM30.3882 15.4248H30.5332V16.3037H30.3882V15.4248ZM28.4194 15.7764V15.9258H27.6284V15.7764H28.4194ZM30.1465 15.7764V15.9258H29.3555V15.7764H30.1465Z" fill="white"/>
<path fill-rule="evenodd" clip-rule="evenodd" d="M29.3599 15.8159H29.5049V16.3037H29.3599V15.8159Z" fill="white"/>
<path fill-rule="evenodd" clip-rule="evenodd" d="M29.3599 15.8159H29.5049V16.3037H29.3599V15.8159Z" fill="white"/>
<path fill-rule="evenodd" clip-rule="evenodd" d="M29.3599 15.8159H29.5049V16.3037H29.3599V15.8159ZM27.6328 15.8159H27.7778V16.3037H27.6328V15.8159ZM28.8984 15.8159H29.0479V16.3037H28.8984V15.8159ZM28.27 15.8159H28.4194V16.3037H28.27V15.8159Z" fill="white"/>
<path fill-rule="evenodd" clip-rule="evenodd" d="M28.9995 16.1587V16.3081H28.3359V16.1587H28.9995ZM29.0435 15.7764V15.9258H28.6216V15.7764H29.0435Z" fill="white"/>
<path fill-rule="evenodd" clip-rule="evenodd" d="M2.79932 6.30176H4.95264V6.45117H2.79932V6.30176ZM3.12012 7.04883H3.26953V7.18945H3.12012V7.04883ZM4.96143 7.04004V7.18945H4.53076V7.04004H4.96143ZM5.18994 6.30176H5.33936V7.18945H5.18994V6.30176Z" fill="white"/>
<path fill-rule="evenodd" clip-rule="evenodd" d="M6.05127 7.04004V7.18945H5.23389V7.04004H6.05127ZM4.53076 6.69287H4.67139V7.18945H4.52637L4.53076 6.69287Z" fill="white"/>
<path fill-rule="evenodd" clip-rule="evenodd" d="M5.92822 6.30176H6.07764V7.18945H5.92822V6.30176ZM5.55908 6.30176H5.7041V7.18945H5.55908V6.30176ZM3.59033 6.65332V6.80273H2.79932V6.65772L3.59033 6.65332ZM5.31738 6.65332V6.80273H4.52637V6.65772L5.31738 6.65332Z" fill="white"/>
<path fill-rule="evenodd" clip-rule="evenodd" d="M4.53076 6.69287H4.67139V7.18945H4.52637L4.53076 6.69287Z" fill="white"/>
<path fill-rule="evenodd" clip-rule="evenodd" d="M4.53076 6.69287H4.67139V7.18945H4.52637L4.53076 6.69287Z" fill="white"/>
<path fill-rule="evenodd" clip-rule="evenodd" d="M4.53076 6.69287H4.67139V7.18945H4.52637L4.53076 6.69287ZM2.80371 6.69287H2.94873V7.18945H2.80371V6.69287ZM4.06934 6.69287H4.21875V7.18945H4.06934V6.69287ZM3.44092 6.69287H3.59033V7.18945H3.44092V6.69287Z" fill="white"/>
<path fill-rule="evenodd" clip-rule="evenodd" d="M4.17041 7.04004V7.18945H3.50684V7.04004H4.17041ZM4.21436 6.65771V6.80273H3.79248V6.65771H4.21436Z" fill="white"/>
<path fill-rule="evenodd" clip-rule="evenodd" d="M-0.742676 6.30176H1.41064V6.45117H-0.742676V6.30176ZM-0.421875 7.04883H-0.272461V7.18945H-0.42627L-0.421875 7.04883ZM1.41943 7.04004V7.18945H0.988769V7.04004H1.41943ZM1.64795 6.30176H1.79736V7.18945H1.64795V6.30176Z" fill="white"/>
<path fill-rule="evenodd" clip-rule="evenodd" d="M2.50928 7.04004V7.18945H1.69189V7.04004H2.50928ZM0.98877 6.69287H1.13379V7.18945H0.98877V6.69287Z" fill="white"/>
<path fill-rule="evenodd" clip-rule="evenodd" d="M2.38623 6.30176H2.53564V7.18945H2.38623V6.30176ZM2.01709 6.30176H2.16211V7.18945H2.01709V6.30176ZM0.0483398 6.65332V6.80273H-0.742676V6.65772L0.0483398 6.65332ZM1.77539 6.65332V6.80273H0.984375V6.65772L1.77539 6.65332Z" fill="white"/>
<path fill-rule="evenodd" clip-rule="evenodd" d="M0.98877 6.69287H1.13379V7.18945H0.98877V6.69287Z" fill="white"/>
<path fill-rule="evenodd" clip-rule="evenodd" d="M0.98877 6.69287H1.13379V7.18945H0.98877V6.69287Z" fill="white"/>
<path fill-rule="evenodd" clip-rule="evenodd" d="M0.98877 6.69287H1.13379V7.18945H0.98877V6.69287ZM-0.738281 6.69287H-0.593262V7.18945H-0.738281V6.69287ZM0.527344 6.69287H0.672363V7.18945H0.527344V6.69287ZM-0.101074 6.69287H0.0483399V7.18945H-0.101074V6.69287Z" fill="white"/>
<path fill-rule="evenodd" clip-rule="evenodd" d="M0.628418 7.04004V7.18945H-0.0307617V7.04004H0.628418ZM0.672363 6.65771V6.80273H0.250488V6.65771H0.672363Z" fill="white"/>
<path fill-rule="evenodd" clip-rule="evenodd" d="M6.31055 6.30176H8.46387V6.45117H6.31055V6.30176ZM6.63135 7.04883H6.78076V7.18945H6.63135V7.04883ZM8.47266 7.04004V7.18945H8.04199V7.04004H8.47266ZM8.70557 6.30176H8.85498V7.18945H8.70557V6.30176Z" fill="white"/>
<path fill-rule="evenodd" clip-rule="evenodd" d="M9.5625 7.04004V7.18945H8.74512V7.04004H9.5625ZM8.04199 6.69287H8.19141V7.18945H8.04199V6.69287Z" fill="white"/>
<path fill-rule="evenodd" clip-rule="evenodd" d="M9.43945 6.30176H9.58887V7.18945H9.43945V6.30176ZM9.07031 6.30176H9.21973V7.18945H9.06592L9.07031 6.30176ZM7.10156 6.65332V6.80273H6.31055V6.65772L7.10156 6.65332ZM8.82861 6.65332V6.80273H8.0376V6.65772L8.82861 6.65332Z" fill="white"/>
<path fill-rule="evenodd" clip-rule="evenodd" d="M8.04199 6.69287H8.19141V7.18945H8.04199V6.69287Z" fill="white"/>
<path fill-rule="evenodd" clip-rule="evenodd" d="M8.04199 6.69287H8.19141V7.18945H8.04199V6.69287Z" fill="white"/>
<path fill-rule="evenodd" clip-rule="evenodd" d="M8.04199 6.69287H8.19141V7.18945H8.04199V6.69287ZM6.31494 6.69287H6.46436V7.18945H6.31494V6.69287ZM7.58057 6.69287H7.72998V7.18945H7.58057V6.69287ZM6.95215 6.69287H7.10156V7.18945H6.95215V6.69287Z" fill="white"/>
<path fill-rule="evenodd" clip-rule="evenodd" d="M7.68604 7.04004V7.18945H7.01807V7.04004H7.68604ZM7.72998 6.65771V6.80273H7.30811V6.65771H7.72998Z" fill="white"/>
<path fill-rule="evenodd" clip-rule="evenodd" d="M9.84375 6.30176H12.0015V6.45117H9.84814L9.84375 6.30176ZM10.1689 7.04883H10.314V7.18945H10.1689V7.04883ZM12.0059 7.04004V7.18945H11.5752V7.04004H12.0059ZM12.2388 6.30176H12.3882V7.18945H12.2388V6.30176Z" fill="white"/>
<path fill-rule="evenodd" clip-rule="evenodd" d="M13.1001 7.04004V7.18945H12.2827V7.04004H13.1001ZM11.5752 6.69287H11.7246V7.18945H11.5752V6.69287Z" fill="white"/>
<path fill-rule="evenodd" clip-rule="evenodd" d="M12.9771 6.30176H13.1265V7.18945H12.9771V6.30176ZM12.6035 6.30176H12.7529V7.18945H12.6035V6.30176ZM10.6348 6.65332V6.80273H9.84814V6.65772L10.6348 6.65332ZM12.3618 6.65332V6.80273H11.5752V6.65772L12.3618 6.65332Z" fill="white"/>
<path fill-rule="evenodd" clip-rule="evenodd" d="M11.5752 6.69287H11.7246V7.18945H11.5752V6.69287Z" fill="white"/>
<path fill-rule="evenodd" clip-rule="evenodd" d="M11.5752 6.69287H11.7246V7.18945H11.5752V6.69287Z" fill="white"/>
<path fill-rule="evenodd" clip-rule="evenodd" d="M11.5752 6.69287H11.7246V7.18945H11.5752V6.69287ZM9.84814 6.69287H9.99756V7.18945H9.84814V6.69287ZM11.1138 6.69287H11.2632V7.18945H11.1138V6.69287ZM10.4897 6.69287H10.6348V7.18945H10.4897V6.69287Z" fill="white"/>
<path fill-rule="evenodd" clip-rule="evenodd" d="M11.2192 7.04004V7.18945H10.5557V7.04004H11.2192ZM11.2632 6.65771V6.80273H10.8413V6.65771H11.2632Z" fill="white"/>
<path fill-rule="evenodd" clip-rule="evenodd" d="M13.3945 6.30176H15.5479V6.45117H13.3945V6.30176ZM13.7153 7.04883H13.8647V7.18945H13.7153V7.04883ZM15.5566 7.04004V7.18945H15.126V7.04004H15.5566ZM15.7896 6.30176H15.9346V7.18945H15.7896V6.30176Z" fill="white"/>
<path fill-rule="evenodd" clip-rule="evenodd" d="M16.6465 7.04004V7.18945H15.8291V7.04004H16.6465ZM15.126 6.69287H15.2754V7.18945H15.126V6.69287Z" fill="white"/>
<path fill-rule="evenodd" clip-rule="evenodd" d="M16.5234 6.30176H16.6729V7.18945H16.5234V6.30176ZM16.1543 6.30176H16.3037V7.18945H16.1543V6.30176ZM14.1855 6.65332V6.80273H13.3945V6.65772L14.1855 6.65332ZM15.9126 6.65332V6.80273H15.1216V6.65772L15.9126 6.65332Z" fill="white"/>
<path fill-rule="evenodd" clip-rule="evenodd" d="M15.126 6.69287H15.2754V7.18945H15.126V6.69287Z" fill="white"/>
<path fill-rule="evenodd" clip-rule="evenodd" d="M15.126 6.69287H15.2754V7.18945H15.126V6.69287Z" fill="white"/>
<path fill-rule="evenodd" clip-rule="evenodd" d="M15.126 6.69287H15.2754V7.18945H15.126V6.69287ZM13.3989 6.69287H13.5439V7.18945H13.3989V6.69287ZM14.6646 6.69287H14.814V7.18945H14.6646V6.69287ZM14.0361 6.69287H14.1855V7.18945H14.0317L14.0361 6.69287Z" fill="white"/>
<path fill-rule="evenodd" clip-rule="evenodd" d="M14.77 7.04004V7.18945H14.1021V7.04004H14.77ZM14.814 6.65771V6.80273H14.3833V6.65771H14.814Z" fill="white"/>
<path fill-rule="evenodd" clip-rule="evenodd" d="M16.9629 6.30176H19.1162V6.45117H16.9629V6.30176ZM17.2837 7.04883H17.4331V7.18945H17.2837V7.04883ZM19.125 7.04004V7.18945H18.6899V7.04004H19.125ZM19.3579 6.30176H19.5029V7.18945H19.3579V6.30176Z" fill="white"/>
<path fill-rule="evenodd" clip-rule="evenodd" d="M20.2148 7.04004V7.18945H19.3975V7.04004H20.2148ZM18.6943 6.69287H18.8438V7.18945H18.6899L18.6943 6.69287Z" fill="white"/>
<path fill-rule="evenodd" clip-rule="evenodd" d="M20.0962 6.30176H20.2412V7.18945H20.0962V6.30176ZM19.7227 6.30176H19.8721V7.18945H19.7227V6.30176ZM17.7539 6.65332V6.80273H16.9629V6.65772L17.7539 6.65332ZM19.481 6.65332V6.80273H18.6899V6.65772L19.481 6.65332Z" fill="white"/>
<path fill-rule="evenodd" clip-rule="evenodd" d="M18.6899 6.69287H18.8438V7.18945H18.6899V6.69287Z" fill="white"/>
<path fill-rule="evenodd" clip-rule="evenodd" d="M18.6899 6.69287H18.8438V7.18945H18.6899V6.69287Z" fill="white"/>
<path fill-rule="evenodd" clip-rule="evenodd" d="M18.6899 6.69287H18.8438V7.18945H18.6899V6.69287ZM16.9673 6.69287H17.1167V7.18945H16.9673V6.69287ZM18.2329 6.69287H18.3823V7.18945H18.2329V6.69287ZM17.6045 6.69287H17.7539V7.18945H17.6045V6.69287Z" fill="white"/>
<path fill-rule="evenodd" clip-rule="evenodd" d="M18.3384 7.04004V7.18945H17.6704V7.04004H18.3384ZM18.3823 6.65771V6.80273H17.9604V6.65771H18.3823Z" fill="white"/>
<path fill-rule="evenodd" clip-rule="evenodd" d="M20.5093 6.30176H22.6626V6.45117H20.5093V6.30176ZM20.8301 7.04883H20.9795V7.18945H20.8301V7.04883ZM22.6758 7.04004V7.18945H22.2407V7.04004H22.6758ZM22.9043 6.30176H23.0537V7.18945H22.9043V6.30176Z" fill="white"/>
<path fill-rule="evenodd" clip-rule="evenodd" d="M23.7612 7.04004V7.18945H22.9438V7.04004H23.7612ZM22.2407 6.69287H22.3901V7.18945H22.2407V6.69287Z" fill="white"/>
<path fill-rule="evenodd" clip-rule="evenodd" d="M23.6426 6.30176H23.7876V7.18945H23.6426V6.30176ZM23.269 6.30176H23.4185V7.18945H23.269V6.30176ZM21.3003 6.65332V6.80273H20.5137V6.65772L21.3003 6.65332ZM23.0273 6.65332V6.80273H22.2407V6.65772L23.0273 6.65332Z" fill="white"/>
<path fill-rule="evenodd" clip-rule="evenodd" d="M22.2407 6.69287H22.3901V7.18945H22.2407V6.69287Z" fill="white"/>
<path fill-rule="evenodd" clip-rule="evenodd" d="M22.2407 6.69287H22.3901V7.18945H22.2407V6.69287Z" fill="white"/>
<path fill-rule="evenodd" clip-rule="evenodd" d="M22.2407 6.69287H22.3901V7.18945H22.2407V6.69287ZM20.5137 6.69287H20.6631V7.18945H20.5137V6.69287ZM21.7793 6.69287H21.9287V7.18945H21.7793V6.69287ZM21.1509 6.69287H21.3003V7.18945H21.1553L21.1509 6.69287Z" fill="white"/>
<path fill-rule="evenodd" clip-rule="evenodd" d="M21.8848 7.04004V7.18945H21.2212V7.04004H21.8848ZM21.9287 6.65771V6.80273H21.5024V6.65771H21.9287Z" fill="white"/>
<path fill-rule="evenodd" clip-rule="evenodd" d="M24.0601 6.30176H26.2134V6.45117H24.0601V6.30176ZM24.3809 7.04883H24.5303V7.18945H24.3809V7.04883ZM26.2222 7.04004V7.18945H25.7915V7.04004H26.2222ZM26.4507 6.30176H26.6001V7.18945H26.4507V6.30176Z" fill="white"/>
<path fill-rule="evenodd" clip-rule="evenodd" d="M27.312 7.04004V7.18945H26.4946V7.04004H27.312ZM25.7871 6.69287H25.9365V7.18945H25.7871V6.69287Z" fill="white"/>
<path fill-rule="evenodd" clip-rule="evenodd" d="M27.189 6.30176H27.3384V7.18945H27.189V6.30176ZM26.8198 6.30176H26.9648V7.18945H26.8198V6.30176ZM24.8511 6.65332V6.80273H24.0601V6.65772L24.8511 6.65332ZM26.5781 6.65332V6.80273H25.7871V6.65772L26.5781 6.65332Z" fill="white"/>
<path fill-rule="evenodd" clip-rule="evenodd" d="M25.7915 6.69287H25.9365V7.18945H25.7915V6.69287Z" fill="white"/>
<path fill-rule="evenodd" clip-rule="evenodd" d="M25.7915 6.69287H25.9365V7.18945H25.7915V6.69287Z" fill="white"/>
<path fill-rule="evenodd" clip-rule="evenodd" d="M25.7915 6.69287H25.9365V7.18945H25.7915V6.69287ZM24.0601 6.69287H24.2095V7.18945H24.0601V6.69287ZM25.3301 6.69287H25.4751V7.18945H25.3301V6.69287ZM24.7017 6.69287H24.8511V7.18945H24.7017V6.69287Z" fill="white"/>
<path fill-rule="evenodd" clip-rule="evenodd" d="M25.4312 7.04004V7.18945H24.7676V7.04004H25.4312ZM25.4751 6.65771V6.80273H25.0532V6.65771H25.4751Z" fill="white"/>
<path fill-rule="evenodd" clip-rule="evenodd" d="M27.6284 6.30176H29.7817V6.45117H27.6284V6.30176ZM27.9492 7.04883H28.0986V7.18945H27.9492V7.04883ZM29.7905 7.04004V7.18945H29.3599V7.04004H29.7905ZM30.019 6.30176H30.1685V7.18945H30.019V6.30176Z" fill="white"/>
<path fill-rule="evenodd" clip-rule="evenodd" d="M30.8804 7.04004V7.18945H30.063V7.04004H30.8804ZM29.3599 6.69287H29.5049V7.18945H29.3599V6.69287Z" fill="white"/>
<path fill-rule="evenodd" clip-rule="evenodd" d="M30.7573 6.30176H30.9067V7.18945H30.7573V6.30176ZM30.3882 6.30176H30.5332V7.18945H30.3882V6.30176ZM28.4194 6.65332V6.80273H27.6284V6.65772L28.4194 6.65332ZM30.1465 6.65332V6.80273H29.3555V6.65772L30.1465 6.65332Z" fill="white"/>
<path fill-rule="evenodd" clip-rule="evenodd" d="M29.3599 6.69287H29.5049V7.18945H29.3599V6.69287Z" fill="white"/>
<path fill-rule="evenodd" clip-rule="evenodd" d="M29.3599 6.69287H29.5049V7.18945H29.3599V6.69287Z" fill="white"/>
<path fill-rule="evenodd" clip-rule="evenodd" d="M29.3599 6.69287H29.5049V7.18945H29.3599V6.69287ZM27.6328 6.69287H27.7778V7.18945H27.6328V6.69287ZM28.8984 6.69287H29.0479V7.18945H28.8984V6.69287ZM28.27 6.69287H28.4194V7.18945H28.27V6.69287Z" fill="white"/>
<path fill-rule="evenodd" clip-rule="evenodd" d="M28.9995 7.04004V7.18945H28.3359V7.04004H28.9995ZM29.0435 6.65771V6.80273H28.6216V6.65771H29.0435Z" fill="white"/>
<path fill-rule="evenodd" clip-rule="evenodd" d="M0.725098 14.9194H0.98877V15.3809H0.725098V14.9194ZM7.77832 14.9194H8.04199V15.3809H7.77832V14.9194ZM-4.68896 14.9194H-4.42529V15.3809H-4.68896V14.9194ZM-1.10742 14.9194H-0.84375V15.3809H-1.10742V14.9194ZM2.44775 14.9194H2.71143V15.3809H2.44775V14.9194ZM4.20557 14.9194H4.46924V15.3809H4.20557V14.9194ZM6.00293 14.9194H6.2666V15.3809H6.00293V14.9194ZM9.53613 14.9194H9.79981V15.3809H9.53613V14.9194ZM18.457 14.9194H18.7251V15.3809H18.4614L18.457 14.9194ZM11.3335 14.9194H11.5972V15.3809H11.3335V14.9194ZM13.0913 14.9194H13.355V15.3809H13.0913V14.9194ZM14.8711 14.9194H15.1348V15.3809H14.8711V14.9194ZM16.6465 14.9194H16.9102V15.3809H16.6465V14.9194ZM30.8496 14.9194H31.1133V15.3809H30.8496V14.9194ZM20.1841 14.9194H20.4478V15.3809H20.1841V14.9194ZM21.9771 14.9194H22.2407V15.3809H21.9771V14.9194ZM23.792 14.9194H24.0557V15.3809H23.792V14.9194ZM25.4971 14.9194H25.7607V15.3809H25.4971V14.9194ZM27.312 14.9194H27.5757V15.3809H27.312V14.9194ZM29.0874 14.9194H29.3511V15.3809H29.0874V14.9194ZM34.3477 14.9194H34.6113V15.3809H34.3477V14.9194ZM32.6426 14.9194H32.9062V15.3809H32.6426V14.9194ZM-2.90478 14.9194H-2.64111V15.3809H-2.90478V14.9194Z" fill="#D90000"/>
<path fill-rule="evenodd" clip-rule="evenodd" d="M0.725098 7.14551H0.98877V7.60693H0.725098V7.14551ZM7.77832 7.14551H8.04199V7.60693H7.77832V7.14551ZM-4.68896 7.14551H-4.42529V7.60693H-4.68896V7.14551ZM-1.10742 7.14551H-0.84375V7.60693H-1.10742V7.14551ZM2.44775 7.14551H2.71143V7.60693H2.44775V7.14551ZM4.20557 7.14551H4.46924V7.60693H4.20557V7.14551ZM6.00293 7.14551H6.2666V7.60693H6.00293V7.14551ZM9.53613 7.14551H9.79981V7.60693H9.53613V7.14551ZM18.457 7.14551H18.7251V7.60693H18.4614L18.457 7.14551ZM11.3335 7.14551H11.5972V7.60693H11.3335V7.14551ZM13.0913 7.14551H13.355V7.60693H13.0913V7.14551ZM14.8711 7.14551H15.1348V7.60693H14.8711V7.14551ZM16.6465 7.14551H16.9102V7.60693H16.6465V7.14551ZM30.8496 7.14551H31.1133V7.60693H30.8496V7.14551ZM20.1841 7.14551H20.4478V7.60693H20.1841V7.14551ZM21.9771 7.14551H22.2407V7.60693H21.9771V7.14551ZM23.792 7.14551H24.0557V7.60693H23.792V7.14551ZM25.4971 7.14551H25.7607V7.60693H25.4971V7.14551ZM27.312 7.14551H27.5757V7.60693H27.312V7.14551ZM29.0874 7.14551H29.3511V7.60693H29.0874V7.14551ZM34.3477 7.14551H34.6113V7.60693H34.3477V7.14551ZM32.6426 7.14551H32.9062V7.60693H32.6426V7.14551ZM-2.90478 7.14551H-2.64111V7.60693H-2.90478V7.14551Z" fill="#239E3F"/>
<path fill-rule="evenodd" clip-rule="evenodd" d="M16.0445 8.6792C16.4136 9.13623 17.5606 11.6499 15.3545 13.3022C14.313 14.0845 14.959 14.1196 14.9898 14.2515C16.6597 13.3682 17.2002 12.1641 17.187 11.0874C17.1782 10.0151 16.607 9.06592 16.0445 8.6792Z" fill="#DA0000"/>
<path fill-rule="evenodd" clip-rule="evenodd" d="M16.2642 8.56055C16.6719 8.80864 17.0194 9.14425 17.2816 9.54309C17.5437 9.94193 17.7139 10.394 17.78 10.8667C17.846 11.3394 17.8062 11.8209 17.6633 12.2763C17.5205 12.7317 17.2783 13.1497 16.9541 13.5C18.1494 13.2363 19.6787 9.70312 16.2642 8.56055ZM13.7329 8.56055C13.3255 8.80902 12.9784 9.14491 12.7167 9.54393C12.455 9.94295 12.2851 10.3951 12.2195 10.8678C12.1539 11.3405 12.1942 11.8218 12.3373 12.277C12.4805 12.7322 12.723 13.15 13.0474 13.5C11.8477 13.2363 10.3228 9.70312 13.7329 8.56055Z" fill="#DA0000"/>
<path fill-rule="evenodd" clip-rule="evenodd" d="M13.9526 8.6792C13.5835 9.13623 12.4365 11.6499 14.6426 13.3022C15.6797 14.0845 15.0381 14.1196 15.0073 14.2515C13.3374 13.3682 12.7969 12.1641 12.81 11.0874C12.8188 10.0151 13.3901 9.06592 13.9526 8.6792Z" fill="#DA0000"/>
<path fill-rule="evenodd" clip-rule="evenodd" d="M17.1167 14.0229C16.4619 14.0317 15.6401 13.9351 15.0293 13.6143C15.1304 13.812 15.2139 13.9351 15.3149 14.1284C15.895 14.1855 16.6992 14.2515 17.1167 14.0229ZM12.9419 14.0229C13.5967 14.0317 14.4185 13.9351 15.0293 13.6143C14.9282 13.812 14.8447 13.9351 14.7437 14.1284C14.1636 14.1855 13.3594 14.2515 12.9419 14.0229ZM14.1416 7.92773C14.2734 8.2793 14.6206 8.33203 14.9897 8.12549C15.2622 8.28369 15.6797 8.29688 15.8247 7.94531C15.9346 8.81543 15.0205 8.60449 14.9897 8.4375C14.647 8.76709 14.0142 8.57812 14.1416 7.92773Z" fill="#DA0000"/>
<path fill-rule="evenodd" clip-rule="evenodd" d="M15.0161 14.5723L15.3589 14.1768L15.4072 8.89893L14.9985 8.53857L14.5898 8.88135L14.6733 14.1987L15.0161 14.5723Z" fill="#DA0000"/>
</g>
</svg>
