<svg width="5" height="17" viewBox="0 0 5 17" fill="none" xmlns="http://www.w3.org/2000/svg">
<path d="M4.56616 2.76921C4.56616 2.38887 4.45338 2.01708 4.24208 1.70084C4.03077 1.3846 3.73044 1.13812 3.37905 0.992573C3.02767 0.847025 2.64101 0.808942 2.26799 0.883142C1.89496 0.957342 1.55231 1.14049 1.28337 1.40943C1.01443 1.67837 0.831282 2.02102 0.757082 2.39405C0.682882 2.76707 0.720964 3.15373 0.866512 3.50511C1.01206 3.8565 1.25854 4.15683 1.57478 4.36814C1.89102 4.57944 2.26281 4.69222 2.64315 4.69222C3.15316 4.69222 3.64229 4.48962 4.00292 4.12898C4.36356 3.76835 4.56616 3.27922 4.56616 2.76921ZM4.56616 14.3073C4.56616 13.927 4.45338 13.5552 4.24207 13.2389C4.03077 12.9227 3.73044 12.6762 3.37905 12.5307C3.02767 12.3851 2.64101 12.347 2.26798 12.4212C1.89496 12.4954 1.55231 12.6786 1.28337 12.9475C1.01443 13.2165 0.831281 13.5591 0.757081 13.9321C0.682881 14.3052 0.720963 14.6918 0.866512 15.0432C1.01206 15.3946 1.25854 15.6949 1.57478 15.9062C1.89101 16.1175 2.26281 16.2303 2.64315 16.2303C3.15316 16.2303 3.64229 16.0277 4.00292 15.6671C4.36356 15.3064 4.56616 14.8173 4.56616 14.3073ZM4.56616 8.53825C4.56616 8.15792 4.45338 7.78612 4.24208 7.46988C4.03077 7.15365 3.73044 6.90717 3.37905 6.76162C3.02767 6.61607 2.64101 6.57799 2.26799 6.65219C1.89496 6.72639 1.55231 6.90954 1.28337 7.17848C1.01443 7.44741 0.831281 7.79006 0.757081 8.16309C0.682881 8.53612 0.720963 8.92277 0.866512 9.27416C1.01206 9.62554 1.25854 9.92588 1.57478 10.1372C1.89101 10.3485 2.26281 10.4613 2.64315 10.4613C3.15316 10.4613 3.64229 10.2587 4.00292 9.89803C4.36356 9.53739 4.56616 9.04827 4.56616 8.53825Z" fill="white"/>
</svg>
