<svg width="19" height="21" viewBox="0 0 19 21" fill="none" xmlns="http://www.w3.org/2000/svg">
<path d="M9.45645 7.43169L9.45604 7.43169C9.19331 7.43224 8.98441 7.35456 8.81626 7.20509C8.64931 7.05669 8.57016 6.88074 8.57012 6.6653C8.57078 6.45031 8.65002 6.27442 8.8165 6.12592C8.98382 5.97668 9.19265 5.89862 9.45627 5.89859C9.71932 5.89918 9.92857 5.97726 10.0969 6.12636C10.2637 6.27409 10.3428 6.44965 10.3428 6.66514L10.3428 6.66565C10.3433 6.88019 10.2647 7.05571 10.0977 7.20413C9.92953 7.35363 9.72014 7.43169 9.45645 7.43169ZM1.0244 9.63557V9.63552V3.9287L9.45645 1.11802L17.8885 3.9287V9.63552C17.8885 12.016 17.0927 14.1817 15.4934 16.1382C13.904 18.0825 11.8936 19.3296 9.45647 19.8833C7.02005 19.329 5.00961 18.0816 3.41946 16.1372C1.81941 14.1807 1.0237 12.0154 1.0244 9.63557ZM9.40442 18.252L9.45645 18.2667L9.50847 18.252C11.4177 17.7135 12.9973 16.6352 14.2433 15.0227C15.49 13.4094 16.1158 11.6118 16.1158 9.63552V5.10808V4.96996L15.9848 4.92628L9.51705 2.77036L9.45645 2.75016L9.39584 2.77036L2.92808 4.92628L2.79705 4.96996V5.10808V9.63552C2.79705 11.6118 3.42291 13.4094 4.66958 15.0227C5.91561 16.6352 7.49518 17.7135 9.40442 18.252ZM10.3428 9.73133V15.0972H8.57012V9.73133H10.3428Z" fill="#010101" stroke="#FEFEFE" stroke-width="0.383275"/>
</svg>
