<svg width="23" height="18" viewBox="0 0 23 18" fill="none" xmlns="http://www.w3.org/2000/svg">
<path d="M13.7302 8.97304L13.6708 9.00665C12.4997 9.66911 11.7208 10.8607 11.7208 12.22C11.7208 12.6081 11.7844 12.9897 11.908 13.3539C12.0313 13.7131 12.4453 13.9161 12.8343 13.7994L12.8348 13.7993C12.9261 13.7731 13.0109 13.7298 13.0842 13.6719C13.1576 13.6141 13.2181 13.5429 13.2623 13.4627C13.3064 13.3824 13.3334 13.2947 13.3418 13.2045C13.3501 13.1143 13.3396 13.0235 13.3109 12.9372C13.2324 12.7056 13.1927 12.4636 13.1934 12.22C13.1934 12.22 13.1934 12.2199 13.1934 12.2199L13.2413 12.22C13.2413 10.9253 14.3877 9.86962 15.81 9.86962C17.2323 9.86962 18.3799 10.9253 18.3799 12.22C18.3799 12.4106 18.3557 12.5969 18.3074 12.7776L13.7302 8.97304ZM13.7302 8.97304L13.6784 8.92859C13.0625 8.40021 12.6786 7.64725 12.6786 6.81071C12.6786 5.21429 14.0804 3.91981 15.81 3.91981C17.5407 3.91981 18.9413 5.21428 18.9413 6.81071C18.9413 7.64727 18.5575 8.40018 17.9417 8.92632L17.8898 8.9707L17.9492 9.00441C19.1203 9.66909 19.8992 10.8607 19.8992 12.22C19.8992 12.5255 19.8606 12.8264 19.7824 13.1197C19.7326 13.2979 19.6116 13.4507 19.4447 13.5449C19.2776 13.6391 19.0784 13.6666 18.8901 13.6213L18.8892 13.6211C18.7963 13.6006 18.7086 13.5626 18.6314 13.5094C18.5541 13.4562 18.4888 13.3888 18.4391 13.3115C18.3894 13.2341 18.3564 13.1481 18.3417 13.0585C18.3271 12.9691 18.3312 12.8777 18.3537 12.7898L13.7302 8.97304ZM9.39052 12.5147L9.391 12.5147C9.48676 12.5138 9.58174 12.5309 9.67049 12.5651C9.75924 12.5993 9.83996 12.6499 9.9081 12.7138C9.97623 12.7778 10.0304 12.8539 10.0677 12.9377C10.1049 13.0213 10.1246 13.111 10.1256 13.2018C10.1246 13.2926 10.1049 13.3823 10.0677 13.466C10.0304 13.5498 9.97623 13.6258 9.9081 13.6898C9.83996 13.7538 9.75924 13.8043 9.67049 13.8385C9.58174 13.8727 9.48676 13.8898 9.391 13.8889H9.39052H4.59921C4.18934 13.8889 3.86309 13.5782 3.86293 13.2021C3.86395 13.1111 3.88364 13.0212 3.92096 12.9374C3.95831 12.8535 4.01261 12.7774 4.08086 12.7135C4.14911 12.6495 4.22996 12.5989 4.31884 12.5648C4.40772 12.5307 4.50281 12.5136 4.59866 12.5147H4.59921L9.39052 12.5147ZM9.39052 12.4668H4.59921L10.1736 13.2018C10.1725 13.1043 10.1514 13.0079 10.1115 12.9182C10.0716 12.8285 10.0136 12.7472 9.94089 12.6789C9.86818 12.6107 9.78215 12.5568 9.68772 12.5204C9.59328 12.484 9.4923 12.4658 9.39052 12.4668ZM9.39052 8.65805L9.391 8.65804C9.48676 8.65708 9.58174 8.67422 9.67049 8.70841C9.75924 8.74261 9.83996 8.79318 9.9081 8.85713C9.97623 8.92108 10.0304 8.99716 10.0677 9.08095C10.1049 9.16459 10.1246 9.25434 10.1256 9.34511C10.1246 9.43589 10.1049 9.52564 10.0677 9.60927C10.0304 9.69307 9.97623 9.76914 9.9081 9.83309C9.83996 9.89705 9.75924 9.94762 9.67049 9.98181C9.58174 10.016 9.48676 10.0331 9.391 10.0322H9.39052H4.59921C4.18934 10.0322 3.86309 9.72146 3.86293 9.34538C3.86395 9.25443 3.88364 9.1645 3.92096 9.08071C3.95831 8.99685 4.01261 8.92072 4.08086 8.85676C4.14911 8.79279 4.22996 8.74225 4.31884 8.70811C4.40772 8.67397 4.50281 8.65695 4.59866 8.65804H4.59921L9.39052 8.65805ZM9.39052 8.61014H4.59921L10.1736 9.34511C10.1725 9.24758 10.1514 9.1512 10.1115 9.06148C10.0716 8.97176 10.0136 8.89045 9.94089 8.8222C9.86818 8.75395 9.78215 8.70009 9.68772 8.66371C9.59328 8.62732 9.4923 8.60912 9.39052 8.61014ZM9.39052 4.80134L9.391 4.80134C9.48676 4.80038 9.58174 4.81751 9.67049 4.85171C9.75924 4.88591 9.83996 4.93647 9.9081 5.00043C9.97623 5.06438 10.0304 5.14045 10.0677 5.22425C10.1049 5.30788 10.1246 5.39763 10.1256 5.48841C10.1246 5.57919 10.1049 5.66894 10.0677 5.75257C10.0304 5.83637 9.97623 5.91244 9.9081 5.97639C9.83996 6.04035 9.75924 6.09091 9.67049 6.12511C9.58174 6.15931 9.48676 6.17644 9.391 6.17548H9.39052H4.59921C4.18934 6.17548 3.86309 5.86476 3.86293 5.48868C3.86395 5.39773 3.88364 5.3078 3.92096 5.22401C3.95831 5.14014 4.01261 5.06402 4.08086 5.00006C4.14911 4.93609 4.22996 4.88554 4.31884 4.85141C4.40772 4.81727 4.50281 4.80024 4.59866 4.80134H4.59921L9.39052 4.80134ZM9.39052 4.75343H4.59921L10.1736 5.48841C10.1725 5.39088 10.1514 5.2945 10.1115 5.20478C10.0716 5.11505 10.0136 5.03375 9.94089 4.9655C9.86818 4.89725 9.78215 4.84339 9.68772 4.807C9.59328 4.77062 9.4923 4.75241 9.39052 4.75343ZM3.13548 1.62016C2.24614 1.62016 1.52036 2.29661 1.52036 3.13803V14.891C1.52036 15.7325 2.24614 16.4089 3.13548 16.4089H19.8608C20.7502 16.4089 21.4759 15.7325 21.4759 14.891V3.13803C21.4759 2.29661 20.7502 1.62016 19.8608 1.62016H3.13548ZM19.8608 0.247128C21.569 0.247128 22.9485 1.54424 22.9485 3.13803V14.891C22.9485 16.4848 21.569 17.7819 19.8608 17.7819H3.13548C1.42733 17.7819 0.0478178 16.4848 0.0478178 14.891V3.13803C0.0478178 1.54424 1.42733 0.247128 3.13548 0.247128H19.8608ZM17.47 6.81071C17.47 5.97258 16.7257 5.29395 15.81 5.29395C14.8943 5.29395 14.15 5.97145 14.15 6.81071C14.15 7.64884 14.8943 8.32747 15.81 8.32747C16.7257 8.32747 17.47 7.64996 17.47 6.81071Z" fill="#202020" stroke="#F9F9F9" stroke-width="0.0958187"/>
</svg>
