<svg width="15" height="15" viewBox="0 0 15 15" fill="none" xmlns="http://www.w3.org/2000/svg">
<path d="M7.5 11.0937C7.64192 11.0937 7.76054 11.0457 7.85588 10.9499C7.95175 10.854 7.99969 10.7354 7.99969 10.594C7.99969 10.4521 7.95175 10.3332 7.85588 10.2373C7.76054 10.1414 7.64192 10.0935 7.5 10.0935C7.35808 10.0935 7.23946 10.1414 7.14412 10.2373C7.04825 10.3332 7.00031 10.4521 7.00031 10.594C7.00031 10.7354 7.04825 10.854 7.14412 10.9499C7.23946 11.0457 7.35808 11.0937 7.5 11.0937ZM7.09375 8.68787H7.90625V3.75031H7.09375V8.68787ZM4.79681 14L1 10.2105V4.79681L4.7895 1H10.2032L14 4.7895V10.2032L10.2105 14H4.79681ZM5.14375 13.1875H9.85625L13.1875 9.85625V5.14375L9.85625 1.8125H5.14375L1.8125 5.14375V9.85625L5.14375 13.1875Z" fill="black" stroke="black" stroke-width="0.5"/>
</svg>
