<svg width="23" height="24" viewBox="0 0 23 24" fill="none" xmlns="http://www.w3.org/2000/svg">
<path d="M18.2056 11.0605H4.79095C3.73256 11.0605 2.87457 11.9185 2.87457 12.9769V19.6842C2.87457 20.7426 3.73256 21.6006 4.79095 21.6006H18.2056C19.2639 21.6006 20.1219 20.7426 20.1219 19.6842V12.9769C20.1219 11.9185 19.2639 11.0605 18.2056 11.0605Z" stroke="#212936" stroke-width="1.43728" stroke-linecap="round" stroke-linejoin="round"/>
<path d="M6.70731 11.0612V7.22843C6.70731 5.9578 7.21206 4.73921 8.11054 3.84073C9.00901 2.94226 10.2276 2.4375 11.4982 2.4375C12.7689 2.4375 13.9875 2.94226 14.8859 3.84073C15.7844 4.73921 16.2892 5.9578 16.2892 7.22843V11.0612" stroke="#212936" stroke-width="1.43728" stroke-linecap="round" stroke-linejoin="round"/>
</svg>
