<svg width="21" height="21" viewBox="0 0 21 21" fill="none" xmlns="http://www.w3.org/2000/svg">
<mask id="path-1-inside-1_284_10680" fill="white">
<path d="M9.53997 7.6243H11.4563V5.70793H9.53997M10.4982 18.1644C6.27255 18.1644 2.83266 14.7245 2.83266 10.4989C2.83266 6.27326 6.27255 2.83337 10.4982 2.83337C14.7238 2.83337 18.1637 6.27326 18.1637 10.4989C18.1637 14.7245 14.7238 18.1644 10.4982 18.1644ZM10.4982 0.916992C9.23985 0.916992 7.99386 1.16483 6.83134 1.64637C5.66881 2.1279 4.61251 2.8337 3.72275 3.72346C1.92581 5.52041 0.91629 7.95759 0.91629 10.4989C0.91629 13.0401 1.92581 15.4773 3.72275 17.2743C4.61251 18.164 5.66881 18.8698 6.83134 19.3514C7.99386 19.8329 9.23985 20.0807 10.4982 20.0807C13.0394 20.0807 15.4766 19.0712 17.2736 17.2743C19.0705 15.4773 20.08 13.0401 20.08 10.4989C20.08 9.24055 19.8322 7.99456 19.3507 6.83204C18.8691 5.66951 18.1633 4.61321 17.2736 3.72346C16.3838 2.8337 15.3275 2.1279 14.165 1.64637C13.0025 1.16483 11.7565 0.916992 10.4982 0.916992ZM9.53997 15.2898H11.4563V9.54067H9.53997V15.2898Z"/>
</mask>
<path d="M9.53997 7.6243H11.4563V5.70793H9.53997M10.4982 18.1644C6.27255 18.1644 2.83266 14.7245 2.83266 10.4989C2.83266 6.27326 6.27255 2.83337 10.4982 2.83337C14.7238 2.83337 18.1637 6.27326 18.1637 10.4989C18.1637 14.7245 14.7238 18.1644 10.4982 18.1644ZM10.4982 0.916992C9.23985 0.916992 7.99386 1.16483 6.83134 1.64637C5.66881 2.1279 4.61251 2.8337 3.72275 3.72346C1.92581 5.52041 0.91629 7.95759 0.91629 10.4989C0.91629 13.0401 1.92581 15.4773 3.72275 17.2743C4.61251 18.164 5.66881 18.8698 6.83134 19.3514C7.99386 19.8329 9.23985 20.0807 10.4982 20.0807C13.0394 20.0807 15.4766 19.0712 17.2736 17.2743C19.0705 15.4773 20.08 13.0401 20.08 10.4989C20.08 9.24055 19.8322 7.99456 19.3507 6.83204C18.8691 5.66951 18.1633 4.61321 17.2736 3.72346C16.3838 2.8337 15.3275 2.1279 14.165 1.64637C13.0025 1.16483 11.7565 0.916992 10.4982 0.916992ZM9.53997 15.2898H11.4563V9.54067H9.53997V15.2898Z" fill="black"/>
<path d="M11.4563 7.6243V7.91176H11.7438V7.6243H11.4563ZM11.4563 5.70793H11.7438V5.42047H11.4563V5.70793ZM0.91629 10.4989H0.628834H0.91629ZM10.4982 20.0807V20.3682V20.0807ZM9.53997 15.2898H9.25252V15.5773H9.53997V15.2898ZM11.4563 15.2898V15.5773H11.7438V15.2898H11.4563ZM11.4563 9.54067H11.7438V9.25322H11.4563V9.54067ZM9.53997 9.54067V9.25322H9.25252V9.54067H9.53997ZM9.53997 7.91176H11.4563V7.33684H9.53997V7.91176ZM11.7438 7.6243V5.70793H11.1689V7.6243H11.7438ZM11.4563 5.42047H9.53997V5.99538H11.4563V5.42047ZM10.4982 17.8769C6.43131 17.8769 3.12012 14.5657 3.12012 10.4989H2.54521C2.54521 14.8832 6.1138 18.4518 10.4982 18.4518V17.8769ZM3.12012 10.4989C3.12012 6.43201 6.43131 3.12082 10.4982 3.12082V2.54591C6.1138 2.54591 2.54521 6.1145 2.54521 10.4989H3.12012ZM10.4982 3.12082C14.565 3.12082 17.8762 6.43201 17.8762 10.4989H18.4511C18.4511 6.1145 14.8825 2.54591 10.4982 2.54591V3.12082ZM17.8762 10.4989C17.8762 14.5657 14.565 17.8769 10.4982 17.8769V18.4518C14.8825 18.4518 18.4511 14.8832 18.4511 10.4989H17.8762ZM10.4982 0.629536C9.2021 0.629536 7.91873 0.884814 6.72133 1.38079L6.94134 1.91194C8.06899 1.44486 9.2776 1.20445 10.4982 1.20445V0.629536ZM6.72133 1.38079C5.52393 1.87677 4.43594 2.60374 3.51949 3.52019L3.92602 3.92672C4.78908 3.06365 5.81369 2.37903 6.94134 1.91194L6.72133 1.38079ZM3.51949 3.52019C1.66864 5.37105 0.628834 7.88135 0.628834 10.4989H1.20375C1.20375 8.03383 2.18298 5.66976 3.92602 3.92672L3.51949 3.52019ZM0.628834 10.4989C0.628834 13.1164 1.66864 15.6267 3.51949 17.4775L3.92602 17.071C2.18298 15.328 1.20375 12.9639 1.20375 10.4989H0.628834ZM3.51949 17.4775C4.43594 18.394 5.52393 19.1209 6.72133 19.6169L6.94134 19.0858C5.81369 18.6187 4.78908 17.9341 3.92602 17.071L3.51949 17.4775ZM6.72133 19.6169C7.91873 20.1129 9.2021 20.3682 10.4982 20.3682V19.7933C9.2776 19.7933 8.06899 19.5529 6.94134 19.0858L6.72133 19.6169ZM10.4982 20.3682C13.1157 20.3682 15.626 19.3284 17.4768 17.4775L17.0703 17.071C15.3273 18.814 12.9632 19.7933 10.4982 19.7933V20.3682ZM17.4768 17.4775C19.3277 15.6267 20.3675 13.1164 20.3675 10.4989H19.7926C19.7926 12.9639 18.8133 15.328 17.0703 17.071L17.4768 17.4775ZM20.3675 10.4989C20.3675 9.2028 20.1122 7.91943 19.6162 6.72203L19.0851 6.94204C19.5522 8.06969 19.7926 9.2783 19.7926 10.4989H20.3675ZM19.6162 6.72203C19.1202 5.52463 18.3933 4.43665 17.4768 3.52019L17.0703 3.92672C17.9334 4.78978 18.618 5.81439 19.0851 6.94204L19.6162 6.72203ZM17.4768 3.52019C16.5604 2.60374 15.4724 1.87677 14.275 1.38079L14.055 1.91194C15.1826 2.37903 16.2072 3.06365 17.0703 3.92672L17.4768 3.52019ZM14.275 1.38079C13.0776 0.884814 11.7942 0.629536 10.4982 0.629536V1.20445C11.7187 1.20445 12.9273 1.44486 14.055 1.91194L14.275 1.38079ZM9.53997 15.5773H11.4563V15.0023H9.53997V15.5773ZM11.7438 15.2898V9.54067H11.1689V15.2898H11.7438ZM11.4563 9.25322H9.53997V9.82813H11.4563V9.25322ZM9.25252 9.54067V15.2898H9.82743V9.54067H9.25252Z" fill="white" mask="url(#path-1-inside-1_284_10680)"/>
</svg>
