<svg width="23" height="24" viewBox="0 0 23 24" fill="none" xmlns="http://www.w3.org/2000/svg">
<g clip-path="url(#clip0_284_10660)">
<path d="M19.9781 8.66096V8.66105C19.9785 9.94014 19.5006 11.1731 18.6383 12.1179C17.8115 13.0237 16.6886 13.6017 15.4746 13.7501V12.1035C16.1678 11.9788 16.8083 11.6475 17.3111 11.1516C17.8437 10.6264 18.1938 9.94436 18.3102 9.20552C18.4266 8.46669 18.3031 7.71001 17.9577 7.04656C17.631 6.41886 17.122 5.90591 16.4991 5.57425L16.9535 3.98337C17.8289 4.37684 18.5773 5.00872 19.1122 5.80815C19.6771 6.65231 19.9785 7.64524 19.9781 8.66096ZM2.06139 21.4528C2.09848 19.5099 2.8864 17.6545 4.26309 16.2778C5.6737 14.8672 7.58689 14.0748 9.58178 14.0748C11.5767 14.0748 13.4899 14.8672 14.9005 16.2778C16.2772 17.6545 17.0651 19.5099 17.1022 21.4528H15.4729C15.4361 19.942 14.8199 18.5009 13.7487 17.4297C12.6435 16.3245 11.1447 15.7037 9.58178 15.7037C8.0189 15.7037 6.52003 16.3245 5.41491 17.4297C4.34371 18.5009 3.72751 19.942 3.69069 21.4528H2.06139ZM9.58178 12.8291C6.48477 12.8291 3.97639 10.3207 3.97639 7.22373C3.97639 4.12672 6.48477 1.61834 9.58178 1.61834C12.6788 1.61834 15.1872 4.12672 15.1872 7.22373C15.1872 10.3207 12.6788 12.8291 9.58178 12.8291ZM9.58178 11.2002C11.7788 11.2002 13.5583 9.4207 13.5583 7.22373C13.5583 5.02676 11.7788 3.24725 9.58178 3.24725C7.38481 3.24725 5.60531 5.02676 5.60531 7.22373C5.60531 9.4207 7.38481 11.2002 9.58178 11.2002ZM16.9221 16.2819L17.5909 14.796C18.8556 15.3949 19.9291 16.3351 20.6897 17.5119C21.4502 18.6887 21.8666 20.0537 21.8931 21.4528H20.2638C20.2376 20.3676 19.912 19.3096 19.3218 18.3963C18.7316 17.483 17.9007 16.7516 16.9221 16.2819Z" fill="#202020" stroke="#FEFEFE" stroke-width="0.287456"/>
</g>
<defs>
<clipPath id="clip0_284_10660">
<rect width="22.9965" height="22.9965" fill="white" transform="translate(0 0.516602)"/>
</clipPath>
</defs>
</svg>
