<svg width="20" height="20" viewBox="0 0 20 20" fill="none" xmlns="http://www.w3.org/2000/svg">
<g clip-path="url(#clip0_284_10641)">
<path d="M19.1637 11.5146V9.71805V11.5146ZM19.1637 11.5146C19.1641 12.2281 18.9328 12.9224 18.5047 13.4931C18.0766 14.0638 17.4747 14.4801 16.7896 14.6793C16.1046 14.8786 15.3733 14.85 14.7059 14.5979C14.0693 14.3574 13.5236 13.9259 13.1428 13.3638L19.1637 11.5146ZM7.56834 17.5856C9.57252 18.1327 11.7116 17.8664 13.5205 16.8447C13.7039 16.7474 13.9179 16.725 14.1175 16.7821C14.3175 16.8393 14.4874 16.972 14.5915 17.1521C14.6955 17.3322 14.7256 17.5457 14.6753 17.7476C14.6252 17.9489 14.499 18.123 14.3233 18.2332C12.5302 19.2688 10.4475 19.6891 8.39313 19.43C6.33818 19.1709 4.42454 18.2462 2.94453 16.7973C1.46451 15.3483 0.499468 13.4547 0.196814 11.4057C-0.10584 9.3567 0.270531 7.26496 1.26844 5.44998L1.26849 5.44988C2.26915 3.62489 3.84224 2.17966 5.74531 1.33693C7.64838 0.494194 9.7758 0.30074 11.7997 0.786382C13.8235 1.27202 15.6315 2.4098 16.9449 4.02436C18.258 5.63853 19.004 7.63967 19.0678 9.71948V11.5146V11.5147C19.0682 12.2074 18.8437 12.8815 18.4281 13.4356C18.0124 13.9897 17.428 14.3939 16.7629 14.5873C16.0977 14.7808 15.3878 14.753 14.7398 14.5082C14.0918 14.2634 13.5408 13.8149 13.1697 13.23L13.1031 13.125L13.0185 13.2161C12.274 14.018 11.2727 14.5346 10.1877 14.6766C9.10271 14.8186 8.00221 14.577 7.07641 13.9937C6.15061 13.4104 5.4577 12.5219 5.11744 11.4819C4.77718 10.4419 4.81096 9.31574 5.21294 8.298L5.21298 8.2979C5.61346 7.28054 6.35645 6.43484 7.31377 5.90669C8.2711 5.37854 9.38273 5.20106 10.4569 5.40485C11.5311 5.60864 12.5005 6.18093 13.1979 7.02301C13.8952 7.86508 14.2769 8.92414 14.2769 10.0175V11.5146C14.2769 11.9371 14.4447 12.3423 14.7435 12.6411C15.0422 12.9398 15.4474 13.1076 15.8699 13.1076C16.2924 13.1076 16.6976 12.9398 16.9963 12.6411C17.295 12.3423 17.4629 11.9371 17.4629 11.5146L17.4629 9.85818L17.4628 9.85623C17.4349 8.48654 17.0505 7.14779 16.3474 5.972C15.6443 4.79621 14.6468 3.82401 13.4534 3.15129C12.26 2.47856 10.9118 2.12855 9.54185 2.13577C8.22694 2.1427 6.93556 2.47851 5.78497 3.11143V3.10651L5.64048 3.1917C3.85056 4.24711 2.54978 5.9666 2.02112 7.97614C1.49246 9.98567 1.77868 12.1227 2.81752 13.9223C3.85636 15.7218 5.56377 17.0384 7.56834 17.5856ZM12.6719 10.0175C12.6719 9.19792 12.3464 8.41193 11.7668 7.83241C11.1873 7.2529 10.4013 6.92733 9.58178 6.92733C8.76222 6.92733 7.97623 7.2529 7.39671 7.83241C6.8172 8.41193 6.49163 9.19792 6.49163 10.0175C6.49163 10.837 6.8172 11.623 7.39671 12.2025C7.97623 12.7821 8.76222 13.1076 9.58178 13.1076C10.4013 13.1076 11.1873 12.7821 11.7668 12.2025C12.3464 11.623 12.6719 10.837 12.6719 10.0175Z" fill="#323232" stroke="#FEFEFE" stroke-width="0.191637"/>
</g>
<defs>
<clipPath id="clip0_284_10641">
<rect width="19.1637" height="19.1637" fill="white" transform="translate(0 0.435547)"/>
</clipPath>
</defs>
</svg>
