<svg width="20" height="20" viewBox="0 0 20 20" fill="none" xmlns="http://www.w3.org/2000/svg">
<path d="M18.4002 14.8053C18.2438 14.8043 18.0891 14.7711 17.945 14.7075C17.8009 14.6439 17.6702 14.5513 17.5603 14.4349C17.4504 14.3186 17.3635 14.1807 17.3046 14.0292C17.2456 13.8777 17.2158 13.7155 17.2168 13.552V8.41877C17.2168 6.30149 16.4124 4.27092 14.9806 2.77378C13.5488 1.27663 11.6068 0.435547 9.58187 0.435547C7.55695 0.435547 5.61497 1.27663 4.18314 2.77378C2.75131 4.27092 1.94691 6.30149 1.94691 8.41877V13.56C1.94692 13.8889 1.82248 14.2044 1.60077 14.4378C1.37905 14.6711 1.07806 14.8032 0.763495 14.8053C0.561004 14.8053 0.366806 14.8895 0.223623 15.0392C0.0804394 15.1889 0 15.3919 0 15.6037C0 15.8154 0.0804394 16.0185 0.223623 16.1682C0.366806 16.3179 0.561004 16.402 0.763495 16.402H5.84074C6.01597 17.3043 6.48416 18.1156 7.16597 18.6983C7.84778 19.281 8.70129 19.5993 9.58187 19.5993C10.4625 19.5993 11.316 19.281 11.9978 18.6983C12.6796 18.1156 13.1478 17.3043 13.323 16.402H18.4002C18.6027 16.402 18.7969 16.3179 18.9401 16.1682C19.0833 16.0185 19.1637 15.8154 19.1637 15.6037C19.1637 15.3919 19.0833 15.1889 18.9401 15.0392C18.7969 14.8895 18.6027 14.8053 18.4002 14.8053ZM9.58187 17.9986C9.10931 17.9972 8.64872 17.8431 8.26326 17.5572C7.8778 17.2714 7.58633 16.8679 7.42881 16.402H11.7349C11.5774 16.8679 11.2859 17.2714 10.9005 17.5572C10.515 17.8431 10.0544 17.9972 9.58187 17.9986ZM3.20668 14.8053C3.38553 14.4142 3.47691 13.9856 3.4739 13.552V8.41877C3.4739 6.72494 4.11742 5.10049 5.26289 3.90278C6.40835 2.70506 7.96194 2.03219 9.58187 2.03219C11.2018 2.03219 12.7554 2.70506 13.9009 3.90278C15.0463 5.10049 15.6898 6.72494 15.6898 8.41877V13.56C15.688 13.9908 15.7793 14.4166 15.9571 14.8053H3.20668Z" fill="#323232"/>
<path d="M18.4002 14.8053C18.2438 14.8043 18.0891 14.7711 17.945 14.7075C17.8009 14.6439 17.6702 14.5513 17.5603 14.4349C17.4504 14.3186 17.3635 14.1807 17.3046 14.0292C17.2456 13.8777 17.2158 13.7155 17.2168 13.552V8.41877C17.2168 6.30149 16.4124 4.27092 14.9806 2.77378C13.5488 1.27663 11.6068 0.435547 9.58187 0.435547C7.55695 0.435547 5.61497 1.27663 4.18314 2.77378C2.75131 4.27092 1.94691 6.30149 1.94691 8.41877V13.56C1.94692 13.8889 1.82248 14.2044 1.60077 14.4378C1.37905 14.6711 1.07806 14.8032 0.763495 14.8053C0.561004 14.8053 0.366806 14.8895 0.223623 15.0392C0.0804394 15.1889 0 15.3919 0 15.6037C0 15.8154 0.0804394 16.0185 0.223623 16.1682C0.366806 16.3179 0.561004 16.402 0.763495 16.402H5.84074C6.01597 17.3043 6.48416 18.1156 7.16597 18.6983C7.84778 19.281 8.70129 19.5993 9.58187 19.5993C10.4625 19.5993 11.316 19.281 11.9978 18.6983C12.6796 18.1156 13.1478 17.3043 13.323 16.402H18.4002C18.6027 16.402 18.7969 16.3179 18.9401 16.1682C19.0833 16.0185 19.1637 15.8154 19.1637 15.6037C19.1637 15.3919 19.0833 15.1889 18.9401 15.0392C18.7969 14.8895 18.6027 14.8053 18.4002 14.8053ZM9.58187 17.9986C9.10931 17.9972 8.64872 17.8431 8.26326 17.5572C7.8778 17.2714 7.58633 16.8679 7.42881 16.402H11.7349C11.5774 16.8679 11.2859 17.2714 10.9005 17.5572C10.515 17.8431 10.0544 17.9972 9.58187 17.9986ZM3.20668 14.8053C3.38553 14.4142 3.47691 13.9856 3.4739 13.552V8.41877C3.4739 6.72494 4.11742 5.10049 5.26289 3.90278C6.40835 2.70506 7.96194 2.03219 9.58187 2.03219C11.2018 2.03219 12.7554 2.70506 13.9009 3.90278C15.0463 5.10049 15.6898 6.72494 15.6898 8.41877V13.56C15.688 13.9908 15.7793 14.4166 15.9571 14.8053H3.20668Z" stroke="#FEFEFE"/>
</svg>
