<svg width="21" height="20" viewBox="0 0 21 20" fill="none" xmlns="http://www.w3.org/2000/svg">
<path fill-rule="evenodd" clip-rule="evenodd" d="M8.86665 0C4.08019 0 0.199997 3.88019 0.199997 8.66665C0.199997 13.4531 4.08019 17.3333 8.86665 17.3333C13.6531 17.3333 17.5333 13.4531 17.5333 8.66665C17.5333 3.88019 13.6531 0 8.86665 0ZM1.53333 8.66665C1.53333 4.61657 4.81657 1.33333 8.86665 1.33333C12.9167 1.33333 16.2 4.61657 16.2 8.66665C16.2 12.7167 12.9167 16 8.86665 16C4.81657 16 1.53333 12.7167 1.53333 8.66665Z" fill="#6293FF"/>
<path d="M16.4492 15.3064C16.1889 15.0461 15.7668 15.0461 15.5064 15.3064C15.2461 15.5668 15.2461 15.9889 15.5064 16.2492L19.0619 19.8047C19.3222 20.0651 19.7443 20.0651 20.0047 19.8047C20.265 19.5444 20.265 19.1223 20.0047 18.8619L16.4492 15.3064Z" fill="#6293FF"/>
</svg>
