<svg width="14" height="14" viewBox="0 0 14 14" fill="none" xmlns="http://www.w3.org/2000/svg">
<path fill-rule="evenodd" clip-rule="evenodd" d="M11.4482 5.75C11.4482 2.57436 9.02584 0 6.03776 0C3.04968 0 0.627365 2.57436 0.627365 5.75C0.627365 8.92564 3.04968 11.5 6.03776 11.5C7.27721 11.5 8.41932 11.0571 9.33158 10.312L12.2965 13.4623L12.3757 13.5349C12.652 13.7528 13.044 13.7286 13.2946 13.4623C13.5702 13.1694 13.5702 12.6945 13.2946 12.4017L10.3303 9.25057C11.0314 8.28105 11.4482 7.06725 11.4482 5.75ZM2.03875 5.75C2.03875 3.40279 3.82916 1.5 6.03774 1.5C8.24632 1.5 10.0367 3.40279 10.0367 5.75C10.0367 8.09721 8.24632 10 6.03774 10C3.82916 10 2.03875 8.09721 2.03875 5.75Z" fill="black" fill-opacity="0.6"/>
</svg>
