<svg width="24" height="26" viewBox="0 0 24 26" fill="none" xmlns="http://www.w3.org/2000/svg">
<path fill-rule="evenodd" clip-rule="evenodd" d="M22.8363 15.1338C24.3725 14.2803 24.3725 12.071 22.8363 11.2176L4.16993 0.847357C2.51851 -0.0700992 0.542848 1.34301 0.877519 3.20229L2.66252 13.119C2.66927 13.1565 2.66927 13.1949 2.66252 13.2324L0.877516 23.1491C0.542847 25.0084 2.51851 26.4215 4.16993 25.504L22.8363 15.1338ZM21.9039 12.896C22.1233 13.0179 22.1233 13.3335 21.9039 13.4554L3.23749 23.8256C3.00158 23.9567 2.71934 23.7548 2.76715 23.4892L4.45078 14.1357H11.5842C12.1144 14.1357 12.5442 13.7059 12.5442 13.1757C12.5442 12.6455 12.1144 12.2157 11.5842 12.2157H4.45079L2.76715 2.86216C2.71934 2.59655 3.00157 2.39467 3.23749 2.52574L21.9039 12.896Z" fill="#4EACE9"/>
</svg>
