<svg width="19" height="19" viewBox="0 0 19 19" fill="none" xmlns="http://www.w3.org/2000/svg">
<path d="M7.19273 1.7757C7.27896 1.25636 7.72931 0.875 8.25632 0.875H10.7409C11.2679 0.875 11.7182 1.25636 11.8045 1.7757L12.0086 3.00313C12.0689 3.3615 12.3085 3.66045 12.6266 3.83676C12.6975 3.87508 12.7675 3.91629 12.8374 3.95845C13.1479 4.14625 13.5273 4.2047 13.8675 4.07726L15.0336 3.64033C15.2725 3.55046 15.5357 3.54832 15.776 3.6343C16.0164 3.72028 16.2185 3.8888 16.3463 4.10984L17.5881 6.26288C17.7156 6.48394 17.7605 6.74306 17.7149 6.99414C17.6693 7.24522 17.5361 7.47197 17.339 7.63405L16.3779 8.42647C16.0972 8.65644 15.9582 9.01384 15.9649 9.37699C15.9665 9.45843 15.9665 9.53989 15.9649 9.62133C15.9582 9.98352 16.0972 10.34 16.377 10.5699L17.3399 11.3633C17.7462 11.6987 17.8516 12.2774 17.5891 12.7335L16.3453 14.8866C16.2177 15.1076 16.0159 15.2761 15.7757 15.3623C15.5355 15.4484 15.2725 15.4466 15.0336 15.357L13.8675 14.9201C13.5273 14.7927 13.1488 14.8511 12.8364 15.0389C12.767 15.0812 12.6967 15.122 12.6256 15.1616C12.3085 15.3369 12.0689 15.6359 12.0086 15.9942L11.8045 17.2207C11.7182 17.741 11.2679 18.1224 10.7409 18.1224H8.25536C7.72835 18.1224 7.27801 17.741 7.19177 17.2217L6.98768 15.9942C6.92827 15.6359 6.68872 15.3369 6.3706 15.1606C6.29955 15.1214 6.22927 15.0808 6.1598 15.0389C5.84839 14.8511 5.46991 14.7927 5.12879 14.9201L3.96268 15.357C3.72383 15.4466 3.46094 15.4487 3.22075 15.3627C2.98057 15.2767 2.77866 15.1083 2.65092 14.8875L1.40815 12.7345C1.28066 12.5134 1.23572 12.2543 1.28134 12.0032C1.32696 11.7521 1.46018 11.5254 1.65728 11.3633L2.6193 10.5709C2.89909 10.3409 3.03803 9.98352 3.03132 9.62037C3.02982 9.53893 3.02982 9.45747 3.03132 9.37603C3.03803 9.01384 2.89909 8.65739 2.6193 8.42743L1.65728 7.63405C1.46041 7.47202 1.32735 7.24544 1.28174 6.99458C1.23613 6.74372 1.28092 6.4848 1.40815 6.26384L2.65092 4.1108C2.77854 3.88959 2.98055 3.72087 3.22096 3.63471C3.46137 3.54855 3.72456 3.55054 3.96364 3.64033L5.12879 4.07726C5.46991 4.2047 5.84839 4.14625 6.1598 3.95845C6.22879 3.91629 6.2997 3.87508 6.3706 3.8358C6.68872 3.66045 6.92827 3.3615 6.98768 3.00313L7.19273 1.7757V1.7757Z" stroke="#212936" stroke-width="1.43728" stroke-linecap="round" stroke-linejoin="round"/>
<path d="M12.3727 9.49858C12.3727 10.261 12.0699 10.9921 11.5308 11.5312C10.9917 12.0703 10.2605 12.3731 9.49816 12.3731C8.73578 12.3731 8.00462 12.0703 7.46554 11.5312C6.92645 10.9921 6.6236 10.261 6.6236 9.49858C6.6236 8.7362 6.92645 8.00505 7.46554 7.46596C8.00462 6.92688 8.73578 6.62402 9.49816 6.62402C10.2605 6.62402 10.9917 6.92688 11.5308 7.46596C12.0699 8.00505 12.3727 8.7362 12.3727 9.49858V9.49858Z" stroke="#212936" stroke-width="1.43728" stroke-linecap="round" stroke-linejoin="round"/>
</svg>
