<svg width="20" height="21" viewBox="0 0 20 21" fill="none" xmlns="http://www.w3.org/2000/svg">
<path d="M7.43321 2.02333C7.52872 1.47411 8.0275 1.0708 8.61118 1.0708H11.363C11.9467 1.0708 12.4454 1.47411 12.541 2.02333L12.767 3.32141C12.8339 3.7004 13.0992 4.01656 13.4515 4.20301C13.53 4.24355 13.6075 4.28712 13.685 4.33171C14.0288 4.53032 14.4491 4.59213 14.8258 4.45736L16.1173 3.99528C16.382 3.90024 16.6734 3.89798 16.9397 3.98891C17.2059 4.07984 17.4297 4.25805 17.5712 4.49181L18.9466 6.76877C19.0878 7.00255 19.1376 7.27659 19.087 7.54212C19.0365 7.80764 18.889 8.04744 18.6707 8.21885L17.6063 9.05688C17.2953 9.30008 17.1414 9.67805 17.1489 10.0621C17.1506 10.1482 17.1506 10.2344 17.1489 10.3205C17.1414 10.7035 17.2953 11.0805 17.6052 11.3237L18.6717 12.1627C19.1217 12.5174 19.2384 13.1295 18.9477 13.6118L17.5702 15.8888C17.4289 16.1225 17.2053 16.3008 16.9393 16.3919C16.6732 16.483 16.382 16.481 16.1173 16.3863L14.8258 15.9242C14.4491 15.7895 14.0299 15.8513 13.6839 16.0499C13.607 16.0946 13.5291 16.1378 13.4504 16.1796C13.0992 16.365 12.8339 16.6812 12.767 17.0602L12.541 18.3573C12.4454 18.9075 11.9467 19.3108 11.363 19.3108H8.61012C8.02644 19.3108 7.52766 18.9075 7.43215 18.3583L7.2061 17.0602C7.14031 16.6812 6.875 16.365 6.52266 16.1786C6.44397 16.1371 6.36613 16.0942 6.28919 16.0499C5.94429 15.8513 5.5251 15.7895 5.1473 15.9242L3.85577 16.3863C3.59123 16.4811 3.30007 16.4832 3.03405 16.3923C2.76803 16.3014 2.54441 16.1233 2.40293 15.8898L1.0265 13.6128C0.885298 13.379 0.83553 13.105 0.886055 12.8395C0.93658 12.574 1.08412 12.3342 1.30243 12.1627L2.36791 11.3247C2.67779 11.0815 2.83167 10.7035 2.82424 10.3195C2.82258 10.2334 2.82258 10.1472 2.82424 10.0611C2.83167 9.67805 2.67779 9.30109 2.36791 9.05789L1.30243 8.21885C1.08438 8.04749 0.937013 7.80788 0.886496 7.54258C0.835979 7.27728 0.885586 7.00347 1.0265 6.76979L2.40293 4.49283C2.54427 4.25889 2.76801 4.08046 3.03428 3.98934C3.30054 3.89822 3.59204 3.90032 3.85683 3.99528L5.1473 4.45736C5.5251 4.59213 5.94429 4.53032 6.28919 4.33171C6.3656 4.28712 6.44413 4.24355 6.52266 4.202C6.875 4.01656 7.14031 3.7004 7.2061 3.32141L7.43321 2.02333V2.02333Z" stroke="white" stroke-width="1.44" stroke-linecap="round" stroke-linejoin="round"/>
<path d="M13.1703 10.1909C13.1703 10.9971 12.8349 11.7704 12.2378 12.3405C11.6407 12.9106 10.831 13.2309 9.98658 13.2309C9.1422 13.2309 8.33241 12.9106 7.73535 12.3405C7.13828 11.7704 6.80286 10.9971 6.80286 10.1909C6.80286 9.38462 7.13828 8.61138 7.73535 8.04127C8.33241 7.47116 9.1422 7.15088 9.98658 7.15088C10.831 7.15088 11.6407 7.47116 12.2378 8.04127C12.8349 8.61138 13.1703 9.38462 13.1703 10.1909V10.1909Z" stroke="white" stroke-width="1.44" stroke-linecap="round" stroke-linejoin="round"/>
</svg>
