<svg width="18" height="18" viewBox="0 0 18 18" fill="none" xmlns="http://www.w3.org/2000/svg">
<path d="M9.22299 8.07495C9.14035 8.17001 9.09664 8.29276 9.10059 8.41866C9.10454 8.54456 9.15586 8.66433 9.24429 8.75402C9.33272 8.84372 9.45175 8.89674 9.57758 8.90247C9.70341 8.9082 9.82677 8.86623 9.92299 8.78495L16.923 1.78495V5.36495C16.9251 5.49692 16.9784 5.6229 17.0717 5.71622C17.165 5.80955 17.291 5.86289 17.423 5.86495C17.5556 5.86495 17.6828 5.81227 17.7765 5.7185C17.8703 5.62474 17.923 5.49756 17.923 5.36495V0.574951C17.923 0.442343 17.8703 0.315166 17.7765 0.221398C17.6828 0.127629 17.5556 0.0749512 17.423 0.0749512H12.633C12.5004 0.0749512 12.3732 0.127629 12.2794 0.221398C12.1857 0.315166 12.133 0.442343 12.133 0.574951C12.133 0.707559 12.1857 0.834736 12.2794 0.928504C12.3732 1.02227 12.5004 1.07495 12.633 1.07495H16.213L9.22299 8.07495Z" fill="black"/>
<path d="M14.876 17.926H3.12401C2.31534 17.9252 1.54002 17.6036 0.968207 17.0318C0.396393 16.46 0.0747994 15.6846 0.0740051 14.876V3.12397C0.0747994 2.31531 0.396393 1.53999 0.968207 0.968176C1.54002 0.396362 2.31534 0.0747688 3.12401 0.0739746H9.15201C9.28461 0.0739746 9.41179 0.126653 9.50556 0.220421C9.59933 0.314189 9.65201 0.441366 9.65201 0.573975C9.65201 0.706583 9.59933 0.83376 9.50556 0.927528C9.41179 1.0213 9.28461 1.07397 9.15201 1.07397H3.12401C2.58056 1.07477 2.05959 1.291 1.67531 1.67528C1.29104 2.05956 1.0748 2.58052 1.07401 3.12397V14.876C1.0748 15.4194 1.29104 15.9404 1.67531 16.3247C2.05959 16.7089 2.58056 16.9252 3.12401 16.926H14.876C15.4195 16.9252 15.9404 16.7089 16.3247 16.3247C16.709 15.9404 16.9252 15.4194 16.926 14.876V8.84897C16.926 8.71637 16.9787 8.58919 17.0725 8.49542C17.1662 8.40165 17.2934 8.34897 17.426 8.34897C17.5586 8.34897 17.6858 8.40165 17.7796 8.49542C17.8733 8.58919 17.926 8.71637 17.926 8.84897V14.876C17.9252 15.6846 17.6036 16.46 17.0318 17.0318C16.46 17.6036 15.6847 17.9252 14.876 17.926Z" fill="black"/>
</svg>
