<svg width="38" height="24" viewBox="0 0 38 24" fill="none" xmlns="http://www.w3.org/2000/svg">
<path d="M12.4147 0.384766H25.8293C27.3707 0.384766 28.897 0.688372 30.3211 1.27825C31.7452 1.86813 33.0392 2.73273 34.1292 3.82268C35.2191 4.91264 36.0837 6.2066 36.6736 7.6307C37.2635 9.05479 37.5671 10.5811 37.5671 12.1226C37.5671 13.664 37.2635 15.1903 36.6736 16.6144C36.0837 18.0385 35.2191 19.3325 34.1292 20.4224C33.0392 21.5124 31.7452 22.377 30.3211 22.9669C28.897 23.5567 27.3707 23.8603 25.8293 23.8603H12.4147C10.8732 23.8603 9.34691 23.5567 7.92281 22.9669C6.49872 22.377 5.20475 21.5124 4.1148 20.4224C3.02484 19.3325 2.16025 18.0385 1.57037 16.6144C0.980487 15.1903 0.67688 13.664 0.67688 12.1226C0.67688 10.5811 0.980487 9.05479 1.57037 7.6307C2.16025 6.2066 3.02484 4.91264 4.1148 3.82268C5.20475 2.73273 6.49872 1.86813 7.92281 1.27825C9.34691 0.688372 10.8732 0.384766 12.4147 0.384766ZM25.8293 17.153C27.1635 17.153 28.443 16.623 29.3864 15.6796C30.3298 14.7362 30.8598 13.4567 30.8598 12.1226C30.8598 10.7884 30.3298 9.50887 29.3864 8.56547C28.443 7.62207 27.1635 7.09207 25.8293 7.09207C24.4951 7.09207 23.2156 7.62207 22.2722 8.56547C21.3288 9.50887 20.7988 10.7884 20.7988 12.1226C20.7988 13.4567 21.3288 14.7362 22.2722 15.6796C23.2156 16.623 24.4951 17.153 25.8293 17.153Z" fill="#268CEB"/>
</svg>
