<svg width="69" height="69" viewBox="0 0 69 69" fill="none" xmlns="http://www.w3.org/2000/svg">
<mask id="path-1-outside-1_284_6799" maskUnits="userSpaceOnUse" x="0.1521" y="0.0708008" width="69" height="69" fill="black">
<rect fill="white" x="0.1521" y="0.0708008" width="69" height="69"/>
<path fill-rule="evenodd" clip-rule="evenodd" d="M67.3921 34.1908C67.3921 15.8991 52.5638 1.0708 34.2721 1.0708C15.9804 1.0708 1.1521 15.8991 1.1521 34.1908C1.1521 52.4825 15.9804 67.3108 34.2721 67.3108C52.5638 67.3108 67.3921 52.4825 67.3921 34.1908ZM5.95211 34.1908C5.95211 18.5501 18.6314 5.87084 34.2721 5.87084C49.9128 5.87084 62.5921 18.5501 62.5921 34.1908C62.5921 49.8315 49.9128 62.5108 34.2721 62.5108C18.6314 62.5108 5.95211 49.8315 5.95211 34.1908Z"/>
</mask>
<path fill-rule="evenodd" clip-rule="evenodd" d="M67.3921 34.1908C67.3921 15.8991 52.5638 1.0708 34.2721 1.0708C15.9804 1.0708 1.1521 15.8991 1.1521 34.1908C1.1521 52.4825 15.9804 67.3108 34.2721 67.3108C52.5638 67.3108 67.3921 52.4825 67.3921 34.1908ZM5.95211 34.1908C5.95211 18.5501 18.6314 5.87084 34.2721 5.87084C49.9128 5.87084 62.5921 18.5501 62.5921 34.1908C62.5921 49.8315 49.9128 62.5108 34.2721 62.5108C18.6314 62.5108 5.95211 49.8315 5.95211 34.1908Z" fill="white"/>
<path d="M34.2721 2.0308C52.0336 2.0308 66.4321 16.4293 66.4321 34.1908H68.3521C68.3521 15.3689 53.094 0.110801 34.2721 0.110801V2.0308ZM2.1121 34.1908C2.1121 16.4293 16.5106 2.0308 34.2721 2.0308V0.110801C15.4502 0.110801 0.1921 15.3689 0.1921 34.1908H2.1121ZM34.2721 66.3508C16.5106 66.3508 2.1121 51.9523 2.1121 34.1908H0.1921C0.1921 53.0127 15.4502 68.2708 34.2721 68.2708V66.3508ZM66.4321 34.1908C66.4321 51.9523 52.0336 66.3508 34.2721 66.3508V68.2708C53.094 68.2708 68.3521 53.0127 68.3521 34.1908H66.4321ZM34.2721 4.91084C18.1012 4.91084 4.99211 18.0199 4.99211 34.1908H6.91211C6.91211 19.0803 19.1616 6.83084 34.2721 6.83084V4.91084ZM63.5521 34.1908C63.5521 18.0199 50.443 4.91084 34.2721 4.91084V6.83084C49.3826 6.83084 61.6321 19.0803 61.6321 34.1908H63.5521ZM34.2721 63.4708C50.443 63.4708 63.5521 50.3617 63.5521 34.1908H61.6321C61.6321 49.3013 49.3826 61.5508 34.2721 61.5508V63.4708ZM4.99211 34.1908C4.99211 50.3617 18.1012 63.4708 34.2721 63.4708V61.5508C19.1616 61.5508 6.91211 49.3013 6.91211 34.1908H4.99211Z" fill="black" fill-opacity="0.2" mask="url(#path-1-outside-1_284_6799)"/>
</svg>
