<svg width="23" height="23" viewBox="0 0 23 23" fill="none" xmlns="http://www.w3.org/2000/svg">
<path d="M20.122 18.6804H17.9661V17.2431H20.122V5.7449H17.9661V4.30762H20.122C20.5031 4.308 20.8684 4.45955 21.1379 4.72901C21.4073 4.99847 21.5589 5.36382 21.5593 5.7449V17.2431C21.5587 17.6242 21.4071 17.9894 21.1377 18.2588C20.8682 18.5282 20.503 18.6798 20.122 18.6804Z" fill="black"/>
<path d="M16.5286 12.9312C17.3224 12.9312 17.9659 12.2877 17.9659 11.4939C17.9659 10.7001 17.3224 10.0566 16.5286 10.0566C15.7348 10.0566 15.0913 10.7001 15.0913 11.4939C15.0913 12.2877 15.7348 12.9312 16.5286 12.9312Z" fill="black"/>
<path d="M11.4983 12.9312C12.2921 12.9312 12.9356 12.2877 12.9356 11.4939C12.9356 10.7001 12.2921 10.0566 11.4983 10.0566C10.7045 10.0566 10.061 10.7001 10.061 11.4939C10.061 12.2877 10.7045 12.9312 11.4983 12.9312Z" fill="black"/>
<path d="M6.4678 12.9312C7.26159 12.9312 7.90508 12.2877 7.90508 11.4939C7.90508 10.7001 7.26159 10.0566 6.4678 10.0566C5.67401 10.0566 5.03052 10.7001 5.03052 11.4939C5.03052 12.2877 5.67401 12.9312 6.4678 12.9312Z" fill="black"/>
<path d="M5.03046 18.6804H2.87454C2.49346 18.68 2.12811 18.5285 1.85865 18.259C1.58919 17.9896 1.43764 17.6242 1.43726 17.2431V5.7449C1.43764 5.36382 1.58919 4.99847 1.85865 4.72901C2.12811 4.45955 2.49346 4.308 2.87454 4.30762H5.03046V5.7449H2.87454V17.2431H5.03046V18.6804Z" fill="black"/>
</svg>
