<svg width="19" height="19" viewBox="0 0 19 19" fill="none" xmlns="http://www.w3.org/2000/svg">
<path d="M16.7202 5.28223H11.6535V7.88794H16.7202V10.4937H12.6668C12.1293 10.4937 11.6138 10.7682 11.2338 11.2569C10.8537 11.7455 10.6402 12.4083 10.6402 13.0994V15.7051C10.6402 16.3962 10.8537 17.0589 11.2338 17.5476C11.6138 18.0363 12.1293 18.3108 12.6668 18.3108H18.7468V7.88794C18.7468 7.19687 18.5333 6.53409 18.1532 6.04543C17.7732 5.55676 17.2577 5.28223 16.7202 5.28223ZM16.7202 15.7051H12.6668V13.0994H16.7202V15.7051ZM6.58684 0.0708008H2.5335C1.996 0.0708008 1.48051 0.345331 1.10043 0.833997C0.720359 1.32266 0.506836 1.98544 0.506836 2.67651V18.3108H2.5335V11.7965H6.58684V18.3108H8.6135V2.67651C8.6135 1.98544 8.39998 1.32266 8.01991 0.833997C7.63983 0.345331 7.12434 0.0708008 6.58684 0.0708008ZM2.5335 9.1908V2.67651H6.58684V9.1908H2.5335Z" fill="white"/>
</svg>
