<svg width="13" height="13" viewBox="0 0 13 13" fill="none" xmlns="http://www.w3.org/2000/svg">
<path d="M7.01338 7.99944V9.26105C6.37861 9.06789 5.69927 9.00864 5.03238 9.08828C4.3655 9.16792 3.73056 9.38413 3.18087 9.71874C2.63118 10.0533 2.18281 10.4966 1.87339 11.0113C1.56397 11.5259 1.40255 12.097 1.40268 12.6764H4.03418e-07C-0.000324356 11.9393 0.195433 11.2118 0.57227 10.5499C0.949107 9.88789 1.49702 9.30895 2.17402 8.85742C2.85102 8.40589 3.63914 8.09375 4.47798 7.94493C5.31682 7.79611 6.1841 7.81515 7.01338 7.99944ZM5.6107 7.24369C3.28577 7.24369 1.40268 5.62291 1.40268 3.62184C1.40268 1.62077 3.28577 0 5.6107 0C7.93564 0 9.81873 1.62077 9.81873 3.62184C9.81873 5.62291 7.93564 7.24369 5.6107 7.24369ZM5.6107 6.0364C7.16066 6.0364 8.41606 4.95589 8.41606 3.62184C8.41606 2.2878 7.16066 1.20728 5.6107 1.20728C4.06075 1.20728 2.80535 2.2878 2.80535 3.62184C2.80535 4.95589 4.06075 6.0364 5.6107 6.0364ZM10.5201 10.012L12.0076 8.73166L13 9.58521L11.5118 10.8655L12.9993 12.1458L12.0076 13L10.5201 11.7191L9.03253 12.9994L8.04014 12.1458L9.52908 10.8655L8.04154 9.58521L9.03323 8.73106L10.5201 10.012Z" fill="black"/>
</svg>
