<svg width="19" height="18" viewBox="0 0 19 18" fill="none" xmlns="http://www.w3.org/2000/svg">
<path d="M18.24 9.09979C18.2413 8.89105 18.1609 8.69008 18.016 8.53979L17.096 7.58779C17.021 7.51123 16.9313 7.45054 16.8324 7.40931C16.7334 7.36808 16.6272 7.34716 16.52 7.34779C16.3078 7.34779 16.1044 7.43207 15.9543 7.5821C15.8043 7.73213 15.72 7.93562 15.72 8.14779C15.7208 8.35376 15.8011 8.55149 15.944 8.69979L16.328 9.09979L15.776 9.67579C15.1946 10.2704 14.8675 11.0681 14.864 11.8998C14.8518 12.0489 14.8518 12.1987 14.864 12.3478L14.976 13.1478L14.176 13.2838C13.6948 13.3675 13.2391 13.5603 12.8439 13.8473C12.4487 14.1344 12.1245 14.5081 11.896 14.9398L11.52 15.6438L10.792 15.2918C10.3562 15.0788 9.87709 14.9693 9.39202 14.9718C8.90489 14.9739 8.42419 15.0831 7.98402 15.2918L7.26402 15.6438L6.88802 14.9398C6.6628 14.5118 6.34351 14.1405 5.95416 13.8537C5.5648 13.5669 5.1155 13.372 4.64002 13.2838L3.84002 13.1478L3.95202 12.3478C3.96394 12.2014 3.96394 12.0542 3.95202 11.9078C3.95072 11.0772 3.62655 10.2797 3.04802 9.68379L2.55202 9.09979L3.10402 8.52379C3.68548 7.92914 4.01258 7.13147 4.01602 6.29979C4.02823 6.1507 4.02823 6.00087 4.01602 5.85179L3.84002 5.05179L4.64002 4.91579C5.1241 4.83436 5.58297 4.64265 5.9811 4.35549C6.37923 4.06833 6.70597 3.69343 6.93602 3.25979L7.31202 2.55579L8.04002 2.90779C8.47585 3.12076 8.95495 3.23027 9.44002 3.22779C9.92714 3.22571 10.4078 3.11646 10.848 2.90779L11.568 2.55579L11.936 3.24379C12.0049 3.41853 12.1331 3.56345 12.2982 3.65316C12.4632 3.74287 12.6546 3.77164 12.8387 3.73443C13.0228 3.69723 13.188 3.59642 13.3052 3.44967C13.4225 3.30291 13.4844 3.11958 13.48 2.93179C13.4796 2.76866 13.4294 2.60955 13.336 2.47579L12.64 1.09979C12.572 0.972045 12.4706 0.865146 12.3466 0.790479C12.2226 0.715812 12.0807 0.676174 11.936 0.675788C11.8141 0.675289 11.6937 0.702652 11.584 0.755788L10.176 1.45179C9.95294 1.55567 9.71009 1.61025 9.46402 1.61179C9.22041 1.61114 8.97998 1.5565 8.76002 1.45179L7.32002 0.771788C7.13321 0.672577 6.91471 0.651388 6.71231 0.712856C6.50992 0.774323 6.34011 0.913444 6.24002 1.09979L5.52802 2.50779C5.41017 2.71891 5.24601 2.90057 5.04787 3.03913C4.84973 3.17769 4.62276 3.26954 4.38402 3.30779L2.83202 3.57979C2.64418 3.61217 2.47408 3.71055 2.35235 3.85722C2.23062 4.00389 2.16525 4.1892 2.16802 4.37979C2.16405 4.41702 2.16405 4.45456 2.16802 4.49179L2.39202 6.09179C2.39598 6.1664 2.39598 6.24117 2.39202 6.31579C2.3903 6.73163 2.22675 7.13046 1.93602 7.42779L0.864019 8.54779C0.722187 8.69657 0.643066 8.89424 0.643066 9.09979C0.643066 9.30534 0.722187 9.50301 0.864019 9.65179L1.96802 10.7958C2.25391 11.0924 2.41438 11.4878 2.41602 11.8998C2.41998 11.9744 2.41998 12.0492 2.41602 12.1238L2.19202 13.7238C2.18805 13.761 2.18805 13.7986 2.19202 13.8358C2.18925 14.0264 2.25462 14.2117 2.37635 14.3584C2.49808 14.505 2.66818 14.6034 2.85602 14.6358L4.40802 14.9078C4.64676 14.946 4.87373 15.0379 5.07187 15.1764C5.27001 15.315 5.43417 15.4967 5.55202 15.7078L6.24002 17.0998C6.33726 17.2827 6.50165 17.4207 6.6986 17.4849C6.89555 17.549 7.10971 17.5343 7.29602 17.4438L8.70402 16.7478C8.92709 16.6439 9.16994 16.5893 9.41602 16.5878C9.65963 16.5884 9.90006 16.6431 10.12 16.7478L11.536 17.4438C11.6457 17.4969 11.7661 17.5243 11.888 17.5238C12.0408 17.5324 12.1928 17.4971 12.3261 17.4219C12.4594 17.3468 12.5683 17.235 12.64 17.0998L13.376 15.7078C13.4939 15.4967 13.658 15.315 13.8562 15.1764C14.0543 15.0379 14.2813 14.946 14.52 14.9078L16.072 14.6358C16.2599 14.6034 16.43 14.505 16.5517 14.3584C16.6734 14.2117 16.7388 14.0264 16.736 13.8358C16.74 13.7986 16.74 13.761 16.736 13.7238L16.512 12.1238C16.5081 12.0492 16.5081 11.9744 16.512 11.8998C16.5137 11.4839 16.6773 11.0851 16.968 10.7878L18.064 9.65179C18.1896 9.49624 18.2524 9.29932 18.24 9.09979ZM7.60802 7.73179C7.53327 7.65764 7.44461 7.59898 7.34714 7.55917C7.24967 7.51936 7.1453 7.49918 7.04002 7.49979C6.82785 7.49979 6.62436 7.58407 6.47433 7.7341C6.3243 7.88413 6.24002 8.08761 6.24002 8.29979C6.23941 8.40507 6.25959 8.50944 6.2994 8.60691C6.33921 8.70438 6.39787 8.79304 6.47202 8.86779L9.44002 11.8278L17.208 4.06779C17.2822 3.99304 17.3408 3.90438 17.3806 3.80691C17.4204 3.70944 17.4406 3.60507 17.44 3.49979C17.44 3.28761 17.3557 3.08413 17.2057 2.9341C17.0557 2.78407 16.8522 2.69979 16.64 2.69979C16.5347 2.69918 16.4304 2.71936 16.3329 2.75917C16.2354 2.79898 16.1468 2.85764 16.072 2.93179L9.44002 9.57179L7.60802 7.73179Z" fill="#157EFE"/>
</svg>
