<svg width="20" height="19" viewBox="0 0 20 19" fill="none" xmlns="http://www.w3.org/2000/svg">
<path d="M19.1667 9.5001C19.168 9.28267 19.0842 9.07333 18.9333 8.91677L17.975 7.9251C17.8968 7.84536 17.8034 7.78214 17.7004 7.73919C17.5973 7.69625 17.4867 7.67445 17.375 7.67511C17.154 7.67511 16.942 7.7629 16.7857 7.91918C16.6295 8.07546 16.5417 8.28743 16.5417 8.50844C16.5425 8.723 16.6261 8.92896 16.775 9.08344L17.175 9.5001L16.6 10.1001C15.9943 10.7195 15.6536 11.5504 15.65 12.4168C15.6373 12.5721 15.6373 12.7281 15.65 12.8834L15.7667 13.7168L14.9333 13.8584C14.4321 13.9456 13.9574 14.1464 13.5457 14.4454C13.1341 14.7444 12.7963 15.1337 12.5583 15.5834L12.1667 16.3168L11.4083 15.9501C10.9543 15.7283 10.4553 15.6142 9.94999 15.6168C9.44257 15.6189 8.94184 15.7327 8.48333 15.9501L7.73333 16.3168L7.34166 15.5834C7.10706 15.1377 6.77447 14.7508 6.36889 14.4521C5.96331 14.1533 5.49529 13.9503 4.99999 13.8584L4.16666 13.7168L4.28333 12.8834C4.29574 12.7309 4.29574 12.5776 4.28333 12.4251C4.28198 11.5599 3.9443 10.7292 3.34166 10.1084L2.82499 9.5001L3.39999 8.9001C4.00568 8.28068 4.34641 7.44977 4.34999 6.58344C4.36271 6.42814 4.36271 6.27207 4.34999 6.11677L4.16666 5.28344L4.99999 5.14177C5.50425 5.05695 5.98223 4.85725 6.39695 4.55813C6.81168 4.25901 7.15202 3.86848 7.39166 3.41677L7.78333 2.68344L8.54166 3.0501C8.99565 3.27195 9.49471 3.38602 9.99999 3.38344C10.5074 3.38127 11.0081 3.26747 11.4667 3.0501L12.2167 2.68344L12.6 3.4001C12.6718 3.58213 12.8053 3.73309 12.9772 3.82653C13.1492 3.91998 13.3485 3.94995 13.5403 3.91119C13.7321 3.87244 13.9041 3.76743 14.0263 3.61456C14.1484 3.46169 14.2128 3.27072 14.2083 3.0751C14.2079 2.90518 14.1556 2.73944 14.0583 2.6001L13.3333 1.16677C13.2625 1.03371 13.1568 0.922352 13.0277 0.844574C12.8986 0.766796 12.7507 0.725507 12.6 0.725105C12.473 0.724585 12.3476 0.753088 12.2333 0.808438L10.7667 1.53344C10.5343 1.64165 10.2813 1.6985 10.025 1.7001C9.77124 1.69943 9.52078 1.64251 9.29166 1.53344L7.79166 0.825105C7.59707 0.72176 7.36946 0.699688 7.15863 0.763717C6.94781 0.827746 6.77092 0.972664 6.66666 1.16677L5.92499 2.63344C5.80224 2.85335 5.63123 3.04259 5.42484 3.18692C5.21844 3.33125 4.98201 3.42693 4.73333 3.46677L3.11666 3.7501C2.921 3.78384 2.74381 3.88632 2.61701 4.0391C2.4902 4.19188 2.42211 4.38491 2.42499 4.58344C2.42086 4.62222 2.42086 4.66133 2.42499 4.7001L2.65833 6.36677C2.66245 6.44449 2.66245 6.52238 2.65833 6.60011C2.65654 7.03327 2.48617 7.44872 2.18333 7.75844L1.06666 8.92511C0.91892 9.08009 0.836502 9.28599 0.836502 9.5001C0.836502 9.71422 0.91892 9.92012 1.06666 10.0751L2.21666 11.2668C2.51446 11.5757 2.68162 11.9877 2.68333 12.4168C2.68746 12.4945 2.68746 12.5724 2.68333 12.6501L2.44999 14.3168C2.44586 14.3556 2.44586 14.3947 2.44999 14.4334C2.44711 14.632 2.5152 14.825 2.642 14.9778C2.76881 15.1306 2.946 15.233 3.14166 15.2668L4.75833 15.5501C5.00701 15.5899 5.24344 15.6856 5.44984 15.83C5.65623 15.9743 5.82724 16.1635 5.94999 16.3834L6.66666 17.8334C6.76795 18.024 6.93919 18.1678 7.14435 18.2346C7.34951 18.3014 7.57259 18.2861 7.76666 18.1918L9.23333 17.4668C9.4657 17.3586 9.71867 17.3017 9.97499 17.3001C10.2288 17.3008 10.4792 17.3577 10.7083 17.4668L12.1833 18.1918C12.2976 18.2471 12.423 18.2756 12.55 18.2751C12.7091 18.2841 12.8675 18.2473 13.0063 18.169C13.1452 18.0907 13.2587 17.9743 13.3333 17.8334L14.1 16.3834C14.2228 16.1635 14.3938 15.9743 14.6002 15.83C14.8065 15.6856 15.043 15.5899 15.2917 15.5501L16.9083 15.2668C17.104 15.233 17.2812 15.1306 17.408 14.9778C17.5348 14.825 17.6029 14.632 17.6 14.4334C17.6041 14.3947 17.6041 14.3556 17.6 14.3168L17.3667 12.6501C17.3625 12.5724 17.3625 12.4945 17.3667 12.4168C17.3685 11.9836 17.5388 11.5682 17.8417 11.2584L18.9833 10.0751C19.1141 9.91308 19.1795 9.70795 19.1667 9.5001ZM8.09166 8.0751C8.01379 7.99787 7.92145 7.93677 7.81992 7.8953C7.71838 7.85383 7.60967 7.8328 7.49999 7.83344C7.27898 7.83344 7.06702 7.92124 6.91074 8.07752C6.75446 8.2338 6.66666 8.44576 6.66666 8.66677C6.66603 8.77644 6.68705 8.88516 6.72852 8.98669C6.76999 9.08822 6.83109 9.18057 6.90833 9.25844L9.99999 12.3418L18.0917 4.25844C18.1689 4.18057 18.23 4.08822 18.2715 3.98669C18.3129 3.88516 18.334 3.77644 18.3333 3.66677C18.3333 3.44576 18.2455 3.2338 18.0892 3.07752C17.933 2.92124 17.721 2.83344 17.5 2.83344C17.3903 2.8328 17.2816 2.85382 17.1801 2.8953C17.0785 2.93677 16.9862 2.99787 16.9083 3.0751L9.99999 9.99177L8.09166 8.0751Z" fill="#010101"/>
</svg>
