<svg width="18" height="14" viewBox="0 0 18 14" fill="none" xmlns="http://www.w3.org/2000/svg">
<path d="M16.9629 1.75C16.8263 1.74899 16.6909 1.77552 16.5644 1.82807C16.4379 1.88063 16.3228 1.95817 16.2257 2.05625L14.5714 3.71875V2.625C14.5714 1.92881 14.3005 1.26113 13.8183 0.768845C13.336 0.276562 12.682 0 12 0H2.57143C1.88944 0 1.23539 0.276562 0.753154 0.768845C0.270918 1.26113 0 1.92881 0 2.625V11.375C0 12.0712 0.270918 12.7389 0.753154 13.2312C1.23539 13.7234 1.88944 14 2.57143 14H12C12.682 14 13.336 13.7234 13.8183 13.2312C14.3005 12.7389 14.5714 12.0712 14.5714 11.375V10.2812L16.2257 11.97C16.3723 12.1154 16.5575 12.2138 16.7583 12.2529C16.9591 12.292 17.1668 12.2702 17.3556 12.1901C17.5444 12.1101 17.706 11.9753 17.8206 11.8024C17.9351 11.6295 17.9975 11.4262 18 11.2175V2.7825C17.9933 2.50628 17.8811 2.24367 17.6873 2.05076C17.4935 1.85785 17.2335 1.74992 16.9629 1.75ZM12.8571 11.375C12.8571 11.6071 12.7668 11.8296 12.6061 11.9937C12.4453 12.1578 12.2273 12.25 12 12.25H2.57143C2.3441 12.25 2.12608 12.1578 1.96534 11.9937C1.80459 11.8296 1.71429 11.6071 1.71429 11.375V2.625C1.71429 2.39294 1.80459 2.17038 1.96534 2.00628C2.12608 1.84219 2.3441 1.75 2.57143 1.75H12C12.2273 1.75 12.4453 1.84219 12.6061 2.00628C12.7668 2.17038 12.8571 2.39294 12.8571 2.625V11.375ZM16.2857 9.555L15.1371 8.3825C14.7812 8.0141 14.5816 7.51745 14.5816 7C14.5816 6.48255 14.7812 5.9859 15.1371 5.6175L16.2857 4.445V9.555Z" fill="#010101"/>
<path d="M16.9629 1.75C16.8263 1.74899 16.6909 1.77552 16.5644 1.82807C16.4379 1.88063 16.3228 1.95817 16.2257 2.05625L14.5714 3.71875V2.625C14.5714 1.92881 14.3005 1.26113 13.8183 0.768845C13.336 0.276562 12.682 0 12 0H2.57143C1.88944 0 1.23539 0.276562 0.753154 0.768845C0.270918 1.26113 0 1.92881 0 2.625V11.375C0 12.0712 0.270918 12.7389 0.753154 13.2312C1.23539 13.7234 1.88944 14 2.57143 14H12C12.682 14 13.336 13.7234 13.8183 13.2312C14.3005 12.7389 14.5714 12.0712 14.5714 11.375V10.2812L16.2257 11.97C16.3723 12.1154 16.5575 12.2138 16.7583 12.2529C16.9591 12.292 17.1668 12.2702 17.3556 12.1901C17.5444 12.1101 17.706 11.9753 17.8206 11.8024C17.9351 11.6295 17.9975 11.4262 18 11.2175V2.7825C17.9933 2.50628 17.8811 2.24367 17.6873 2.05076C17.4935 1.85785 17.2335 1.74992 16.9629 1.75ZM12.8571 11.375C12.8571 11.6071 12.7668 11.8296 12.6061 11.9937C12.4453 12.1578 12.2273 12.25 12 12.25H2.57143C2.3441 12.25 2.12608 12.1578 1.96534 11.9937C1.80459 11.8296 1.71429 11.6071 1.71429 11.375V2.625C1.71429 2.39294 1.80459 2.17038 1.96534 2.00628C2.12608 1.84219 2.3441 1.75 2.57143 1.75H12C12.2273 1.75 12.4453 1.84219 12.6061 2.00628C12.7668 2.17038 12.8571 2.39294 12.8571 2.625V11.375ZM16.2857 9.555L15.1371 8.3825C14.7812 8.0141 14.5816 7.51745 14.5816 7C14.5816 6.48255 14.7812 5.9859 15.1371 5.6175L16.2857 4.445V9.555Z" stroke="#FEFEFE"/>
</svg>
