<svg width="15" height="15" viewBox="0 0 15 15" fill="none" xmlns="http://www.w3.org/2000/svg">
<path d="M14 7.32357C14.0021 8.57928 13.6183 9.80693 12.8979 10.8487C12.3038 11.711 11.5004 12.4176 10.559 12.9059C9.61749 13.3942 8.56687 13.6493 7.5 13.6486C6.43312 13.6493 5.3825 13.3942 4.44103 12.9059C3.49956 12.4176 2.69624 11.711 2.10211 10.8487C1.53642 10.0282 1.17615 9.09005 1.0502 8.10959C0.924246 7.12913 1.03611 6.13359 1.37682 5.20277C1.71753 4.27196 2.27761 3.43177 3.01216 2.74955C3.74671 2.06734 4.6353 1.56207 5.6067 1.27426C6.57809 0.986453 7.60527 0.924106 8.60589 1.09222C9.60651 1.26033 10.5527 1.65423 11.3687 2.24233C12.1847 2.83043 12.8477 3.59638 13.3047 4.47878C13.7616 5.36118 13.9998 6.33548 14 7.32357Z" stroke="black" stroke-width="1.2"/>
<path d="M8.58332 5.21521C8.58332 5.49479 8.46918 5.76292 8.26602 5.96062C8.06286 6.15832 7.78731 6.26938 7.49999 6.26938V6.97216C7.7371 6.97216 7.97188 6.92672 8.19094 6.83842C8.41 6.75013 8.60905 6.62071 8.77671 6.45756C8.94437 6.29441 9.07737 6.10073 9.1681 5.88756C9.25884 5.6744 9.30554 5.44593 9.30554 5.21521H8.58332ZM7.49999 6.26938C7.21267 6.26938 6.93712 6.15832 6.73396 5.96062C6.53079 5.76292 6.41666 5.49479 6.41666 5.21521H5.69443C5.69443 5.44593 5.74114 5.6744 5.83187 5.88756C5.92261 6.10073 6.05561 6.29441 6.22327 6.45756C6.56188 6.78705 7.02113 6.97216 7.49999 6.97216V6.26938ZM6.41666 5.21521C6.41666 4.93562 6.53079 4.66749 6.73396 4.46979C6.93712 4.2721 7.21267 4.16103 7.49999 4.16103V3.45825C7.02113 3.45825 6.56188 3.64336 6.22327 3.97285C5.88466 4.30234 5.69443 4.74923 5.69443 5.21521H6.41666ZM7.49999 4.16103C7.78731 4.16103 8.06286 4.2721 8.26602 4.46979C8.46918 4.66749 8.58332 4.93562 8.58332 5.21521H9.30554C9.30554 4.74923 9.11532 4.30234 8.77671 3.97285C8.4381 3.64336 7.97885 3.45825 7.49999 3.45825V4.16103ZM2.56433 11.439L2.21766 11.3392L2.16205 11.5227L2.28988 11.6681L2.56433 11.439ZM12.4357 11.439L12.7101 11.6681L12.8379 11.5227L12.7816 11.3392L12.4357 11.439ZM5.33332 9.78329H9.66665V9.08051H5.33332V9.78329ZM5.33332 9.08051C4.63344 9.08063 3.95229 9.3005 3.39109 9.70744C2.82989 10.1144 2.41789 10.6867 2.21766 11.3392L2.91027 11.5395C3.06617 11.0321 3.38615 10.5871 3.82269 10.2707C4.25922 9.95425 4.789 9.78333 5.33332 9.78329V9.08051ZM7.49999 13.2972C6.61402 13.2981 5.73839 13.112 4.93352 12.7516C4.12866 12.3913 3.41372 11.8653 2.83805 11.2099L2.28988 11.6681C2.93342 12.4003 3.73247 12.9879 4.63195 13.3905C5.53143 13.793 6.50993 14.001 7.49999 14V13.2972ZM9.66665 9.78329C10.2111 9.78338 10.7409 9.9544 11.1775 10.2709C11.614 10.5875 11.9339 11.0326 12.0897 11.5402L12.7816 11.3392C12.5814 10.6867 12.1701 10.1144 11.6089 9.70744C11.0477 9.3005 10.3665 9.08063 9.66665 9.08051V9.78329ZM12.1619 11.2099C11.5863 11.8653 10.8713 12.3913 10.0665 12.7516C9.26159 13.112 8.38596 13.2981 7.49999 13.2972V14C8.49005 14.001 9.46855 13.793 10.368 13.3905C11.2675 12.9879 12.0666 12.4003 12.7101 11.6681L12.1619 11.2099Z" fill="black"/>
<path d="M8.58332 5.21521C8.58332 5.49479 8.46918 5.76292 8.26602 5.96062C8.06286 6.15832 7.78731 6.26938 7.49999 6.26938M8.58332 5.21521H9.30554M8.58332 5.21521C8.58332 4.93562 8.46918 4.66749 8.26602 4.46979C8.06286 4.2721 7.78731 4.16103 7.49999 4.16103M7.49999 6.26938V6.97216M7.49999 6.26938C7.21267 6.26938 6.93712 6.15832 6.73396 5.96062C6.53079 5.76292 6.41666 5.49479 6.41666 5.21521M7.49999 6.97216C7.7371 6.97216 7.97188 6.92672 8.19094 6.83842C8.41 6.75013 8.60905 6.62071 8.77671 6.45756C8.94437 6.29441 9.07737 6.10073 9.1681 5.88756C9.25884 5.6744 9.30554 5.44593 9.30554 5.21521M7.49999 6.97216C7.02113 6.97216 6.56188 6.78705 6.22327 6.45756C6.05561 6.29441 5.92261 6.10073 5.83187 5.88756C5.74114 5.6744 5.69443 5.44593 5.69443 5.21521M9.30554 5.21521C9.30554 4.74923 9.11532 4.30234 8.77671 3.97285C8.4381 3.64336 7.97885 3.45825 7.49999 3.45825M6.41666 5.21521H5.69443M6.41666 5.21521C6.41666 4.93562 6.53079 4.66749 6.73396 4.46979C6.93712 4.2721 7.21267 4.16103 7.49999 4.16103M5.69443 5.21521C5.69443 4.74923 5.88466 4.30234 6.22327 3.97285C6.56188 3.64336 7.02113 3.45825 7.49999 3.45825M7.49999 4.16103V3.45825M2.21766 11.3392L2.56433 11.439L2.28988 11.6681M2.21766 11.3392L2.16205 11.5227L2.28988 11.6681M2.21766 11.3392C2.41789 10.6867 2.82989 10.1144 3.39109 9.70744C3.95229 9.3005 4.63344 9.08063 5.33332 9.08051M2.21766 11.3392L2.91027 11.5395C3.06617 11.0321 3.38615 10.5871 3.82269 10.2707C4.25922 9.95425 4.789 9.78333 5.33332 9.78329M2.28988 11.6681L2.83805 11.2099C3.41372 11.8653 4.12866 12.3913 4.93352 12.7516C5.73839 13.112 6.61402 13.2981 7.49999 13.2972M2.28988 11.6681C2.93342 12.4003 3.73247 12.9879 4.63195 13.3905C5.53143 13.793 6.50993 14.001 7.49999 14M12.7101 11.6681L12.4357 11.439L12.7816 11.3392M12.7101 11.6681L12.8379 11.5227L12.7816 11.3392M12.7101 11.6681C12.0666 12.4003 11.2675 12.9879 10.368 13.3905C9.46855 13.793 8.49005 14.001 7.49999 14M12.7101 11.6681L12.1619 11.2099C11.5863 11.8653 10.8713 12.3913 10.0665 12.7516C9.26159 13.112 8.38596 13.2981 7.49999 13.2972M12.7816 11.3392L12.0897 11.5402C11.9339 11.0326 11.614 10.5875 11.1775 10.2709C10.7409 9.9544 10.2111 9.78338 9.66665 9.78329M12.7816 11.3392C12.5814 10.6867 12.1701 10.1144 11.6089 9.70744C11.0477 9.3005 10.3665 9.08063 9.66665 9.08051M5.33332 9.78329H9.66665M5.33332 9.78329V9.08051M9.66665 9.78329V9.08051M9.66665 9.08051H5.33332M7.49999 13.2972V14" stroke="black" stroke-width="0.5"/>
</svg>
