<svg width="19" height="24" viewBox="0 0 19 24" fill="none" xmlns="http://www.w3.org/2000/svg">
<path fill-rule="evenodd" clip-rule="evenodd" d="M12.6666 12V5.33333C12.6666 3.49238 11.1743 2 9.33331 2C7.49236 2 5.99998 3.49238 5.99998 5.33333V12C5.99998 13.8409 7.49236 15.3333 9.33331 15.3333C11.1743 15.3333 12.6666 13.841 12.6666 12ZM9.33331 0C6.3878 0 3.99998 2.38781 3.99998 5.33333V12C3.99998 14.9455 6.3878 17.3333 9.33331 17.3333C12.2788 17.3333 14.6666 14.9455 14.6666 12V5.33333C14.6666 2.38781 12.2788 0 9.33331 0ZM10.3301 21.28C12.439 21.0535 14.4192 20.1134 15.933 18.5997C17.6833 16.8493 18.6666 14.4754 18.6666 12C18.6666 11.4477 18.2189 11 17.6666 11C17.1144 11 16.6666 11.4477 16.6666 12C16.6666 13.9449 15.894 15.8102 14.5188 17.1855C13.1435 18.5607 11.2782 19.3333 9.33331 19.3333C7.38839 19.3333 5.52313 18.5607 4.14786 17.1854C2.7726 15.8102 1.99998 13.9449 1.99998 12C1.99998 11.4477 1.55226 11 0.99998 11C0.447696 11 -2.0204e-05 11.4477 -2.02523e-05 12C-2.04687e-05 14.4754 0.983309 16.8493 2.73365 18.5997C4.2459 20.1119 6.22367 21.0516 8.33014 21.2793L8.33014 23.0001C8.33014 23.5524 8.77785 24.0001 9.33014 24.0001C9.88242 24.0001 10.3301 23.5524 10.3301 23.0001L10.3301 21.28Z" fill="#5B5B5B"/>
</svg>
